%TF.GenerationSoftware,KiCad,Pcbnew,8.0.2-1*%
%TF.CreationDate,2024-06-04T23:34:33+02:00*%
%TF.ProjectId,keyboard,6b657962-6f61-4726-942e-6b696361645f,rev?*%
%TF.SameCoordinates,Original*%
%TF.FileFunction,Copper,L1,Top*%
%TF.FilePolarity,Positive*%
%FSLAX46Y46*%
G04 Gerber Fmt 4.6, Leading zero omitted, Abs format (unit mm)*
G04 Created by KiCad (PCBNEW 8.0.2-1) date 2024-06-04 23:34:33*
%MOMM*%
%LPD*%
G01*
G04 APERTURE LIST*
G04 Aperture macros list*
%AMRoundRect*
0 Rectangle with rounded corners*
0 $1 Rounding radius*
0 $2 $3 $4 $5 $6 $7 $8 $9 X,Y pos of 4 corners*
0 Add a 4 corners polygon primitive as box body*
4,1,4,$2,$3,$4,$5,$6,$7,$8,$9,$2,$3,0*
0 Add four circle primitives for the rounded corners*
1,1,$1+$1,$2,$3*
1,1,$1+$1,$4,$5*
1,1,$1+$1,$6,$7*
1,1,$1+$1,$8,$9*
0 Add four rect primitives between the rounded corners*
20,1,$1+$1,$2,$3,$4,$5,0*
20,1,$1+$1,$4,$5,$6,$7,0*
20,1,$1+$1,$6,$7,$8,$9,0*
20,1,$1+$1,$8,$9,$2,$3,0*%
%AMHorizOval*
0 Thick line with rounded ends*
0 $1 width*
0 $2 $3 position (X,Y) of the first rounded end (center of the circle)*
0 $4 $5 position (X,Y) of the second rounded end (center of the circle)*
0 Add line between two ends*
20,1,$1,$2,$3,$4,$5,0*
0 Add two circle primitives to create the rounded ends*
1,1,$1,$2,$3*
1,1,$1,$4,$5*%
%AMRotRect*
0 Rectangle, with rotation*
0 The origin of the aperture is its center*
0 $1 length*
0 $2 width*
0 $3 Rotation angle, in degrees counterclockwise*
0 Add horizontal line*
21,1,$1,$2,0,0,$3*%
G04 Aperture macros list end*
%TA.AperFunction,ComponentPad*%
%ADD10C,3.800000*%
%TD*%
%TA.AperFunction,ComponentPad*%
%ADD11C,1.800000*%
%TD*%
%TA.AperFunction,ComponentPad*%
%ADD12RoundRect,0.450000X-0.450000X-0.450000X0.450000X-0.450000X0.450000X0.450000X-0.450000X0.450000X0*%
%TD*%
%TA.AperFunction,ComponentPad*%
%ADD13R,1.350000X1.350000*%
%TD*%
%TA.AperFunction,ComponentPad*%
%ADD14O,1.350000X1.350000*%
%TD*%
%TA.AperFunction,ComponentPad*%
%ADD15R,2.000000X2.000000*%
%TD*%
%TA.AperFunction,ComponentPad*%
%ADD16O,2.000000X2.000000*%
%TD*%
%TA.AperFunction,ComponentPad*%
%ADD17C,3.300000*%
%TD*%
%TA.AperFunction,ComponentPad*%
%ADD18RotRect,2.000000X2.000000X330.000000*%
%TD*%
%TA.AperFunction,ComponentPad*%
%ADD19HorizOval,2.000000X0.000000X0.000000X0.000000X0.000000X0*%
%TD*%
%TA.AperFunction,ComponentPad*%
%ADD20RoundRect,0.250000X-0.625000X0.350000X-0.625000X-0.350000X0.625000X-0.350000X0.625000X0.350000X0*%
%TD*%
%TA.AperFunction,ComponentPad*%
%ADD21O,1.750000X1.200000*%
%TD*%
%TA.AperFunction,ComponentPad*%
%ADD22RotRect,2.000000X2.000000X60.000000*%
%TD*%
%TA.AperFunction,ComponentPad*%
%ADD23HorizOval,2.000000X0.000000X0.000000X0.000000X0.000000X0*%
%TD*%
%TA.AperFunction,ComponentPad*%
%ADD24RotRect,2.000000X2.000000X75.000000*%
%TD*%
%TA.AperFunction,ComponentPad*%
%ADD25HorizOval,2.000000X0.000000X0.000000X0.000000X0.000000X0*%
%TD*%
%TA.AperFunction,ComponentPad*%
%ADD26RoundRect,0.250000X-0.350000X-0.625000X0.350000X-0.625000X0.350000X0.625000X-0.350000X0.625000X0*%
%TD*%
%TA.AperFunction,ComponentPad*%
%ADD27O,1.200000X1.750000*%
%TD*%
%TA.AperFunction,ComponentPad*%
%ADD28C,2.000000*%
%TD*%
%TA.AperFunction,ViaPad*%
%ADD29C,0.600000*%
%TD*%
%TA.AperFunction,Conductor*%
%ADD30C,0.200000*%
%TD*%
G04 APERTURE END LIST*
D10*
%TO.P,H1,1*%
%TO.N,N/C*%
X198250000Y-107500000D03*
%TD*%
%TO.P,H2,1*%
%TO.N,N/C*%
X42500000Y-30500000D03*
%TD*%
%TO.P,H3,1*%
%TO.N,N/C*%
X152750000Y-145000000D03*
%TD*%
%TO.P,H6,1*%
%TO.N,N/C*%
X143250000Y-29750000D03*
%TD*%
D11*
%TO.P,U1,1,1*%
%TO.N,B-*%
X182130000Y-32530000D03*
%TO.P,U1,2,0*%
%TO.N,DISPL_CS*%
X182130000Y-35070000D03*
D12*
%TO.P,U1,3,GND*%
%TO.N,GND*%
X182130000Y-37610000D03*
%TO.P,U1,4,GND*%
X182130000Y-40150000D03*
D11*
%TO.P,U1,5,2*%
%TO.N,unconnected-(U1-2-Pad5)*%
X182130000Y-42690000D03*
%TO.P,U1,6,3*%
%TO.N,unconnected-(U1-3-Pad6)*%
X182130000Y-45230000D03*
%TO.P,U1,7,4*%
%TO.N,unconnected-(U1-4-Pad7)*%
X182130000Y-47770000D03*
%TO.P,U1,8,5*%
%TO.N,unconnected-(U1-5-Pad8)*%
X182130000Y-50310000D03*
%TO.P,U1,9,6*%
%TO.N,DISPL_DC*%
X182130000Y-52850000D03*
%TO.P,U1,10,7*%
%TO.N,DISPL_D1_MOSI*%
X182130000Y-55390000D03*
%TO.P,U1,11,8*%
%TO.N,DISPL_D0_SCK*%
X182130000Y-57930000D03*
%TO.P,U1,12,9*%
%TO.N,DISPL_RES*%
X182130000Y-60470000D03*
%TO.P,U1,13,B+*%
%TO.N,SW_B+*%
X197370000Y-32530000D03*
D12*
%TO.P,U1,14,GND*%
%TO.N,GND*%
X197370000Y-35070000D03*
D11*
%TO.P,U1,15,RST*%
%TO.N,RESET*%
X197370000Y-37610000D03*
%TO.P,U1,16,3.3v*%
%TO.N,VCC_3.3V*%
X197370000Y-40150000D03*
%TO.P,U1,17,21*%
%TO.N,Pin_Interrupt*%
X197370000Y-42690000D03*
%TO.P,U1,18,20*%
%TO.N,Pin_7*%
X197370000Y-45230000D03*
%TO.P,U1,19,19*%
%TO.N,Pin_6*%
X197370000Y-47770000D03*
%TO.P,U1,20,18*%
%TO.N,Pin_5*%
X197370000Y-50310000D03*
%TO.P,U1,21,15*%
%TO.N,Pin_4*%
X197370000Y-52850000D03*
%TO.P,U1,22,14*%
%TO.N,Pin_3*%
X197370000Y-55390000D03*
%TO.P,U1,23,16*%
%TO.N,Pin_2*%
X197370000Y-57930000D03*
%TO.P,U1,24,10*%
%TO.N,Pin_1*%
X197370000Y-60470000D03*
%TD*%
D10*
%TO.P,H7,1*%
%TO.N,N/C*%
X203250000Y-30500000D03*
%TD*%
%TO.P,H5,1*%
%TO.N,N/C*%
X42000000Y-126500000D03*
%TD*%
D13*
%TO.P,Display,1,Pin_1*%
%TO.N,GND*%
X187250000Y-68750000D03*
D14*
%TO.P,Display,2,Pin_2*%
%TO.N,VCC_3.3V*%
X189250000Y-68750000D03*
%TO.P,Display,3,Pin_3*%
%TO.N,DISPL_D0_SCK*%
X191250000Y-68750000D03*
%TO.P,Display,4,Pin_4*%
%TO.N,DISPL_D1_MOSI*%
X193250000Y-68750000D03*
%TO.P,Display,5,Pin_5*%
%TO.N,DISPL_RES*%
X195250000Y-68750000D03*
%TO.P,Display,6,Pin_6*%
%TO.N,DISPL_DC*%
X197250000Y-68750000D03*
%TO.P,Display,7,Pin_7*%
%TO.N,DISPL_CS*%
X199250000Y-68750000D03*
%TD*%
D15*
%TO.P,D[3:2]1,1,K*%
%TO.N,Net-(D[1:1]1-K)*%
X100750000Y-61790000D03*
D16*
%TO.P,D[3:2]1,2,A*%
%TO.N,Net-(D[3:2]1-A)*%
X100750000Y-56710000D03*
%TD*%
D17*
%TO.P,SW_[7:2]1,1,1*%
%TO.N,Pin_7*%
X169690000Y-70860000D03*
%TO.P,SW_[7:2]1,2,2*%
%TO.N,Net-(D[7:2]1-A)*%
X172230000Y-77210000D03*
%TD*%
%TO.P,SW_[1:4]1,1,1*%
%TO.N,Pin_1*%
X46770000Y-98460000D03*
%TO.P,SW_[1:4]1,2,2*%
%TO.N,Net-(D[1:4]1-A)*%
X53120000Y-95920000D03*
%TD*%
D15*
%TO.P,D_I_[6:2]1,1,K*%
%TO.N,Pin_Interrupt*%
X200040000Y-84250000D03*
D16*
%TO.P,D_I_[6:2]1,2,A*%
%TO.N,Net-(D[1:5]1-K)*%
X194960000Y-84250000D03*
%TD*%
D15*
%TO.P,D_I[1:2]1,1,K*%
%TO.N,Pin_Interrupt*%
X200540000Y-100500000D03*
D16*
%TO.P,D_I[1:2]1,2,A*%
%TO.N,Net-(DI_[1:1]1-A)*%
X195460000Y-100500000D03*
%TD*%
D15*
%TO.P,D[4:2]1,1,K*%
%TO.N,Net-(D[1:1]1-K)*%
X119500000Y-63540000D03*
D16*
%TO.P,D[4:2]1,2,A*%
%TO.N,Net-(D[4:2]1-A)*%
X119500000Y-58460000D03*
%TD*%
D15*
%TO.P,D[5:1]1,1,K*%
%TO.N,Net-(DI_[1:1]1-A)*%
X137750000Y-42790000D03*
D16*
%TO.P,D[5:1]1,2,A*%
%TO.N,Net-(D[5:1]1-A)*%
X137750000Y-37710000D03*
%TD*%
D15*
%TO.P,D[1:5]1,1,K*%
%TO.N,Net-(D[1:5]1-K)*%
X61540000Y-125540000D03*
D16*
%TO.P,D[1:5]1,2,A*%
%TO.N,Net-(D[1:5]1-A)*%
X61540000Y-120460000D03*
%TD*%
D15*
%TO.P,D[6:2]1,1,K*%
%TO.N,Net-(D[1:1]1-K)*%
X157750000Y-66540000D03*
D16*
%TO.P,D[6:2]1,2,A*%
%TO.N,Net-(D[6:2]1-A)*%
X157750000Y-61460000D03*
%TD*%
D15*
%TO.P,D_I_[2:1]1,1,K*%
%TO.N,Pin_2*%
X185960000Y-97250000D03*
D16*
%TO.P,D_I_[2:1]1,2,A*%
%TO.N,Net-(D[1:1]1-K)*%
X191040000Y-97250000D03*
%TD*%
D17*
%TO.P,SW_[6:1]1,1,1*%
%TO.N,Pin_6*%
X144340000Y-38760000D03*
%TO.P,SW_[6:1]1,2,2*%
%TO.N,Net-(D[6:1]1-A)*%
X150690000Y-36220000D03*
%TD*%
D15*
%TO.P,D_I_[2:2]1,1,K*%
%TO.N,Pin_Interrupt*%
X200540000Y-97250000D03*
D16*
%TO.P,D_I_[2:2]1,2,A*%
%TO.N,Net-(D[1:1]1-K)*%
X195460000Y-97250000D03*
%TD*%
D15*
%TO.P,D[5:2]1,1,K*%
%TO.N,Net-(D[1:1]1-K)*%
X139000000Y-66290000D03*
D16*
%TO.P,D[5:2]1,2,A*%
%TO.N,Net-(D[5:2]1-A)*%
X139000000Y-61210000D03*
%TD*%
D17*
%TO.P,SW_[2:4]1,1,1*%
%TO.N,Pin_2*%
X68110000Y-98460000D03*
%TO.P,SW_[2:4]1,2,2*%
%TO.N,Net-(D[2:4]1-A)*%
X74460000Y-95920000D03*
%TD*%
%TO.P,SW_[2:5]1,1,1*%
%TO.N,Pin_2*%
X68054800Y-117390500D03*
%TO.P,SW_[2:5]1,2,2*%
%TO.N,Net-(D[2:5]1-A)*%
X74404800Y-114850500D03*
%TD*%
D15*
%TO.P,D_I_[4:1]1,1,K*%
%TO.N,Pin_4*%
X185710000Y-90750000D03*
D16*
%TO.P,D_I_[4:1]1,2,A*%
%TO.N,Net-(D[1:3]1-K)*%
X190790000Y-90750000D03*
%TD*%
D17*
%TO.P,SW_[1:3]1,1,1*%
%TO.N,Pin_1*%
X46690000Y-79210000D03*
%TO.P,SW_[1:3]1,2,2*%
%TO.N,Net-(D[1:3]1-A)*%
X53040000Y-76670000D03*
%TD*%
D15*
%TO.P,D[6:1]1,1,K*%
%TO.N,Net-(DI_[1:1]1-A)*%
X157500000Y-43290000D03*
D16*
%TO.P,D[6:1]1,2,A*%
%TO.N,Net-(D[6:1]1-A)*%
X157500000Y-38210000D03*
%TD*%
D15*
%TO.P,D[4:5]1,1,K*%
%TO.N,Net-(D[1:5]1-K)*%
X119250000Y-120540000D03*
D16*
%TO.P,D[4:5]1,2,A*%
%TO.N,Net-(D[4:5]1-A)*%
X119250000Y-115460000D03*
%TD*%
D18*
%TO.P,D[7:3]1,1,K*%
%TO.N,Net-(D[1:3]1-K)*%
X163300296Y-111230000D03*
D19*
%TO.P,D[7:3]1,2,A*%
%TO.N,Net-(D[7:3]1-A)*%
X167699705Y-113770000D03*
%TD*%
D17*
%TO.P,SW_[6:5]1,1,1*%
%TO.N,Pin_6*%
X156770444Y-121145295D03*
%TO.P,SW_[6:5]1,2,2*%
%TO.N,Net-(D[6:5]1-A)*%
X163539705Y-122120591D03*
%TD*%
%TO.P,SW_[2:2]1,1,1*%
%TO.N,Pin_2*%
X68054800Y-60210000D03*
%TO.P,SW_[2:2]1,2,2*%
%TO.N,Net-(D[2:2]1-A)*%
X74404800Y-57670000D03*
%TD*%
D20*
%TO.P,Battery1,1,Pin_1*%
%TO.N,B+*%
X50000000Y-31750000D03*
D21*
%TO.P,Battery1,2,Pin_2*%
%TO.N,B-*%
X50000000Y-33750000D03*
%TD*%
D17*
%TO.P,SW_[4:3]1,1,1*%
%TO.N,Pin_4*%
X106254800Y-72090500D03*
%TO.P,SW_[4:3]1,2,2*%
%TO.N,Net-(D[4:3]1-A)*%
X112604800Y-69550500D03*
%TD*%
D15*
%TO.P,D[1:1]1,1,K*%
%TO.N,Net-(D[1:1]1-K)*%
X59540000Y-52750000D03*
D16*
%TO.P,D[1:1]1,2,A*%
%TO.N,Net-(D[1:1]1-A)*%
X54460000Y-52750000D03*
%TD*%
D15*
%TO.P,D[4:1]1,1,K*%
%TO.N,Net-(DI_[1:1]1-A)*%
X119540000Y-46000000D03*
D16*
%TO.P,D[4:1]1,2,A*%
%TO.N,Net-(D[4:1]1-A)*%
X114460000Y-46000000D03*
%TD*%
D15*
%TO.P,D[2:4]1,1,K*%
%TO.N,Net-(D[1:4]1-K)*%
X81250000Y-107540000D03*
D16*
%TO.P,D[2:4]1,2,A*%
%TO.N,Net-(D[2:4]1-A)*%
X81250000Y-102460000D03*
%TD*%
%TO.P,D[1:4]1,2,A*%
%TO.N,Net-(D[1:4]1-A)*%
X60000000Y-102460000D03*
D15*
%TO.P,D[1:4]1,1,K*%
%TO.N,Net-(D[1:4]1-K)*%
X60000000Y-107540000D03*
%TD*%
D22*
%TO.P,D[6:5]1,1,K*%
%TO.N,Net-(D[1:4]1-K)*%
X162980000Y-136949705D03*
D23*
%TO.P,D[6:5]1,2,A*%
%TO.N,Net-(D[6:5]1-A)*%
X165520000Y-132550296D03*
%TD*%
D17*
%TO.P,SW_[6:4]1,1,1*%
%TO.N,Pin_6*%
X144340000Y-95910000D03*
%TO.P,SW_[6:4]1,2,2*%
%TO.N,Net-(D[6:4]1-A)*%
X150690000Y-93370000D03*
%TD*%
%TO.P,SW_[5:5]1,1,1*%
%TO.N,Pin_5*%
X132070323Y-114795649D03*
%TO.P,SW_[5:5]1,2,2*%
%TO.N,Net-(D[5:5]1-A)*%
X138861354Y-113985696D03*
%TD*%
D15*
%TO.P,D[6:4]1,1,K*%
%TO.N,Net-(D[1:3]1-K)*%
X159000000Y-102790000D03*
D16*
%TO.P,D[6:4]1,2,A*%
%TO.N,Net-(D[6:4]1-A)*%
X159000000Y-97710000D03*
%TD*%
D17*
%TO.P,SW_[7:3]1,1,1*%
%TO.N,Pin_7*%
X168721044Y-100405295D03*
%TO.P,SW_[7:3]1,2,2*%
%TO.N,Net-(D[7:3]1-A)*%
X175490305Y-101380591D03*
%TD*%
%TO.P,SW_[3:1]1,1,1*%
%TO.N,Pin_3*%
X87190000Y-36410600D03*
%TO.P,SW_[3:1]1,2,2*%
%TO.N,Net-(D[3:1]1-A)*%
X93540000Y-33870600D03*
%TD*%
D15*
%TO.P,D_I_[5:1]1,1,K*%
%TO.N,Pin_5*%
X185710000Y-87500000D03*
D16*
%TO.P,D_I_[5:1]1,2,A*%
%TO.N,Net-(D[1:4]1-K)*%
X190790000Y-87500000D03*
%TD*%
D17*
%TO.P,SW_[6:2]1,1,1*%
%TO.N,Pin_6*%
X144340000Y-57810000D03*
%TO.P,SW_[6:2]1,2,2*%
%TO.N,Net-(D[6:2]1-A)*%
X150690000Y-55270000D03*
%TD*%
D15*
%TO.P,D[5:4]1,1,K*%
%TO.N,Net-(D[1:3]1-K)*%
X138500000Y-104040000D03*
D16*
%TO.P,D[5:4]1,2,A*%
%TO.N,Net-(D[5:4]1-A)*%
X138500000Y-98960000D03*
%TD*%
D24*
%TO.P,D[5:5]1,1,K*%
%TO.N,Net-(D[1:5]1-K)*%
X143342600Y-127703452D03*
D25*
%TO.P,D[5:5]1,2,A*%
%TO.N,Net-(D[5:5]1-A)*%
X144657401Y-122796549D03*
%TD*%
D15*
%TO.P,D[1:2]1,1,K*%
%TO.N,Net-(D[1:2]1-K)*%
X59750000Y-70790000D03*
D16*
%TO.P,D[1:2]1,2,A*%
%TO.N,Net-(D[1:2]1-A)*%
X59750000Y-65710000D03*
%TD*%
D15*
%TO.P,D[2:3]1,1,K*%
%TO.N,Net-(D[1:3]1-K)*%
X81000000Y-88540000D03*
D16*
%TO.P,D[2:3]1,2,A*%
%TO.N,Net-(D[2:3]1-A)*%
X81000000Y-83460000D03*
%TD*%
D17*
%TO.P,SW_[5:3]1,1,1*%
%TO.N,Pin_5*%
X125290000Y-74510000D03*
%TO.P,SW_[5:3]1,2,2*%
%TO.N,Net-(D[5:3]1-A)*%
X131640000Y-71970000D03*
%TD*%
D15*
%TO.P,D[2:2]1,1,K*%
%TO.N,Net-(D[1:2]1-K)*%
X81500000Y-68790000D03*
D16*
%TO.P,D[2:2]1,2,A*%
%TO.N,Net-(D[2:2]1-A)*%
X81500000Y-63710000D03*
%TD*%
D17*
%TO.P,SW_[3:4]1,1,1*%
%TO.N,Pin_3*%
X87190000Y-93460000D03*
%TO.P,SW_[3:4]1,2,2*%
%TO.N,Net-(D[3:4]1-A)*%
X93540000Y-90920000D03*
%TD*%
D15*
%TO.P,D[3:5]1,1,K*%
%TO.N,Net-(D[1:5]1-K)*%
X100250000Y-119040000D03*
D16*
%TO.P,D[3:5]1,2,A*%
%TO.N,Net-(D[3:5]1-A)*%
X100250000Y-113960000D03*
%TD*%
D15*
%TO.P,D[1:3]1,1,K*%
%TO.N,Net-(D[1:3]1-K)*%
X60000000Y-88790000D03*
D16*
%TO.P,D[1:3]1,2,A*%
%TO.N,Net-(D[1:3]1-A)*%
X60000000Y-83710000D03*
%TD*%
D15*
%TO.P,D[4:4]1,1,K*%
%TO.N,Net-(D[1:4]1-K)*%
X119500000Y-101790000D03*
D16*
%TO.P,D[4:4]1,2,A*%
%TO.N,Net-(D[4:4]1-A)*%
X119500000Y-96710000D03*
%TD*%
D15*
%TO.P,D_I_[5:2]1,1,K*%
%TO.N,Pin_Interrupt*%
X200040000Y-87500000D03*
D16*
%TO.P,D_I_[5:2]1,2,A*%
%TO.N,Net-(D[1:4]1-K)*%
X194960000Y-87500000D03*
%TD*%
D17*
%TO.P,SW_[5:1]1,1,1*%
%TO.N,Pin_5*%
X125290000Y-36410000D03*
%TO.P,SW_[5:1]1,2,2*%
%TO.N,Net-(D[5:1]1-A)*%
X131640000Y-33870000D03*
%TD*%
D15*
%TO.P,D[7:1]1,1,K*%
%TO.N,Net-(D[1:1]1-K)*%
X171540000Y-59750000D03*
D16*
%TO.P,D[7:1]1,2,A*%
%TO.N,Net-(D[7:1]1-A)*%
X166460000Y-59750000D03*
%TD*%
D15*
%TO.P,DI_[1:1]1,1,K*%
%TO.N,Pin_1*%
X185960000Y-100500000D03*
D16*
%TO.P,DI_[1:1]1,2,A*%
%TO.N,Net-(DI_[1:1]1-A)*%
X191040000Y-100500000D03*
%TD*%
D17*
%TO.P,SW_[4:5]1,1,1*%
%TO.N,Pin_4*%
X106270000Y-110210000D03*
%TO.P,SW_[4:5]1,2,2*%
%TO.N,Net-(D[4:5]1-A)*%
X112620000Y-107670000D03*
%TD*%
%TO.P,SW_[1:5]1,1,1*%
%TO.N,Pin_1*%
X49110000Y-117460000D03*
%TO.P,SW_[1:5]1,2,2*%
%TO.N,Net-(D[1:5]1-A)*%
X55460000Y-114920000D03*
%TD*%
D15*
%TO.P,D_I_[3:1]1,1,K*%
%TO.N,Pin_3*%
X185920000Y-94000000D03*
D16*
%TO.P,D_I_[3:1]1,2,A*%
%TO.N,Net-(D[1:2]1-K)*%
X191000000Y-94000000D03*
%TD*%
D17*
%TO.P,SW_[4:4]1,1,1*%
%TO.N,Pin_4*%
X106270000Y-91210000D03*
%TO.P,SW_[4:4]1,2,2*%
%TO.N,Net-(D[4:4]1-A)*%
X112620000Y-88670000D03*
%TD*%
%TO.P,SW_[2:1]1,1,1*%
%TO.N,Pin_2*%
X68070000Y-41060000D03*
%TO.P,SW_[2:1]1,2,2*%
%TO.N,Net-(D[2:1]1-A)*%
X74420000Y-38520000D03*
%TD*%
D15*
%TO.P,D[7:2]1,1,K*%
%TO.N,Net-(D[1:2]1-K)*%
X158500000Y-77290000D03*
D16*
%TO.P,D[7:2]1,2,A*%
%TO.N,Net-(D[7:2]1-A)*%
X158500000Y-72210000D03*
%TD*%
D17*
%TO.P,SW_[5:4]1,1,1*%
%TO.N,Pin_5*%
X125290000Y-93560000D03*
%TO.P,SW_[5:4]1,2,2*%
%TO.N,Net-(D[5:4]1-A)*%
X131640000Y-91020000D03*
%TD*%
D15*
%TO.P,D[2:5]1,1,K*%
%TO.N,Net-(D[1:5]1-K)*%
X80250000Y-125540000D03*
D16*
%TO.P,D[2:5]1,2,A*%
%TO.N,Net-(D[2:5]1-A)*%
X80250000Y-120460000D03*
%TD*%
D18*
%TO.P,D[7:5]1,1,K*%
%TO.N,Net-(D[1:5]1-K)*%
X167800295Y-141480000D03*
D19*
%TO.P,D[7:5]1,2,A*%
%TO.N,Net-(D[7:5]1-A)*%
X172199704Y-144020000D03*
%TD*%
D17*
%TO.P,SW_[2:3]1,1,1*%
%TO.N,Pin_2*%
X68110000Y-79210000D03*
%TO.P,SW_[2:3]1,2,2*%
%TO.N,Net-(D[2:3]1-A)*%
X74460000Y-76670000D03*
%TD*%
D26*
%TO.P,ON/OFF1,1,Pin_1*%
%TO.N,B+*%
X60750000Y-32000000D03*
D27*
%TO.P,ON/OFF1,2,Pin_2*%
%TO.N,SW_B+*%
X62750000Y-32000000D03*
%TD*%
D17*
%TO.P,SW_[4:2]1,2,2*%
%TO.N,Net-(D[4:2]1-A)*%
X112640000Y-50420000D03*
%TO.P,SW_[4:2]1,1,1*%
%TO.N,Pin_4*%
X106290000Y-52960000D03*
%TD*%
D28*
%TO.P,SW1,1*%
%TO.N,GND*%
X192750000Y-34500000D03*
X186250000Y-34500000D03*
%TO.P,SW1,2*%
%TO.N,RESET*%
X192750000Y-39000000D03*
X186250000Y-39000000D03*
%TD*%
D17*
%TO.P,SW_[4:1]1,1,1*%
%TO.N,Pin_4*%
X106290000Y-33810000D03*
%TO.P,SW_[4:1]1,2,2*%
%TO.N,Net-(D[4:1]1-A)*%
X112640000Y-31270000D03*
%TD*%
D18*
%TO.P,D[7:4]1,1,K*%
%TO.N,Net-(D[1:4]1-K)*%
X178550295Y-119730000D03*
D19*
%TO.P,D[7:4]1,2,A*%
%TO.N,Net-(D[7:4]1-A)*%
X182949704Y-122270000D03*
%TD*%
D17*
%TO.P,SW_[3:5]1,1,1*%
%TO.N,Pin_3*%
X87190000Y-112460000D03*
%TO.P,SW_[3:5]1,2,2*%
%TO.N,Net-(D[3:5]1-A)*%
X93540000Y-109920000D03*
%TD*%
D15*
%TO.P,D[3:3]1,1,K*%
%TO.N,Net-(D[1:3]1-K)*%
X100500000Y-85040000D03*
D16*
%TO.P,D[3:3]1,2,A*%
%TO.N,Net-(D[3:3]1-A)*%
X100500000Y-79960000D03*
%TD*%
D15*
%TO.P,D[3:4]1,1,K*%
%TO.N,Net-(D[1:4]1-K)*%
X100500000Y-103540000D03*
D16*
%TO.P,D[3:4]1,2,A*%
%TO.N,Net-(D[3:4]1-A)*%
X100500000Y-98460000D03*
%TD*%
D17*
%TO.P,SW_[7:4]1,1,1*%
%TO.N,Pin_7*%
X185270444Y-109945295D03*
%TO.P,SW_[7:4]1,2,2*%
%TO.N,Net-(D[7:4]1-A)*%
X192039705Y-110920591D03*
%TD*%
%TO.P,SW_[1:1]1,1,1*%
%TO.N,Pin_1*%
X46690000Y-41210000D03*
%TO.P,SW_[1:1]1,2,2*%
%TO.N,Net-(D[1:1]1-A)*%
X53040000Y-38670000D03*
%TD*%
D15*
%TO.P,D_I_[4:2]1,1,K*%
%TO.N,Pin_Interrupt*%
X200040000Y-90750000D03*
D16*
%TO.P,D_I_[4:2]1,2,A*%
%TO.N,Net-(D[1:3]1-K)*%
X194960000Y-90750000D03*
%TD*%
D15*
%TO.P,D_I_[3:2]1,1,K*%
%TO.N,Pin_Interrupt*%
X200290000Y-94000000D03*
D16*
%TO.P,D_I_[3:2]1,2,A*%
%TO.N,Net-(D[1:2]1-K)*%
X195210000Y-94000000D03*
%TD*%
D15*
%TO.P,D_I_[6:1]1,1,K*%
%TO.N,Pin_6*%
X185710000Y-84250000D03*
D16*
%TO.P,D_I_[6:1]1,2,A*%
%TO.N,Net-(D[1:5]1-K)*%
X190790000Y-84250000D03*
%TD*%
D17*
%TO.P,SW_[5:2]1,1,1*%
%TO.N,Pin_5*%
X125290000Y-55460000D03*
%TO.P,SW_[5:2]1,2,2*%
%TO.N,Net-(D[5:2]1-A)*%
X131640000Y-52920000D03*
%TD*%
D15*
%TO.P,D[6:3]1,1,K*%
%TO.N,Net-(D[1:2]1-K)*%
X158250000Y-87790000D03*
D16*
%TO.P,D[6:3]1,2,A*%
%TO.N,Net-(D[6:3]1-A)*%
X158250000Y-82710000D03*
%TD*%
D17*
%TO.P,SW_[3:2]1,1,1*%
%TO.N,Pin_3*%
X87190000Y-55460100D03*
%TO.P,SW_[3:2]1,2,2*%
%TO.N,Net-(D[3:2]1-A)*%
X93540000Y-52920100D03*
%TD*%
D15*
%TO.P,D[5:3]1,1,K*%
%TO.N,Net-(D[1:2]1-K)*%
X138250000Y-84540000D03*
D16*
%TO.P,D[5:3]1,2,A*%
%TO.N,Net-(D[5:3]1-A)*%
X138250000Y-79460000D03*
%TD*%
D15*
%TO.P,D[4:3]1,1,K*%
%TO.N,Net-(D[1:2]1-K)*%
X119500000Y-82790000D03*
D16*
%TO.P,D[4:3]1,2,A*%
%TO.N,Net-(D[4:3]1-A)*%
X119500000Y-77710000D03*
%TD*%
D17*
%TO.P,SW_[1:2]1,1,1*%
%TO.N,Pin_1*%
X46690000Y-60210000D03*
%TO.P,SW_[1:2]1,2,2*%
%TO.N,Net-(D[1:2]1-A)*%
X53040000Y-57670000D03*
%TD*%
D16*
%TO.P,D[2:1]1,2,A*%
%TO.N,Net-(D[2:1]1-A)*%
X76710000Y-52250000D03*
D15*
%TO.P,D[2:1]1,1,K*%
%TO.N,Net-(DI_[1:1]1-A)*%
X81790000Y-52250000D03*
%TD*%
D17*
%TO.P,SW_[3:3]1,1,1*%
%TO.N,Pin_3*%
X87190000Y-74460000D03*
%TO.P,SW_[3:3]1,2,2*%
%TO.N,Net-(D[3:3]1-A)*%
X93540000Y-71920000D03*
%TD*%
%TO.P,SW_[7:1]1,1,1*%
%TO.N,Pin_7*%
X163390000Y-48310000D03*
%TO.P,SW_[7:1]1,2,2*%
%TO.N,Net-(D[7:1]1-A)*%
X169740000Y-45770000D03*
%TD*%
D16*
%TO.P,D[3:1]1,2,A*%
%TO.N,Net-(D[3:1]1-A)*%
X100500000Y-42710000D03*
D15*
%TO.P,D[3:1]1,1,K*%
%TO.N,Net-(DI_[1:1]1-A)*%
X100500000Y-47790000D03*
%TD*%
D17*
%TO.P,SW_[7:5]1,1,1*%
%TO.N,Pin_7*%
X173220444Y-130645295D03*
%TO.P,SW_[7:5]1,2,2*%
%TO.N,Net-(D[7:5]1-A)*%
X179989705Y-131620591D03*
%TD*%
%TO.P,SW_[6:3]1,1,1*%
%TO.N,Pin_6*%
X144340000Y-76890500D03*
%TO.P,SW_[6:3]1,2,2*%
%TO.N,Net-(D[6:3]1-A)*%
X150690000Y-74350500D03*
%TD*%
D29*
%TO.N,Net-(D[1:4]1-K)*%
X104000000Y-104500000D03*
%TO.N,Pin_2*%
X168750000Y-90500000D03*
X170500000Y-90500000D03*
%TO.N,Net-(D[1:1]1-K)*%
X188750000Y-75000000D03*
X179500000Y-67000000D03*
X193500000Y-79500000D03*
X175250000Y-64750000D03*
%TO.N,Net-(D[1:2]1-K)*%
X171750000Y-88750000D03*
X193250000Y-92000000D03*
%TO.N,Net-(D[1:3]1-K)*%
X180000000Y-106500000D03*
X183000000Y-104250000D03*
%TD*%
D30*
%TO.N,Net-(D[1:4]1-K)*%
X98750000Y-104000000D02*
X98500000Y-104000000D01*
X98500000Y-104000000D02*
X84790000Y-104000000D01*
X99290000Y-104000000D02*
X98500000Y-104000000D01*
X60000000Y-107540000D02*
X61750000Y-109290000D01*
%TO.N,Net-(DI_[1:1]1-A)*%
X81790000Y-52250000D02*
X86250000Y-47790000D01*
X86250000Y-47790000D02*
X100500000Y-47790000D01*
X100500000Y-47790000D02*
X104090000Y-44200000D01*
X114538300Y-44200000D02*
X116738300Y-42000000D01*
X116738300Y-42000000D02*
X119500000Y-42000000D01*
X104090000Y-44200000D02*
X114538300Y-44200000D01*
X119540000Y-46000000D02*
X119540000Y-42040000D01*
X119540000Y-42040000D02*
X119500000Y-42000000D01*
X119500000Y-42000000D02*
X133738300Y-42000000D01*
X152738300Y-44250000D02*
X137750000Y-44250000D01*
X137750000Y-44250000D02*
X137290000Y-44250000D01*
X137750000Y-42790000D02*
X137750000Y-44250000D01*
X157500000Y-43290000D02*
X153698300Y-43290000D01*
X153698300Y-43290000D02*
X152738300Y-44250000D01*
%TO.N,Net-(D[1:1]1-K)*%
X171540000Y-59750000D02*
X171540000Y-60000000D01*
X171540000Y-60000000D02*
X165000000Y-66540000D01*
%TO.N,Net-(D[1:2]1-K)*%
X88722500Y-71040000D02*
X81500000Y-71040000D01*
X81500000Y-71040000D02*
X77500000Y-71040000D01*
X81500000Y-68790000D02*
X81500000Y-71040000D01*
%TO.N,Net-(D[1:1]1-K)*%
X115500000Y-64040000D02*
X100750000Y-64040000D01*
X100750000Y-64040000D02*
X99801700Y-64040000D01*
X100750000Y-61790000D02*
X100750000Y-64040000D01*
X119500000Y-63540000D02*
X119500000Y-66738300D01*
X119500000Y-66738300D02*
X119551700Y-66790000D01*
X150198300Y-66790000D02*
X138750000Y-66790000D01*
X138750000Y-66790000D02*
X134500000Y-66790000D01*
X138500000Y-66540000D02*
X138750000Y-66790000D01*
%TO.N,Pin_6*%
X154600000Y-54150000D02*
X150940000Y-57810000D01*
%TO.N,Net-(D[1:1]1-K)*%
X157750000Y-66540000D02*
X165000000Y-66540000D01*
%TO.N,Pin_5*%
X173200000Y-54550000D02*
X157264775Y-54550000D01*
X197370000Y-50310000D02*
X196170000Y-51510000D01*
X176240000Y-51510000D02*
X173200000Y-54550000D01*
%TO.N,Pin_6*%
X176030000Y-48970000D02*
X170850000Y-54150000D01*
%TO.N,Pin_5*%
X157264775Y-54550000D02*
X148804775Y-63010000D01*
X125290000Y-57793452D02*
X125290000Y-55460000D01*
X130506548Y-63010000D02*
X125290000Y-57793452D01*
%TO.N,Pin_6*%
X197370000Y-47770000D02*
X196170000Y-48970000D01*
X196170000Y-48970000D02*
X176030000Y-48970000D01*
%TO.N,Pin_5*%
X148804775Y-63010000D02*
X130506548Y-63010000D01*
%TO.N,Pin_6*%
X150940000Y-57810000D02*
X144340000Y-57810000D01*
%TO.N,Pin_5*%
X196170000Y-51510000D02*
X176240000Y-51510000D01*
%TO.N,Pin_6*%
X170850000Y-54150000D02*
X154600000Y-54150000D01*
%TO.N,Net-(D[1:1]1-K)*%
X157750000Y-66540000D02*
X150448300Y-66540000D01*
X150448300Y-66540000D02*
X150198300Y-66790000D01*
%TO.N,Net-(D[1:2]1-K)*%
X158500000Y-77290000D02*
X159550000Y-78340000D01*
X159550000Y-78340000D02*
X159550000Y-86490000D01*
X159550000Y-86490000D02*
X158250000Y-87790000D01*
X138250000Y-84540000D02*
X155000000Y-84540000D01*
X155000000Y-84540000D02*
X158250000Y-87790000D01*
X119500000Y-82790000D02*
X136500000Y-82790000D01*
X136500000Y-82790000D02*
X138250000Y-84540000D01*
X119500000Y-82790000D02*
X119250000Y-82540000D01*
X119250000Y-82540000D02*
X109855686Y-82540000D01*
X101771586Y-74455900D02*
X92138400Y-74455900D01*
X92138400Y-74455900D02*
X88722500Y-71040000D01*
X109855686Y-82540000D02*
X101771586Y-74455900D01*
%TO.N,Net-(D[1:3]1-K)*%
X81000000Y-88540000D02*
X84500000Y-85040000D01*
X84500000Y-85040000D02*
X100500000Y-85040000D01*
X100500000Y-85040000D02*
X103224314Y-85040000D01*
X103224314Y-85040000D02*
X109386314Y-91202000D01*
X115966500Y-91202000D02*
X129304500Y-104540000D01*
X109386314Y-91202000D02*
X115966500Y-91202000D01*
X129304500Y-104540000D02*
X138500000Y-104540000D01*
X60000000Y-88790000D02*
X60710000Y-89500000D01*
X60710000Y-89500000D02*
X75408300Y-89500000D01*
X79250000Y-90290000D02*
X81000000Y-88540000D01*
X75408300Y-89500000D02*
X76198300Y-90290000D01*
X76198300Y-90290000D02*
X79250000Y-90290000D01*
%TO.N,Net-(D[1:4]1-K)*%
X103500000Y-104000000D02*
X98750000Y-104000000D01*
X98750000Y-104000000D02*
X99290000Y-104000000D01*
X104000000Y-104500000D02*
X103500000Y-104000000D01*
X84790000Y-104000000D02*
X81250000Y-107540000D01*
%TO.N,Pin_1*%
X166250000Y-109000000D02*
X120750000Y-109000000D01*
X170242875Y-108332500D02*
X166917500Y-108332500D01*
X173094500Y-94500000D02*
X173094500Y-105480875D01*
X55490000Y-96510000D02*
X53540000Y-98460000D01*
X166917500Y-108332500D02*
X166250000Y-109000000D01*
X120750000Y-109000000D02*
X108750000Y-97000000D01*
X108750000Y-97000000D02*
X96812412Y-97000000D01*
X173094500Y-105480875D02*
X170242875Y-108332500D01*
X96812412Y-97000000D02*
X95468512Y-98343900D01*
X95468512Y-98343900D02*
X70751617Y-98343900D01*
X70751617Y-98343900D02*
X68917717Y-96510000D01*
X68917717Y-96510000D02*
X55490000Y-96510000D01*
X53540000Y-98460000D02*
X46770000Y-98460000D01*
%TO.N,Net-(D[1:3]1-K)*%
X138500000Y-104540000D02*
X157250000Y-104540000D01*
X157250000Y-104540000D02*
X159000000Y-102790000D01*
%TO.N,Net-(D[7:4]1-A)*%
X182949704Y-122270000D02*
X192039705Y-113179999D01*
X192039705Y-113179999D02*
X192039705Y-110920591D01*
%TO.N,Net-(D[7:5]1-A)*%
X172199704Y-144020000D02*
X177593900Y-138625804D01*
X177593900Y-138625804D02*
X177593900Y-134016396D01*
X177593900Y-134016396D02*
X179989705Y-131620591D01*
%TO.N,Net-(D[1:5]1-K)*%
X167800295Y-141480000D02*
X157119148Y-141480000D01*
X157119148Y-141480000D02*
X143342600Y-127703452D01*
X119250000Y-120540000D02*
X126413452Y-127703452D01*
X126413452Y-127703452D02*
X143342600Y-127703452D01*
X119250000Y-120540000D02*
X117301700Y-120540000D01*
X117301700Y-120540000D02*
X117051700Y-120790000D01*
X100250000Y-119040000D02*
X100250000Y-120738300D01*
X100250000Y-120738300D02*
X100301700Y-120790000D01*
%TO.N,Net-(D[1:4]1-K)*%
X79500000Y-109290000D02*
X81250000Y-107540000D01*
X61750000Y-109290000D02*
X79500000Y-109290000D01*
%TO.N,Net-(D[1:2]1-K)*%
X59750000Y-70790000D02*
X59790000Y-70750000D01*
X59790000Y-70750000D02*
X75908300Y-70750000D01*
X75908300Y-70750000D02*
X76198300Y-71040000D01*
X76198300Y-71040000D02*
X77500000Y-71040000D01*
%TO.N,Net-(D[1:1]1-K)*%
X59540000Y-52750000D02*
X61040000Y-54250000D01*
X61040000Y-54250000D02*
X75337700Y-54250000D01*
X75337700Y-54250000D02*
X87377700Y-66290000D01*
X87377700Y-66290000D02*
X96250000Y-66290000D01*
%TO.N,Pin_2*%
X109370000Y-90620000D02*
X100500000Y-81750000D01*
X198570000Y-60967057D02*
X191762057Y-67775000D01*
X76192412Y-79210000D02*
X68110000Y-79210000D01*
X134417717Y-91000000D02*
X132447717Y-92970000D01*
X185960000Y-97250000D02*
X177250000Y-97250000D01*
X128482283Y-90620000D02*
X109370000Y-90620000D01*
X100500000Y-81750000D02*
X78732412Y-81750000D01*
X186275000Y-67775000D02*
X170500000Y-83550000D01*
X198570000Y-59130000D02*
X198570000Y-60967057D01*
X177250000Y-97250000D02*
X170500000Y-90500000D01*
X132447717Y-92970000D02*
X130832283Y-92970000D01*
X130832283Y-92970000D02*
X128482283Y-90620000D01*
X168250000Y-91000000D02*
X134417717Y-91000000D01*
X191762057Y-67775000D02*
X186275000Y-67775000D01*
X197370000Y-57930000D02*
X198570000Y-59130000D01*
X170500000Y-83550000D02*
X170500000Y-90500000D01*
X168750000Y-90500000D02*
X168250000Y-91000000D01*
X78732412Y-81750000D02*
X76192412Y-79210000D01*
%TO.N,Pin_4*%
X164120000Y-70020000D02*
X114893017Y-70020000D01*
X114893017Y-70020000D02*
X112822517Y-72090500D01*
X178500000Y-55640000D02*
X164120000Y-70020000D01*
X178500000Y-53750000D02*
X178500000Y-55640000D01*
X196170000Y-54050000D02*
X178800000Y-54050000D01*
X112822517Y-72090500D02*
X106254800Y-72090500D01*
X197370000Y-52850000D02*
X196170000Y-54050000D01*
X178800000Y-54050000D02*
X178500000Y-53750000D01*
%TO.N,Pin_7*%
X163000000Y-38250000D02*
X163390000Y-38640000D01*
X163390000Y-38640000D02*
X163390000Y-48310000D01*
X164480000Y-36270000D02*
X163000000Y-37750000D01*
X194480000Y-36270000D02*
X164480000Y-36270000D01*
X194750000Y-42610000D02*
X194750000Y-36000000D01*
X197370000Y-45230000D02*
X194750000Y-42610000D01*
X194750000Y-36000000D02*
X194480000Y-36270000D01*
X163000000Y-37750000D02*
X163000000Y-38250000D01*
%TO.N,Pin_1*%
X179189000Y-100500000D02*
X173094500Y-94405500D01*
X193014314Y-60470000D02*
X169850000Y-83634314D01*
X169850000Y-83634314D02*
X169850000Y-91255500D01*
X173094500Y-94405500D02*
X173094500Y-94500000D01*
X197370000Y-60470000D02*
X193014314Y-60470000D01*
X169850000Y-91255500D02*
X173094500Y-94500000D01*
X185960000Y-100500000D02*
X179189000Y-100500000D01*
%TO.N,GND*%
X196800000Y-34500000D02*
X197370000Y-35070000D01*
X186250000Y-34500000D02*
X192750000Y-34500000D01*
X192750000Y-34500000D02*
X196800000Y-34500000D01*
%TO.N,Net-(DI_[1:1]1-A)*%
X133738300Y-42000000D02*
X135988300Y-44250000D01*
X137290000Y-44250000D02*
X135988300Y-44250000D01*
%TO.N,Net-(D[1:1]1-K)*%
X134500000Y-66790000D02*
X119551700Y-66790000D01*
X189000000Y-75000000D02*
X188750000Y-75000000D01*
X96250000Y-66290000D02*
X97551700Y-66290000D01*
X119551700Y-66790000D02*
X116801700Y-64040000D01*
X116150900Y-64040000D02*
X116801700Y-64040000D01*
X193500000Y-79500000D02*
X189000000Y-75000000D01*
X179500000Y-67000000D02*
X177500000Y-67000000D01*
X116150900Y-64040000D02*
X115500000Y-64040000D01*
X177500000Y-67000000D02*
X175250000Y-64750000D01*
X99801700Y-64040000D02*
X97551700Y-66290000D01*
%TO.N,Net-(D[1:2]1-K)*%
X193200000Y-92050000D02*
X175050000Y-92050000D01*
X175050000Y-92050000D02*
X171750000Y-88750000D01*
X193250000Y-92000000D02*
X193200000Y-92050000D01*
%TO.N,Net-(D[1:3]1-K)*%
X180750000Y-106500000D02*
X180000000Y-106500000D01*
X183000000Y-104250000D02*
X180750000Y-106500000D01*
%TO.N,Net-(D[1:5]1-K)*%
X97150900Y-123290000D02*
X96500000Y-123290000D01*
X96500000Y-123290000D02*
X83801700Y-123290000D01*
X80250000Y-125540000D02*
X81551700Y-125540000D01*
X61540000Y-125540000D02*
X80250000Y-125540000D01*
X116400900Y-120790000D02*
X115750000Y-120790000D01*
X100301700Y-120790000D02*
X97801700Y-123290000D01*
X116400900Y-120790000D02*
X117051700Y-120790000D01*
X115750000Y-120790000D02*
X100301700Y-120790000D01*
X97150900Y-123290000D02*
X97801700Y-123290000D01*
X83801700Y-123290000D02*
X81551700Y-125540000D01*
%TO.N,Pin_3*%
X87190000Y-80002412D02*
X87190000Y-74460000D01*
X88447588Y-81260000D02*
X87190000Y-80002412D01*
X108010000Y-81260000D02*
X88447588Y-81260000D01*
X115590000Y-88840000D02*
X108010000Y-81260000D01*
X155820000Y-89750000D02*
X154910000Y-88840000D01*
X154910000Y-88840000D02*
X115590000Y-88840000D01*
X159801522Y-89750000D02*
X155820000Y-89750000D01*
X197370000Y-55390000D02*
X193089999Y-59670001D01*
X160801522Y-88750000D02*
X159801522Y-89750000D01*
X192948629Y-59670000D02*
X163868629Y-88750000D01*
X193089999Y-59670001D02*
X192948629Y-59670000D01*
X163868629Y-88750000D02*
X160801522Y-88750000D01*
%TD*%
M02*
