M48
; DRILL file {KiCad 8.0.2-1} date 2024-06-04T23:34:29+0200
; FORMAT={-:-/ absolute / inch / decimal}
; #@! TF.CreationDate,2024-06-04T23:34:29+02:00
; #@! TF.GenerationSoftware,Kicad,Pcbnew,8.0.2-1
; #@! TF.FileFunction,Plated,1,2,PTH
FMAT,2
INCH
; #@! TA.AperFunction,Plated,PTH,ViaDrill
T1C0.0118
; #@! TA.AperFunction,Plated,PTH,ComponentDrill
T2C0.0295
; #@! TA.AperFunction,Plated,PTH,ComponentDrill
T3C0.0315
; #@! TA.AperFunction,Plated,PTH,ComponentDrill
T4C0.0394
; #@! TA.AperFunction,Plated,PTH,ComponentDrill
T5C0.0433
; #@! TA.AperFunction,Plated,PTH,ComponentDrill
T6C0.0866
; #@! TA.AperFunction,Plated,PTH,ComponentDrill
T7C0.1181
%
G90
G05
T1
X4.0945Y-4.1142
X6.6437Y-3.563
X6.7126Y-3.563
X6.7618Y-3.4941
X6.8996Y-2.5492
X7.0669Y-2.6378
X7.0866Y-4.1929
X7.2047Y-4.1043
X7.4311Y-2.9528
X7.6083Y-3.622
X7.6181Y-3.1299
T2
X1.9685Y-1.25
X1.9685Y-1.3287
X2.3917Y-1.2598
X2.4705Y-1.2598
T3
X7.372Y-2.7067
X7.4508Y-2.7067
X7.5295Y-2.7067
X7.6083Y-2.7067
X7.687Y-2.7067
X7.7657Y-2.7067
X7.8445Y-2.7067
T4
X2.1441Y-2.0768
X2.3441Y-2.0768
X2.3524Y-2.587
X2.3524Y-2.787
X2.3622Y-3.2957
X2.3622Y-3.4957
X2.3622Y-4.0339
X2.3622Y-4.2339
X2.4228Y-4.7425
X2.4228Y-4.9425
X3.0201Y-2.0571
X3.1594Y-4.7425
X3.1594Y-4.9425
X3.189Y-3.2858
X3.189Y-3.4858
X3.1988Y-4.0339
X3.1988Y-4.2339
X3.2087Y-2.5083
X3.2087Y-2.7083
X3.2201Y-2.0571
X3.9469Y-4.4866
X3.9469Y-4.6866
X3.9567Y-1.6815
X3.9567Y-1.8815
X3.9567Y-3.148
X3.9567Y-3.348
X3.9567Y-3.8764
X3.9567Y-4.0764
X3.9665Y-2.2327
X3.9665Y-2.4327
X4.5063Y-1.811
X4.6949Y-4.5457
X4.6949Y-4.7457
X4.7047Y-2.3016
X4.7047Y-2.5016
X4.7047Y-3.0594
X4.7047Y-3.2594
X4.7047Y-3.8075
X4.7047Y-4.0075
X4.7063Y-1.811
X5.4232Y-1.4846
X5.4232Y-1.6846
X5.4429Y-3.1283
X5.4429Y-3.3283
X5.4528Y-3.8961
X5.4528Y-4.0961
X5.4724Y-2.4098
X5.4724Y-2.6098
X5.6434Y-5.0277
X5.6952Y-4.8345
X6.2008Y-1.5043
X6.2008Y-1.7043
X6.2106Y-2.4197
X6.2106Y-2.6197
X6.2303Y-3.2563
X6.2303Y-3.4563
X6.2402Y-2.8429
X6.2402Y-3.0429
X6.2598Y-3.8469
X6.2598Y-4.0469
X6.4165Y-5.3917
X6.4291Y-4.3791
X6.5165Y-5.2185
X6.5535Y-2.3524
X6.6024Y-4.4791
X6.6063Y-5.5701
X6.7535Y-2.3524
X6.7795Y-5.6701
X7.0295Y-4.7138
X7.1705Y-1.2807
X7.1705Y-1.3807
X7.1705Y-1.4807
X7.1705Y-1.5807
X7.1705Y-1.6807
X7.1705Y-1.7807
X7.1705Y-1.8807
X7.1705Y-1.9807
X7.1705Y-2.0807
X7.1705Y-2.1807
X7.1705Y-2.2807
X7.1705Y-2.3807
X7.2027Y-4.8138
X7.3114Y-3.3169
X7.3114Y-3.4449
X7.3114Y-3.5728
X7.3197Y-3.7008
X7.3213Y-3.8287
X7.3213Y-3.9567
X7.5114Y-3.3169
X7.5114Y-3.4449
X7.5114Y-3.5728
X7.5197Y-3.7008
X7.5213Y-3.8287
X7.5213Y-3.9567
X7.6756Y-3.3169
X7.6756Y-3.4449
X7.6756Y-3.5728
X7.6854Y-3.7008
X7.6953Y-3.8287
X7.6953Y-3.9567
X7.7705Y-1.2807
X7.7705Y-1.3807
X7.7705Y-1.4807
X7.7705Y-1.5807
X7.7705Y-1.6807
X7.7705Y-1.7807
X7.7705Y-1.8807
X7.7705Y-1.9807
X7.7705Y-2.0807
X7.7705Y-2.1807
X7.7705Y-2.2807
X7.7705Y-2.3807
X7.8756Y-3.3169
X7.8756Y-3.4449
X7.8756Y-3.5728
X7.8854Y-3.7008
X7.8953Y-3.8287
X7.8953Y-3.9567
T5
X7.3327Y-1.3583
X7.3327Y-1.5354
X7.5886Y-1.3583
X7.5886Y-1.5354
T6
X1.6535Y-4.9803
X1.6732Y-1.2008
X5.6398Y-1.1713
X6.0138Y-5.7087
X7.8051Y-4.2323
X8.002Y-1.2008
T7
X1.8382Y-1.6224
X1.8382Y-2.3705
X1.8382Y-3.1185
X1.8413Y-3.8764
X1.9335Y-4.6244
X2.0882Y-1.5224
X2.0882Y-2.2705
X2.0882Y-3.0185
X2.0913Y-3.7764
X2.1835Y-4.5244
X2.6793Y-2.3705
X2.6793Y-4.6217
X2.6799Y-1.6165
X2.6815Y-3.1185
X2.6815Y-3.8764
X2.9293Y-2.2705
X2.9293Y-4.5217
X2.9299Y-1.5165
X2.9315Y-3.0185
X2.9315Y-3.7764
X3.4327Y-1.4335
X3.4327Y-2.1835
X3.4327Y-2.9315
X3.4327Y-3.6795
X3.4327Y-4.4276
X3.6827Y-1.3335
X3.6827Y-2.0835
X3.6827Y-2.8315
X3.6827Y-3.5795
X3.6827Y-4.3276
X4.1833Y-2.8382
X4.1839Y-3.5909
X4.1839Y-4.339
X4.1846Y-1.3311
X4.1846Y-2.085
X4.4333Y-2.7382
X4.4339Y-3.4909
X4.4339Y-4.239
X4.4346Y-1.2311
X4.4346Y-1.985
X4.9327Y-1.4335
X4.9327Y-2.1835
X4.9327Y-2.9335
X4.9327Y-3.6835
X5.1827Y-1.3335
X5.1827Y-2.0835
X5.1827Y-2.8335
X5.1827Y-3.5835
X5.1996Y-4.5195
X5.467Y-4.4876
X5.6827Y-1.526
X5.6827Y-2.276
X5.6827Y-3.0272
X5.6827Y-3.776
X5.9327Y-1.426
X5.9327Y-2.176
X5.9327Y-2.9272
X5.9327Y-3.676
X6.1721Y-4.7695
X6.4327Y-1.902
X6.4386Y-4.8079
X6.6426Y-3.953
X6.6807Y-2.7898
X6.6827Y-1.802
X6.7807Y-3.0398
X6.8197Y-5.1435
X6.9091Y-3.9914
X7.0862Y-5.1819
X7.2941Y-4.3286
X7.5606Y-4.367
M30
