%TF.GenerationSoftware,KiCad,Pcbnew,8.0.2-1*%
%TF.CreationDate,2024-06-04T23:34:33+02:00*%
%TF.ProjectId,keyboard,6b657962-6f61-4726-942e-6b696361645f,rev?*%
%TF.SameCoordinates,Original*%
%TF.FileFunction,Soldermask,Bot*%
%TF.FilePolarity,Negative*%
%FSLAX46Y46*%
G04 Gerber Fmt 4.6, Leading zero omitted, Abs format (unit mm)*
G04 Created by KiCad (PCBNEW 8.0.2-1) date 2024-06-04 23:34:33*
%MOMM*%
%LPD*%
G01*
G04 APERTURE LIST*
G04 Aperture macros list*
%AMRoundRect*
0 Rectangle with rounded corners*
0 $1 Rounding radius*
0 $2 $3 $4 $5 $6 $7 $8 $9 X,Y pos of 4 corners*
0 Add a 4 corners polygon primitive as box body*
4,1,4,$2,$3,$4,$5,$6,$7,$8,$9,$2,$3,0*
0 Add four circle primitives for the rounded corners*
1,1,$1+$1,$2,$3*
1,1,$1+$1,$4,$5*
1,1,$1+$1,$6,$7*
1,1,$1+$1,$8,$9*
0 Add four rect primitives between the rounded corners*
20,1,$1+$1,$2,$3,$4,$5,0*
20,1,$1+$1,$4,$5,$6,$7,0*
20,1,$1+$1,$6,$7,$8,$9,0*
20,1,$1+$1,$8,$9,$2,$3,0*%
%AMHorizOval*
0 Thick line with rounded ends*
0 $1 width*
0 $2 $3 position (X,Y) of the first rounded end (center of the circle)*
0 $4 $5 position (X,Y) of the second rounded end (center of the circle)*
0 Add line between two ends*
20,1,$1,$2,$3,$4,$5,0*
0 Add two circle primitives to create the rounded ends*
1,1,$1,$2,$3*
1,1,$1,$4,$5*%
%AMRotRect*
0 Rectangle, with rotation*
0 The origin of the aperture is its center*
0 $1 length*
0 $2 width*
0 $3 Rotation angle, in degrees counterclockwise*
0 Add horizontal line*
21,1,$1,$2,0,0,$3*%
G04 Aperture macros list end*
%ADD10C,3.800000*%
%ADD11C,1.800000*%
%ADD12RoundRect,0.450000X-0.450000X-0.450000X0.450000X-0.450000X0.450000X0.450000X-0.450000X0.450000X0*%
%ADD13R,1.350000X1.350000*%
%ADD14O,1.350000X1.350000*%
%ADD15R,2.000000X2.000000*%
%ADD16O,2.000000X2.000000*%
%ADD17C,1.750000*%
%ADD18C,3.987800*%
%ADD19C,3.300000*%
%ADD20RoundRect,0.250000X1.000000X-1.025000X1.000000X1.025000X-1.000000X1.025000X-1.000000X-1.025000X0*%
%ADD21RoundRect,0.250000X1.025000X1.000000X-1.025000X1.000000X-1.025000X-1.000000X1.025000X-1.000000X0*%
%ADD22RotRect,2.000000X2.000000X330.000000*%
%ADD23HorizOval,2.000000X0.000000X0.000000X0.000000X0.000000X0*%
%ADD24RoundRect,0.250000X1.387676X0.353525X-0.387676X1.378525X-1.387676X-0.353525X0.387676X-1.378525X0*%
%ADD25RoundRect,0.250000X-0.625000X0.350000X-0.625000X-0.350000X0.625000X-0.350000X0.625000X0.350000X0*%
%ADD26O,1.750000X1.200000*%
%ADD27RotRect,2.000000X2.000000X60.000000*%
%ADD28HorizOval,2.000000X0.000000X0.000000X0.000000X0.000000X0*%
%ADD29RoundRect,0.250000X1.248893X0.700636X-0.731255X1.231215X-1.248893X-0.700636X0.731255X-1.231215X0*%
%ADD30RotRect,2.000000X2.000000X75.000000*%
%ADD31HorizOval,2.000000X0.000000X0.000000X0.000000X0.000000X0*%
%ADD32RoundRect,0.250000X-0.350000X-0.625000X0.350000X-0.625000X0.350000X0.625000X-0.350000X0.625000X0*%
%ADD33O,1.200000X1.750000*%
%ADD34C,2.000000*%
G04 APERTURE END LIST*
D10*
%TO.C,H1*%
X198250000Y-107500000D03*
%TD*%
%TO.C,H2*%
X42500000Y-30500000D03*
%TD*%
%TO.C,H3*%
X152750000Y-145000000D03*
%TD*%
%TO.C,H6*%
X143250000Y-29750000D03*
%TD*%
D11*
%TO.C,U1*%
X182130000Y-32530000D03*
X182130000Y-35070000D03*
D12*
X182130000Y-37610000D03*
X182130000Y-40150000D03*
D11*
X182130000Y-42690000D03*
X182130000Y-45230000D03*
X182130000Y-47770000D03*
X182130000Y-50310000D03*
X182130000Y-52850000D03*
X182130000Y-55390000D03*
X182130000Y-57930000D03*
X182130000Y-60470000D03*
X197370000Y-32530000D03*
D12*
X197370000Y-35070000D03*
D11*
X197370000Y-37610000D03*
X197370000Y-40150000D03*
X197370000Y-42690000D03*
X197370000Y-45230000D03*
X197370000Y-47770000D03*
X197370000Y-50310000D03*
X197370000Y-52850000D03*
X197370000Y-55390000D03*
X197370000Y-57930000D03*
X197370000Y-60470000D03*
%TD*%
D10*
%TO.C,H7*%
X203250000Y-30500000D03*
%TD*%
%TO.C,H5*%
X42000000Y-126500000D03*
%TD*%
D13*
%TO.C,Display*%
X187250000Y-68750000D03*
D14*
X189250000Y-68750000D03*
X191250000Y-68750000D03*
X193250000Y-68750000D03*
X195250000Y-68750000D03*
X197250000Y-68750000D03*
X199250000Y-68750000D03*
%TD*%
D15*
%TO.C,D[3:2]1*%
X100750000Y-61790000D03*
D16*
X100750000Y-56710000D03*
%TD*%
D17*
%TO.C,SW_[7:2]1*%
X167150000Y-79750000D03*
D18*
X167150000Y-74670000D03*
D17*
X167150000Y-69590000D03*
D19*
X169690000Y-70860000D03*
D20*
X169690000Y-67310000D03*
X172230000Y-80760000D03*
D19*
X172230000Y-77210000D03*
%TD*%
D17*
%TO.C,SW_[1:4]1*%
X55660000Y-101000000D03*
D18*
X50580000Y-101000000D03*
D17*
X45500000Y-101000000D03*
D19*
X46770000Y-98460000D03*
D21*
X43220000Y-98460000D03*
X56670000Y-95920000D03*
D19*
X53120000Y-95920000D03*
%TD*%
D15*
%TO.C,D_I_[6:2]1*%
X200040000Y-84250000D03*
D16*
X194960000Y-84250000D03*
%TD*%
D15*
%TO.C,D_I[1:2]1*%
X200540000Y-100500000D03*
D16*
X195460000Y-100500000D03*
%TD*%
D15*
%TO.C,D[4:2]1*%
X119500000Y-63540000D03*
D16*
X119500000Y-58460000D03*
%TD*%
D15*
%TO.C,D[5:1]1*%
X137750000Y-42790000D03*
D16*
X137750000Y-37710000D03*
%TD*%
D15*
%TO.C,D[1:5]1*%
X61540000Y-125540000D03*
D16*
X61540000Y-120460000D03*
%TD*%
D15*
%TO.C,D[6:2]1*%
X157750000Y-66540000D03*
D16*
X157750000Y-61460000D03*
%TD*%
D15*
%TO.C,D_I_[2:1]1*%
X185960000Y-97250000D03*
D16*
X191040000Y-97250000D03*
%TD*%
D17*
%TO.C,SW_[6:1]1*%
X153230000Y-41300000D03*
D18*
X148150000Y-41300000D03*
D17*
X143070000Y-41300000D03*
D19*
X144340000Y-38760000D03*
D21*
X140790000Y-38760000D03*
X154240000Y-36220000D03*
D19*
X150690000Y-36220000D03*
%TD*%
D15*
%TO.C,D_I_[2:2]1*%
X200540000Y-97250000D03*
D16*
X195460000Y-97250000D03*
%TD*%
D15*
%TO.C,D[5:2]1*%
X139000000Y-66290000D03*
D16*
X139000000Y-61210000D03*
%TD*%
D17*
%TO.C,SW_[2:4]1*%
X77000000Y-101000000D03*
D18*
X71920000Y-101000000D03*
D17*
X66840000Y-101000000D03*
D19*
X68110000Y-98460000D03*
D21*
X64560000Y-98460000D03*
X78010000Y-95920000D03*
D19*
X74460000Y-95920000D03*
%TD*%
D17*
%TO.C,SW_[2:5]1*%
X76944800Y-119930500D03*
D18*
X71864800Y-119930500D03*
D17*
X66784800Y-119930500D03*
D19*
X68054800Y-117390500D03*
D21*
X64504800Y-117390500D03*
X77954800Y-114850500D03*
D19*
X74404800Y-114850500D03*
%TD*%
D15*
%TO.C,D_I_[4:1]1*%
X185710000Y-90750000D03*
D16*
X190790000Y-90750000D03*
%TD*%
D17*
%TO.C,SW_[1:3]1*%
X55580000Y-81750000D03*
D18*
X50500000Y-81750000D03*
D17*
X45420000Y-81750000D03*
D19*
X46690000Y-79210000D03*
D21*
X43140000Y-79210000D03*
X56590000Y-76670000D03*
D19*
X53040000Y-76670000D03*
%TD*%
D15*
%TO.C,D[6:1]1*%
X157500000Y-43290000D03*
D16*
X157500000Y-38210000D03*
%TD*%
D15*
%TO.C,D[4:5]1*%
X119250000Y-120540000D03*
D16*
X119250000Y-115460000D03*
%TD*%
D22*
%TO.C,D[7:3]1*%
X163300296Y-111230000D03*
D23*
X167699705Y-113770000D03*
%TD*%
D17*
%TO.C,SW_[6:5]1*%
X163199409Y-127790001D03*
D18*
X158800000Y-125250000D03*
D17*
X154400591Y-122709999D03*
D19*
X156770444Y-121145295D03*
D24*
X153696053Y-119370295D03*
X166614095Y-123895591D03*
D19*
X163539705Y-122120591D03*
%TD*%
D17*
%TO.C,SW_[2:2]1*%
X76944800Y-62750000D03*
D18*
X71864800Y-62750000D03*
D17*
X66784800Y-62750000D03*
D19*
X68054800Y-60210000D03*
D21*
X64504800Y-60210000D03*
X77954800Y-57670000D03*
D19*
X74404800Y-57670000D03*
%TD*%
D25*
%TO.C,Battery1*%
X50000000Y-31750000D03*
D26*
X50000000Y-33750000D03*
%TD*%
D17*
%TO.C,SW_[4:3]1*%
X115144800Y-74630500D03*
D18*
X110064800Y-74630500D03*
D17*
X104984800Y-74630500D03*
D19*
X106254800Y-72090500D03*
D21*
X102704800Y-72090500D03*
X116154800Y-69550500D03*
D19*
X112604800Y-69550500D03*
%TD*%
D15*
%TO.C,D[1:1]1*%
X59540000Y-52750000D03*
D16*
X54460000Y-52750000D03*
%TD*%
D15*
%TO.C,D[4:1]1*%
X119540000Y-46000000D03*
D16*
X114460000Y-46000000D03*
%TD*%
D15*
%TO.C,D[2:4]1*%
X81250000Y-107540000D03*
D16*
X81250000Y-102460000D03*
%TD*%
%TO.C,D[1:4]1*%
X60000000Y-102460000D03*
D15*
X60000000Y-107540000D03*
%TD*%
D27*
%TO.C,D[6:5]1*%
X162980000Y-136949705D03*
D28*
X165520000Y-132550296D03*
%TD*%
D17*
%TO.C,SW_[6:4]1*%
X153230000Y-98450000D03*
D18*
X148150000Y-98450000D03*
D17*
X143070000Y-98450000D03*
D19*
X144340000Y-95910000D03*
D21*
X140790000Y-95910000D03*
X154240000Y-93370000D03*
D19*
X150690000Y-93370000D03*
%TD*%
D17*
%TO.C,SW_[5:5]1*%
X140000004Y-119550001D03*
D18*
X135093100Y-118235200D03*
D17*
X130186196Y-116920399D03*
D19*
X132070323Y-114795649D03*
D29*
X128641286Y-113876841D03*
X142290389Y-114904505D03*
D19*
X138861354Y-113985696D03*
%TD*%
D15*
%TO.C,D[6:4]1*%
X159000000Y-102790000D03*
D16*
X159000000Y-97710000D03*
%TD*%
D17*
%TO.C,SW_[7:3]1*%
X175150009Y-107050000D03*
D18*
X170750600Y-104510000D03*
D17*
X166351191Y-101970000D03*
D19*
X168721044Y-100405295D03*
D24*
X165646653Y-98630295D03*
X178564695Y-103155591D03*
D19*
X175490305Y-101380591D03*
%TD*%
D17*
%TO.C,SW_[3:1]1*%
X96080000Y-38950600D03*
D18*
X91000000Y-38950600D03*
D17*
X85920000Y-38950600D03*
D19*
X87190000Y-36410600D03*
D21*
X83640000Y-36410600D03*
X97090000Y-33870600D03*
D19*
X93540000Y-33870600D03*
%TD*%
D15*
%TO.C,D_I_[5:1]1*%
X185710000Y-87500000D03*
D16*
X190790000Y-87500000D03*
%TD*%
D17*
%TO.C,SW_[6:2]1*%
X153230000Y-60350000D03*
D18*
X148150000Y-60350000D03*
D17*
X143070000Y-60350000D03*
D19*
X144340000Y-57810000D03*
D21*
X140790000Y-57810000D03*
X154240000Y-55270000D03*
D19*
X150690000Y-55270000D03*
%TD*%
D15*
%TO.C,D[5:4]1*%
X138500000Y-104040000D03*
D16*
X138500000Y-98960000D03*
%TD*%
D30*
%TO.C,D[5:5]1*%
X143342600Y-127703452D03*
D31*
X144657401Y-122796549D03*
%TD*%
D15*
%TO.C,D[1:2]1*%
X59750000Y-70790000D03*
D16*
X59750000Y-65710000D03*
%TD*%
D15*
%TO.C,D[2:3]1*%
X81000000Y-88540000D03*
D16*
X81000000Y-83460000D03*
%TD*%
D17*
%TO.C,SW_[5:3]1*%
X134180000Y-77050000D03*
D18*
X129100000Y-77050000D03*
D17*
X124020000Y-77050000D03*
D19*
X125290000Y-74510000D03*
D21*
X121740000Y-74510000D03*
X135190000Y-71970000D03*
D19*
X131640000Y-71970000D03*
%TD*%
D15*
%TO.C,D[2:2]1*%
X81500000Y-68790000D03*
D16*
X81500000Y-63710000D03*
%TD*%
D17*
%TO.C,SW_[3:4]1*%
X96080000Y-96000000D03*
D18*
X91000000Y-96000000D03*
D17*
X85920000Y-96000000D03*
D19*
X87190000Y-93460000D03*
D21*
X83640000Y-93460000D03*
X97090000Y-90920000D03*
D19*
X93540000Y-90920000D03*
%TD*%
D15*
%TO.C,D[3:5]1*%
X100250000Y-119040000D03*
D16*
X100250000Y-113960000D03*
%TD*%
D15*
%TO.C,D[1:3]1*%
X60000000Y-88790000D03*
D16*
X60000000Y-83710000D03*
%TD*%
D15*
%TO.C,D[4:4]1*%
X119500000Y-101790000D03*
D16*
X119500000Y-96710000D03*
%TD*%
D15*
%TO.C,D_I_[5:2]1*%
X200040000Y-87500000D03*
D16*
X194960000Y-87500000D03*
%TD*%
D17*
%TO.C,SW_[5:1]1*%
X134180000Y-38950000D03*
D18*
X129100000Y-38950000D03*
D17*
X124020000Y-38950000D03*
D19*
X125290000Y-36410000D03*
D21*
X121740000Y-36410000D03*
X135190000Y-33870000D03*
D19*
X131640000Y-33870000D03*
%TD*%
D15*
%TO.C,D[7:1]1*%
X171540000Y-59750000D03*
D16*
X166460000Y-59750000D03*
%TD*%
D15*
%TO.C,DI_[1:1]1*%
X185960000Y-100500000D03*
D16*
X191040000Y-100500000D03*
%TD*%
D17*
%TO.C,SW_[4:5]1*%
X115160000Y-112750000D03*
D18*
X110080000Y-112750000D03*
D17*
X105000000Y-112750000D03*
D19*
X106270000Y-110210000D03*
D21*
X102720000Y-110210000D03*
X116170000Y-107670000D03*
D19*
X112620000Y-107670000D03*
%TD*%
D17*
%TO.C,SW_[1:5]1*%
X58000000Y-120000000D03*
D18*
X52920000Y-120000000D03*
D17*
X47840000Y-120000000D03*
D19*
X49110000Y-117460000D03*
D21*
X45560000Y-117460000D03*
X59010000Y-114920000D03*
D19*
X55460000Y-114920000D03*
%TD*%
D15*
%TO.C,D_I_[3:1]1*%
X185920000Y-94000000D03*
D16*
X191000000Y-94000000D03*
%TD*%
D17*
%TO.C,SW_[4:4]1*%
X115160000Y-93750000D03*
D18*
X110080000Y-93750000D03*
D17*
X105000000Y-93750000D03*
D19*
X106270000Y-91210000D03*
D21*
X102720000Y-91210000D03*
X116170000Y-88670000D03*
D19*
X112620000Y-88670000D03*
%TD*%
D17*
%TO.C,SW_[2:1]1*%
X76960000Y-43600000D03*
D18*
X71880000Y-43600000D03*
D17*
X66800000Y-43600000D03*
D19*
X68070000Y-41060000D03*
D21*
X64520000Y-41060000D03*
X77970000Y-38520000D03*
D19*
X74420000Y-38520000D03*
%TD*%
D15*
%TO.C,D[7:2]1*%
X158500000Y-77290000D03*
D16*
X158500000Y-72210000D03*
%TD*%
D17*
%TO.C,SW_[5:4]1*%
X134180000Y-96100000D03*
D18*
X129100000Y-96100000D03*
D17*
X124020000Y-96100000D03*
D19*
X125290000Y-93560000D03*
D21*
X121740000Y-93560000D03*
X135190000Y-91020000D03*
D19*
X131640000Y-91020000D03*
%TD*%
D15*
%TO.C,D[2:5]1*%
X80250000Y-125540000D03*
D16*
X80250000Y-120460000D03*
%TD*%
D22*
%TO.C,D[7:5]1*%
X167800295Y-141480000D03*
D23*
X172199704Y-144020000D03*
%TD*%
D17*
%TO.C,SW_[2:3]1*%
X77000000Y-81750000D03*
D18*
X71920000Y-81750000D03*
D17*
X66840000Y-81750000D03*
D19*
X68110000Y-79210000D03*
D21*
X64560000Y-79210000D03*
X78010000Y-76670000D03*
D19*
X74460000Y-76670000D03*
%TD*%
D32*
%TO.C,ON/OFF1*%
X60750000Y-32000000D03*
D33*
X62750000Y-32000000D03*
%TD*%
D19*
%TO.C,SW_[4:2]1*%
X112640000Y-50420000D03*
D21*
X116190000Y-50420000D03*
X102740000Y-52960000D03*
D19*
X106290000Y-52960000D03*
D17*
X105020000Y-55500000D03*
D18*
X110100000Y-55500000D03*
D17*
X115180000Y-55500000D03*
%TD*%
D34*
%TO.C,SW1*%
X192750000Y-34500000D03*
X186250000Y-34500000D03*
X192750000Y-39000000D03*
X186250000Y-39000000D03*
%TD*%
D17*
%TO.C,SW_[4:1]1*%
X115180000Y-36350000D03*
D18*
X110100000Y-36350000D03*
D17*
X105020000Y-36350000D03*
D19*
X106290000Y-33810000D03*
D21*
X102740000Y-33810000D03*
X116190000Y-31270000D03*
D19*
X112640000Y-31270000D03*
%TD*%
D22*
%TO.C,D[7:4]1*%
X178550295Y-119730000D03*
D23*
X182949704Y-122270000D03*
%TD*%
D17*
%TO.C,SW_[3:5]1*%
X96080000Y-115000000D03*
D18*
X91000000Y-115000000D03*
D17*
X85920000Y-115000000D03*
D19*
X87190000Y-112460000D03*
D21*
X83640000Y-112460000D03*
X97090000Y-109920000D03*
D19*
X93540000Y-109920000D03*
%TD*%
D15*
%TO.C,D[3:3]1*%
X100500000Y-85040000D03*
D16*
X100500000Y-79960000D03*
%TD*%
D15*
%TO.C,D[3:4]1*%
X100500000Y-103540000D03*
D16*
X100500000Y-98460000D03*
%TD*%
D17*
%TO.C,SW_[7:4]1*%
X191699409Y-116590000D03*
D18*
X187300000Y-114050000D03*
D17*
X182900591Y-111510000D03*
D19*
X185270444Y-109945295D03*
D24*
X182196053Y-108170295D03*
X195114095Y-112695591D03*
D19*
X192039705Y-110920591D03*
%TD*%
D17*
%TO.C,SW_[1:1]1*%
X55580000Y-43750000D03*
D18*
X50500000Y-43750000D03*
D17*
X45420000Y-43750000D03*
D19*
X46690000Y-41210000D03*
D21*
X43140000Y-41210000D03*
X56590000Y-38670000D03*
D19*
X53040000Y-38670000D03*
%TD*%
D15*
%TO.C,D_I_[4:2]1*%
X200040000Y-90750000D03*
D16*
X194960000Y-90750000D03*
%TD*%
D15*
%TO.C,D_I_[3:2]1*%
X200290000Y-94000000D03*
D16*
X195210000Y-94000000D03*
%TD*%
D15*
%TO.C,D_I_[6:1]1*%
X185710000Y-84250000D03*
D16*
X190790000Y-84250000D03*
%TD*%
D17*
%TO.C,SW_[5:2]1*%
X134180000Y-58000000D03*
D18*
X129100000Y-58000000D03*
D17*
X124020000Y-58000000D03*
D19*
X125290000Y-55460000D03*
D21*
X121740000Y-55460000D03*
X135190000Y-52920000D03*
D19*
X131640000Y-52920000D03*
%TD*%
D15*
%TO.C,D[6:3]1*%
X158250000Y-87790000D03*
D16*
X158250000Y-82710000D03*
%TD*%
D17*
%TO.C,SW_[3:2]1*%
X96080000Y-58000100D03*
D18*
X91000000Y-58000100D03*
D17*
X85920000Y-58000100D03*
D19*
X87190000Y-55460100D03*
D21*
X83640000Y-55460100D03*
X97090000Y-52920100D03*
D19*
X93540000Y-52920100D03*
%TD*%
D15*
%TO.C,D[5:3]1*%
X138250000Y-84540000D03*
D16*
X138250000Y-79460000D03*
%TD*%
D15*
%TO.C,D[4:3]1*%
X119500000Y-82790000D03*
D16*
X119500000Y-77710000D03*
%TD*%
D17*
%TO.C,SW_[1:2]1*%
X55580000Y-62750000D03*
D18*
X50500000Y-62750000D03*
D17*
X45420000Y-62750000D03*
D19*
X46690000Y-60210000D03*
D21*
X43140000Y-60210000D03*
X56590000Y-57670000D03*
D19*
X53040000Y-57670000D03*
%TD*%
D16*
%TO.C,D[2:1]1*%
X76710000Y-52250000D03*
D15*
X81790000Y-52250000D03*
%TD*%
D17*
%TO.C,SW_[3:3]1*%
X96080000Y-77000000D03*
D18*
X91000000Y-77000000D03*
D17*
X85920000Y-77000000D03*
D19*
X87190000Y-74460000D03*
D21*
X83640000Y-74460000D03*
X97090000Y-71920000D03*
D19*
X93540000Y-71920000D03*
%TD*%
D17*
%TO.C,SW_[7:1]1*%
X172280000Y-50850000D03*
D18*
X167200000Y-50850000D03*
D17*
X162120000Y-50850000D03*
D19*
X163390000Y-48310000D03*
D21*
X159840000Y-48310000D03*
X173290000Y-45770000D03*
D19*
X169740000Y-45770000D03*
%TD*%
D16*
%TO.C,D[3:1]1*%
X100500000Y-42710000D03*
D15*
X100500000Y-47790000D03*
%TD*%
D17*
%TO.C,SW_[7:5]1*%
X179649409Y-137290000D03*
D18*
X175250000Y-134750000D03*
D17*
X170850591Y-132210000D03*
D19*
X173220444Y-130645295D03*
D24*
X170146053Y-128870295D03*
X183064095Y-133395591D03*
D19*
X179989705Y-131620591D03*
%TD*%
D17*
%TO.C,SW_[6:3]1*%
X153230000Y-79430500D03*
D18*
X148150000Y-79430500D03*
D17*
X143070000Y-79430500D03*
D19*
X144340000Y-76890500D03*
D21*
X140790000Y-76890500D03*
X154240000Y-74350500D03*
D19*
X150690000Y-74350500D03*
%TD*%
M02*
