%TF.GenerationSoftware,KiCad,Pcbnew,8.0.2-1*%
%TF.CreationDate,2024-06-04T23:34:33+02:00*%
%TF.ProjectId,keyboard,6b657962-6f61-4726-942e-6b696361645f,rev?*%
%TF.SameCoordinates,Original*%
%TF.FileFunction,Copper,L2,Bot*%
%TF.FilePolarity,Positive*%
%FSLAX46Y46*%
G04 Gerber Fmt 4.6, Leading zero omitted, Abs format (unit mm)*
G04 Created by KiCad (PCBNEW 8.0.2-1) date 2024-06-04 23:34:33*
%MOMM*%
%LPD*%
G01*
G04 APERTURE LIST*
G04 Aperture macros list*
%AMRoundRect*
0 Rectangle with rounded corners*
0 $1 Rounding radius*
0 $2 $3 $4 $5 $6 $7 $8 $9 X,Y pos of 4 corners*
0 Add a 4 corners polygon primitive as box body*
4,1,4,$2,$3,$4,$5,$6,$7,$8,$9,$2,$3,0*
0 Add four circle primitives for the rounded corners*
1,1,$1+$1,$2,$3*
1,1,$1+$1,$4,$5*
1,1,$1+$1,$6,$7*
1,1,$1+$1,$8,$9*
0 Add four rect primitives between the rounded corners*
20,1,$1+$1,$2,$3,$4,$5,0*
20,1,$1+$1,$4,$5,$6,$7,0*
20,1,$1+$1,$6,$7,$8,$9,0*
20,1,$1+$1,$8,$9,$2,$3,0*%
%AMHorizOval*
0 Thick line with rounded ends*
0 $1 width*
0 $2 $3 position (X,Y) of the first rounded end (center of the circle)*
0 $4 $5 position (X,Y) of the second rounded end (center of the circle)*
0 Add line between two ends*
20,1,$1,$2,$3,$4,$5,0*
0 Add two circle primitives to create the rounded ends*
1,1,$1,$2,$3*
1,1,$1,$4,$5*%
%AMRotRect*
0 Rectangle, with rotation*
0 The origin of the aperture is its center*
0 $1 length*
0 $2 width*
0 $3 Rotation angle, in degrees counterclockwise*
0 Add horizontal line*
21,1,$1,$2,0,0,$3*%
G04 Aperture macros list end*
%TA.AperFunction,ComponentPad*%
%ADD10C,3.800000*%
%TD*%
%TA.AperFunction,ComponentPad*%
%ADD11C,1.800000*%
%TD*%
%TA.AperFunction,ComponentPad*%
%ADD12RoundRect,0.450000X-0.450000X-0.450000X0.450000X-0.450000X0.450000X0.450000X-0.450000X0.450000X0*%
%TD*%
%TA.AperFunction,ComponentPad*%
%ADD13R,1.350000X1.350000*%
%TD*%
%TA.AperFunction,ComponentPad*%
%ADD14O,1.350000X1.350000*%
%TD*%
%TA.AperFunction,ComponentPad*%
%ADD15R,2.000000X2.000000*%
%TD*%
%TA.AperFunction,ComponentPad*%
%ADD16O,2.000000X2.000000*%
%TD*%
%TA.AperFunction,ComponentPad*%
%ADD17C,3.300000*%
%TD*%
%TA.AperFunction,SMDPad,CuDef*%
%ADD18R,2.500000X1.650000*%
%TD*%
%TA.AperFunction,SMDPad,CuDef*%
%ADD19RoundRect,0.250000X1.000000X-1.025000X1.000000X1.025000X-1.000000X1.025000X-1.000000X-1.025000X0*%
%TD*%
%TA.AperFunction,SMDPad,CuDef*%
%ADD20R,1.650000X2.500000*%
%TD*%
%TA.AperFunction,SMDPad,CuDef*%
%ADD21RoundRect,0.250000X1.025000X1.000000X-1.025000X1.000000X-1.025000X-1.000000X1.025000X-1.000000X0*%
%TD*%
%TA.AperFunction,ComponentPad*%
%ADD22RotRect,2.000000X2.000000X330.000000*%
%TD*%
%TA.AperFunction,ComponentPad*%
%ADD23HorizOval,2.000000X0.000000X0.000000X0.000000X0.000000X0*%
%TD*%
%TA.AperFunction,SMDPad,CuDef*%
%ADD24RotRect,1.650000X2.500000X330.000000*%
%TD*%
%TA.AperFunction,SMDPad,CuDef*%
%ADD25RoundRect,0.250000X1.387676X0.353525X-0.387676X1.378525X-1.387676X-0.353525X0.387676X-1.378525X0*%
%TD*%
%TA.AperFunction,SMDPad,CuDef*%
%ADD26RotRect,1.650000X2.500000X150.000000*%
%TD*%
%TA.AperFunction,ComponentPad*%
%ADD27RoundRect,0.250000X-0.625000X0.350000X-0.625000X-0.350000X0.625000X-0.350000X0.625000X0.350000X0*%
%TD*%
%TA.AperFunction,ComponentPad*%
%ADD28O,1.750000X1.200000*%
%TD*%
%TA.AperFunction,ComponentPad*%
%ADD29RotRect,2.000000X2.000000X60.000000*%
%TD*%
%TA.AperFunction,ComponentPad*%
%ADD30HorizOval,2.000000X0.000000X0.000000X0.000000X0.000000X0*%
%TD*%
%TA.AperFunction,SMDPad,CuDef*%
%ADD31RotRect,1.650000X2.500000X345.000000*%
%TD*%
%TA.AperFunction,SMDPad,CuDef*%
%ADD32RoundRect,0.250000X1.248893X0.700636X-0.731255X1.231215X-1.248893X-0.700636X0.731255X-1.231215X0*%
%TD*%
%TA.AperFunction,SMDPad,CuDef*%
%ADD33RotRect,1.650000X2.500000X165.000000*%
%TD*%
%TA.AperFunction,ComponentPad*%
%ADD34RotRect,2.000000X2.000000X75.000000*%
%TD*%
%TA.AperFunction,ComponentPad*%
%ADD35HorizOval,2.000000X0.000000X0.000000X0.000000X0.000000X0*%
%TD*%
%TA.AperFunction,ComponentPad*%
%ADD36RoundRect,0.250000X-0.350000X-0.625000X0.350000X-0.625000X0.350000X0.625000X-0.350000X0.625000X0*%
%TD*%
%TA.AperFunction,ComponentPad*%
%ADD37O,1.200000X1.750000*%
%TD*%
%TA.AperFunction,ComponentPad*%
%ADD38C,2.000000*%
%TD*%
%TA.AperFunction,ViaPad*%
%ADD39C,0.600000*%
%TD*%
%TA.AperFunction,Conductor*%
%ADD40C,0.200000*%
%TD*%
G04 APERTURE END LIST*
D10*
%TO.P,H1,1*%
%TO.N,N/C*%
X198250000Y-107500000D03*
%TD*%
%TO.P,H2,1*%
%TO.N,N/C*%
X42500000Y-30500000D03*
%TD*%
%TO.P,H3,1*%
%TO.N,N/C*%
X152750000Y-145000000D03*
%TD*%
%TO.P,H6,1*%
%TO.N,N/C*%
X143250000Y-29750000D03*
%TD*%
D11*
%TO.P,U1,1,1*%
%TO.N,B-*%
X182130000Y-32530000D03*
%TO.P,U1,2,0*%
%TO.N,DISPL_CS*%
X182130000Y-35070000D03*
D12*
%TO.P,U1,3,GND*%
%TO.N,GND*%
X182130000Y-37610000D03*
%TO.P,U1,4,GND*%
X182130000Y-40150000D03*
D11*
%TO.P,U1,5,2*%
%TO.N,unconnected-(U1-2-Pad5)*%
X182130000Y-42690000D03*
%TO.P,U1,6,3*%
%TO.N,unconnected-(U1-3-Pad6)*%
X182130000Y-45230000D03*
%TO.P,U1,7,4*%
%TO.N,unconnected-(U1-4-Pad7)*%
X182130000Y-47770000D03*
%TO.P,U1,8,5*%
%TO.N,unconnected-(U1-5-Pad8)*%
X182130000Y-50310000D03*
%TO.P,U1,9,6*%
%TO.N,DISPL_DC*%
X182130000Y-52850000D03*
%TO.P,U1,10,7*%
%TO.N,DISPL_D1_MOSI*%
X182130000Y-55390000D03*
%TO.P,U1,11,8*%
%TO.N,DISPL_D0_SCK*%
X182130000Y-57930000D03*
%TO.P,U1,12,9*%
%TO.N,DISPL_RES*%
X182130000Y-60470000D03*
%TO.P,U1,13,B+*%
%TO.N,SW_B+*%
X197370000Y-32530000D03*
D12*
%TO.P,U1,14,GND*%
%TO.N,GND*%
X197370000Y-35070000D03*
D11*
%TO.P,U1,15,RST*%
%TO.N,RESET*%
X197370000Y-37610000D03*
%TO.P,U1,16,3.3v*%
%TO.N,VCC_3.3V*%
X197370000Y-40150000D03*
%TO.P,U1,17,21*%
%TO.N,Pin_Interrupt*%
X197370000Y-42690000D03*
%TO.P,U1,18,20*%
%TO.N,Pin_7*%
X197370000Y-45230000D03*
%TO.P,U1,19,19*%
%TO.N,Pin_6*%
X197370000Y-47770000D03*
%TO.P,U1,20,18*%
%TO.N,Pin_5*%
X197370000Y-50310000D03*
%TO.P,U1,21,15*%
%TO.N,Pin_4*%
X197370000Y-52850000D03*
%TO.P,U1,22,14*%
%TO.N,Pin_3*%
X197370000Y-55390000D03*
%TO.P,U1,23,16*%
%TO.N,Pin_2*%
X197370000Y-57930000D03*
%TO.P,U1,24,10*%
%TO.N,Pin_1*%
X197370000Y-60470000D03*
%TD*%
D10*
%TO.P,H7,1*%
%TO.N,N/C*%
X203250000Y-30500000D03*
%TD*%
%TO.P,H5,1*%
%TO.N,N/C*%
X42000000Y-126500000D03*
%TD*%
D13*
%TO.P,Display,1,Pin_1*%
%TO.N,GND*%
X187250000Y-68750000D03*
D14*
%TO.P,Display,2,Pin_2*%
%TO.N,VCC_3.3V*%
X189250000Y-68750000D03*
%TO.P,Display,3,Pin_3*%
%TO.N,DISPL_D0_SCK*%
X191250000Y-68750000D03*
%TO.P,Display,4,Pin_4*%
%TO.N,DISPL_D1_MOSI*%
X193250000Y-68750000D03*
%TO.P,Display,5,Pin_5*%
%TO.N,DISPL_RES*%
X195250000Y-68750000D03*
%TO.P,Display,6,Pin_6*%
%TO.N,DISPL_DC*%
X197250000Y-68750000D03*
%TO.P,Display,7,Pin_7*%
%TO.N,DISPL_CS*%
X199250000Y-68750000D03*
%TD*%
D15*
%TO.P,D[3:2]1,1,K*%
%TO.N,Net-(D[1:1]1-K)*%
X100750000Y-61790000D03*
D16*
%TO.P,D[3:2]1,2,A*%
%TO.N,Net-(D[3:2]1-A)*%
X100750000Y-56710000D03*
%TD*%
D17*
%TO.P,SW_[7:2]1,1,1*%
%TO.N,Pin_7*%
X169690000Y-70860000D03*
D18*
X169690000Y-69035000D03*
D19*
X169690000Y-67310000D03*
%TO.P,SW_[7:2]1,2,2*%
%TO.N,Net-(D[7:2]1-A)*%
X172230000Y-80760000D03*
D18*
X172230000Y-79010000D03*
D17*
X172230000Y-77210000D03*
%TD*%
%TO.P,SW_[1:4]1,1,1*%
%TO.N,Pin_1*%
X46770000Y-98460000D03*
D20*
X44945000Y-98460000D03*
D21*
X43220000Y-98460000D03*
%TO.P,SW_[1:4]1,2,2*%
%TO.N,Net-(D[1:4]1-A)*%
X56670000Y-95920000D03*
D20*
X54920000Y-95920000D03*
D17*
X53120000Y-95920000D03*
%TD*%
D15*
%TO.P,D_I_[6:2]1,1,K*%
%TO.N,Pin_Interrupt*%
X200040000Y-84250000D03*
D16*
%TO.P,D_I_[6:2]1,2,A*%
%TO.N,Net-(D[1:5]1-K)*%
X194960000Y-84250000D03*
%TD*%
D15*
%TO.P,D_I[1:2]1,1,K*%
%TO.N,Pin_Interrupt*%
X200540000Y-100500000D03*
D16*
%TO.P,D_I[1:2]1,2,A*%
%TO.N,Net-(DI_[1:1]1-A)*%
X195460000Y-100500000D03*
%TD*%
D15*
%TO.P,D[4:2]1,1,K*%
%TO.N,Net-(D[1:1]1-K)*%
X119500000Y-63540000D03*
D16*
%TO.P,D[4:2]1,2,A*%
%TO.N,Net-(D[4:2]1-A)*%
X119500000Y-58460000D03*
%TD*%
D15*
%TO.P,D[5:1]1,1,K*%
%TO.N,Net-(DI_[1:1]1-A)*%
X137750000Y-42790000D03*
D16*
%TO.P,D[5:1]1,2,A*%
%TO.N,Net-(D[5:1]1-A)*%
X137750000Y-37710000D03*
%TD*%
D15*
%TO.P,D[1:5]1,1,K*%
%TO.N,Net-(D[1:5]1-K)*%
X61540000Y-125540000D03*
D16*
%TO.P,D[1:5]1,2,A*%
%TO.N,Net-(D[1:5]1-A)*%
X61540000Y-120460000D03*
%TD*%
D15*
%TO.P,D[6:2]1,1,K*%
%TO.N,Net-(D[1:1]1-K)*%
X157750000Y-66540000D03*
D16*
%TO.P,D[6:2]1,2,A*%
%TO.N,Net-(D[6:2]1-A)*%
X157750000Y-61460000D03*
%TD*%
D15*
%TO.P,D_I_[2:1]1,1,K*%
%TO.N,Pin_2*%
X185960000Y-97250000D03*
D16*
%TO.P,D_I_[2:1]1,2,A*%
%TO.N,Net-(D[1:1]1-K)*%
X191040000Y-97250000D03*
%TD*%
D17*
%TO.P,SW_[6:1]1,1,1*%
%TO.N,Pin_6*%
X144340000Y-38760000D03*
D20*
X142515000Y-38760000D03*
D21*
X140790000Y-38760000D03*
%TO.P,SW_[6:1]1,2,2*%
%TO.N,Net-(D[6:1]1-A)*%
X154240000Y-36220000D03*
D20*
X152490000Y-36220000D03*
D17*
X150690000Y-36220000D03*
%TD*%
D15*
%TO.P,D_I_[2:2]1,1,K*%
%TO.N,Pin_Interrupt*%
X200540000Y-97250000D03*
D16*
%TO.P,D_I_[2:2]1,2,A*%
%TO.N,Net-(D[1:1]1-K)*%
X195460000Y-97250000D03*
%TD*%
D15*
%TO.P,D[5:2]1,1,K*%
%TO.N,Net-(D[1:1]1-K)*%
X139000000Y-66290000D03*
D16*
%TO.P,D[5:2]1,2,A*%
%TO.N,Net-(D[5:2]1-A)*%
X139000000Y-61210000D03*
%TD*%
D17*
%TO.P,SW_[2:4]1,1,1*%
%TO.N,Pin_2*%
X68110000Y-98460000D03*
D20*
X66285000Y-98460000D03*
D21*
X64560000Y-98460000D03*
%TO.P,SW_[2:4]1,2,2*%
%TO.N,Net-(D[2:4]1-A)*%
X78010000Y-95920000D03*
D20*
X76260000Y-95920000D03*
D17*
X74460000Y-95920000D03*
%TD*%
%TO.P,SW_[2:5]1,1,1*%
%TO.N,Pin_2*%
X68054800Y-117390500D03*
D20*
X66229800Y-117390500D03*
D21*
X64504800Y-117390500D03*
%TO.P,SW_[2:5]1,2,2*%
%TO.N,Net-(D[2:5]1-A)*%
X77954800Y-114850500D03*
D20*
X76204800Y-114850500D03*
D17*
X74404800Y-114850500D03*
%TD*%
D15*
%TO.P,D_I_[4:1]1,1,K*%
%TO.N,Pin_4*%
X185710000Y-90750000D03*
D16*
%TO.P,D_I_[4:1]1,2,A*%
%TO.N,Net-(D[1:3]1-K)*%
X190790000Y-90750000D03*
%TD*%
D17*
%TO.P,SW_[1:3]1,1,1*%
%TO.N,Pin_1*%
X46690000Y-79210000D03*
D20*
X44865000Y-79210000D03*
D21*
X43140000Y-79210000D03*
%TO.P,SW_[1:3]1,2,2*%
%TO.N,Net-(D[1:3]1-A)*%
X56590000Y-76670000D03*
D20*
X54840000Y-76670000D03*
D17*
X53040000Y-76670000D03*
%TD*%
D15*
%TO.P,D[6:1]1,1,K*%
%TO.N,Net-(DI_[1:1]1-A)*%
X157500000Y-43290000D03*
D16*
%TO.P,D[6:1]1,2,A*%
%TO.N,Net-(D[6:1]1-A)*%
X157500000Y-38210000D03*
%TD*%
D15*
%TO.P,D[4:5]1,1,K*%
%TO.N,Net-(D[1:5]1-K)*%
X119250000Y-120540000D03*
D16*
%TO.P,D[4:5]1,2,A*%
%TO.N,Net-(D[4:5]1-A)*%
X119250000Y-115460000D03*
%TD*%
D22*
%TO.P,D[7:3]1,1,K*%
%TO.N,Net-(D[1:3]1-K)*%
X163300296Y-111230000D03*
D23*
%TO.P,D[7:3]1,2,A*%
%TO.N,Net-(D[7:3]1-A)*%
X167699705Y-113770000D03*
%TD*%
D17*
%TO.P,SW_[6:5]1,1,1*%
%TO.N,Pin_6*%
X156770444Y-121145295D03*
D24*
X155189947Y-120232795D03*
D25*
X153696053Y-119370295D03*
%TO.P,SW_[6:5]1,2,2*%
%TO.N,Net-(D[6:5]1-A)*%
X166614095Y-123895591D03*
D26*
X165098550Y-123020591D03*
D17*
X163539705Y-122120591D03*
%TD*%
%TO.P,SW_[2:2]1,1,1*%
%TO.N,Pin_2*%
X68054800Y-60210000D03*
D20*
X66229800Y-60210000D03*
D21*
X64504800Y-60210000D03*
%TO.P,SW_[2:2]1,2,2*%
%TO.N,Net-(D[2:2]1-A)*%
X77954800Y-57670000D03*
D20*
X76204800Y-57670000D03*
D17*
X74404800Y-57670000D03*
%TD*%
D27*
%TO.P,Battery1,1,Pin_1*%
%TO.N,B+*%
X50000000Y-31750000D03*
D28*
%TO.P,Battery1,2,Pin_2*%
%TO.N,B-*%
X50000000Y-33750000D03*
%TD*%
D17*
%TO.P,SW_[4:3]1,1,1*%
%TO.N,Pin_4*%
X106254800Y-72090500D03*
D20*
X104429800Y-72090500D03*
D21*
X102704800Y-72090500D03*
%TO.P,SW_[4:3]1,2,2*%
%TO.N,Net-(D[4:3]1-A)*%
X116154800Y-69550500D03*
D20*
X114404800Y-69550500D03*
D17*
X112604800Y-69550500D03*
%TD*%
D15*
%TO.P,D[1:1]1,1,K*%
%TO.N,Net-(D[1:1]1-K)*%
X59540000Y-52750000D03*
D16*
%TO.P,D[1:1]1,2,A*%
%TO.N,Net-(D[1:1]1-A)*%
X54460000Y-52750000D03*
%TD*%
D15*
%TO.P,D[4:1]1,1,K*%
%TO.N,Net-(DI_[1:1]1-A)*%
X119540000Y-46000000D03*
D16*
%TO.P,D[4:1]1,2,A*%
%TO.N,Net-(D[4:1]1-A)*%
X114460000Y-46000000D03*
%TD*%
D15*
%TO.P,D[2:4]1,1,K*%
%TO.N,Net-(D[1:4]1-K)*%
X81250000Y-107540000D03*
D16*
%TO.P,D[2:4]1,2,A*%
%TO.N,Net-(D[2:4]1-A)*%
X81250000Y-102460000D03*
%TD*%
%TO.P,D[1:4]1,2,A*%
%TO.N,Net-(D[1:4]1-A)*%
X60000000Y-102460000D03*
D15*
%TO.P,D[1:4]1,1,K*%
%TO.N,Net-(D[1:4]1-K)*%
X60000000Y-107540000D03*
%TD*%
D29*
%TO.P,D[6:5]1,1,K*%
%TO.N,Net-(D[1:4]1-K)*%
X162980000Y-136949705D03*
D30*
%TO.P,D[6:5]1,2,A*%
%TO.N,Net-(D[6:5]1-A)*%
X165520000Y-132550296D03*
%TD*%
D17*
%TO.P,SW_[6:4]1,1,1*%
%TO.N,Pin_6*%
X144340000Y-95910000D03*
D20*
X142515000Y-95910000D03*
D21*
X140790000Y-95910000D03*
%TO.P,SW_[6:4]1,2,2*%
%TO.N,Net-(D[6:4]1-A)*%
X154240000Y-93370000D03*
D20*
X152490000Y-93370000D03*
D17*
X150690000Y-93370000D03*
%TD*%
%TO.P,SW_[5:5]1,1,1*%
%TO.N,Pin_5*%
X132070323Y-114795649D03*
D31*
X130307510Y-114323302D03*
D32*
X128641286Y-113876841D03*
%TO.P,SW_[5:5]1,2,2*%
%TO.N,Net-(D[5:5]1-A)*%
X142290389Y-114904505D03*
D33*
X140600020Y-114451572D03*
D17*
X138861354Y-113985696D03*
%TD*%
D15*
%TO.P,D[6:4]1,1,K*%
%TO.N,Net-(D[1:3]1-K)*%
X159000000Y-102790000D03*
D16*
%TO.P,D[6:4]1,2,A*%
%TO.N,Net-(D[6:4]1-A)*%
X159000000Y-97710000D03*
%TD*%
D17*
%TO.P,SW_[7:3]1,1,1*%
%TO.N,Pin_7*%
X168721044Y-100405295D03*
D24*
X167140547Y-99492795D03*
D25*
X165646653Y-98630295D03*
%TO.P,SW_[7:3]1,2,2*%
%TO.N,Net-(D[7:3]1-A)*%
X178564695Y-103155591D03*
D26*
X177049150Y-102280591D03*
D17*
X175490305Y-101380591D03*
%TD*%
%TO.P,SW_[3:1]1,1,1*%
%TO.N,Pin_3*%
X87190000Y-36410600D03*
D20*
X85365000Y-36410600D03*
D21*
X83640000Y-36410600D03*
%TO.P,SW_[3:1]1,2,2*%
%TO.N,Net-(D[3:1]1-A)*%
X97090000Y-33870600D03*
D20*
X95340000Y-33870600D03*
D17*
X93540000Y-33870600D03*
%TD*%
D15*
%TO.P,D_I_[5:1]1,1,K*%
%TO.N,Pin_5*%
X185710000Y-87500000D03*
D16*
%TO.P,D_I_[5:1]1,2,A*%
%TO.N,Net-(D[1:4]1-K)*%
X190790000Y-87500000D03*
%TD*%
D17*
%TO.P,SW_[6:2]1,1,1*%
%TO.N,Pin_6*%
X144340000Y-57810000D03*
D20*
X142515000Y-57810000D03*
D21*
X140790000Y-57810000D03*
%TO.P,SW_[6:2]1,2,2*%
%TO.N,Net-(D[6:2]1-A)*%
X154240000Y-55270000D03*
D20*
X152490000Y-55270000D03*
D17*
X150690000Y-55270000D03*
%TD*%
D15*
%TO.P,D[5:4]1,1,K*%
%TO.N,Net-(D[1:3]1-K)*%
X138500000Y-104040000D03*
D16*
%TO.P,D[5:4]1,2,A*%
%TO.N,Net-(D[5:4]1-A)*%
X138500000Y-98960000D03*
%TD*%
D34*
%TO.P,D[5:5]1,1,K*%
%TO.N,Net-(D[1:5]1-K)*%
X143342600Y-127703452D03*
D35*
%TO.P,D[5:5]1,2,A*%
%TO.N,Net-(D[5:5]1-A)*%
X144657401Y-122796549D03*
%TD*%
D15*
%TO.P,D[1:2]1,1,K*%
%TO.N,Net-(D[1:2]1-K)*%
X59750000Y-70790000D03*
D16*
%TO.P,D[1:2]1,2,A*%
%TO.N,Net-(D[1:2]1-A)*%
X59750000Y-65710000D03*
%TD*%
D15*
%TO.P,D[2:3]1,1,K*%
%TO.N,Net-(D[1:3]1-K)*%
X81000000Y-88540000D03*
D16*
%TO.P,D[2:3]1,2,A*%
%TO.N,Net-(D[2:3]1-A)*%
X81000000Y-83460000D03*
%TD*%
D17*
%TO.P,SW_[5:3]1,1,1*%
%TO.N,Pin_5*%
X125290000Y-74510000D03*
D20*
X123465000Y-74510000D03*
D21*
X121740000Y-74510000D03*
%TO.P,SW_[5:3]1,2,2*%
%TO.N,Net-(D[5:3]1-A)*%
X135190000Y-71970000D03*
D20*
X133440000Y-71970000D03*
D17*
X131640000Y-71970000D03*
%TD*%
D15*
%TO.P,D[2:2]1,1,K*%
%TO.N,Net-(D[1:2]1-K)*%
X81500000Y-68790000D03*
D16*
%TO.P,D[2:2]1,2,A*%
%TO.N,Net-(D[2:2]1-A)*%
X81500000Y-63710000D03*
%TD*%
D17*
%TO.P,SW_[3:4]1,1,1*%
%TO.N,Pin_3*%
X87190000Y-93460000D03*
D20*
X85365000Y-93460000D03*
D21*
X83640000Y-93460000D03*
%TO.P,SW_[3:4]1,2,2*%
%TO.N,Net-(D[3:4]1-A)*%
X97090000Y-90920000D03*
D20*
X95340000Y-90920000D03*
D17*
X93540000Y-90920000D03*
%TD*%
D15*
%TO.P,D[3:5]1,1,K*%
%TO.N,Net-(D[1:5]1-K)*%
X100250000Y-119040000D03*
D16*
%TO.P,D[3:5]1,2,A*%
%TO.N,Net-(D[3:5]1-A)*%
X100250000Y-113960000D03*
%TD*%
D15*
%TO.P,D[1:3]1,1,K*%
%TO.N,Net-(D[1:3]1-K)*%
X60000000Y-88790000D03*
D16*
%TO.P,D[1:3]1,2,A*%
%TO.N,Net-(D[1:3]1-A)*%
X60000000Y-83710000D03*
%TD*%
D15*
%TO.P,D[4:4]1,1,K*%
%TO.N,Net-(D[1:4]1-K)*%
X119500000Y-101790000D03*
D16*
%TO.P,D[4:4]1,2,A*%
%TO.N,Net-(D[4:4]1-A)*%
X119500000Y-96710000D03*
%TD*%
D15*
%TO.P,D_I_[5:2]1,1,K*%
%TO.N,Pin_Interrupt*%
X200040000Y-87500000D03*
D16*
%TO.P,D_I_[5:2]1,2,A*%
%TO.N,Net-(D[1:4]1-K)*%
X194960000Y-87500000D03*
%TD*%
D17*
%TO.P,SW_[5:1]1,1,1*%
%TO.N,Pin_5*%
X125290000Y-36410000D03*
D20*
X123465000Y-36410000D03*
D21*
X121740000Y-36410000D03*
%TO.P,SW_[5:1]1,2,2*%
%TO.N,Net-(D[5:1]1-A)*%
X135190000Y-33870000D03*
D20*
X133440000Y-33870000D03*
D17*
X131640000Y-33870000D03*
%TD*%
D15*
%TO.P,D[7:1]1,1,K*%
%TO.N,Net-(D[1:1]1-K)*%
X171540000Y-59750000D03*
D16*
%TO.P,D[7:1]1,2,A*%
%TO.N,Net-(D[7:1]1-A)*%
X166460000Y-59750000D03*
%TD*%
D15*
%TO.P,DI_[1:1]1,1,K*%
%TO.N,Pin_1*%
X185960000Y-100500000D03*
D16*
%TO.P,DI_[1:1]1,2,A*%
%TO.N,Net-(DI_[1:1]1-A)*%
X191040000Y-100500000D03*
%TD*%
D17*
%TO.P,SW_[4:5]1,1,1*%
%TO.N,Pin_4*%
X106270000Y-110210000D03*
D20*
X104445000Y-110210000D03*
D21*
X102720000Y-110210000D03*
%TO.P,SW_[4:5]1,2,2*%
%TO.N,Net-(D[4:5]1-A)*%
X116170000Y-107670000D03*
D20*
X114420000Y-107670000D03*
D17*
X112620000Y-107670000D03*
%TD*%
%TO.P,SW_[1:5]1,1,1*%
%TO.N,Pin_1*%
X49110000Y-117460000D03*
D20*
X47285000Y-117460000D03*
D21*
X45560000Y-117460000D03*
%TO.P,SW_[1:5]1,2,2*%
%TO.N,Net-(D[1:5]1-A)*%
X59010000Y-114920000D03*
D20*
X57260000Y-114920000D03*
D17*
X55460000Y-114920000D03*
%TD*%
D15*
%TO.P,D_I_[3:1]1,1,K*%
%TO.N,Pin_3*%
X185920000Y-94000000D03*
D16*
%TO.P,D_I_[3:1]1,2,A*%
%TO.N,Net-(D[1:2]1-K)*%
X191000000Y-94000000D03*
%TD*%
D17*
%TO.P,SW_[4:4]1,1,1*%
%TO.N,Pin_4*%
X106270000Y-91210000D03*
D20*
X104445000Y-91210000D03*
D21*
X102720000Y-91210000D03*
%TO.P,SW_[4:4]1,2,2*%
%TO.N,Net-(D[4:4]1-A)*%
X116170000Y-88670000D03*
D20*
X114420000Y-88670000D03*
D17*
X112620000Y-88670000D03*
%TD*%
%TO.P,SW_[2:1]1,1,1*%
%TO.N,Pin_2*%
X68070000Y-41060000D03*
D20*
X66245000Y-41060000D03*
D21*
X64520000Y-41060000D03*
%TO.P,SW_[2:1]1,2,2*%
%TO.N,Net-(D[2:1]1-A)*%
X77970000Y-38520000D03*
D20*
X76220000Y-38520000D03*
D17*
X74420000Y-38520000D03*
%TD*%
D15*
%TO.P,D[7:2]1,1,K*%
%TO.N,Net-(D[1:2]1-K)*%
X158500000Y-77290000D03*
D16*
%TO.P,D[7:2]1,2,A*%
%TO.N,Net-(D[7:2]1-A)*%
X158500000Y-72210000D03*
%TD*%
D17*
%TO.P,SW_[5:4]1,1,1*%
%TO.N,Pin_5*%
X125290000Y-93560000D03*
D20*
X123465000Y-93560000D03*
D21*
X121740000Y-93560000D03*
%TO.P,SW_[5:4]1,2,2*%
%TO.N,Net-(D[5:4]1-A)*%
X135190000Y-91020000D03*
D20*
X133440000Y-91020000D03*
D17*
X131640000Y-91020000D03*
%TD*%
D15*
%TO.P,D[2:5]1,1,K*%
%TO.N,Net-(D[1:5]1-K)*%
X80250000Y-125540000D03*
D16*
%TO.P,D[2:5]1,2,A*%
%TO.N,Net-(D[2:5]1-A)*%
X80250000Y-120460000D03*
%TD*%
D22*
%TO.P,D[7:5]1,1,K*%
%TO.N,Net-(D[1:5]1-K)*%
X167800295Y-141480000D03*
D23*
%TO.P,D[7:5]1,2,A*%
%TO.N,Net-(D[7:5]1-A)*%
X172199704Y-144020000D03*
%TD*%
D17*
%TO.P,SW_[2:3]1,1,1*%
%TO.N,Pin_2*%
X68110000Y-79210000D03*
D20*
X66285000Y-79210000D03*
D21*
X64560000Y-79210000D03*
%TO.P,SW_[2:3]1,2,2*%
%TO.N,Net-(D[2:3]1-A)*%
X78010000Y-76670000D03*
D20*
X76260000Y-76670000D03*
D17*
X74460000Y-76670000D03*
%TD*%
D36*
%TO.P,ON/OFF1,1,Pin_1*%
%TO.N,B+*%
X60750000Y-32000000D03*
D37*
%TO.P,ON/OFF1,2,Pin_2*%
%TO.N,SW_B+*%
X62750000Y-32000000D03*
%TD*%
D17*
%TO.P,SW_[4:2]1,2,2*%
%TO.N,Net-(D[4:2]1-A)*%
X112640000Y-50420000D03*
D20*
X114440000Y-50420000D03*
D21*
X116190000Y-50420000D03*
%TO.P,SW_[4:2]1,1,1*%
%TO.N,Pin_4*%
X102740000Y-52960000D03*
D20*
X104465000Y-52960000D03*
D17*
X106290000Y-52960000D03*
%TD*%
D38*
%TO.P,SW1,1*%
%TO.N,GND*%
X192750000Y-34500000D03*
X186250000Y-34500000D03*
%TO.P,SW1,2*%
%TO.N,RESET*%
X192750000Y-39000000D03*
X186250000Y-39000000D03*
%TD*%
D17*
%TO.P,SW_[4:1]1,1,1*%
%TO.N,Pin_4*%
X106290000Y-33810000D03*
D20*
X104465000Y-33810000D03*
D21*
X102740000Y-33810000D03*
%TO.P,SW_[4:1]1,2,2*%
%TO.N,Net-(D[4:1]1-A)*%
X116190000Y-31270000D03*
D20*
X114440000Y-31270000D03*
D17*
X112640000Y-31270000D03*
%TD*%
D22*
%TO.P,D[7:4]1,1,K*%
%TO.N,Net-(D[1:4]1-K)*%
X178550295Y-119730000D03*
D23*
%TO.P,D[7:4]1,2,A*%
%TO.N,Net-(D[7:4]1-A)*%
X182949704Y-122270000D03*
%TD*%
D17*
%TO.P,SW_[3:5]1,1,1*%
%TO.N,Pin_3*%
X87190000Y-112460000D03*
D20*
X85365000Y-112460000D03*
D21*
X83640000Y-112460000D03*
%TO.P,SW_[3:5]1,2,2*%
%TO.N,Net-(D[3:5]1-A)*%
X97090000Y-109920000D03*
D20*
X95340000Y-109920000D03*
D17*
X93540000Y-109920000D03*
%TD*%
D15*
%TO.P,D[3:3]1,1,K*%
%TO.N,Net-(D[1:3]1-K)*%
X100500000Y-85040000D03*
D16*
%TO.P,D[3:3]1,2,A*%
%TO.N,Net-(D[3:3]1-A)*%
X100500000Y-79960000D03*
%TD*%
D15*
%TO.P,D[3:4]1,1,K*%
%TO.N,Net-(D[1:4]1-K)*%
X100500000Y-103540000D03*
D16*
%TO.P,D[3:4]1,2,A*%
%TO.N,Net-(D[3:4]1-A)*%
X100500000Y-98460000D03*
%TD*%
D17*
%TO.P,SW_[7:4]1,1,1*%
%TO.N,Pin_7*%
X185270444Y-109945295D03*
D24*
X183689947Y-109032795D03*
D25*
X182196053Y-108170295D03*
%TO.P,SW_[7:4]1,2,2*%
%TO.N,Net-(D[7:4]1-A)*%
X195114095Y-112695591D03*
D26*
X193598550Y-111820591D03*
D17*
X192039705Y-110920591D03*
%TD*%
%TO.P,SW_[1:1]1,1,1*%
%TO.N,Pin_1*%
X46690000Y-41210000D03*
D20*
X44865000Y-41210000D03*
D21*
X43140000Y-41210000D03*
%TO.P,SW_[1:1]1,2,2*%
%TO.N,Net-(D[1:1]1-A)*%
X56590000Y-38670000D03*
D20*
X54840000Y-38670000D03*
D17*
X53040000Y-38670000D03*
%TD*%
D15*
%TO.P,D_I_[4:2]1,1,K*%
%TO.N,Pin_Interrupt*%
X200040000Y-90750000D03*
D16*
%TO.P,D_I_[4:2]1,2,A*%
%TO.N,Net-(D[1:3]1-K)*%
X194960000Y-90750000D03*
%TD*%
D15*
%TO.P,D_I_[3:2]1,1,K*%
%TO.N,Pin_Interrupt*%
X200290000Y-94000000D03*
D16*
%TO.P,D_I_[3:2]1,2,A*%
%TO.N,Net-(D[1:2]1-K)*%
X195210000Y-94000000D03*
%TD*%
D15*
%TO.P,D_I_[6:1]1,1,K*%
%TO.N,Pin_6*%
X185710000Y-84250000D03*
D16*
%TO.P,D_I_[6:1]1,2,A*%
%TO.N,Net-(D[1:5]1-K)*%
X190790000Y-84250000D03*
%TD*%
D17*
%TO.P,SW_[5:2]1,1,1*%
%TO.N,Pin_5*%
X125290000Y-55460000D03*
D20*
X123465000Y-55460000D03*
D21*
X121740000Y-55460000D03*
%TO.P,SW_[5:2]1,2,2*%
%TO.N,Net-(D[5:2]1-A)*%
X135190000Y-52920000D03*
D20*
X133440000Y-52920000D03*
D17*
X131640000Y-52920000D03*
%TD*%
D15*
%TO.P,D[6:3]1,1,K*%
%TO.N,Net-(D[1:2]1-K)*%
X158250000Y-87790000D03*
D16*
%TO.P,D[6:3]1,2,A*%
%TO.N,Net-(D[6:3]1-A)*%
X158250000Y-82710000D03*
%TD*%
D17*
%TO.P,SW_[3:2]1,1,1*%
%TO.N,Pin_3*%
X87190000Y-55460100D03*
D20*
X85365000Y-55460100D03*
D21*
X83640000Y-55460100D03*
%TO.P,SW_[3:2]1,2,2*%
%TO.N,Net-(D[3:2]1-A)*%
X97090000Y-52920100D03*
D20*
X95340000Y-52920100D03*
D17*
X93540000Y-52920100D03*
%TD*%
D15*
%TO.P,D[5:3]1,1,K*%
%TO.N,Net-(D[1:2]1-K)*%
X138250000Y-84540000D03*
D16*
%TO.P,D[5:3]1,2,A*%
%TO.N,Net-(D[5:3]1-A)*%
X138250000Y-79460000D03*
%TD*%
D15*
%TO.P,D[4:3]1,1,K*%
%TO.N,Net-(D[1:2]1-K)*%
X119500000Y-82790000D03*
D16*
%TO.P,D[4:3]1,2,A*%
%TO.N,Net-(D[4:3]1-A)*%
X119500000Y-77710000D03*
%TD*%
D17*
%TO.P,SW_[1:2]1,1,1*%
%TO.N,Pin_1*%
X46690000Y-60210000D03*
D20*
X44865000Y-60210000D03*
D21*
X43140000Y-60210000D03*
%TO.P,SW_[1:2]1,2,2*%
%TO.N,Net-(D[1:2]1-A)*%
X56590000Y-57670000D03*
D20*
X54840000Y-57670000D03*
D17*
X53040000Y-57670000D03*
%TD*%
D16*
%TO.P,D[2:1]1,2,A*%
%TO.N,Net-(D[2:1]1-A)*%
X76710000Y-52250000D03*
D15*
%TO.P,D[2:1]1,1,K*%
%TO.N,Net-(DI_[1:1]1-A)*%
X81790000Y-52250000D03*
%TD*%
D17*
%TO.P,SW_[3:3]1,1,1*%
%TO.N,Pin_3*%
X87190000Y-74460000D03*
D20*
X85365000Y-74460000D03*
D21*
X83640000Y-74460000D03*
%TO.P,SW_[3:3]1,2,2*%
%TO.N,Net-(D[3:3]1-A)*%
X97090000Y-71920000D03*
D20*
X95340000Y-71920000D03*
D17*
X93540000Y-71920000D03*
%TD*%
%TO.P,SW_[7:1]1,1,1*%
%TO.N,Pin_7*%
X163390000Y-48310000D03*
D20*
X161565000Y-48310000D03*
D21*
X159840000Y-48310000D03*
%TO.P,SW_[7:1]1,2,2*%
%TO.N,Net-(D[7:1]1-A)*%
X173290000Y-45770000D03*
D20*
X171540000Y-45770000D03*
D17*
X169740000Y-45770000D03*
%TD*%
D16*
%TO.P,D[3:1]1,2,A*%
%TO.N,Net-(D[3:1]1-A)*%
X100500000Y-42710000D03*
D15*
%TO.P,D[3:1]1,1,K*%
%TO.N,Net-(DI_[1:1]1-A)*%
X100500000Y-47790000D03*
%TD*%
D17*
%TO.P,SW_[7:5]1,1,1*%
%TO.N,Pin_7*%
X173220444Y-130645295D03*
D24*
X171639947Y-129732795D03*
D25*
X170146053Y-128870295D03*
%TO.P,SW_[7:5]1,2,2*%
%TO.N,Net-(D[7:5]1-A)*%
X183064095Y-133395591D03*
D26*
X181548550Y-132520591D03*
D17*
X179989705Y-131620591D03*
%TD*%
%TO.P,SW_[6:3]1,1,1*%
%TO.N,Pin_6*%
X144340000Y-76890500D03*
D20*
X142515000Y-76890500D03*
D21*
X140790000Y-76890500D03*
%TO.P,SW_[6:3]1,2,2*%
%TO.N,Net-(D[6:3]1-A)*%
X154240000Y-74350500D03*
D20*
X152490000Y-74350500D03*
D17*
X150690000Y-74350500D03*
%TD*%
D39*
%TO.N,Net-(D[1:4]1-K)*%
X104000000Y-104500000D03*
%TO.N,Pin_2*%
X168750000Y-90500000D03*
X170500000Y-90500000D03*
%TO.N,Net-(D[1:1]1-K)*%
X188750000Y-75000000D03*
X179500000Y-67000000D03*
X193500000Y-79500000D03*
X175250000Y-64750000D03*
%TO.N,Net-(D[1:2]1-K)*%
X171750000Y-88750000D03*
X193250000Y-92000000D03*
%TO.N,Net-(D[1:3]1-K)*%
X180000000Y-106500000D03*
X183000000Y-104250000D03*
%TD*%
D40*
%TO.N,Net-(D[1:5]1-K)*%
X198740000Y-88030000D02*
X198740000Y-102141372D01*
X189146025Y-124439991D02*
X182523871Y-131062145D01*
X197331372Y-103550000D02*
X196652579Y-103550000D01*
X178039705Y-135546311D02*
X172106016Y-141480000D01*
X196652579Y-103550000D02*
X189643900Y-110558679D01*
X194960000Y-84250000D02*
X198740000Y-88030000D01*
X198740000Y-102141372D02*
X197331372Y-103550000D01*
X189643900Y-110558679D02*
X189643900Y-116979556D01*
X187970291Y-118653165D02*
X187970291Y-122283675D01*
X189643900Y-116979556D02*
X187970291Y-118653165D01*
X189146025Y-123459409D02*
X189146025Y-124439991D01*
X187970291Y-122283675D02*
X189146025Y-123459409D01*
X182523871Y-131062145D02*
X181132317Y-129670591D01*
X181132317Y-129670591D02*
X179181988Y-129670591D01*
X179181988Y-129670591D02*
X178039705Y-130812874D01*
X178039705Y-130812874D02*
X178039705Y-135546311D01*
X172106016Y-141480000D02*
X167800295Y-141480000D01*
%TO.N,Net-(D[1:4]1-K)*%
X194960000Y-87500000D02*
X197160000Y-89700000D01*
X197160000Y-89700000D02*
X197160000Y-102046100D01*
X197160000Y-102046100D02*
X187500000Y-111706100D01*
X186329125Y-111706100D02*
X178550295Y-119484930D01*
X187500000Y-111706100D02*
X186329125Y-111706100D01*
X178550295Y-119484930D02*
X178550295Y-119730000D01*
%TO.N,Net-(D[5:4]1-A)*%
X131640000Y-91020000D02*
X138500000Y-97880000D01*
X138500000Y-97880000D02*
X138500000Y-98960000D01*
%TO.N,Net-(D[3:4]1-A)*%
X93540000Y-90920000D02*
X100500000Y-97880000D01*
X100500000Y-97880000D02*
X100500000Y-98460000D01*
X100330000Y-97710000D02*
X100500000Y-97710000D01*
%TO.N,Net-(D[5:3]1-A)*%
X131640000Y-71970000D02*
X138250000Y-78580000D01*
X138250000Y-78580000D02*
X138250000Y-79460000D01*
%TO.N,Net-(D[5:2]1-A)*%
X131640000Y-52920000D02*
X139000000Y-60280000D01*
X139000000Y-60280000D02*
X139000000Y-61210000D01*
%TO.N,Net-(D[1:5]1-A)*%
X55460000Y-114920000D02*
X61000000Y-120460000D01*
X61000000Y-120460000D02*
X61540000Y-120460000D01*
%TO.N,Net-(D[1:4]1-A)*%
X60000000Y-102460000D02*
X57837700Y-102460000D01*
%TO.N,Net-(D[3:1]1-A)*%
X100500000Y-42710000D02*
X100500000Y-40830600D01*
X100500000Y-40830600D02*
X93540000Y-33870600D01*
%TO.N,Net-(D[4:1]1-A)*%
X112640000Y-31270000D02*
X112640000Y-44180000D01*
X112640000Y-44180000D02*
X114460000Y-46000000D01*
%TO.N,Net-(D[5:1]1-A)*%
X137750000Y-37710000D02*
X135207588Y-40252412D01*
X135207588Y-40252412D02*
X133750000Y-40252412D01*
X133750000Y-40252412D02*
X132152100Y-38654512D01*
X132152100Y-38654512D02*
X132152100Y-34382000D01*
%TO.N,Net-(DI_[1:1]1-A)*%
X195460000Y-100500000D02*
X194160000Y-99200000D01*
X194160000Y-99200000D02*
X191120000Y-99200000D01*
X176750000Y-87430000D02*
X176750000Y-46420256D01*
X187220000Y-95300000D02*
X184620000Y-95300000D01*
X191120000Y-99200000D02*
X187220000Y-95300000D01*
X157960000Y-43750000D02*
X157500000Y-43290000D01*
X184620000Y-95300000D02*
X176750000Y-87430000D01*
X176750000Y-46420256D02*
X174079744Y-43750000D01*
X174079744Y-43750000D02*
X157960000Y-43750000D01*
%TO.N,Net-(D[6:1]1-A)*%
X157500000Y-38210000D02*
X157500000Y-38762412D01*
X153710000Y-42552412D02*
X152750000Y-42552412D01*
X157500000Y-38762412D02*
X153710000Y-42552412D01*
X152750000Y-42552412D02*
X150690000Y-40492412D01*
X150690000Y-40492412D02*
X150690000Y-36220000D01*
%TO.N,Net-(D[1:1]1-K)*%
X171540000Y-59750000D02*
X171540000Y-61040000D01*
X171540000Y-61040000D02*
X175250000Y-64750000D01*
%TO.N,Net-(D[7:1]1-A)*%
X166460000Y-59750000D02*
X170210000Y-56000000D01*
X170210000Y-56000000D02*
X170210000Y-46240000D01*
%TO.N,Net-(D[2:2]1-A)*%
X81500000Y-63710000D02*
X81500000Y-63560300D01*
X81500000Y-63560300D02*
X77161400Y-59221700D01*
%TO.N,Net-(D[3:2]1-A)*%
X93928000Y-52920100D02*
X96960100Y-52920100D01*
X96960100Y-52920100D02*
X100750000Y-56710000D01*
%TO.N,Net-(D[4:2]1-A)*%
X119500000Y-58460000D02*
X116616100Y-55576100D01*
X116616100Y-50846100D02*
X116190000Y-50420000D01*
X116616100Y-55576100D02*
X116616100Y-50846100D01*
%TO.N,Net-(D[5:2]1-A)*%
X131640000Y-53100000D02*
X131640000Y-52920000D01*
%TO.N,Net-(D[6:2]1-A)*%
X157750000Y-61460000D02*
X157540000Y-61250000D01*
X157540000Y-61250000D02*
X156000000Y-61250000D01*
X153005900Y-62158300D02*
X151481300Y-60633700D01*
X156000000Y-61250000D02*
X155091700Y-62158300D01*
X151481300Y-58924800D02*
X150690000Y-58133500D01*
X155091700Y-62158300D02*
X153005900Y-62158300D01*
X151481300Y-60633700D02*
X151481300Y-58924800D01*
X150690000Y-58133500D02*
X150690000Y-55270000D01*
%TO.N,Net-(D[7:2]1-A)*%
X158500000Y-72210000D02*
X162750000Y-76460000D01*
X162750000Y-76460000D02*
X162750000Y-76515000D01*
%TO.N,Net-(D[1:2]1-K)*%
X158250000Y-87790000D02*
X170790000Y-87790000D01*
X170790000Y-87790000D02*
X171750000Y-88750000D01*
%TO.N,Net-(D[6:3]1-A)*%
X158250000Y-82710000D02*
X157426400Y-82710000D01*
X157426400Y-82710000D02*
X154697300Y-79980900D01*
X154697300Y-79980900D02*
X154697300Y-74807800D01*
X154697300Y-74807800D02*
X154240000Y-74350500D01*
%TO.N,Net-(D[4:3]1-A)*%
X119500000Y-77710000D02*
X117948300Y-76158300D01*
X117948300Y-76158300D02*
X114605100Y-76158300D01*
X114605100Y-76158300D02*
X113396100Y-74949300D01*
X113396100Y-74949300D02*
X113396100Y-73205300D01*
X113396100Y-73205300D02*
X112604800Y-72414000D01*
X112604800Y-72414000D02*
X112604800Y-69550500D01*
%TO.N,Net-(D[3:3]1-A)*%
X100500000Y-79960000D02*
X99570100Y-79960000D01*
X99570100Y-79960000D02*
X97509200Y-77899100D01*
X97509200Y-74687800D02*
X96293100Y-73471700D01*
X97509200Y-77899100D02*
X97509200Y-74687800D01*
%TO.N,Net-(D[2:3]1-A)*%
X81000000Y-83460000D02*
X78908300Y-83460000D01*
X78908300Y-83460000D02*
X78428300Y-82980000D01*
X78428300Y-82980000D02*
X78428300Y-77088300D01*
X78428300Y-77088300D02*
X78010000Y-76670000D01*
%TO.N,Net-(D[4:4]1-A)*%
X113411300Y-94051800D02*
X113411300Y-92324800D01*
X118448300Y-95658300D02*
X115017800Y-95658300D01*
X119500000Y-96710000D02*
X118448300Y-95658300D01*
X115017800Y-95658300D02*
X113411300Y-94051800D01*
X113411300Y-92324800D02*
X112620000Y-91533500D01*
X112620000Y-91533500D02*
X112620000Y-88670000D01*
%TO.N,Net-(D[1:4]1-K)*%
X119500000Y-101790000D02*
X119429800Y-101860200D01*
X119429800Y-101860200D02*
X119429800Y-110956600D01*
X119429800Y-110956600D02*
X142547400Y-134074200D01*
X157530600Y-134074200D02*
X157530700Y-134074100D01*
X157530700Y-134074100D02*
X158960000Y-134899400D01*
X142547400Y-134074200D02*
X157530600Y-134074200D01*
X107210000Y-101790000D02*
X119500000Y-101790000D01*
X104000000Y-104500000D02*
X104500000Y-104500000D01*
X104500000Y-104500000D02*
X107210000Y-101790000D01*
%TO.N,Net-(D[1:3]1-K)*%
X180000000Y-106500000D02*
X171430000Y-115070000D01*
X171430000Y-115070000D02*
X167140296Y-115070000D01*
X167140296Y-115070000D02*
X163300296Y-111230000D01*
X159000000Y-102790000D02*
X159000000Y-106929704D01*
X159000000Y-106929704D02*
X163300296Y-111230000D01*
%TO.N,Net-(D[7:3]1-A)*%
X167699705Y-113770000D02*
X167699705Y-111248995D01*
X167699705Y-111248995D02*
X175490300Y-103458400D01*
%TO.N,Net-(D[6:4]1-A)*%
X156051700Y-100658300D02*
X153418600Y-100658300D01*
X151481300Y-98721000D02*
X151481300Y-97024800D01*
X150690000Y-96233500D02*
X150690000Y-93370000D01*
X153418600Y-100658300D02*
X151481300Y-98721000D01*
X151481300Y-97024800D02*
X150690000Y-96233500D01*
X159000000Y-97710000D02*
X156051700Y-100658300D01*
%TO.N,Net-(D[1:4]1-K)*%
X178550295Y-119730000D02*
X178550295Y-128073161D01*
X178550295Y-128073161D02*
X172623165Y-134000291D01*
X172623165Y-134000291D02*
X159859109Y-134000291D01*
X159859109Y-134000291D02*
X158960000Y-134899400D01*
X158960000Y-134899400D02*
X161010305Y-136949705D01*
X161010305Y-136949705D02*
X162980000Y-136949705D01*
%TO.N,Net-(D[6:5]1-A)*%
X165520000Y-132550296D02*
X165520000Y-129224300D01*
X165520000Y-129224300D02*
X164667100Y-128371400D01*
X164667100Y-128371400D02*
X164667100Y-124657400D01*
%TO.N,Net-(D[5:5]1-A)*%
X144657401Y-122796549D02*
X140179449Y-122796549D01*
X140179449Y-122796549D02*
X138555700Y-121172800D01*
X138555700Y-121172800D02*
X138555700Y-116547700D01*
X138555700Y-116547700D02*
X138861400Y-116242000D01*
%TO.N,Net-(D[4:5]1-A)*%
X119250000Y-115460000D02*
X118541700Y-115460000D01*
X118541700Y-115460000D02*
X116620000Y-113538300D01*
X116620000Y-110441600D02*
X115400100Y-109221700D01*
X116620000Y-113538300D02*
X116620000Y-110441600D01*
%TO.N,Net-(D[3:5]1-A)*%
X100250000Y-113960000D02*
X97560300Y-111270300D01*
X97560300Y-111270300D02*
X97560300Y-110390300D01*
X97560300Y-110390300D02*
X97090000Y-109920000D01*
%TO.N,Net-(D[2:4]1-A)*%
X81250000Y-102460000D02*
X79230700Y-102460000D01*
X79230700Y-102460000D02*
X78464500Y-101693800D01*
X78464500Y-101693800D02*
X78464500Y-96374500D01*
X78464500Y-96374500D02*
X78010000Y-95920000D01*
%TO.N,Net-(D[1:4]1-A)*%
X57837700Y-102460000D02*
X57143000Y-101765300D01*
X57143000Y-101765300D02*
X57143000Y-98694500D01*
X57143000Y-98694500D02*
X55920200Y-97471700D01*
%TO.N,Net-(D[1:3]1-A)*%
X60000000Y-83710000D02*
X58070300Y-83710000D01*
X58070300Y-83710000D02*
X57009300Y-82649000D01*
X57009300Y-82649000D02*
X57009300Y-77089300D01*
X57009300Y-77089300D02*
X56590000Y-76670000D01*
%TO.N,Net-(D[1:2]1-A)*%
X59750000Y-65710000D02*
X58931500Y-65710000D01*
X58931500Y-65710000D02*
X57064900Y-63843400D01*
X57064900Y-58144900D02*
X56590000Y-57670000D01*
X57064900Y-63843400D02*
X57064900Y-58144900D01*
%TO.N,Net-(D[2:1]1-A)*%
X76710000Y-52250000D02*
X75160000Y-50700000D01*
X75160000Y-42123600D02*
X74420000Y-41383600D01*
X75160000Y-50700000D02*
X75160000Y-42123600D01*
X74420000Y-41383600D02*
X74420000Y-38520000D01*
%TO.N,Net-(D[1:1]1-A)*%
X54460000Y-52750000D02*
X54460000Y-46998300D01*
X54460000Y-46998300D02*
X54120500Y-46658800D01*
X54120500Y-42614000D02*
X53040000Y-41533500D01*
X54120500Y-46658800D02*
X54120500Y-42614000D01*
X53040000Y-41533500D02*
X53040000Y-38670000D01*
%TO.N,Pin_2*%
X67301800Y-96908300D02*
X66285000Y-96908300D01*
X68054800Y-117390500D02*
X66229800Y-117390500D01*
X68110000Y-79210000D02*
X68308800Y-79408800D01*
X170500000Y-90500000D02*
X168750000Y-90500000D01*
X64520000Y-60194800D02*
X64504800Y-60210000D01*
X66285000Y-97684100D02*
X65335900Y-97684100D01*
X64560000Y-117390500D02*
X64504800Y-117390500D01*
X64520000Y-41060000D02*
X64520000Y-58658300D01*
X66229800Y-60210000D02*
X66229800Y-58658300D01*
X68070000Y-41060000D02*
X66245000Y-41060000D01*
X68215900Y-79104100D02*
X68110000Y-79210000D01*
X185960000Y-97900000D02*
X185960000Y-97250000D01*
X66229800Y-117390500D02*
X64560000Y-117390500D01*
X66285000Y-97684100D02*
X66285000Y-96908300D01*
X64560000Y-117390500D02*
X64560000Y-98460000D01*
X68308800Y-95901300D02*
X67301800Y-96908300D01*
X68110000Y-98460000D02*
X68110000Y-97716500D01*
X66229800Y-58658300D02*
X64520000Y-58658300D01*
X64520000Y-58658300D02*
X64520000Y-60194800D01*
X65335900Y-97684100D02*
X64560000Y-98460000D01*
X66245000Y-41060000D02*
X64520000Y-41060000D01*
X68215900Y-60371100D02*
X68215900Y-79104100D01*
X66285000Y-98460000D02*
X66285000Y-97684100D01*
X66285000Y-79210000D02*
X64560000Y-79210000D01*
X66285000Y-79210000D02*
X68110000Y-79210000D01*
X68110000Y-97716500D02*
X67301800Y-96908300D01*
X68308800Y-79408800D02*
X68308800Y-95901300D01*
X66229800Y-60210000D02*
X68054800Y-60210000D01*
X68054800Y-60210000D02*
X68215900Y-60371100D01*
%TO.N,Pin_3*%
X87190000Y-55460100D02*
X87346700Y-55303400D01*
X197628859Y-71750000D02*
X200250000Y-69128859D01*
X87346700Y-74616700D02*
X87346700Y-93303300D01*
X85365000Y-74460000D02*
X83640000Y-74460000D01*
X85365000Y-112460000D02*
X87190000Y-112460000D01*
X87190000Y-74460000D02*
X87346700Y-74616700D01*
X200250000Y-69128859D02*
X200250000Y-58270000D01*
X87346700Y-36567300D02*
X87190000Y-36410600D01*
X83640000Y-93460000D02*
X85365000Y-93460000D01*
X87346700Y-112303300D02*
X87346700Y-93616700D01*
X83640000Y-36410600D02*
X85365000Y-36410600D01*
X87190000Y-112460000D02*
X87346700Y-112303300D01*
X87346700Y-93303300D02*
X87190000Y-93460000D01*
X85365000Y-55460100D02*
X87190000Y-55460100D01*
X85365000Y-93460000D02*
X87190000Y-93460000D01*
X183610000Y-82618629D02*
X194478629Y-71750000D01*
X85365000Y-112460000D02*
X83640000Y-112460000D01*
X85365000Y-36410600D02*
X87190000Y-36410600D01*
X87346700Y-55303400D02*
X87346700Y-36567300D01*
X85365000Y-55460100D02*
X83640000Y-55460100D01*
X183610000Y-91690000D02*
X183610000Y-82618629D01*
X194478629Y-71750000D02*
X197628859Y-71750000D01*
X85365000Y-74460000D02*
X87190000Y-74460000D01*
X87346700Y-93616700D02*
X87190000Y-93460000D01*
X200250000Y-58270000D02*
X197370000Y-55390000D01*
X83640000Y-74460000D02*
X83640000Y-55460100D01*
X185920000Y-94000000D02*
X183610000Y-91690000D01*
%TO.N,Pin_4*%
X106411800Y-75290900D02*
X105618500Y-76084200D01*
X106270000Y-110210000D02*
X104445000Y-110210000D01*
X185710000Y-90750000D02*
X184010000Y-89050000D01*
X104465000Y-52960000D02*
X102740000Y-52960000D01*
X104445000Y-91210000D02*
X103239900Y-91210000D01*
X106290000Y-33810000D02*
X104465000Y-33810000D01*
X106290000Y-52960000D02*
X104465000Y-52960000D01*
X104429800Y-72090500D02*
X106254800Y-72090500D01*
X104465000Y-33810000D02*
X102740000Y-33810000D01*
X105618500Y-76084200D02*
X102720000Y-76084200D01*
X106270000Y-91210000D02*
X104445000Y-91210000D01*
X102740000Y-72055300D02*
X102704800Y-72090500D01*
X106411800Y-72247500D02*
X106411800Y-75290900D01*
X184244315Y-82550000D02*
X187394545Y-82550000D01*
X102740000Y-33810000D02*
X102740000Y-52960000D01*
X102740000Y-52960000D02*
X102740000Y-72055300D01*
X200650000Y-56130000D02*
X197370000Y-52850000D01*
X103239900Y-91210000D02*
X102720000Y-91210000D01*
X102720000Y-76084200D02*
X102720000Y-72105700D01*
X103239900Y-110210000D02*
X103239900Y-91210000D01*
X104445000Y-110210000D02*
X103239900Y-110210000D01*
X200650000Y-69294545D02*
X200650000Y-56130000D01*
X102720000Y-72105700D02*
X102704800Y-72090500D01*
X102720000Y-91210000D02*
X102720000Y-76084200D01*
X184010000Y-82784315D02*
X184244315Y-82550000D01*
X106254800Y-72090500D02*
X106411800Y-72247500D01*
X184010000Y-89050000D02*
X184010000Y-82784315D01*
X187394545Y-82550000D02*
X200650000Y-69294545D01*
X103239900Y-110210000D02*
X102720000Y-110210000D01*
%TO.N,Pin_5*%
X128641300Y-113876800D02*
X128641300Y-113603500D01*
X201050000Y-53990000D02*
X197370000Y-50310000D01*
X184410000Y-86200000D02*
X184410000Y-82950000D01*
X123465000Y-93560000D02*
X125290000Y-93560000D01*
X132070300Y-114795600D02*
X130779800Y-114795600D01*
X125768900Y-94038900D02*
X125290000Y-93560000D01*
X121740000Y-36410000D02*
X121740000Y-55460000D01*
X130307500Y-114323300D02*
X130787200Y-112532900D01*
X201050000Y-69460231D02*
X201050000Y-53990000D01*
X125290000Y-36410000D02*
X123465000Y-36410000D01*
X125290000Y-93560000D02*
X125446700Y-93403300D01*
X125446700Y-74353300D02*
X125290000Y-74510000D01*
X129711900Y-112532900D02*
X125768900Y-108589900D01*
X128641300Y-113603500D02*
X129711900Y-112532900D01*
X125446700Y-74666700D02*
X125290000Y-74510000D01*
X187560231Y-82950000D02*
X201050000Y-69460231D01*
X125446700Y-55616700D02*
X125446700Y-74353300D01*
X125290000Y-55460000D02*
X125446700Y-55616700D01*
X123465000Y-55460000D02*
X125290000Y-55460000D01*
X123465000Y-74510000D02*
X125290000Y-74510000D01*
X129711900Y-112532900D02*
X130787200Y-112532900D01*
X184410000Y-82950000D02*
X187560231Y-82950000D01*
X125446700Y-93403300D02*
X125446700Y-74666700D01*
X123465000Y-55460000D02*
X121740000Y-55460000D01*
X185710000Y-87500000D02*
X184410000Y-86200000D01*
X123465000Y-36410000D02*
X121740000Y-36410000D01*
X123465000Y-93560000D02*
X121740000Y-93560000D01*
X121740000Y-74510000D02*
X123465000Y-74510000D01*
X125768900Y-108589900D02*
X125768900Y-94038900D01*
X130779800Y-114795600D02*
X130307500Y-114323300D01*
%TO.N,Pin_6*%
X142515000Y-38760000D02*
X140790000Y-38760000D01*
X144340000Y-57810000D02*
X144496700Y-57966700D01*
X185710000Y-84250000D02*
X186910000Y-84250000D01*
X186910000Y-84250000D02*
X201449996Y-69710004D01*
X142515000Y-95910000D02*
X144340000Y-95910000D01*
X144496700Y-95753300D02*
X144496700Y-77047200D01*
X144340000Y-95910000D02*
X144496700Y-95753300D01*
X156770400Y-121145300D02*
X156102400Y-121145300D01*
X156102400Y-121145300D02*
X155189900Y-120232800D01*
X144496700Y-76733800D02*
X144340000Y-76890500D01*
X153696100Y-119370300D02*
X144818900Y-110493100D01*
X140790000Y-76890500D02*
X142515000Y-76890500D01*
X144818900Y-110493100D02*
X144818900Y-96388900D01*
X142515000Y-57810000D02*
X144340000Y-57810000D01*
X144496700Y-77047200D02*
X144340000Y-76890500D01*
X142515000Y-57810000D02*
X140790000Y-57810000D01*
X201449996Y-51849996D02*
X197370000Y-47770000D01*
X201449996Y-69710004D02*
X201449996Y-51849996D01*
X144340000Y-38760000D02*
X142515000Y-38760000D01*
X144818900Y-96388900D02*
X144340000Y-95910000D01*
X142515000Y-95910000D02*
X140790000Y-95910000D01*
X155890300Y-118401100D02*
X156116700Y-118627500D01*
X153945400Y-119370300D02*
X154914600Y-118401100D01*
X144496700Y-57966700D02*
X144496700Y-76733800D01*
X140790000Y-38760000D02*
X140790000Y-57810000D01*
X154914600Y-118401100D02*
X155890300Y-118401100D01*
X155189900Y-120232800D02*
X156116700Y-118627500D01*
X153696100Y-119370300D02*
X153945400Y-119370300D01*
X142515000Y-76890500D02*
X144340000Y-76890500D01*
%TO.N,Pin_7*%
X169690000Y-70860000D02*
X169690000Y-69035000D01*
X174217500Y-75387500D02*
X174217500Y-91284500D01*
X184390300Y-107201100D02*
X184616700Y-107427500D01*
X160666900Y-48310000D02*
X159840000Y-48310000D01*
X172552400Y-130645300D02*
X171639900Y-129732800D01*
X165646700Y-98630300D02*
X166615900Y-97661100D01*
X163390000Y-48310000D02*
X161565000Y-48310000D01*
X185270400Y-109945300D02*
X184602400Y-109945300D01*
X172340300Y-118026100D02*
X182196100Y-108170300D01*
X169690000Y-70860000D02*
X174217500Y-75387500D01*
X174217500Y-91284500D02*
X171741000Y-93761000D01*
X171741000Y-93761000D02*
X167840900Y-97661100D01*
X182445400Y-108170300D02*
X183414600Y-107201100D01*
X166615900Y-97661100D02*
X167840900Y-97661100D01*
X182196100Y-108170300D02*
X182196100Y-104216100D01*
X169690000Y-69035000D02*
X169690000Y-67310000D01*
X183414600Y-107201100D02*
X184390300Y-107201100D01*
X172340300Y-127901100D02*
X172340300Y-118026100D01*
X171115300Y-127901100D02*
X172340300Y-127901100D01*
X183689900Y-109032800D02*
X184616700Y-107427500D01*
X182196100Y-108170300D02*
X182445400Y-108170300D01*
X168721000Y-100405300D02*
X168053000Y-100405300D01*
X182196100Y-104216100D02*
X171741000Y-93761000D01*
X184602400Y-109945300D02*
X183689900Y-109032800D01*
X160666900Y-58286900D02*
X169690000Y-67310000D01*
X167140500Y-99492800D02*
X168067300Y-97887500D01*
X170146100Y-128870300D02*
X171115300Y-127901100D01*
X171639900Y-129732800D02*
X172566700Y-128127500D01*
X172340300Y-127901100D02*
X172566700Y-128127500D01*
X168053000Y-100405300D02*
X167140500Y-99492800D01*
X173220400Y-130645300D02*
X172552400Y-130645300D01*
X161565000Y-48310000D02*
X160666900Y-48310000D01*
X167840900Y-97661100D02*
X168067300Y-97887500D01*
X160666900Y-48310000D02*
X160666900Y-58286900D01*
%TO.N,Pin_1*%
X45560000Y-117460000D02*
X43220000Y-115120000D01*
X44945000Y-98460000D02*
X43220000Y-98460000D01*
X43667500Y-60210000D02*
X43140000Y-60210000D01*
X43220000Y-115120000D02*
X43220000Y-98460000D01*
X49110000Y-117460000D02*
X47285000Y-117460000D01*
X44865000Y-41210000D02*
X43667500Y-41210000D01*
X43220000Y-79210000D02*
X43140000Y-79210000D01*
X43667500Y-41210000D02*
X43140000Y-41210000D01*
X46770000Y-98460000D02*
X44945000Y-98460000D01*
X44865000Y-79210000D02*
X43220000Y-79210000D01*
X43220000Y-79210000D02*
X43220000Y-98460000D01*
X43667500Y-41210000D02*
X43667500Y-60210000D01*
X46690000Y-41210000D02*
X44865000Y-41210000D01*
X47285000Y-117460000D02*
X45560000Y-117460000D01*
X43140000Y-60210000D02*
X43140000Y-79210000D01*
X44865000Y-60210000D02*
X43667500Y-60210000D01*
X46690000Y-79210000D02*
X44865000Y-79210000D01*
X46690000Y-60210000D02*
X44865000Y-60210000D01*
%TO.N,Pin_Interrupt*%
X200290000Y-91000000D02*
X200040000Y-90750000D01*
X197370000Y-42690000D02*
X201849992Y-47169992D01*
X200540000Y-94250000D02*
X200290000Y-94000000D01*
X201849992Y-47169992D02*
X201849992Y-84150008D01*
X201849992Y-84150008D02*
X201750000Y-84250000D01*
X200290000Y-94000000D02*
X200290000Y-91000000D01*
X200540000Y-100500000D02*
X200540000Y-97250000D01*
X200040000Y-90750000D02*
X200040000Y-87500000D01*
X200040000Y-84250000D02*
X200040000Y-87500000D01*
X201750000Y-84250000D02*
X200040000Y-84250000D01*
X200540000Y-97250000D02*
X200540000Y-94250000D01*
%TO.N,Net-(D[2:1]1-A)*%
X77970000Y-38520000D02*
X77970000Y-37744100D01*
X75195900Y-37744100D02*
X74420000Y-38520000D01*
X77970000Y-37744100D02*
X77194200Y-36968300D01*
X76220000Y-37744100D02*
X76220000Y-36968300D01*
X76220000Y-37744100D02*
X75195900Y-37744100D01*
X77194200Y-36968300D02*
X76220000Y-36968300D01*
X76220000Y-38520000D02*
X76220000Y-37744100D01*
%TO.N,Net-(D[3:1]1-A)*%
X95340000Y-33870600D02*
X95340000Y-33094700D01*
X97090000Y-33870600D02*
X97090000Y-32620600D01*
X96790000Y-32320600D02*
X96114100Y-32320600D01*
X95340000Y-33094700D02*
X94315900Y-33094700D01*
X97090000Y-32620600D02*
X96790000Y-32320600D01*
X94315900Y-33094700D02*
X93540000Y-33870600D01*
X96114100Y-32320600D02*
X95340000Y-33094700D01*
%TO.N,Net-(D[4:1]1-A)*%
X113344100Y-31590000D02*
X112960000Y-31590000D01*
X114440000Y-29875686D02*
X114440000Y-30494100D01*
X114440000Y-31270000D02*
X114440000Y-30494100D01*
X116190000Y-31270000D02*
X114640000Y-29720000D01*
X114640000Y-29720000D02*
X114595686Y-29720000D01*
X112960000Y-31590000D02*
X112640000Y-31270000D01*
X114595686Y-29720000D02*
X114440000Y-29875686D01*
X114440000Y-30494100D02*
X113344100Y-31590000D01*
%TO.N,Net-(D[5:1]1-A)*%
X135190000Y-33094100D02*
X134414200Y-32318300D01*
X133440000Y-33870000D02*
X133440000Y-33094100D01*
X133440000Y-33094100D02*
X133440000Y-32318300D01*
X135190000Y-33870000D02*
X135190000Y-33094100D01*
X133440000Y-33094100D02*
X132152100Y-34382000D01*
X132152100Y-34382000D02*
X131640000Y-33870000D01*
X134414200Y-32318300D02*
X133440000Y-32318300D01*
%TO.N,Net-(D[6:1]1-A)*%
X154240000Y-36220000D02*
X154240000Y-35444100D01*
X153464200Y-34668300D02*
X152490000Y-34668300D01*
X154240000Y-35444100D02*
X153464200Y-34668300D01*
X152490000Y-35444100D02*
X151465900Y-35444100D01*
X152490000Y-36220000D02*
X152490000Y-35444100D01*
X152490000Y-35444100D02*
X152490000Y-34668300D01*
X151465900Y-35444100D02*
X150690000Y-36220000D01*
%TO.N,Net-(D[1:1]1-A)*%
X56590000Y-38670000D02*
X56590000Y-37894100D01*
X54840000Y-37894100D02*
X53815900Y-37894100D01*
X53815900Y-37894100D02*
X53040000Y-38670000D01*
X56590000Y-37894100D02*
X55814200Y-37118300D01*
X54840000Y-38670000D02*
X54840000Y-37894100D01*
X54840000Y-37894100D02*
X54840000Y-37118300D01*
X55814200Y-37118300D02*
X54840000Y-37118300D01*
%TO.N,Net-(D[3:2]1-A)*%
X97090000Y-52144200D02*
X96314200Y-51368400D01*
X95340000Y-52920100D02*
X95340000Y-52144200D01*
X95340000Y-52144200D02*
X94703900Y-52144200D01*
X93928000Y-52920100D02*
X93540000Y-52920100D01*
X95340000Y-52144200D02*
X95340000Y-51368400D01*
X94703900Y-52144200D02*
X93928000Y-52920100D01*
X96314200Y-51368400D02*
X95340000Y-51368400D01*
X97090000Y-52920100D02*
X97090000Y-52144200D01*
%TO.N,Net-(D[4:2]1-A)*%
X113415800Y-48868300D02*
X114440000Y-48868300D01*
X112640000Y-49644100D02*
X113415800Y-48868300D01*
X112640000Y-50420000D02*
X112640000Y-49644100D01*
X114440000Y-48868300D02*
X115414200Y-48868300D01*
X116190000Y-49644100D02*
X116190000Y-50420000D01*
X114440000Y-50420000D02*
X114440000Y-48868300D01*
X115414200Y-48868300D02*
X116190000Y-49644100D01*
X114440000Y-50420000D02*
X114440000Y-48868300D01*
%TO.N,Net-(D[5:2]1-A)*%
X133440000Y-52920000D02*
X133440000Y-52144100D01*
X133440000Y-52144100D02*
X133440000Y-51978700D01*
X132581300Y-51978700D02*
X131640000Y-52920000D01*
X134414200Y-51368300D02*
X133440000Y-51368300D01*
X133440000Y-51978700D02*
X132581300Y-51978700D01*
X135190000Y-52144100D02*
X134414200Y-51368300D01*
X133440000Y-51978700D02*
X133440000Y-51368300D01*
X135190000Y-52920000D02*
X135190000Y-52144100D01*
%TO.N,Net-(D[6:2]1-A)*%
X152490000Y-54494100D02*
X152490000Y-54353700D01*
X152490000Y-54353700D02*
X152490000Y-53718300D01*
X152490000Y-55270000D02*
X152490000Y-54494100D01*
X154240000Y-54494100D02*
X153464200Y-53718300D01*
X152490000Y-54353700D02*
X151606300Y-54353700D01*
X151606300Y-54353700D02*
X150690000Y-55270000D01*
X153464200Y-53718300D02*
X152490000Y-53718300D01*
X154240000Y-55270000D02*
X154240000Y-54494100D01*
%TO.N,Net-(D[7:1]1-A)*%
X171455900Y-44994100D02*
X170210000Y-46240000D01*
X171540000Y-45770000D02*
X171540000Y-44994100D01*
X172514200Y-44218300D02*
X171540000Y-44218300D01*
X173290000Y-44994100D02*
X172514200Y-44218300D01*
X171540000Y-44994100D02*
X171455900Y-44994100D01*
X170210000Y-46240000D02*
X169740000Y-45770000D01*
X171540000Y-44994100D02*
X171540000Y-44218300D01*
X173290000Y-45770000D02*
X173290000Y-44994100D01*
%TO.N,Net-(D[1:2]1-A)*%
X54840000Y-56118300D02*
X55814200Y-56118300D01*
X55814200Y-56118300D02*
X56590000Y-56894100D01*
X54840000Y-57670000D02*
X54840000Y-56118300D01*
X53815800Y-56118300D02*
X54840000Y-56118300D01*
X54840000Y-57670000D02*
X54840000Y-56118300D01*
X53040000Y-56894100D02*
X53815800Y-56118300D01*
X53040000Y-57670000D02*
X53040000Y-56894100D01*
X56590000Y-56894100D02*
X56590000Y-57670000D01*
%TO.N,Net-(D[2:2]1-A)*%
X77161400Y-59221700D02*
X76204800Y-59221700D01*
X77954800Y-58428300D02*
X77161400Y-59221700D01*
X76204800Y-58445800D02*
X76204800Y-59221700D01*
X76204800Y-58445800D02*
X75180600Y-58445800D01*
X77954800Y-57670000D02*
X77954800Y-58428300D01*
X76204800Y-57670000D02*
X76204800Y-58445800D01*
X75180600Y-58445800D02*
X74404800Y-57670000D01*
%TO.N,Net-(D[4:3]1-A)*%
X116154800Y-69550500D02*
X116154800Y-68774600D01*
X114404800Y-69550500D02*
X114404800Y-68774600D01*
X116154800Y-68774600D02*
X115379000Y-67998800D01*
X114404800Y-68774600D02*
X113380700Y-68774600D01*
X114404800Y-68774600D02*
X114404800Y-67998800D01*
X113380700Y-68774600D02*
X112604800Y-69550500D01*
X115379000Y-67998800D02*
X114404800Y-67998800D01*
%TO.N,Net-(D[5:3]1-A)*%
X135190000Y-71194100D02*
X134414200Y-70418300D01*
X132415900Y-71194100D02*
X131640000Y-71970000D01*
X133440000Y-71194100D02*
X132415900Y-71194100D01*
X134414200Y-70418300D02*
X133440000Y-70418300D01*
X133440000Y-71970000D02*
X133440000Y-71194100D01*
X133440000Y-71194100D02*
X133440000Y-70418300D01*
X135190000Y-71970000D02*
X135190000Y-71194100D01*
%TO.N,Net-(D[6:3]1-A)*%
X152490000Y-74350500D02*
X152490000Y-72798800D01*
X150690000Y-73574600D02*
X151465800Y-72798800D01*
X154240000Y-73574600D02*
X154240000Y-74350500D01*
X152490000Y-74350500D02*
X152490000Y-72798800D01*
X151465800Y-72798800D02*
X152490000Y-72798800D01*
X152490000Y-72798800D02*
X153464200Y-72798800D01*
X153464200Y-72798800D02*
X154240000Y-73574600D01*
X150690000Y-74350500D02*
X150690000Y-73574600D01*
%TO.N,Net-(D[7:2]1-A)*%
X172131100Y-77308900D02*
X172230000Y-77210000D01*
X172230000Y-80760000D02*
X173005900Y-80760000D01*
X173005900Y-79010000D02*
X173781700Y-79010000D01*
X162750000Y-76515000D02*
X164051700Y-76515000D01*
X173005900Y-79010000D02*
X173005900Y-77985900D01*
X173005900Y-80760000D02*
X173781700Y-79984200D01*
X172230000Y-79010000D02*
X173005900Y-79010000D01*
X164845600Y-77308900D02*
X172131100Y-77308900D01*
X173781700Y-79984200D02*
X173781700Y-79010000D01*
X173005900Y-77985900D02*
X172230000Y-77210000D01*
X164051700Y-76515000D02*
X164845600Y-77308900D01*
%TO.N,Net-(D[1:3]1-A)*%
X56590000Y-75894100D02*
X56590000Y-76670000D01*
X54840000Y-75118300D02*
X55814200Y-75118300D01*
X53815800Y-75118300D02*
X54840000Y-75118300D01*
X54840000Y-76670000D02*
X54840000Y-75118300D01*
X55814200Y-75118300D02*
X56590000Y-75894100D01*
X54840000Y-76670000D02*
X54840000Y-75118300D01*
X53040000Y-76670000D02*
X53040000Y-75894100D01*
X53040000Y-75894100D02*
X53815800Y-75118300D01*
%TO.N,Net-(D[2:3]1-A)*%
X75235800Y-75118300D02*
X76260000Y-75118300D01*
X76260000Y-75118300D02*
X77234200Y-75118300D01*
X78010000Y-75894100D02*
X78010000Y-76670000D01*
X76260000Y-76670000D02*
X76260000Y-75118300D01*
X76260000Y-76670000D02*
X76260000Y-75118300D01*
X77234200Y-75118300D02*
X78010000Y-75894100D01*
X74460000Y-76670000D02*
X74460000Y-75894100D01*
X74460000Y-75894100D02*
X75235800Y-75118300D01*
%TO.N,Net-(D[3:3]1-A)*%
X97090000Y-72674800D02*
X96293100Y-73471700D01*
X97090000Y-71920000D02*
X97090000Y-72674800D01*
X94315800Y-72695800D02*
X93540000Y-71920000D01*
X95340000Y-72695800D02*
X95340000Y-73471700D01*
X95340000Y-72695800D02*
X94315800Y-72695800D01*
X95340000Y-71920000D02*
X95340000Y-72695800D01*
X96293100Y-73471700D02*
X95340000Y-73471700D01*
%TO.N,Net-(D[5:4]1-A)*%
X135190000Y-91020000D02*
X135190000Y-90244100D01*
X133440000Y-90244100D02*
X133440000Y-89468300D01*
X133440000Y-90244100D02*
X132415900Y-90244100D01*
X134414200Y-89468300D02*
X133440000Y-89468300D01*
X132415900Y-90244100D02*
X131640000Y-91020000D01*
X135190000Y-90244100D02*
X134414200Y-89468300D01*
X133440000Y-91020000D02*
X133440000Y-90244100D01*
%TO.N,Net-(D[6:4]1-A)*%
X152490000Y-92594100D02*
X152490000Y-91818300D01*
X152490000Y-92594100D02*
X151465900Y-92594100D01*
X154240000Y-93370000D02*
X154240000Y-92594100D01*
X151465900Y-92594100D02*
X150690000Y-93370000D01*
X152490000Y-93370000D02*
X152490000Y-92594100D01*
X154240000Y-92594100D02*
X153464200Y-91818300D01*
X153464200Y-91818300D02*
X152490000Y-91818300D01*
%TO.N,Net-(D[7:3]1-A)*%
X178281200Y-103155600D02*
X177324500Y-104112300D01*
X176122400Y-103885900D02*
X175694900Y-103458400D01*
X175490300Y-101380600D02*
X175490300Y-103458400D01*
X176348800Y-104112300D02*
X176122400Y-103885900D01*
X177324500Y-104112300D02*
X176348800Y-104112300D01*
X175694900Y-103458400D02*
X175490300Y-103458400D01*
X178564700Y-103155600D02*
X178281200Y-103155600D01*
X177049200Y-102280600D02*
X176122400Y-103885900D01*
%TO.N,Net-(D[1:4]1-A)*%
X54920000Y-96695800D02*
X53895800Y-96695800D01*
X56670000Y-96721900D02*
X55920200Y-97471700D01*
X53895800Y-96695800D02*
X53120000Y-95920000D01*
X55920200Y-97471700D02*
X54920000Y-97471700D01*
X56670000Y-95920000D02*
X56670000Y-96721900D01*
X54920000Y-95920000D02*
X54920000Y-96695800D01*
X54920000Y-96695800D02*
X54920000Y-97471700D01*
%TO.N,Net-(D[2:4]1-A)*%
X76260000Y-95920000D02*
X76260000Y-94368300D01*
X77234200Y-94368300D02*
X78010000Y-95144100D01*
X78010000Y-95144100D02*
X78010000Y-95920000D01*
X74460000Y-95144100D02*
X75235800Y-94368300D01*
X74460000Y-95920000D02*
X74460000Y-95144100D01*
X76260000Y-95920000D02*
X76260000Y-94368300D01*
X75235800Y-94368300D02*
X76260000Y-94368300D01*
X76260000Y-94368300D02*
X77234200Y-94368300D01*
%TO.N,Net-(D[3:4]1-A)*%
X94315800Y-91695800D02*
X93540000Y-90920000D01*
X95340000Y-91695800D02*
X94315800Y-91695800D01*
X95340000Y-90920000D02*
X95340000Y-91695800D01*
X97090000Y-90920000D02*
X97090000Y-91676800D01*
%TO.N,Net-(D[4:4]1-A)*%
X113395900Y-87894100D02*
X112620000Y-88670000D01*
X116170000Y-88670000D02*
X116170000Y-87894100D01*
X115394200Y-87118300D02*
X114420000Y-87118300D01*
X114420000Y-88670000D02*
X114420000Y-87894100D01*
X114420000Y-87894100D02*
X114420000Y-87118300D01*
X116170000Y-87894100D02*
X115394200Y-87118300D01*
X114420000Y-87894100D02*
X113395900Y-87894100D01*
%TO.N,Net-(D[6:5]1-A)*%
X164171800Y-124625900D02*
X163539700Y-123993800D01*
X166614100Y-123895600D02*
X165852300Y-124657400D01*
X163539700Y-123993800D02*
X163539700Y-122120600D01*
X165852300Y-124657400D02*
X164667100Y-124657400D01*
X164203300Y-124657400D02*
X164171800Y-124625900D01*
X164667100Y-124657400D02*
X164203300Y-124657400D01*
X165098600Y-123020600D02*
X164171800Y-124625900D01*
%TO.N,Net-(D[7:4]1-A)*%
X193323200Y-109988900D02*
X194298900Y-109988900D01*
X192039700Y-110920600D02*
X192391500Y-110920600D01*
X195291200Y-112235000D02*
X195291200Y-110981200D01*
X195114100Y-112412100D02*
X195291200Y-112235000D01*
X192391500Y-110920600D02*
X193323200Y-109988900D01*
X193598600Y-111820600D02*
X194525400Y-110215400D01*
X195291200Y-110981200D02*
X194525400Y-110215400D01*
X195114100Y-112695600D02*
X195114100Y-112412100D01*
X194298900Y-109988900D02*
X194525400Y-110215400D01*
X193598600Y-111820600D02*
X194525400Y-110215400D01*
%TO.N,Net-(D[1:5]1-A)*%
X57260000Y-114920000D02*
X57260000Y-115695800D01*
X56235800Y-115695800D02*
X55460000Y-114920000D01*
X57260000Y-115695800D02*
X56235800Y-115695800D01*
%TO.N,Net-(D[2:5]1-A)*%
X76204800Y-115626300D02*
X76204800Y-116402200D01*
X76204800Y-114850500D02*
X76204800Y-115626300D01*
X80250000Y-120460000D02*
X80250000Y-118697400D01*
X77954800Y-116402200D02*
X76204800Y-116402200D01*
X76204800Y-115626300D02*
X75180600Y-115626300D01*
X80250000Y-118697400D02*
X77954800Y-116402200D01*
X77954800Y-114850500D02*
X77954800Y-116402200D01*
X75180600Y-115626300D02*
X74404800Y-114850500D01*
%TO.N,Net-(D[3:5]1-A)*%
X94315800Y-108368300D02*
X95340000Y-108368300D01*
X96314200Y-108368300D02*
X97090000Y-109144100D01*
X95340000Y-109920000D02*
X95340000Y-108368300D01*
X97090000Y-109144100D02*
X97090000Y-109920000D01*
X95340000Y-109920000D02*
X95340000Y-108368300D01*
X93540000Y-109144100D02*
X94315800Y-108368300D01*
X95340000Y-108368300D02*
X96314200Y-108368300D01*
X93540000Y-109920000D02*
X93540000Y-109144100D01*
%TO.N,Net-(D[4:5]1-A)*%
X115400100Y-109221700D02*
X114420000Y-109221700D01*
X114420000Y-107670000D02*
X114420000Y-108445800D01*
X116170000Y-107670000D02*
X116170000Y-108451800D01*
X116170000Y-108451800D02*
X115400100Y-109221700D01*
X113395800Y-108445800D02*
X112620000Y-107670000D01*
X114420000Y-108445800D02*
X113395800Y-108445800D01*
X114420000Y-108445800D02*
X114420000Y-109221700D01*
%TO.N,Net-(D[5:5]1-A)*%
X141203200Y-116242000D02*
X140120300Y-116242000D01*
X138861400Y-116242000D02*
X138861400Y-113985700D01*
X140600000Y-114451600D02*
X140120300Y-116242000D01*
X138861400Y-116242000D02*
X140120300Y-116242000D01*
X142290400Y-114904500D02*
X142290400Y-115154800D01*
X142290400Y-115154800D02*
X141203200Y-116242000D01*
%TO.N,B-*%
X118000000Y-29750000D02*
X117570000Y-29320000D01*
X83750000Y-33750000D02*
X50000000Y-33750000D01*
X138430000Y-33430000D02*
X134750000Y-29750000D01*
X104430000Y-29320000D02*
X101829400Y-31920600D01*
X85579400Y-31920600D02*
X83750000Y-33750000D01*
X182130000Y-32530000D02*
X181230000Y-33430000D01*
X181230000Y-33430000D02*
X138430000Y-33430000D01*
X101829400Y-31920600D02*
X85579400Y-31920600D01*
X134750000Y-29750000D02*
X118000000Y-29750000D01*
X117570000Y-29320000D02*
X104430000Y-29320000D01*
%TO.N,B+*%
X60500000Y-31750000D02*
X60750000Y-32000000D01*
X50000000Y-31750000D02*
X60500000Y-31750000D01*
%TO.N,DISPL_D0_SCK*%
X186275000Y-69696570D02*
X186275000Y-62075000D01*
X190275000Y-69725000D02*
X186303430Y-69725000D01*
X186303430Y-69725000D02*
X186275000Y-69696570D01*
X186275000Y-62075000D02*
X182130000Y-57930000D01*
X191250000Y-68750000D02*
X190275000Y-69725000D01*
%TO.N,DISPL_D1_MOSI*%
X191875000Y-70125000D02*
X186137744Y-70125000D01*
X183330000Y-67317256D02*
X183330000Y-59972943D01*
X183330000Y-59972943D02*
X182627057Y-59270000D01*
X180930000Y-56590000D02*
X182130000Y-55390000D01*
X193250000Y-68750000D02*
X191875000Y-70125000D01*
X181632943Y-59270000D02*
X180930000Y-58567057D01*
X182627057Y-59270000D02*
X181632943Y-59270000D01*
X186137744Y-70125000D02*
X183330000Y-67317256D01*
X180930000Y-58567057D02*
X180930000Y-56590000D01*
%TO.N,DISPL_DC*%
X197250000Y-68750000D02*
X195075000Y-70925000D01*
X180530000Y-54450000D02*
X182130000Y-52850000D01*
X185806372Y-70925000D02*
X180530000Y-65648628D01*
X180530000Y-65648628D02*
X180530000Y-54450000D01*
X195075000Y-70925000D02*
X185806372Y-70925000D01*
%TO.N,VCC_3.3V*%
X189250000Y-48270000D02*
X197370000Y-40150000D01*
X189250000Y-68750000D02*
X189250000Y-48270000D01*
%TO.N,GND*%
X196800000Y-34500000D02*
X197370000Y-35070000D01*
X182130000Y-37610000D02*
X183140000Y-37610000D01*
X187250000Y-68750000D02*
X187250000Y-45270000D01*
X183140000Y-37610000D02*
X186250000Y-34500000D01*
X187250000Y-45270000D02*
X182130000Y-40150000D01*
X182130000Y-37610000D02*
X182130000Y-40150000D01*
%TO.N,DISPL_CS*%
X185640686Y-71325000D02*
X180130000Y-65814314D01*
X180130000Y-37070000D02*
X182130000Y-35070000D01*
X196675000Y-71325000D02*
X185640686Y-71325000D01*
X180130000Y-65814314D02*
X180130000Y-37070000D01*
X199250000Y-68750000D02*
X196675000Y-71325000D01*
%TO.N,DISPL_RES*%
X182130000Y-66682942D02*
X182130000Y-60470000D01*
X195250000Y-68750000D02*
X193475000Y-70525000D01*
X185972058Y-70525000D02*
X182130000Y-66682942D01*
X193475000Y-70525000D02*
X185972058Y-70525000D01*
%TO.N,Net-(DI_[1:1]1-A)*%
X191040000Y-100500000D02*
X195460000Y-100500000D01*
%TO.N,Net-(D[1:1]1-K)*%
X189490000Y-94328478D02*
X189490000Y-83510000D01*
X188750000Y-75000000D02*
X180750000Y-67000000D01*
X192411522Y-97250000D02*
X189490000Y-94328478D01*
X189490000Y-83510000D02*
X193500000Y-79500000D01*
X175250000Y-64750000D02*
X175290000Y-64710000D01*
X195460000Y-97250000D02*
X192411522Y-97250000D01*
X191040000Y-97250000D02*
X195460000Y-97250000D01*
X180750000Y-67000000D02*
X179500000Y-67000000D01*
%TO.N,Net-(D[1:2]1-K)*%
X195210000Y-94000000D02*
X193250000Y-92040000D01*
X191000000Y-94000000D02*
X195210000Y-94000000D01*
X193250000Y-92040000D02*
X193250000Y-92000000D01*
%TO.N,Net-(D[1:3]1-K)*%
X190790000Y-90750000D02*
X194960000Y-90750000D01*
X183500000Y-103750000D02*
X183000000Y-104250000D01*
X196760000Y-101410000D02*
X194420000Y-103750000D01*
X194960000Y-90750000D02*
X196760000Y-92550000D01*
X196760000Y-92550000D02*
X196760000Y-101410000D01*
X194420000Y-103750000D02*
X183500000Y-103750000D01*
%TO.N,Net-(D[1:4]1-K)*%
X190790000Y-87500000D02*
X194960000Y-87500000D01*
%TO.N,Net-(D[1:5]1-K)*%
X190790000Y-84250000D02*
X194960000Y-84250000D01*
%TO.N,SW_B+*%
X140500000Y-32500000D02*
X146250000Y-32500000D01*
X148000000Y-30750000D02*
X195590000Y-30750000D01*
X136920000Y-28920000D02*
X140500000Y-32500000D01*
X146250000Y-32500000D02*
X148000000Y-30750000D01*
X195590000Y-30750000D02*
X197370000Y-32530000D01*
X62750000Y-32000000D02*
X65830000Y-28920000D01*
X65830000Y-28920000D02*
X136920000Y-28920000D01*
%TO.N,RESET*%
X192750000Y-39000000D02*
X195980000Y-39000000D01*
X195980000Y-39000000D02*
X197370000Y-37610000D01*
X186250000Y-39000000D02*
X192750000Y-39000000D01*
%TD*%
M02*
