%TF.GenerationSoftware,KiCad,Pcbnew,8.0.2-1*%
%TF.CreationDate,2024-06-04T23:34:33+02:00*%
%TF.ProjectId,keyboard,6b657962-6f61-4726-942e-6b696361645f,rev?*%
%TF.SameCoordinates,Original*%
%TF.FileFunction,Other,ECO2*%
%FSLAX46Y46*%
G04 Gerber Fmt 4.6, Leading zero omitted, Abs format (unit mm)*
G04 Created by KiCad (PCBNEW 8.0.2-1) date 2024-06-04 23:34:33*
%MOMM*%
%LPD*%
G01*
G04 APERTURE LIST*
%ADD10C,0.050000*%
G04 APERTURE END LIST*
D10*
%TO.C,SW_[7:2]1*%
X160150000Y-68170000D02*
X160150000Y-81170000D01*
X160650000Y-81670000D02*
X173650000Y-81670000D01*
X173650000Y-67670000D02*
X160650000Y-67670000D01*
X174150000Y-81170000D02*
X174150000Y-68170000D01*
X160150000Y-68170000D02*
G75*
G02*
X160650000Y-67670000I500000J0D01*
G01*
X160651116Y-81667236D02*
G75*
G02*
X160151116Y-81167236I1J500001D01*
G01*
X173650000Y-67670000D02*
G75*
G02*
X174150000Y-68170000I0J-500000D01*
G01*
X174150000Y-81170000D02*
G75*
G02*
X173650000Y-81670000I-500001J1D01*
G01*
%TO.C,SW_[1:4]1*%
X43580000Y-94500000D02*
X43580000Y-107500000D01*
X44080000Y-108000000D02*
X57080000Y-108000000D01*
X57080000Y-94000000D02*
X44080000Y-94000000D01*
X57580000Y-107500000D02*
X57580000Y-94500000D01*
X43580000Y-94500000D02*
G75*
G02*
X44080000Y-94000000I500000J0D01*
G01*
X44080000Y-108000000D02*
G75*
G02*
X43580000Y-107500000I0J500000D01*
G01*
X57080000Y-94000000D02*
G75*
G02*
X57580000Y-94500000I-1J-500001D01*
G01*
X57577236Y-107498884D02*
G75*
G02*
X57077236Y-107998884I-500001J1D01*
G01*
%TO.C,SW_[6:1]1*%
X141150000Y-34800000D02*
X141150000Y-47800000D01*
X141650000Y-48300000D02*
X154650000Y-48300000D01*
X154650000Y-34300000D02*
X141650000Y-34300000D01*
X155150000Y-47800000D02*
X155150000Y-34800000D01*
X141150000Y-34800000D02*
G75*
G02*
X141650000Y-34300000I500000J0D01*
G01*
X141650000Y-48300000D02*
G75*
G02*
X141150000Y-47800000I0J500000D01*
G01*
X154650000Y-34300000D02*
G75*
G02*
X155150000Y-34800000I-1J-500001D01*
G01*
X155147236Y-47798884D02*
G75*
G02*
X154647236Y-48298884I-500001J1D01*
G01*
%TO.C,SW_[2:4]1*%
X64920000Y-94500000D02*
X64920000Y-107500000D01*
X65420000Y-108000000D02*
X78420000Y-108000000D01*
X78420000Y-94000000D02*
X65420000Y-94000000D01*
X78920000Y-107500000D02*
X78920000Y-94500000D01*
X64920000Y-94500000D02*
G75*
G02*
X65420000Y-94000000I500000J0D01*
G01*
X65420000Y-108000000D02*
G75*
G02*
X64920000Y-107500000I0J500000D01*
G01*
X78420000Y-94000000D02*
G75*
G02*
X78920000Y-94500000I-1J-500001D01*
G01*
X78917236Y-107498884D02*
G75*
G02*
X78417236Y-107998884I-500001J1D01*
G01*
%TO.C,SW_[2:5]1*%
X64864800Y-113430500D02*
X64864800Y-126430500D01*
X65364800Y-126930500D02*
X78364800Y-126930500D01*
X78364800Y-112930500D02*
X65364800Y-112930500D01*
X78864800Y-126430500D02*
X78864800Y-113430500D01*
X64864800Y-113430500D02*
G75*
G02*
X65364800Y-112930500I500000J0D01*
G01*
X65364800Y-126930500D02*
G75*
G02*
X64864800Y-126430500I0J500000D01*
G01*
X78364800Y-112930500D02*
G75*
G02*
X78864800Y-113430500I-1J-500001D01*
G01*
X78862036Y-126429384D02*
G75*
G02*
X78362036Y-126929384I-500001J1D01*
G01*
%TO.C,SW_[1:3]1*%
X43500000Y-75250000D02*
X43500000Y-88250000D01*
X44000000Y-88750000D02*
X57000000Y-88750000D01*
X57000000Y-74750000D02*
X44000000Y-74750000D01*
X57500000Y-88250000D02*
X57500000Y-75250000D01*
X43500000Y-75250000D02*
G75*
G02*
X44000000Y-74750000I500000J0D01*
G01*
X44000000Y-88750000D02*
G75*
G02*
X43500000Y-88250000I0J500000D01*
G01*
X57000000Y-74750000D02*
G75*
G02*
X57500000Y-75250000I-1J-500001D01*
G01*
X57497236Y-88248884D02*
G75*
G02*
X56997236Y-88748884I-500001J1D01*
G01*
%TO.C,SW_[6:5]1*%
X149670835Y-128062178D02*
X160929166Y-134562177D01*
X155987822Y-116120835D02*
X149487823Y-127379166D01*
X161612178Y-134379165D02*
X168112177Y-123120834D01*
X167929165Y-122437822D02*
X156670834Y-115937823D01*
X149670835Y-128062178D02*
G75*
G02*
X149487822Y-127379165I250000J433013D01*
G01*
X155987822Y-116120835D02*
G75*
G02*
X156670835Y-115937822I433013J-250000D01*
G01*
X161610342Y-134376817D02*
G75*
G02*
X160927330Y-134559830I-433013J250002D01*
G01*
X167929165Y-122437822D02*
G75*
G02*
X168112178Y-123120834I-249998J-433012D01*
G01*
%TO.C,SW_[2:2]1*%
X64864800Y-56250000D02*
X64864800Y-69250000D01*
X65364800Y-69750000D02*
X78364800Y-69750000D01*
X78364800Y-55750000D02*
X65364800Y-55750000D01*
X78864800Y-69250000D02*
X78864800Y-56250000D01*
X64864800Y-56250000D02*
G75*
G02*
X65364800Y-55750000I500000J0D01*
G01*
X65364800Y-69750000D02*
G75*
G02*
X64864800Y-69250000I0J500000D01*
G01*
X78364800Y-55750000D02*
G75*
G02*
X78864800Y-56250000I-1J-500001D01*
G01*
X78862036Y-69248884D02*
G75*
G02*
X78362036Y-69748884I-500001J1D01*
G01*
%TO.C,SW_[4:3]1*%
X103064800Y-68130500D02*
X103064800Y-81130500D01*
X103564800Y-81630500D02*
X116564800Y-81630500D01*
X116564800Y-67630500D02*
X103564800Y-67630500D01*
X117064800Y-81130500D02*
X117064800Y-68130500D01*
X103064800Y-68130500D02*
G75*
G02*
X103564800Y-67630500I500000J0D01*
G01*
X103564800Y-81630500D02*
G75*
G02*
X103064800Y-81130500I0J500000D01*
G01*
X116564800Y-67630500D02*
G75*
G02*
X117064800Y-68130500I-1J-500001D01*
G01*
X117062036Y-81129384D02*
G75*
G02*
X116562036Y-81629384I-500001J1D01*
G01*
%TO.C,SW_[6:4]1*%
X141150000Y-91950000D02*
X141150000Y-104950000D01*
X141650000Y-105450000D02*
X154650000Y-105450000D01*
X154650000Y-91450000D02*
X141650000Y-91450000D01*
X155150000Y-104950000D02*
X155150000Y-91950000D01*
X141150000Y-91950000D02*
G75*
G02*
X141650000Y-91450000I500000J0D01*
G01*
X141650000Y-105450000D02*
G75*
G02*
X141150000Y-104950000I0J500000D01*
G01*
X154650000Y-91450000D02*
G75*
G02*
X155150000Y-91950000I-1J-500001D01*
G01*
X155147236Y-104948884D02*
G75*
G02*
X154647236Y-105448884I-500001J1D01*
G01*
%TO.C,SW_[5:5]1*%
X127002851Y-123314357D02*
X139559886Y-126679005D01*
X130013943Y-110144951D02*
X126649295Y-122701986D01*
X140172257Y-126325449D02*
X143536905Y-113768414D01*
X143183349Y-113156043D02*
X130626314Y-109791395D01*
X127002851Y-123314357D02*
G75*
G02*
X126649295Y-122701986I129407J482963D01*
G01*
X130013943Y-110144951D02*
G75*
G02*
X130626314Y-109791395I482963J-129407D01*
G01*
X140169876Y-126323658D02*
G75*
G02*
X139557503Y-126677211I-482961J129407D01*
G01*
X143183349Y-113156043D02*
G75*
G02*
X143536905Y-113768414I-129408J-482964D01*
G01*
%TO.C,SW_[7:3]1*%
X161621435Y-107322178D02*
X172879765Y-113822178D01*
X167938422Y-95380835D02*
X161438422Y-106639165D01*
X173562778Y-113639165D02*
X180062778Y-102380835D01*
X179879765Y-101697822D02*
X168621435Y-95197822D01*
X161621435Y-107322178D02*
G75*
G02*
X161438422Y-106639165I250000J433013D01*
G01*
X167938422Y-95380835D02*
G75*
G02*
X168621435Y-95197822I433013J-250000D01*
G01*
X173560942Y-113636817D02*
G75*
G02*
X172877930Y-113819828I-433012J250001D01*
G01*
X179879765Y-101697822D02*
G75*
G02*
X180062778Y-102380835I-250000J-433013D01*
G01*
%TO.C,SW_[3:1]1*%
X84000000Y-32450600D02*
X84000000Y-45450600D01*
X84500000Y-45950600D02*
X97500000Y-45950600D01*
X97500000Y-31950600D02*
X84500000Y-31950600D01*
X98000000Y-45450600D02*
X98000000Y-32450600D01*
X84000000Y-32450600D02*
G75*
G02*
X84500000Y-31950600I500000J0D01*
G01*
X84500000Y-45950600D02*
G75*
G02*
X84000000Y-45450600I0J500000D01*
G01*
X97500000Y-31950600D02*
G75*
G02*
X98000000Y-32450600I-1J-500001D01*
G01*
X97997236Y-45449484D02*
G75*
G02*
X97497236Y-45949484I-500001J1D01*
G01*
%TO.C,SW_[6:2]1*%
X141150000Y-53850000D02*
X141150000Y-66850000D01*
X141650000Y-67350000D02*
X154650000Y-67350000D01*
X154650000Y-53350000D02*
X141650000Y-53350000D01*
X155150000Y-66850000D02*
X155150000Y-53850000D01*
X141150000Y-53850000D02*
G75*
G02*
X141650000Y-53350000I500000J0D01*
G01*
X141650000Y-67350000D02*
G75*
G02*
X141150000Y-66850000I0J500000D01*
G01*
X154650000Y-53350000D02*
G75*
G02*
X155150000Y-53850000I-1J-500001D01*
G01*
X155147236Y-66848884D02*
G75*
G02*
X154647236Y-67348884I-500001J1D01*
G01*
%TO.C,SW_[5:3]1*%
X122100000Y-70550000D02*
X122100000Y-83550000D01*
X122600000Y-84050000D02*
X135600000Y-84050000D01*
X135600000Y-70050000D02*
X122600000Y-70050000D01*
X136100000Y-83550000D02*
X136100000Y-70550000D01*
X122100000Y-70550000D02*
G75*
G02*
X122600000Y-70050000I500000J0D01*
G01*
X122600000Y-84050000D02*
G75*
G02*
X122100000Y-83550000I0J500000D01*
G01*
X135600000Y-70050000D02*
G75*
G02*
X136100000Y-70550000I-1J-500001D01*
G01*
X136097236Y-83548884D02*
G75*
G02*
X135597236Y-84048884I-500001J1D01*
G01*
%TO.C,SW_[3:4]1*%
X84000000Y-89500000D02*
X84000000Y-102500000D01*
X84500000Y-103000000D02*
X97500000Y-103000000D01*
X97500000Y-89000000D02*
X84500000Y-89000000D01*
X98000000Y-102500000D02*
X98000000Y-89500000D01*
X84000000Y-89500000D02*
G75*
G02*
X84500000Y-89000000I500000J0D01*
G01*
X84500000Y-103000000D02*
G75*
G02*
X84000000Y-102500000I0J500000D01*
G01*
X97500000Y-89000000D02*
G75*
G02*
X98000000Y-89500000I-1J-500001D01*
G01*
X97997236Y-102498884D02*
G75*
G02*
X97497236Y-102998884I-500001J1D01*
G01*
%TO.C,SW_[5:1]1*%
X122100000Y-32450000D02*
X122100000Y-45450000D01*
X122600000Y-45950000D02*
X135600000Y-45950000D01*
X135600000Y-31950000D02*
X122600000Y-31950000D01*
X136100000Y-45450000D02*
X136100000Y-32450000D01*
X122100000Y-32450000D02*
G75*
G02*
X122600000Y-31950000I500000J0D01*
G01*
X122600000Y-45950000D02*
G75*
G02*
X122100000Y-45450000I0J500000D01*
G01*
X135600000Y-31950000D02*
G75*
G02*
X136100000Y-32450000I-1J-500001D01*
G01*
X136097236Y-45448884D02*
G75*
G02*
X135597236Y-45948884I-500001J1D01*
G01*
%TO.C,SW_[4:5]1*%
X103080000Y-106250000D02*
X103080000Y-119250000D01*
X103580000Y-119750000D02*
X116580000Y-119750000D01*
X116580000Y-105750000D02*
X103580000Y-105750000D01*
X117080000Y-119250000D02*
X117080000Y-106250000D01*
X103080000Y-106250000D02*
G75*
G02*
X103580000Y-105750000I500000J0D01*
G01*
X103580000Y-119750000D02*
G75*
G02*
X103080000Y-119250000I0J500000D01*
G01*
X116580000Y-105750000D02*
G75*
G02*
X117080000Y-106250000I-1J-500001D01*
G01*
X117077236Y-119248884D02*
G75*
G02*
X116577236Y-119748884I-500001J1D01*
G01*
%TO.C,SW_[1:5]1*%
X45920000Y-113500000D02*
X45920000Y-126500000D01*
X46420000Y-127000000D02*
X59420000Y-127000000D01*
X59420000Y-113000000D02*
X46420000Y-113000000D01*
X59920000Y-126500000D02*
X59920000Y-113500000D01*
X45920000Y-113500000D02*
G75*
G02*
X46420000Y-113000000I500000J0D01*
G01*
X46420000Y-127000000D02*
G75*
G02*
X45920000Y-126500000I0J500000D01*
G01*
X59420000Y-113000000D02*
G75*
G02*
X59920000Y-113500000I-1J-500001D01*
G01*
X59917236Y-126498884D02*
G75*
G02*
X59417236Y-126998884I-500001J1D01*
G01*
%TO.C,SW_[4:4]1*%
X103080000Y-87250000D02*
X103080000Y-100250000D01*
X103580000Y-100750000D02*
X116580000Y-100750000D01*
X116580000Y-86750000D02*
X103580000Y-86750000D01*
X117080000Y-100250000D02*
X117080000Y-87250000D01*
X103080000Y-87250000D02*
G75*
G02*
X103580000Y-86750000I500000J0D01*
G01*
X103580000Y-100750000D02*
G75*
G02*
X103080000Y-100250000I0J500000D01*
G01*
X116580000Y-86750000D02*
G75*
G02*
X117080000Y-87250000I-1J-500001D01*
G01*
X117077236Y-100248884D02*
G75*
G02*
X116577236Y-100748884I-500001J1D01*
G01*
%TO.C,SW_[2:1]1*%
X64880000Y-37100000D02*
X64880000Y-50100000D01*
X65380000Y-50600000D02*
X78380000Y-50600000D01*
X78380000Y-36600000D02*
X65380000Y-36600000D01*
X78880000Y-50100000D02*
X78880000Y-37100000D01*
X64880000Y-37100000D02*
G75*
G02*
X65380000Y-36600000I500000J0D01*
G01*
X65380000Y-50600000D02*
G75*
G02*
X64880000Y-50100000I0J500000D01*
G01*
X78380000Y-36600000D02*
G75*
G02*
X78880000Y-37100000I-1J-500001D01*
G01*
X78877236Y-50098884D02*
G75*
G02*
X78377236Y-50598884I-500001J1D01*
G01*
%TO.C,SW_[5:4]1*%
X122100000Y-89600000D02*
X122100000Y-102600000D01*
X122600000Y-103100000D02*
X135600000Y-103100000D01*
X135600000Y-89100000D02*
X122600000Y-89100000D01*
X136100000Y-102600000D02*
X136100000Y-89600000D01*
X122100000Y-89600000D02*
G75*
G02*
X122600000Y-89100000I500000J0D01*
G01*
X122600000Y-103100000D02*
G75*
G02*
X122100000Y-102600000I0J500000D01*
G01*
X135600000Y-89100000D02*
G75*
G02*
X136100000Y-89600000I-1J-500001D01*
G01*
X136097236Y-102598884D02*
G75*
G02*
X135597236Y-103098884I-500001J1D01*
G01*
%TO.C,SW_[2:3]1*%
X64920000Y-75250000D02*
X64920000Y-88250000D01*
X65420000Y-88750000D02*
X78420000Y-88750000D01*
X78420000Y-74750000D02*
X65420000Y-74750000D01*
X78920000Y-88250000D02*
X78920000Y-75250000D01*
X64920000Y-75250000D02*
G75*
G02*
X65420000Y-74750000I500000J0D01*
G01*
X65420000Y-88750000D02*
G75*
G02*
X64920000Y-88250000I0J500000D01*
G01*
X78420000Y-74750000D02*
G75*
G02*
X78920000Y-75250000I-1J-500001D01*
G01*
X78917236Y-88248884D02*
G75*
G02*
X78417236Y-88748884I-500001J1D01*
G01*
%TO.C,SW_[4:2]1*%
X117097236Y-61998884D02*
G75*
G02*
X116597236Y-62498884I-500001J1D01*
G01*
X116600000Y-48500000D02*
G75*
G02*
X117100000Y-49000000I-1J-500001D01*
G01*
X103600000Y-62500000D02*
G75*
G02*
X103100000Y-62000000I0J500000D01*
G01*
X103100000Y-49000000D02*
G75*
G02*
X103600000Y-48500000I500000J0D01*
G01*
X117100000Y-62000000D02*
X117100000Y-49000000D01*
X116600000Y-48500000D02*
X103600000Y-48500000D01*
X103600000Y-62500000D02*
X116600000Y-62500000D01*
X103100000Y-49000000D02*
X103100000Y-62000000D01*
%TO.C,SW_[4:1]1*%
X103100000Y-29850000D02*
X103100000Y-42850000D01*
X103600000Y-43350000D02*
X116600000Y-43350000D01*
X116600000Y-29350000D02*
X103600000Y-29350000D01*
X117100000Y-42850000D02*
X117100000Y-29850000D01*
X103100000Y-29850000D02*
G75*
G02*
X103600000Y-29350000I500000J0D01*
G01*
X103600000Y-43350000D02*
G75*
G02*
X103100000Y-42850000I0J500000D01*
G01*
X116600000Y-29350000D02*
G75*
G02*
X117100000Y-29850000I-1J-500001D01*
G01*
X117097236Y-42848884D02*
G75*
G02*
X116597236Y-43348884I-500001J1D01*
G01*
%TO.C,SW_[3:5]1*%
X84000000Y-108500000D02*
X84000000Y-121500000D01*
X84500000Y-122000000D02*
X97500000Y-122000000D01*
X97500000Y-108000000D02*
X84500000Y-108000000D01*
X98000000Y-121500000D02*
X98000000Y-108500000D01*
X84000000Y-108500000D02*
G75*
G02*
X84500000Y-108000000I500000J0D01*
G01*
X84500000Y-122000000D02*
G75*
G02*
X84000000Y-121500000I0J500000D01*
G01*
X97500000Y-108000000D02*
G75*
G02*
X98000000Y-108500000I-1J-500001D01*
G01*
X97997236Y-121498884D02*
G75*
G02*
X97497236Y-121998884I-500001J1D01*
G01*
%TO.C,SW_[7:4]1*%
X178170835Y-116862178D02*
X189429165Y-123362178D01*
X184487822Y-104920835D02*
X177987822Y-116179165D01*
X190112178Y-123179165D02*
X196612178Y-111920835D01*
X196429165Y-111237822D02*
X185170835Y-104737822D01*
X178170835Y-116862178D02*
G75*
G02*
X177987822Y-116179165I250000J433013D01*
G01*
X184487822Y-104920835D02*
G75*
G02*
X185170835Y-104737822I433013J-250000D01*
G01*
X190110342Y-123176817D02*
G75*
G02*
X189427330Y-123359828I-433012J250001D01*
G01*
X196429165Y-111237822D02*
G75*
G02*
X196612178Y-111920835I-250000J-433013D01*
G01*
%TO.C,SW_[1:1]1*%
X43500000Y-37250000D02*
X43500000Y-50250000D01*
X44000000Y-50750000D02*
X57000000Y-50750000D01*
X57000000Y-36750000D02*
X44000000Y-36750000D01*
X57500000Y-50250000D02*
X57500000Y-37250000D01*
X43500000Y-37250000D02*
G75*
G02*
X44000000Y-36750000I500000J0D01*
G01*
X44000000Y-50750000D02*
G75*
G02*
X43500000Y-50250000I0J500000D01*
G01*
X57000000Y-36750000D02*
G75*
G02*
X57500000Y-37250000I-1J-500001D01*
G01*
X57497236Y-50248884D02*
G75*
G02*
X56997236Y-50748884I-500001J1D01*
G01*
%TO.C,SW_[5:2]1*%
X122100000Y-51500000D02*
X122100000Y-64500000D01*
X122600000Y-65000000D02*
X135600000Y-65000000D01*
X135600000Y-51000000D02*
X122600000Y-51000000D01*
X136100000Y-64500000D02*
X136100000Y-51500000D01*
X122100000Y-51500000D02*
G75*
G02*
X122600000Y-51000000I500000J0D01*
G01*
X122600000Y-65000000D02*
G75*
G02*
X122100000Y-64500000I0J500000D01*
G01*
X135600000Y-51000000D02*
G75*
G02*
X136100000Y-51500000I-1J-500001D01*
G01*
X136097236Y-64498884D02*
G75*
G02*
X135597236Y-64998884I-500001J1D01*
G01*
%TO.C,SW_[3:2]1*%
X84000000Y-51500100D02*
X84000000Y-64500100D01*
X84500000Y-65000100D02*
X97500000Y-65000100D01*
X97500000Y-51000100D02*
X84500000Y-51000100D01*
X98000000Y-64500100D02*
X98000000Y-51500100D01*
X84000000Y-51500100D02*
G75*
G02*
X84500000Y-51000100I500000J0D01*
G01*
X84500000Y-65000100D02*
G75*
G02*
X84000000Y-64500100I0J500000D01*
G01*
X97500000Y-51000100D02*
G75*
G02*
X98000000Y-51500100I-1J-500001D01*
G01*
X97997236Y-64498984D02*
G75*
G02*
X97497236Y-64998984I-500001J1D01*
G01*
%TO.C,SW_[1:2]1*%
X43500000Y-56250000D02*
X43500000Y-69250000D01*
X44000000Y-69750000D02*
X57000000Y-69750000D01*
X57000000Y-55750000D02*
X44000000Y-55750000D01*
X57500000Y-69250000D02*
X57500000Y-56250000D01*
X43500000Y-56250000D02*
G75*
G02*
X44000000Y-55750000I500000J0D01*
G01*
X44000000Y-69750000D02*
G75*
G02*
X43500000Y-69250000I0J500000D01*
G01*
X57000000Y-55750000D02*
G75*
G02*
X57500000Y-56250000I-1J-500001D01*
G01*
X57497236Y-69248884D02*
G75*
G02*
X56997236Y-69748884I-500001J1D01*
G01*
%TO.C,SW_[3:3]1*%
X84000000Y-70500000D02*
X84000000Y-83500000D01*
X84500000Y-84000000D02*
X97500000Y-84000000D01*
X97500000Y-70000000D02*
X84500000Y-70000000D01*
X98000000Y-83500000D02*
X98000000Y-70500000D01*
X84000000Y-70500000D02*
G75*
G02*
X84500000Y-70000000I500000J0D01*
G01*
X84500000Y-84000000D02*
G75*
G02*
X84000000Y-83500000I0J500000D01*
G01*
X97500000Y-70000000D02*
G75*
G02*
X98000000Y-70500000I-1J-500001D01*
G01*
X97997236Y-83498884D02*
G75*
G02*
X97497236Y-83998884I-500001J1D01*
G01*
%TO.C,SW_[7:1]1*%
X160200000Y-44350000D02*
X160200000Y-57350000D01*
X160700000Y-57850000D02*
X173700000Y-57850000D01*
X173700000Y-43850000D02*
X160700000Y-43850000D01*
X174200000Y-57350000D02*
X174200000Y-44350000D01*
X160200000Y-44350000D02*
G75*
G02*
X160700000Y-43850000I500000J0D01*
G01*
X160700000Y-57850000D02*
G75*
G02*
X160200000Y-57350000I0J500000D01*
G01*
X173700000Y-43850000D02*
G75*
G02*
X174200000Y-44350000I-1J-500001D01*
G01*
X174197236Y-57348884D02*
G75*
G02*
X173697236Y-57848884I-500001J1D01*
G01*
%TO.C,SW_[7:5]1*%
X166120835Y-137562178D02*
X177379165Y-144062178D01*
X172437822Y-125620835D02*
X165937822Y-136879165D01*
X178062178Y-143879165D02*
X184562178Y-132620835D01*
X184379165Y-131937822D02*
X173120835Y-125437822D01*
X166120835Y-137562178D02*
G75*
G02*
X165937822Y-136879165I250000J433013D01*
G01*
X172437822Y-125620835D02*
G75*
G02*
X173120835Y-125437822I433013J-250000D01*
G01*
X178060342Y-143876817D02*
G75*
G02*
X177377330Y-144059828I-433012J250001D01*
G01*
X184379165Y-131937822D02*
G75*
G02*
X184562178Y-132620835I-250000J-433013D01*
G01*
%TO.C,SW_[6:3]1*%
X141150000Y-72930500D02*
X141150000Y-85930500D01*
X141650000Y-86430500D02*
X154650000Y-86430500D01*
X154650000Y-72430500D02*
X141650000Y-72430500D01*
X155150000Y-85930500D02*
X155150000Y-72930500D01*
X141150000Y-72930500D02*
G75*
G02*
X141650000Y-72430500I500000J0D01*
G01*
X141650000Y-86430500D02*
G75*
G02*
X141150000Y-85930500I0J500000D01*
G01*
X154650000Y-72430500D02*
G75*
G02*
X155150000Y-72930500I-1J-500001D01*
G01*
X155147236Y-85929384D02*
G75*
G02*
X154647236Y-86429384I-500001J1D01*
G01*
%TD*%
M02*
