M48
; DRILL file {KiCad 8.0.2-1} date 2024-06-04T23:34:29+0200
; FORMAT={-:-/ absolute / inch / decimal}
; #@! TF.CreationDate,2024-06-04T23:34:29+02:00
; #@! TF.GenerationSoftware,Kicad,Pcbnew,8.0.2-1
; #@! TF.FileFunction,NonPlated,1,2,NPTH
FMAT,2
INCH
; #@! TA.AperFunction,NonPlated,NPTH,ComponentDrill
T1C0.0689
; #@! TA.AperFunction,NonPlated,NPTH,ComponentDrill
T2C0.1570
%
G90
G05
T1
X1.7882Y-1.7224
X1.7882Y-2.4705
X1.7882Y-3.2185
X1.7913Y-3.9764
X1.8835Y-4.7244
X2.1882Y-1.7224
X2.1882Y-2.4705
X2.1882Y-3.2185
X2.1913Y-3.9764
X2.2835Y-4.7244
X2.6293Y-2.4705
X2.6293Y-4.7217
X2.6299Y-1.7165
X2.6315Y-3.2185
X2.6315Y-3.9764
X3.0293Y-2.4705
X3.0293Y-4.7217
X3.0299Y-1.7165
X3.0315Y-3.2185
X3.0315Y-3.9764
X3.3827Y-1.5335
X3.3827Y-2.2835
X3.3827Y-3.0315
X3.3827Y-3.7795
X3.3827Y-4.5276
X3.7827Y-1.5335
X3.7827Y-2.2835
X3.7827Y-3.0315
X3.7827Y-3.7795
X3.7827Y-4.5276
X4.1333Y-2.9382
X4.1339Y-3.6909
X4.1339Y-4.439
X4.1346Y-1.4311
X4.1346Y-2.185
X4.5333Y-2.9382
X4.5339Y-3.6909
X4.5339Y-4.439
X4.5346Y-1.4311
X4.5346Y-2.185
X4.8827Y-1.5335
X4.8827Y-2.2835
X4.8827Y-3.0335
X4.8827Y-3.7835
X5.1254Y-4.6032
X5.2827Y-1.5335
X5.2827Y-2.2835
X5.2827Y-3.0335
X5.2827Y-3.7835
X5.5118Y-4.7067
X5.6327Y-1.626
X5.6327Y-2.376
X5.6327Y-3.1272
X5.6327Y-3.876
X6.0327Y-1.626
X6.0327Y-2.376
X6.0327Y-3.1272
X6.0327Y-3.876
X6.0788Y-4.8311
X6.3827Y-2.002
X6.4252Y-5.0311
X6.5493Y-4.0146
X6.5807Y-2.7398
X6.5807Y-3.1398
X6.7264Y-5.2051
X6.7827Y-2.002
X6.8957Y-4.2146
X7.0728Y-5.4051
X7.2008Y-4.3902
X7.5472Y-4.5902
T2
X1.9882Y-1.7224
X1.9882Y-2.4705
X1.9882Y-3.2185
X1.9913Y-3.9764
X2.0835Y-4.7244
X2.8293Y-2.4705
X2.8293Y-4.7217
X2.8299Y-1.7165
X2.8315Y-3.2185
X2.8315Y-3.9764
X3.5827Y-1.5335
X3.5827Y-2.2835
X3.5827Y-3.0315
X3.5827Y-3.7795
X3.5827Y-4.5276
X4.3333Y-2.9382
X4.3339Y-3.6909
X4.3339Y-4.439
X4.3346Y-1.4311
X4.3346Y-2.185
X5.0827Y-1.5335
X5.0827Y-2.2835
X5.0827Y-3.0335
X5.0827Y-3.7835
X5.3186Y-4.6549
X5.8327Y-1.626
X5.8327Y-2.376
X5.8327Y-3.1272
X5.8327Y-3.876
X6.252Y-4.9311
X6.5807Y-2.9398
X6.5827Y-2.002
X6.7225Y-4.1146
X6.8996Y-5.3051
X7.374Y-4.4902
M30
