%TF.GenerationSoftware,KiCad,Pcbnew,8.0.2-1*%
%TF.CreationDate,2024-06-04T11:33:54+02:00*%
%TF.ProjectId,keyboard,6b657962-6f61-4726-942e-6b696361645f,rev?*%
%TF.SameCoordinates,Original*%
%TF.FileFunction,Soldermask,Top*%
%TF.FilePolarity,Negative*%
%FSLAX46Y46*%
G04 Gerber Fmt 4.6, Leading zero omitted, Abs format (unit mm)*
G04 Created by KiCad (PCBNEW 8.0.2-1) date 2024-06-04 11:33:54*
%MOMM*%
%LPD*%
G01*
G04 APERTURE LIST*
G04 Aperture macros list*
%AMRoundRect*
0 Rectangle with rounded corners*
0 $1 Rounding radius*
0 $2 $3 $4 $5 $6 $7 $8 $9 X,Y pos of 4 corners*
0 Add a 4 corners polygon primitive as box body*
4,1,4,$2,$3,$4,$5,$6,$7,$8,$9,$2,$3,0*
0 Add four circle primitives for the rounded corners*
1,1,$1+$1,$2,$3*
1,1,$1+$1,$4,$5*
1,1,$1+$1,$6,$7*
1,1,$1+$1,$8,$9*
0 Add four rect primitives between the rounded corners*
20,1,$1+$1,$2,$3,$4,$5,0*
20,1,$1+$1,$4,$5,$6,$7,0*
20,1,$1+$1,$6,$7,$8,$9,0*
20,1,$1+$1,$8,$9,$2,$3,0*%
%AMHorizOval*
0 Thick line with rounded ends*
0 $1 width*
0 $2 $3 position (X,Y) of the first rounded end (center of the circle)*
0 $4 $5 position (X,Y) of the second rounded end (center of the circle)*
0 Add line between two ends*
20,1,$1,$2,$3,$4,$5,0*
0 Add two circle primitives to create the rounded ends*
1,1,$1,$2,$3*
1,1,$1,$4,$5*%
%AMRotRect*
0 Rectangle, with rotation*
0 The origin of the aperture is its center*
0 $1 length*
0 $2 width*
0 $3 Rotation angle, in degrees counterclockwise*
0 Add horizontal line*
21,1,$1,$2,0,0,$3*%
G04 Aperture macros list end*
%ADD10C,0.150000*%
%ADD11C,3.800000*%
%ADD12O,2.000000X2.000000*%
%ADD13R,2.000000X2.000000*%
%ADD14R,1.350000X1.350000*%
%ADD15O,1.350000X1.350000*%
%ADD16C,1.750000*%
%ADD17C,3.987800*%
%ADD18C,3.300000*%
%ADD19RotRect,2.000000X2.000000X330.000000*%
%ADD20HorizOval,2.000000X0.000000X0.000000X0.000000X0.000000X0*%
%ADD21RoundRect,0.250000X-0.625000X0.350000X-0.625000X-0.350000X0.625000X-0.350000X0.625000X0.350000X0*%
%ADD22O,1.750000X1.200000*%
%ADD23RotRect,2.000000X2.000000X60.000000*%
%ADD24HorizOval,2.000000X0.000000X0.000000X0.000000X0.000000X0*%
%ADD25RotRect,2.000000X2.000000X75.000000*%
%ADD26HorizOval,2.000000X0.000000X0.000000X0.000000X0.000000X0*%
%ADD27RoundRect,0.250000X-0.350000X-0.625000X0.350000X-0.625000X0.350000X0.625000X-0.350000X0.625000X0*%
%ADD28O,1.200000X1.750000*%
%ADD29C,2.000000*%
G04 APERTURE END LIST*
D10*
X183610588Y-72417438D02*
X183515350Y-72369819D01*
X183515350Y-72369819D02*
X183372493Y-72369819D01*
X183372493Y-72369819D02*
X183229636Y-72417438D01*
X183229636Y-72417438D02*
X183134398Y-72512676D01*
X183134398Y-72512676D02*
X183086779Y-72607914D01*
X183086779Y-72607914D02*
X183039160Y-72798390D01*
X183039160Y-72798390D02*
X183039160Y-72941247D01*
X183039160Y-72941247D02*
X183086779Y-73131723D01*
X183086779Y-73131723D02*
X183134398Y-73226961D01*
X183134398Y-73226961D02*
X183229636Y-73322200D01*
X183229636Y-73322200D02*
X183372493Y-73369819D01*
X183372493Y-73369819D02*
X183467731Y-73369819D01*
X183467731Y-73369819D02*
X183610588Y-73322200D01*
X183610588Y-73322200D02*
X183658207Y-73274580D01*
X183658207Y-73274580D02*
X183658207Y-72941247D01*
X183658207Y-72941247D02*
X183467731Y-72941247D01*
X184086779Y-73369819D02*
X184086779Y-72369819D01*
X184086779Y-72369819D02*
X184658207Y-73369819D01*
X184658207Y-73369819D02*
X184658207Y-72369819D01*
X185134398Y-73369819D02*
X185134398Y-72369819D01*
X185134398Y-72369819D02*
X185372493Y-72369819D01*
X185372493Y-72369819D02*
X185515350Y-72417438D01*
X185515350Y-72417438D02*
X185610588Y-72512676D01*
X185610588Y-72512676D02*
X185658207Y-72607914D01*
X185658207Y-72607914D02*
X185705826Y-72798390D01*
X185705826Y-72798390D02*
X185705826Y-72941247D01*
X185705826Y-72941247D02*
X185658207Y-73131723D01*
X185658207Y-73131723D02*
X185610588Y-73226961D01*
X185610588Y-73226961D02*
X185515350Y-73322200D01*
X185515350Y-73322200D02*
X185372493Y-73369819D01*
X185372493Y-73369819D02*
X185134398Y-73369819D01*
X186753446Y-72369819D02*
X187086779Y-73369819D01*
X187086779Y-73369819D02*
X187420112Y-72369819D01*
X188324874Y-73274580D02*
X188277255Y-73322200D01*
X188277255Y-73322200D02*
X188134398Y-73369819D01*
X188134398Y-73369819D02*
X188039160Y-73369819D01*
X188039160Y-73369819D02*
X187896303Y-73322200D01*
X187896303Y-73322200D02*
X187801065Y-73226961D01*
X187801065Y-73226961D02*
X187753446Y-73131723D01*
X187753446Y-73131723D02*
X187705827Y-72941247D01*
X187705827Y-72941247D02*
X187705827Y-72798390D01*
X187705827Y-72798390D02*
X187753446Y-72607914D01*
X187753446Y-72607914D02*
X187801065Y-72512676D01*
X187801065Y-72512676D02*
X187896303Y-72417438D01*
X187896303Y-72417438D02*
X188039160Y-72369819D01*
X188039160Y-72369819D02*
X188134398Y-72369819D01*
X188134398Y-72369819D02*
X188277255Y-72417438D01*
X188277255Y-72417438D02*
X188324874Y-72465057D01*
X189324874Y-73274580D02*
X189277255Y-73322200D01*
X189277255Y-73322200D02*
X189134398Y-73369819D01*
X189134398Y-73369819D02*
X189039160Y-73369819D01*
X189039160Y-73369819D02*
X188896303Y-73322200D01*
X188896303Y-73322200D02*
X188801065Y-73226961D01*
X188801065Y-73226961D02*
X188753446Y-73131723D01*
X188753446Y-73131723D02*
X188705827Y-72941247D01*
X188705827Y-72941247D02*
X188705827Y-72798390D01*
X188705827Y-72798390D02*
X188753446Y-72607914D01*
X188753446Y-72607914D02*
X188801065Y-72512676D01*
X188801065Y-72512676D02*
X188896303Y-72417438D01*
X188896303Y-72417438D02*
X189039160Y-72369819D01*
X189039160Y-72369819D02*
X189134398Y-72369819D01*
X189134398Y-72369819D02*
X189277255Y-72417438D01*
X189277255Y-72417438D02*
X189324874Y-72465057D01*
X190515351Y-73369819D02*
X190515351Y-72369819D01*
X190515351Y-72369819D02*
X190753446Y-72369819D01*
X190753446Y-72369819D02*
X190896303Y-72417438D01*
X190896303Y-72417438D02*
X190991541Y-72512676D01*
X190991541Y-72512676D02*
X191039160Y-72607914D01*
X191039160Y-72607914D02*
X191086779Y-72798390D01*
X191086779Y-72798390D02*
X191086779Y-72941247D01*
X191086779Y-72941247D02*
X191039160Y-73131723D01*
X191039160Y-73131723D02*
X190991541Y-73226961D01*
X190991541Y-73226961D02*
X190896303Y-73322200D01*
X190896303Y-73322200D02*
X190753446Y-73369819D01*
X190753446Y-73369819D02*
X190515351Y-73369819D01*
X191705827Y-72369819D02*
X191801065Y-72369819D01*
X191801065Y-72369819D02*
X191896303Y-72417438D01*
X191896303Y-72417438D02*
X191943922Y-72465057D01*
X191943922Y-72465057D02*
X191991541Y-72560295D01*
X191991541Y-72560295D02*
X192039160Y-72750771D01*
X192039160Y-72750771D02*
X192039160Y-72988866D01*
X192039160Y-72988866D02*
X191991541Y-73179342D01*
X191991541Y-73179342D02*
X191943922Y-73274580D01*
X191943922Y-73274580D02*
X191896303Y-73322200D01*
X191896303Y-73322200D02*
X191801065Y-73369819D01*
X191801065Y-73369819D02*
X191705827Y-73369819D01*
X191705827Y-73369819D02*
X191610589Y-73322200D01*
X191610589Y-73322200D02*
X191562970Y-73274580D01*
X191562970Y-73274580D02*
X191515351Y-73179342D01*
X191515351Y-73179342D02*
X191467732Y-72988866D01*
X191467732Y-72988866D02*
X191467732Y-72750771D01*
X191467732Y-72750771D02*
X191515351Y-72560295D01*
X191515351Y-72560295D02*
X191562970Y-72465057D01*
X191562970Y-72465057D02*
X191610589Y-72417438D01*
X191610589Y-72417438D02*
X191705827Y-72369819D01*
X193229637Y-73369819D02*
X193229637Y-72369819D01*
X193229637Y-72369819D02*
X193467732Y-72369819D01*
X193467732Y-72369819D02*
X193610589Y-72417438D01*
X193610589Y-72417438D02*
X193705827Y-72512676D01*
X193705827Y-72512676D02*
X193753446Y-72607914D01*
X193753446Y-72607914D02*
X193801065Y-72798390D01*
X193801065Y-72798390D02*
X193801065Y-72941247D01*
X193801065Y-72941247D02*
X193753446Y-73131723D01*
X193753446Y-73131723D02*
X193705827Y-73226961D01*
X193705827Y-73226961D02*
X193610589Y-73322200D01*
X193610589Y-73322200D02*
X193467732Y-73369819D01*
X193467732Y-73369819D02*
X193229637Y-73369819D01*
X194753446Y-73369819D02*
X194182018Y-73369819D01*
X194467732Y-73369819D02*
X194467732Y-72369819D01*
X194467732Y-72369819D02*
X194372494Y-72512676D01*
X194372494Y-72512676D02*
X194277256Y-72607914D01*
X194277256Y-72607914D02*
X194182018Y-72655533D01*
X196515351Y-73369819D02*
X196182018Y-72893628D01*
X195943923Y-73369819D02*
X195943923Y-72369819D01*
X195943923Y-72369819D02*
X196324875Y-72369819D01*
X196324875Y-72369819D02*
X196420113Y-72417438D01*
X196420113Y-72417438D02*
X196467732Y-72465057D01*
X196467732Y-72465057D02*
X196515351Y-72560295D01*
X196515351Y-72560295D02*
X196515351Y-72703152D01*
X196515351Y-72703152D02*
X196467732Y-72798390D01*
X196467732Y-72798390D02*
X196420113Y-72846009D01*
X196420113Y-72846009D02*
X196324875Y-72893628D01*
X196324875Y-72893628D02*
X195943923Y-72893628D01*
X196943923Y-72846009D02*
X197277256Y-72846009D01*
X197420113Y-73369819D02*
X196943923Y-73369819D01*
X196943923Y-73369819D02*
X196943923Y-72369819D01*
X196943923Y-72369819D02*
X197420113Y-72369819D01*
X197801066Y-73322200D02*
X197943923Y-73369819D01*
X197943923Y-73369819D02*
X198182018Y-73369819D01*
X198182018Y-73369819D02*
X198277256Y-73322200D01*
X198277256Y-73322200D02*
X198324875Y-73274580D01*
X198324875Y-73274580D02*
X198372494Y-73179342D01*
X198372494Y-73179342D02*
X198372494Y-73084104D01*
X198372494Y-73084104D02*
X198324875Y-72988866D01*
X198324875Y-72988866D02*
X198277256Y-72941247D01*
X198277256Y-72941247D02*
X198182018Y-72893628D01*
X198182018Y-72893628D02*
X197991542Y-72846009D01*
X197991542Y-72846009D02*
X197896304Y-72798390D01*
X197896304Y-72798390D02*
X197848685Y-72750771D01*
X197848685Y-72750771D02*
X197801066Y-72655533D01*
X197801066Y-72655533D02*
X197801066Y-72560295D01*
X197801066Y-72560295D02*
X197848685Y-72465057D01*
X197848685Y-72465057D02*
X197896304Y-72417438D01*
X197896304Y-72417438D02*
X197991542Y-72369819D01*
X197991542Y-72369819D02*
X198229637Y-72369819D01*
X198229637Y-72369819D02*
X198372494Y-72417438D01*
X199562971Y-73369819D02*
X199562971Y-72369819D01*
X199562971Y-72369819D02*
X199801066Y-72369819D01*
X199801066Y-72369819D02*
X199943923Y-72417438D01*
X199943923Y-72417438D02*
X200039161Y-72512676D01*
X200039161Y-72512676D02*
X200086780Y-72607914D01*
X200086780Y-72607914D02*
X200134399Y-72798390D01*
X200134399Y-72798390D02*
X200134399Y-72941247D01*
X200134399Y-72941247D02*
X200086780Y-73131723D01*
X200086780Y-73131723D02*
X200039161Y-73226961D01*
X200039161Y-73226961D02*
X199943923Y-73322200D01*
X199943923Y-73322200D02*
X199801066Y-73369819D01*
X199801066Y-73369819D02*
X199562971Y-73369819D01*
X201134399Y-73274580D02*
X201086780Y-73322200D01*
X201086780Y-73322200D02*
X200943923Y-73369819D01*
X200943923Y-73369819D02*
X200848685Y-73369819D01*
X200848685Y-73369819D02*
X200705828Y-73322200D01*
X200705828Y-73322200D02*
X200610590Y-73226961D01*
X200610590Y-73226961D02*
X200562971Y-73131723D01*
X200562971Y-73131723D02*
X200515352Y-72941247D01*
X200515352Y-72941247D02*
X200515352Y-72798390D01*
X200515352Y-72798390D02*
X200562971Y-72607914D01*
X200562971Y-72607914D02*
X200610590Y-72512676D01*
X200610590Y-72512676D02*
X200705828Y-72417438D01*
X200705828Y-72417438D02*
X200848685Y-72369819D01*
X200848685Y-72369819D02*
X200943923Y-72369819D01*
X200943923Y-72369819D02*
X201086780Y-72417438D01*
X201086780Y-72417438D02*
X201134399Y-72465057D01*
X202896304Y-73274580D02*
X202848685Y-73322200D01*
X202848685Y-73322200D02*
X202705828Y-73369819D01*
X202705828Y-73369819D02*
X202610590Y-73369819D01*
X202610590Y-73369819D02*
X202467733Y-73322200D01*
X202467733Y-73322200D02*
X202372495Y-73226961D01*
X202372495Y-73226961D02*
X202324876Y-73131723D01*
X202324876Y-73131723D02*
X202277257Y-72941247D01*
X202277257Y-72941247D02*
X202277257Y-72798390D01*
X202277257Y-72798390D02*
X202324876Y-72607914D01*
X202324876Y-72607914D02*
X202372495Y-72512676D01*
X202372495Y-72512676D02*
X202467733Y-72417438D01*
X202467733Y-72417438D02*
X202610590Y-72369819D01*
X202610590Y-72369819D02*
X202705828Y-72369819D01*
X202705828Y-72369819D02*
X202848685Y-72417438D01*
X202848685Y-72417438D02*
X202896304Y-72465057D01*
X203277257Y-73322200D02*
X203420114Y-73369819D01*
X203420114Y-73369819D02*
X203658209Y-73369819D01*
X203658209Y-73369819D02*
X203753447Y-73322200D01*
X203753447Y-73322200D02*
X203801066Y-73274580D01*
X203801066Y-73274580D02*
X203848685Y-73179342D01*
X203848685Y-73179342D02*
X203848685Y-73084104D01*
X203848685Y-73084104D02*
X203801066Y-72988866D01*
X203801066Y-72988866D02*
X203753447Y-72941247D01*
X203753447Y-72941247D02*
X203658209Y-72893628D01*
X203658209Y-72893628D02*
X203467733Y-72846009D01*
X203467733Y-72846009D02*
X203372495Y-72798390D01*
X203372495Y-72798390D02*
X203324876Y-72750771D01*
X203324876Y-72750771D02*
X203277257Y-72655533D01*
X203277257Y-72655533D02*
X203277257Y-72560295D01*
X203277257Y-72560295D02*
X203324876Y-72465057D01*
X203324876Y-72465057D02*
X203372495Y-72417438D01*
X203372495Y-72417438D02*
X203467733Y-72369819D01*
X203467733Y-72369819D02*
X203705828Y-72369819D01*
X203705828Y-72369819D02*
X203848685Y-72417438D01*
D11*
%TO.C,H1*%
X198250000Y-107500000D03*
%TD*%
D12*
%TO.C,D_I_[6:2]1*%
X194960000Y-84250000D03*
D13*
X200040000Y-84250000D03*
%TD*%
%TO.C,D_I[1:2]1*%
X200540000Y-100500000D03*
D12*
X195460000Y-100500000D03*
%TD*%
D13*
%TO.C,D_I_[2:1]1*%
X185960000Y-97250000D03*
D12*
X191040000Y-97250000D03*
%TD*%
D13*
%TO.C,D_I_[2:2]1*%
X200540000Y-97250000D03*
D12*
X195460000Y-97250000D03*
%TD*%
D11*
%TO.C,H2*%
X42500000Y-30500000D03*
%TD*%
D13*
%TO.C,D_I_[4:1]1*%
X185710000Y-90750000D03*
D12*
X190790000Y-90750000D03*
%TD*%
D13*
%TO.C,D_I_[5:1]1*%
X185710000Y-87500000D03*
D12*
X190790000Y-87500000D03*
%TD*%
D11*
%TO.C,H3*%
X152750000Y-145000000D03*
%TD*%
D13*
%TO.C,D_I_[5:2]1*%
X200040000Y-87500000D03*
D12*
X194960000Y-87500000D03*
%TD*%
D13*
%TO.C,D_I_[3:1]1*%
X185920000Y-94000000D03*
D12*
X191000000Y-94000000D03*
%TD*%
D11*
%TO.C,H6*%
X143250000Y-29750000D03*
%TD*%
%TO.C,H7*%
X203250000Y-30500000D03*
%TD*%
D13*
%TO.C,D_I_[4:2]1*%
X200040000Y-90750000D03*
D12*
X194960000Y-90750000D03*
%TD*%
D13*
%TO.C,D_I_[3:2]1*%
X200290000Y-94000000D03*
D12*
X195210000Y-94000000D03*
%TD*%
D13*
%TO.C,D_I_[6:1]1*%
X185710000Y-84250000D03*
D12*
X190790000Y-84250000D03*
%TD*%
D11*
%TO.C,H5*%
X42000000Y-126500000D03*
%TD*%
D14*
%TO.C,Display_conn1*%
X187250000Y-68750000D03*
D15*
X189250000Y-68750000D03*
X191250000Y-68750000D03*
X193250000Y-68750000D03*
X195250000Y-68750000D03*
X197250000Y-68750000D03*
X199250000Y-68750000D03*
%TD*%
D13*
%TO.C,D[3:2]1*%
X96250000Y-66290000D03*
D12*
X96250000Y-61210000D03*
%TD*%
D16*
%TO.C,SW_[7:2]1*%
X167150000Y-79750000D03*
D17*
X167150000Y-74670000D03*
D16*
X167150000Y-69590000D03*
D18*
X169690000Y-70860000D03*
X172230000Y-77210000D03*
%TD*%
D16*
%TO.C,SW_[1:4]1*%
X55660000Y-101000000D03*
D17*
X50580000Y-101000000D03*
D16*
X45500000Y-101000000D03*
D18*
X46770000Y-98460000D03*
X53120000Y-95920000D03*
%TD*%
D13*
%TO.C,D[4:2]1*%
X115500000Y-64040000D03*
D12*
X115500000Y-58960000D03*
%TD*%
D13*
%TO.C,D[5:1]1*%
X137290000Y-44250000D03*
D12*
X132210000Y-44250000D03*
%TD*%
D13*
%TO.C,D[1:5]1*%
X61540000Y-125540000D03*
D12*
X61540000Y-120460000D03*
%TD*%
D13*
%TO.C,D[6:2]1*%
X153250000Y-68540000D03*
D12*
X153250000Y-63460000D03*
%TD*%
D16*
%TO.C,SW_[6:1]1*%
X153230000Y-41300000D03*
D17*
X148150000Y-41300000D03*
D16*
X143070000Y-41300000D03*
D18*
X144340000Y-38760000D03*
X150690000Y-36220000D03*
%TD*%
D13*
%TO.C,D[5:2]1*%
X134500000Y-66790000D03*
D12*
X134500000Y-61710000D03*
%TD*%
D16*
%TO.C,SW_[2:4]1*%
X77000000Y-101000000D03*
D17*
X71920000Y-101000000D03*
D16*
X66840000Y-101000000D03*
D18*
X68110000Y-98460000D03*
X74460000Y-95920000D03*
%TD*%
D16*
%TO.C,SW_[2:5]1*%
X76944800Y-119930500D03*
D17*
X71864800Y-119930500D03*
D16*
X66784800Y-119930500D03*
D18*
X68054800Y-117390500D03*
X74404800Y-114850500D03*
%TD*%
D16*
%TO.C,SW_[1:3]1*%
X55580000Y-81750000D03*
D17*
X50500000Y-81750000D03*
D16*
X45420000Y-81750000D03*
D18*
X46690000Y-79210000D03*
X53040000Y-76670000D03*
%TD*%
D13*
%TO.C,D[6:1]1*%
X156540000Y-46750000D03*
D12*
X151460000Y-46750000D03*
%TD*%
D13*
%TO.C,D[4:5]1*%
X115750000Y-120790000D03*
D12*
X115750000Y-115710000D03*
%TD*%
D19*
%TO.C,D[7:3]1*%
X165446100Y-107092500D03*
D20*
X169845509Y-109632500D03*
%TD*%
D16*
%TO.C,SW_[6:3]1*%
X153230000Y-79430500D03*
D17*
X148150000Y-79430500D03*
D16*
X143070000Y-79430500D03*
D18*
X144340000Y-76890500D03*
X150690000Y-74350500D03*
%TD*%
D16*
%TO.C,SW_[6:5]1*%
X163199409Y-127790001D03*
D17*
X158800000Y-125250000D03*
D16*
X154400591Y-122709999D03*
D18*
X156770444Y-121145295D03*
X163539705Y-122120591D03*
%TD*%
D16*
%TO.C,SW_[2:2]1*%
X76944800Y-62750000D03*
D17*
X71864800Y-62750000D03*
D16*
X66784800Y-62750000D03*
D18*
X68054800Y-60210000D03*
X74404800Y-57670000D03*
%TD*%
D21*
%TO.C,Battery1*%
X50000000Y-31750000D03*
D22*
X50000000Y-33750000D03*
%TD*%
D16*
%TO.C,SW_[4:3]1*%
X115144800Y-74630500D03*
D17*
X110064800Y-74630500D03*
D16*
X104984800Y-74630500D03*
D18*
X106254800Y-72090500D03*
X112604800Y-69550500D03*
%TD*%
D13*
%TO.C,D[1:1]1*%
X59740000Y-48500000D03*
D12*
X54660000Y-48500000D03*
%TD*%
D13*
%TO.C,D[4:1]1*%
X118040000Y-42000000D03*
D12*
X112960000Y-42000000D03*
%TD*%
D13*
%TO.C,D[2:4]1*%
X77250000Y-109290000D03*
D12*
X77250000Y-104210000D03*
%TD*%
D13*
%TO.C,D[1:4]1*%
X56000000Y-109290000D03*
D12*
X56000000Y-104210000D03*
%TD*%
D23*
%TO.C,D[6:5]1*%
X158960000Y-134899400D03*
D24*
X161500000Y-130499991D03*
%TD*%
D16*
%TO.C,SW_[6:4]1*%
X153230000Y-98450000D03*
D17*
X148150000Y-98450000D03*
D16*
X143070000Y-98450000D03*
D18*
X144340000Y-95910000D03*
X150690000Y-93370000D03*
%TD*%
D16*
%TO.C,SW_[5:5]1*%
X140000004Y-119550001D03*
D17*
X135093100Y-118235200D03*
D16*
X130186196Y-116920399D03*
D18*
X132070323Y-114795649D03*
X138861354Y-113985696D03*
%TD*%
D13*
%TO.C,D[6:4]1*%
X153500000Y-107040000D03*
D12*
X153500000Y-101960000D03*
%TD*%
D16*
%TO.C,SW_[7:3]1*%
X175150009Y-107050000D03*
D17*
X170750600Y-104510000D03*
D16*
X166351191Y-101970000D03*
D18*
X168721044Y-100405295D03*
X175490305Y-101380591D03*
%TD*%
D16*
%TO.C,SW_[3:1]1*%
X96080000Y-38950600D03*
D17*
X91000000Y-38950600D03*
D16*
X85920000Y-38950600D03*
D18*
X87190000Y-36410600D03*
X93540000Y-33870600D03*
%TD*%
D16*
%TO.C,SW_[6:2]1*%
X153230000Y-60350000D03*
D17*
X148150000Y-60350000D03*
D16*
X143070000Y-60350000D03*
D18*
X144340000Y-57810000D03*
X150690000Y-55270000D03*
%TD*%
D13*
%TO.C,D[5:4]1*%
X134750000Y-104540000D03*
D12*
X134750000Y-99460000D03*
%TD*%
D25*
%TO.C,D[5:5]1*%
X138092600Y-127203500D03*
D26*
X139407401Y-122296597D03*
%TD*%
D13*
%TO.C,D[1:2]1*%
X56000000Y-71290000D03*
D12*
X56000000Y-66210000D03*
%TD*%
D13*
%TO.C,D[2:3]1*%
X77500000Y-90290000D03*
D12*
X77500000Y-85210000D03*
%TD*%
D16*
%TO.C,SW_[5:3]1*%
X134180000Y-77050000D03*
D17*
X129100000Y-77050000D03*
D16*
X124020000Y-77050000D03*
D18*
X125290000Y-74510000D03*
X131640000Y-71970000D03*
%TD*%
D13*
%TO.C,D[2:2]1*%
X77500000Y-71040000D03*
D12*
X77500000Y-65960000D03*
%TD*%
D16*
%TO.C,SW_[7:5]1*%
X179649409Y-137290000D03*
D17*
X175250000Y-134750000D03*
D16*
X170850591Y-132210000D03*
D18*
X173220444Y-130645295D03*
X179989705Y-131620591D03*
%TD*%
D16*
%TO.C,SW_[3:4]1*%
X96080000Y-96000000D03*
D17*
X91000000Y-96000000D03*
D16*
X85920000Y-96000000D03*
D18*
X87190000Y-93460000D03*
X93540000Y-90920000D03*
%TD*%
D13*
%TO.C,D[3:5]1*%
X96500000Y-123290000D03*
D12*
X96500000Y-118210000D03*
%TD*%
D13*
%TO.C,D[1:3]1*%
X56000000Y-90040000D03*
D12*
X56000000Y-84960000D03*
%TD*%
D13*
%TO.C,D[4:4]1*%
X115750000Y-102040000D03*
D12*
X115750000Y-96960000D03*
%TD*%
D16*
%TO.C,SW_[5:1]1*%
X134180000Y-38950000D03*
D17*
X129100000Y-38950000D03*
D16*
X124020000Y-38950000D03*
D18*
X125290000Y-36410000D03*
X131640000Y-33870000D03*
%TD*%
D13*
%TO.C,D[7:1]1*%
X175290000Y-56250000D03*
D12*
X170210000Y-56250000D03*
%TD*%
D13*
%TO.C,DI_[1:1]1*%
X185960000Y-100500000D03*
D12*
X191040000Y-100500000D03*
%TD*%
D16*
%TO.C,SW_[4:5]1*%
X115160000Y-112750000D03*
D17*
X110080000Y-112750000D03*
D16*
X105000000Y-112750000D03*
D18*
X106270000Y-110210000D03*
X112620000Y-107670000D03*
%TD*%
D16*
%TO.C,SW_[1:5]1*%
X58000000Y-120000000D03*
D17*
X52920000Y-120000000D03*
D16*
X47840000Y-120000000D03*
D18*
X49110000Y-117460000D03*
X55460000Y-114920000D03*
%TD*%
D16*
%TO.C,SW_[4:4]1*%
X115160000Y-93750000D03*
D17*
X110080000Y-93750000D03*
D16*
X105000000Y-93750000D03*
D18*
X106270000Y-91210000D03*
X112620000Y-88670000D03*
%TD*%
D16*
%TO.C,SW_[2:1]1*%
X76960000Y-43600000D03*
D17*
X71880000Y-43600000D03*
D16*
X66800000Y-43600000D03*
D18*
X68070000Y-41060000D03*
X74420000Y-38520000D03*
%TD*%
D13*
%TO.C,D[7:2]1*%
X162750000Y-71435000D03*
D12*
X162750000Y-76515000D03*
%TD*%
D16*
%TO.C,SW_[5:4]1*%
X134180000Y-96100000D03*
D17*
X129100000Y-96100000D03*
D16*
X124020000Y-96100000D03*
D18*
X125290000Y-93560000D03*
X131640000Y-91020000D03*
%TD*%
D13*
%TO.C,D[2:5]1*%
X80250000Y-125540000D03*
D12*
X80250000Y-120460000D03*
%TD*%
D23*
%TO.C,D[7:5]1*%
X167730000Y-139699700D03*
D24*
X170270000Y-135300291D03*
%TD*%
D16*
%TO.C,SW_[2:3]1*%
X77000000Y-81750000D03*
D17*
X71920000Y-81750000D03*
D16*
X66840000Y-81750000D03*
D18*
X68110000Y-79210000D03*
X74460000Y-76670000D03*
%TD*%
D27*
%TO.C,ON/OFF1*%
X60750000Y-32000000D03*
D28*
X62750000Y-32000000D03*
%TD*%
D16*
%TO.C,SW_[4:2]1*%
X115180000Y-55500000D03*
D17*
X110100000Y-55500000D03*
D16*
X105020000Y-55500000D03*
D18*
X106290000Y-52960000D03*
X112640000Y-50420000D03*
%TD*%
D29*
%TO.C,SW1*%
X192750000Y-34500000D03*
X186250000Y-34500000D03*
X192750000Y-39000000D03*
X186250000Y-39000000D03*
%TD*%
D16*
%TO.C,SW_[4:1]1*%
X115180000Y-36350000D03*
D17*
X110100000Y-36350000D03*
D16*
X105020000Y-36350000D03*
D18*
X106290000Y-33810000D03*
X112640000Y-31270000D03*
%TD*%
D23*
%TO.C,D[7:4]1*%
X187480000Y-123949700D03*
D24*
X190020000Y-119550291D03*
%TD*%
D16*
%TO.C,SW_[3:5]1*%
X96080000Y-115000000D03*
D17*
X91000000Y-115000000D03*
D16*
X85920000Y-115000000D03*
D18*
X87190000Y-112460000D03*
X93540000Y-109920000D03*
%TD*%
D13*
%TO.C,D[3:3]1*%
X96750000Y-85040000D03*
D12*
X96750000Y-79960000D03*
%TD*%
D13*
%TO.C,D[3:4]1*%
X96500000Y-104540000D03*
D12*
X96500000Y-99460000D03*
%TD*%
D16*
%TO.C,SW_[7:4]1*%
X191699409Y-116590000D03*
D17*
X187300000Y-114050000D03*
D16*
X182900591Y-111510000D03*
D18*
X185270444Y-109945295D03*
X192039705Y-110920591D03*
%TD*%
D16*
%TO.C,SW_[1:1]1*%
X55580000Y-43750000D03*
D17*
X50500000Y-43750000D03*
D16*
X45420000Y-43750000D03*
D18*
X46690000Y-41210000D03*
X53040000Y-38670000D03*
%TD*%
D16*
%TO.C,SW_[5:2]1*%
X134180000Y-58000000D03*
D17*
X129100000Y-58000000D03*
D16*
X124020000Y-58000000D03*
D18*
X125290000Y-55460000D03*
X131640000Y-52920000D03*
%TD*%
D13*
%TO.C,D[6:3]1*%
X153750000Y-87540000D03*
D12*
X153750000Y-82460000D03*
%TD*%
D16*
%TO.C,SW_[3:2]1*%
X96080000Y-58000100D03*
D17*
X91000000Y-58000100D03*
D16*
X85920000Y-58000100D03*
D18*
X87190000Y-55460100D03*
X93540000Y-52920100D03*
%TD*%
D13*
%TO.C,D[5:3]1*%
X134500000Y-85290000D03*
D12*
X134500000Y-80210000D03*
%TD*%
D13*
%TO.C,D[4:3]1*%
X115500000Y-82540000D03*
D12*
X115500000Y-77460000D03*
%TD*%
D16*
%TO.C,SW_[1:2]1*%
X55580000Y-62750000D03*
D17*
X50500000Y-62750000D03*
D16*
X45420000Y-62750000D03*
D18*
X46690000Y-60210000D03*
X53040000Y-57670000D03*
%TD*%
D13*
%TO.C,D[2:1]1*%
X80240000Y-48400000D03*
D12*
X75160000Y-48400000D03*
%TD*%
D16*
%TO.C,SW_[3:3]1*%
X96080000Y-77000000D03*
D17*
X91000000Y-77000000D03*
D16*
X85920000Y-77000000D03*
D18*
X87190000Y-74460000D03*
X93540000Y-71920000D03*
%TD*%
D16*
%TO.C,SW_[7:1]1*%
X172280000Y-50850000D03*
D17*
X167200000Y-50850000D03*
D16*
X162120000Y-50850000D03*
D18*
X163390000Y-48310000D03*
X169740000Y-45770000D03*
%TD*%
D13*
%TO.C,D[3:1]1*%
X99340000Y-44200000D03*
D12*
X94260000Y-44200000D03*
%TD*%
M02*
