%TF.GenerationSoftware,KiCad,Pcbnew,8.0.2-1*%
%TF.CreationDate,2024-06-04T22:44:41+02:00*%
%TF.ProjectId,keyboard_right,6b657962-6f61-4726-945f-72696768742e,rev?*%
%TF.SameCoordinates,Original*%
%TF.FileFunction,Copper,L1,Top*%
%TF.FilePolarity,Positive*%
%FSLAX46Y46*%
G04 Gerber Fmt 4.6, Leading zero omitted, Abs format (unit mm)*
G04 Created by KiCad (PCBNEW 8.0.2-1) date 2024-06-04 22:44:41*
%MOMM*%
%LPD*%
G01*
G04 APERTURE LIST*
G04 Aperture macros list*
%AMRoundRect*
0 Rectangle with rounded corners*
0 $1 Rounding radius*
0 $2 $3 $4 $5 $6 $7 $8 $9 X,Y pos of 4 corners*
0 Add a 4 corners polygon primitive as box body*
4,1,4,$2,$3,$4,$5,$6,$7,$8,$9,$2,$3,0*
0 Add four circle primitives for the rounded corners*
1,1,$1+$1,$2,$3*
1,1,$1+$1,$4,$5*
1,1,$1+$1,$6,$7*
1,1,$1+$1,$8,$9*
0 Add four rect primitives between the rounded corners*
20,1,$1+$1,$2,$3,$4,$5,0*
20,1,$1+$1,$4,$5,$6,$7,0*
20,1,$1+$1,$6,$7,$8,$9,0*
20,1,$1+$1,$8,$9,$2,$3,0*%
%AMHorizOval*
0 Thick line with rounded ends*
0 $1 width*
0 $2 $3 position (X,Y) of the first rounded end (center of the circle)*
0 $4 $5 position (X,Y) of the second rounded end (center of the circle)*
0 Add line between two ends*
20,1,$1,$2,$3,$4,$5,0*
0 Add two circle primitives to create the rounded ends*
1,1,$1,$2,$3*
1,1,$1,$4,$5*%
%AMRotRect*
0 Rectangle, with rotation*
0 The origin of the aperture is its center*
0 $1 length*
0 $2 width*
0 $3 Rotation angle, in degrees counterclockwise*
0 Add horizontal line*
21,1,$1,$2,0,0,$3*%
G04 Aperture macros list end*
%TA.AperFunction,ComponentPad*%
%ADD10R,2.000000X2.000000*%
%TD*%
%TA.AperFunction,ComponentPad*%
%ADD11O,2.000000X2.000000*%
%TD*%
%TA.AperFunction,ComponentPad*%
%ADD12C,1.800000*%
%TD*%
%TA.AperFunction,ComponentPad*%
%ADD13RoundRect,0.450000X0.450000X0.450000X-0.450000X0.450000X-0.450000X-0.450000X0.450000X-0.450000X0*%
%TD*%
%TA.AperFunction,ComponentPad*%
%ADD14R,1.350000X1.350000*%
%TD*%
%TA.AperFunction,ComponentPad*%
%ADD15O,1.350000X1.350000*%
%TD*%
%TA.AperFunction,ComponentPad*%
%ADD16C,3.800000*%
%TD*%
%TA.AperFunction,ComponentPad*%
%ADD17RoundRect,0.250000X0.625000X-0.350000X0.625000X0.350000X-0.625000X0.350000X-0.625000X-0.350000X0*%
%TD*%
%TA.AperFunction,ComponentPad*%
%ADD18O,1.750000X1.200000*%
%TD*%
%TA.AperFunction,ComponentPad*%
%ADD19RoundRect,0.250000X-0.350000X-0.625000X0.350000X-0.625000X0.350000X0.625000X-0.350000X0.625000X0*%
%TD*%
%TA.AperFunction,ComponentPad*%
%ADD20O,1.200000X1.750000*%
%TD*%
%TA.AperFunction,ComponentPad*%
%ADD21C,3.300000*%
%TD*%
%TA.AperFunction,SMDPad,CuDef*%
%ADD22R,2.500000X1.650000*%
%TD*%
%TA.AperFunction,SMDPad,CuDef*%
%ADD23RoundRect,0.250000X-1.000000X1.025000X-1.000000X-1.025000X1.000000X-1.025000X1.000000X1.025000X0*%
%TD*%
%TA.AperFunction,SMDPad,CuDef*%
%ADD24R,1.650000X2.500000*%
%TD*%
%TA.AperFunction,SMDPad,CuDef*%
%ADD25RoundRect,0.250000X-1.025000X-1.000000X1.025000X-1.000000X1.025000X1.000000X-1.025000X1.000000X0*%
%TD*%
%TA.AperFunction,ComponentPad*%
%ADD26RotRect,2.000000X2.000000X330.000000*%
%TD*%
%TA.AperFunction,ComponentPad*%
%ADD27HorizOval,2.000000X0.000000X0.000000X0.000000X0.000000X0*%
%TD*%
%TA.AperFunction,SMDPad,CuDef*%
%ADD28RotRect,1.650000X2.500000X150.000000*%
%TD*%
%TA.AperFunction,SMDPad,CuDef*%
%ADD29RoundRect,0.250000X-1.387676X-0.353525X0.387676X-1.378525X1.387676X0.353525X-0.387676X1.378525X0*%
%TD*%
%TA.AperFunction,SMDPad,CuDef*%
%ADD30RotRect,1.650000X2.500000X330.000000*%
%TD*%
%TA.AperFunction,ComponentPad*%
%ADD31RotRect,2.000000X2.000000X150.000000*%
%TD*%
%TA.AperFunction,ComponentPad*%
%ADD32HorizOval,2.000000X0.000000X0.000000X0.000000X0.000000X0*%
%TD*%
%TA.AperFunction,SMDPad,CuDef*%
%ADD33RotRect,1.650000X2.500000X345.000000*%
%TD*%
%TA.AperFunction,SMDPad,CuDef*%
%ADD34RoundRect,0.250000X-1.248893X-0.700636X0.731255X-1.231215X1.248893X0.700636X-0.731255X1.231215X0*%
%TD*%
%TA.AperFunction,SMDPad,CuDef*%
%ADD35RotRect,1.650000X2.500000X165.000000*%
%TD*%
%TA.AperFunction,ComponentPad*%
%ADD36RotRect,2.000000X2.000000X75.000000*%
%TD*%
%TA.AperFunction,ComponentPad*%
%ADD37HorizOval,2.000000X0.000000X0.000000X0.000000X0.000000X0*%
%TD*%
%TA.AperFunction,ComponentPad*%
%ADD38HorizOval,2.000000X0.000000X0.000000X0.000000X0.000000X0*%
%TD*%
%TA.AperFunction,ComponentPad*%
%ADD39RotRect,2.000000X2.000000X60.000000*%
%TD*%
%TA.AperFunction,ComponentPad*%
%ADD40C,2.000000*%
%TD*%
%TA.AperFunction,ViaPad*%
%ADD41C,0.600000*%
%TD*%
%TA.AperFunction,Conductor*%
%ADD42C,0.200000*%
%TD*%
G04 APERTURE END LIST*
D10*
%TO.P,D_I_[6:1]1,1,K*%
%TO.N,Pin_6*%
X183960000Y-96000000D03*
D11*
%TO.P,D_I_[6:1]1,2,A*%
%TO.N,Net-(D[1:5]1-K)*%
X189040000Y-96000000D03*
%TD*%
D10*
%TO.P,D_I_[3:2]1,1,K*%
%TO.N,Pin_Interrupt*%
X198790000Y-86250000D03*
D11*
%TO.P,D_I_[3:2]1,2,A*%
%TO.N,Net-(D[1:2]1-K)*%
X193710000Y-86250000D03*
%TD*%
D10*
%TO.P,D_I_[2:1]1,1,K*%
%TO.N,Pin_2*%
X183960000Y-83000000D03*
D11*
%TO.P,D_I_[2:1]1,2,A*%
%TO.N,Net-(D[1:1]1-K)*%
X189040000Y-83000000D03*
%TD*%
D10*
%TO.P,D_I_[5:1]1,1,K*%
%TO.N,Pin_5*%
X183960000Y-92750000D03*
D11*
%TO.P,D_I_[5:1]1,2,A*%
%TO.N,Net-(D[1:4]1-K)*%
X189040000Y-92750000D03*
%TD*%
D10*
%TO.P,DI_[1:1]1,1,K*%
%TO.N,Pin_1*%
X183960000Y-79750000D03*
D11*
%TO.P,DI_[1:1]1,2,A*%
%TO.N,Net-(DI_[1:1]1-A)*%
X189040000Y-79750000D03*
%TD*%
D12*
%TO.P,U1,1,1*%
%TO.N,B-*%
X197120000Y-31337500D03*
%TO.P,U1,2,0*%
%TO.N,DISPL_CS*%
X197120000Y-33877500D03*
D13*
%TO.P,U1,3,GND*%
%TO.N,GND*%
X197120000Y-36417500D03*
%TO.P,U1,4,GND*%
X197120000Y-38957500D03*
D12*
%TO.P,U1,5,2*%
%TO.N,unconnected-(U1-2-Pad5)*%
X197120000Y-41497500D03*
%TO.P,U1,6,3*%
%TO.N,unconnected-(U1-3-Pad6)*%
X197120000Y-44037500D03*
%TO.P,U1,7,4*%
%TO.N,unconnected-(U1-4-Pad7)*%
X197120000Y-46577500D03*
%TO.P,U1,8,5*%
%TO.N,unconnected-(U1-5-Pad8)*%
X197120000Y-49117500D03*
%TO.P,U1,9,6*%
%TO.N,DISPL_DC*%
X197120000Y-51657500D03*
%TO.P,U1,10,7*%
%TO.N,DISPL_D1_MOSI*%
X197120000Y-54197500D03*
%TO.P,U1,11,8*%
%TO.N,DISPL_D0_SCK*%
X197120000Y-56737500D03*
%TO.P,U1,12,9*%
%TO.N,DISPL_RES*%
X197120000Y-59277500D03*
%TO.P,U1,13,B+*%
%TO.N,SW_B+*%
X181880000Y-31337500D03*
D13*
%TO.P,U1,14,GND*%
%TO.N,GND*%
X181880000Y-33877500D03*
D12*
%TO.P,U1,15,RST*%
%TO.N,RESET*%
X181880000Y-36417500D03*
%TO.P,U1,16,3.3v*%
%TO.N,VCC_3.3V*%
X181880000Y-38957500D03*
%TO.P,U1,17,21*%
%TO.N,Pin_Interrupt*%
X181880000Y-41497500D03*
%TO.P,U1,18,20*%
%TO.N,Pin_7*%
X181880000Y-44037500D03*
%TO.P,U1,19,19*%
%TO.N,Pin_6*%
X181880000Y-46577500D03*
%TO.P,U1,20,18*%
%TO.N,Pin_5*%
X181880000Y-49117500D03*
%TO.P,U1,21,15*%
%TO.N,Pin_4*%
X181880000Y-51657500D03*
%TO.P,U1,22,14*%
%TO.N,Pin_3*%
X181880000Y-54197500D03*
%TO.P,U1,23,16*%
%TO.N,Pin_2*%
X181880000Y-56737500D03*
%TO.P,U1,24,10*%
%TO.N,Pin_1*%
X181880000Y-59277500D03*
%TD*%
D10*
%TO.P,D_I_[4:1]1,1,K*%
%TO.N,Pin_4*%
X183960000Y-89500000D03*
D11*
%TO.P,D_I_[4:1]1,2,A*%
%TO.N,Net-(D[1:3]1-K)*%
X189040000Y-89500000D03*
%TD*%
D14*
%TO.P,Display,1,Pin_1*%
%TO.N,GND*%
X196750000Y-67250000D03*
D15*
%TO.P,Display,2,Pin_2*%
%TO.N,VCC_3.3V*%
X194750000Y-67250000D03*
%TO.P,Display,3,Pin_3*%
%TO.N,DISPL_D0_SCK*%
X192750000Y-67250000D03*
%TO.P,Display,4,Pin_4*%
%TO.N,DISPL_D1_MOSI*%
X190750000Y-67250000D03*
%TO.P,Display,5,Pin_5*%
%TO.N,DISPL_RES*%
X188750000Y-67250000D03*
%TO.P,Display,6,Pin_6*%
%TO.N,DISPL_DC*%
X186750000Y-67250000D03*
%TO.P,Display,7,Pin_7*%
%TO.N,DISPL_CS*%
X184750000Y-67250000D03*
%TD*%
D10*
%TO.P,D_I[1:2]1,1,K*%
%TO.N,Pin_Interrupt*%
X198790000Y-79750000D03*
D11*
%TO.P,D_I[1:2]1,2,A*%
%TO.N,Net-(DI_[1:1]1-A)*%
X193710000Y-79750000D03*
%TD*%
D10*
%TO.P,D_I_[5:2]1,1,K*%
%TO.N,Pin_Interrupt*%
X198790000Y-92750000D03*
D11*
%TO.P,D_I_[5:2]1,2,A*%
%TO.N,Net-(D[1:4]1-K)*%
X193710000Y-92750000D03*
%TD*%
D10*
%TO.P,D_I_[4:2]1,1,K*%
%TO.N,Pin_Interrupt*%
X198790000Y-89500000D03*
D11*
%TO.P,D_I_[4:2]1,2,A*%
%TO.N,Net-(D[1:3]1-K)*%
X193710000Y-89500000D03*
%TD*%
D10*
%TO.P,D_I_[6:2]1,1,K*%
%TO.N,Pin_Interrupt*%
X198790000Y-96000000D03*
D11*
%TO.P,D_I_[6:2]1,2,A*%
%TO.N,Net-(D[1:5]1-K)*%
X193710000Y-96000000D03*
%TD*%
D10*
%TO.P,D_I_[2:2]1,1,K*%
%TO.N,Pin_Interrupt*%
X198790000Y-83000000D03*
D11*
%TO.P,D_I_[2:2]1,2,A*%
%TO.N,Net-(D[1:1]1-K)*%
X193710000Y-83000000D03*
%TD*%
D10*
%TO.P,D_I_[3:1]1,1,K*%
%TO.N,Pin_3*%
X183960000Y-86250000D03*
D11*
%TO.P,D_I_[3:1]1,2,A*%
%TO.N,Net-(D[1:2]1-K)*%
X189040000Y-86250000D03*
%TD*%
D16*
%TO.P,H1,1*%
%TO.N,N/C*%
X198250000Y-107500000D03*
%TD*%
%TO.P,H2,1*%
%TO.N,N/C*%
X42500000Y-30500000D03*
%TD*%
D17*
%TO.P,Battery1,1,Pin_1*%
%TO.N,B+*%
X50200000Y-31500000D03*
D18*
%TO.P,Battery1,2,Pin_2*%
%TO.N,B-*%
X50200000Y-29500000D03*
%TD*%
D16*
%TO.P,H3,1*%
%TO.N,N/C*%
X152750000Y-145000000D03*
%TD*%
%TO.P,H6,1*%
%TO.N,N/C*%
X143250000Y-29750000D03*
%TD*%
D19*
%TO.P,ON/OFF1,1,Pin_1*%
%TO.N,B+*%
X59500000Y-31500000D03*
D20*
%TO.P,ON/OFF1,2,Pin_2*%
%TO.N,SW_B+*%
X61500000Y-31500000D03*
%TD*%
D16*
%TO.P,H7,1*%
%TO.N,N/C*%
X203250000Y-30500000D03*
%TD*%
%TO.P,H5,1*%
%TO.N,N/C*%
X42000000Y-126500000D03*
%TD*%
D10*
%TO.P,D[3:2]1,1,K*%
%TO.N,Net-(D[1:1]1-K)*%
X82500000Y-66790000D03*
D11*
%TO.P,D[3:2]1,2,A*%
%TO.N,Net-(D[3:2]1-A)*%
X82500000Y-61710000D03*
%TD*%
D21*
%TO.P,SW_[7:2]1,1,1*%
%TO.N,Pin_7*%
X169690000Y-78480000D03*
D22*
X169690000Y-80305000D03*
D23*
X169690000Y-82030000D03*
%TO.P,SW_[7:2]1,2,2*%
%TO.N,Net-(D[7:2]1-A)*%
X172230000Y-68580000D03*
D22*
X172230000Y-70330000D03*
D21*
X172230000Y-72130000D03*
%TD*%
%TO.P,SW_[1:4]1,1,1*%
%TO.N,Pin_1*%
X56730000Y-98460000D03*
D24*
X58555000Y-98460000D03*
D25*
X60280000Y-98460000D03*
%TO.P,SW_[1:4]1,2,2*%
%TO.N,Net-(D[1:4]1-A)*%
X46830000Y-95920000D03*
D24*
X48580000Y-95920000D03*
D21*
X50380000Y-95920000D03*
%TD*%
D10*
%TO.P,D[4:2]1,1,K*%
%TO.N,Net-(D[1:1]1-K)*%
X100750000Y-64790000D03*
D11*
%TO.P,D[4:2]1,2,A*%
%TO.N,Net-(D[4:2]1-A)*%
X100750000Y-59710000D03*
%TD*%
D10*
%TO.P,D[5:1]1,1,K*%
%TO.N,Net-(DI_[1:1]1-A)*%
X120250000Y-48040000D03*
D11*
%TO.P,D[5:1]1,2,A*%
%TO.N,Net-(D[5:1]1-A)*%
X120250000Y-42960000D03*
%TD*%
%TO.P,D[1:5]1,2,A*%
%TO.N,Net-(D[1:5]1-A)*%
X61250000Y-120460000D03*
D10*
%TO.P,D[1:5]1,1,K*%
%TO.N,Net-(D[1:5]1-K)*%
X61250000Y-125540000D03*
%TD*%
%TO.P,D[6:2]1,1,K*%
%TO.N,Net-(D[1:1]1-K)*%
X138500000Y-67040000D03*
D11*
%TO.P,D[6:2]1,2,A*%
%TO.N,Net-(D[6:2]1-A)*%
X138500000Y-61960000D03*
%TD*%
D21*
%TO.P,SW_[6:1]1,1,1*%
%TO.N,Pin_6*%
X151960000Y-38760000D03*
D24*
X153785000Y-38760000D03*
D25*
X155510000Y-38760000D03*
%TO.P,SW_[6:1]1,2,2*%
%TO.N,Net-(D[6:1]1-A)*%
X142060000Y-36220000D03*
D24*
X143810000Y-36220000D03*
D21*
X145610000Y-36220000D03*
%TD*%
D10*
%TO.P,D[5:2]1,1,K*%
%TO.N,Net-(D[1:1]1-K)*%
X119750000Y-64790000D03*
D11*
%TO.P,D[5:2]1,2,A*%
%TO.N,Net-(D[5:2]1-A)*%
X119750000Y-59710000D03*
%TD*%
D21*
%TO.P,SW_[2:4]1,1,1*%
%TO.N,Pin_2*%
X75674800Y-98460000D03*
D24*
X77499800Y-98460000D03*
D25*
X79224800Y-98460000D03*
%TO.P,SW_[2:4]1,2,2*%
%TO.N,Net-(D[2:4]1-A)*%
X65774800Y-95920000D03*
D24*
X67524800Y-95920000D03*
D21*
X69324800Y-95920000D03*
%TD*%
%TO.P,SW_[2:5]1,1,1*%
%TO.N,Pin_2*%
X75730000Y-117390500D03*
D24*
X77555000Y-117390500D03*
D25*
X79280000Y-117390500D03*
%TO.P,SW_[2:5]1,2,2*%
%TO.N,Net-(D[2:5]1-A)*%
X65830000Y-114850500D03*
D24*
X67580000Y-114850500D03*
D21*
X69380000Y-114850500D03*
%TD*%
%TO.P,SW_[1:3]1,2,2*%
%TO.N,Net-(D[1:3]1-A)*%
X47960000Y-76670000D03*
D24*
X46160000Y-76670000D03*
D25*
X44410000Y-76670000D03*
%TO.P,SW_[1:3]1,1,1*%
%TO.N,Pin_1*%
X57860000Y-79210000D03*
D24*
X56135000Y-79210000D03*
D21*
X54310000Y-79210000D03*
%TD*%
D10*
%TO.P,D[6:1]1,1,K*%
%TO.N,Net-(DI_[1:1]1-A)*%
X139000000Y-48540000D03*
D11*
%TO.P,D[6:1]1,2,A*%
%TO.N,Net-(D[6:1]1-A)*%
X139000000Y-43460000D03*
%TD*%
D10*
%TO.P,D[4:5]1,1,K*%
%TO.N,Net-(D[1:5]1-K)*%
X120750000Y-120790000D03*
D11*
%TO.P,D[4:5]1,2,A*%
%TO.N,Net-(D[4:5]1-A)*%
X120750000Y-115710000D03*
%TD*%
D26*
%TO.P,D[7:3]1,1,K*%
%TO.N,Net-(D[1:3]1-K)*%
X163300300Y-110980000D03*
D27*
%TO.P,D[7:3]1,2,A*%
%TO.N,Net-(D[7:3]1-A)*%
X167699709Y-113520000D03*
%TD*%
D21*
%TO.P,SW_[6:3]1,1,1*%
%TO.N,Pin_6*%
X151960000Y-76890500D03*
D24*
X153785000Y-76890500D03*
D25*
X155510000Y-76890500D03*
%TO.P,SW_[6:3]1,2,2*%
%TO.N,Net-(D[6:3]1-A)*%
X142060000Y-74350500D03*
D24*
X143810000Y-74350500D03*
D21*
X145610000Y-74350500D03*
%TD*%
%TO.P,SW_[6:5]1,1,1*%
%TO.N,Pin_6*%
X163369557Y-124955295D03*
D28*
X164950053Y-125867795D03*
D29*
X166443947Y-126730295D03*
%TO.P,SW_[6:5]1,2,2*%
%TO.N,Net-(D[6:5]1-A)*%
X156065905Y-117805591D03*
D30*
X157581450Y-118680591D03*
D21*
X159140295Y-119580591D03*
%TD*%
%TO.P,SW_[2:2]1,1,1*%
%TO.N,Pin_2*%
X75674800Y-60210000D03*
D24*
X77499800Y-60210000D03*
D25*
X79224800Y-60210000D03*
%TO.P,SW_[2:2]1,2,2*%
%TO.N,Net-(D[2:2]1-A)*%
X65774800Y-57670000D03*
D24*
X67524800Y-57670000D03*
D21*
X69324800Y-57670000D03*
%TD*%
%TO.P,SW_[4:3]1,1,1*%
%TO.N,Pin_4*%
X113890000Y-72090500D03*
D24*
X115715000Y-72090500D03*
D25*
X117440000Y-72090500D03*
%TO.P,SW_[4:3]1,2,2*%
%TO.N,Net-(D[4:3]1-A)*%
X103990000Y-69550500D03*
D24*
X105740000Y-69550500D03*
D21*
X107540000Y-69550500D03*
%TD*%
D10*
%TO.P,D[1:1]1,1,K*%
%TO.N,Net-(D[1:1]1-K)*%
X52790000Y-53250000D03*
D11*
%TO.P,D[1:1]1,2,A*%
%TO.N,Net-(D[1:1]1-A)*%
X47710000Y-53250000D03*
%TD*%
D10*
%TO.P,D[4:1]1,1,K*%
%TO.N,Net-(DI_[1:1]1-A)*%
X101000000Y-47290000D03*
D11*
%TO.P,D[4:1]1,2,A*%
%TO.N,Net-(D[4:1]1-A)*%
X101000000Y-42210000D03*
%TD*%
D10*
%TO.P,D[2:4]1,1,K*%
%TO.N,Net-(D[1:4]1-K)*%
X63250000Y-109040000D03*
D11*
%TO.P,D[2:4]1,2,A*%
%TO.N,Net-(D[2:4]1-A)*%
X63250000Y-103960000D03*
%TD*%
D10*
%TO.P,D[1:4]1,1,K*%
%TO.N,Net-(D[1:4]1-K)*%
X53790000Y-109250000D03*
D11*
%TO.P,D[1:4]1,2,A*%
%TO.N,Net-(D[1:4]1-A)*%
X48710000Y-109250000D03*
%TD*%
D31*
%TO.P,D[6:5]1,1,K*%
%TO.N,Net-(D[1:4]1-K)*%
X155500000Y-135500000D03*
D32*
%TO.P,D[6:5]1,2,A*%
%TO.N,Net-(D[6:5]1-A)*%
X151100591Y-132960000D03*
%TD*%
D21*
%TO.P,SW_[6:4]1,1,1*%
%TO.N,Pin_6*%
X151960000Y-95910000D03*
D24*
X153785000Y-95910000D03*
D25*
X155510000Y-95910000D03*
%TO.P,SW_[6:4]1,2,2*%
%TO.N,Net-(D[6:4]1-A)*%
X142060000Y-93370000D03*
D24*
X143810000Y-93370000D03*
D21*
X145610000Y-93370000D03*
%TD*%
%TO.P,SW_[5:5]1,2,2*%
%TO.N,Net-(D[5:5]1-A)*%
X133954448Y-112670895D03*
D33*
X132215781Y-112205022D03*
D34*
X130525412Y-111752089D03*
%TO.P,SW_[5:5]1,1,1*%
%TO.N,Pin_5*%
X142859714Y-117686657D03*
D35*
X141193492Y-117240192D03*
D21*
X139430677Y-116767850D03*
%TD*%
D10*
%TO.P,D[6:4]1,1,K*%
%TO.N,Net-(D[1:3]1-K)*%
X158500000Y-107040000D03*
D11*
%TO.P,D[6:4]1,2,A*%
%TO.N,Net-(D[6:4]1-A)*%
X158500000Y-101960000D03*
%TD*%
D21*
%TO.P,SW_[7:3]1,1,1*%
%TO.N,Pin_7*%
X175320157Y-104215295D03*
D28*
X176900653Y-105127795D03*
D29*
X178394547Y-105990295D03*
%TO.P,SW_[7:3]1,2,2*%
%TO.N,Net-(D[7:3]1-A)*%
X168016505Y-97065591D03*
D30*
X169532050Y-97940591D03*
D21*
X171090895Y-98840591D03*
%TD*%
%TO.P,SW_[3:1]1,1,1*%
%TO.N,Pin_3*%
X94810000Y-36410600D03*
D24*
X96635000Y-36410600D03*
D25*
X98360000Y-36410600D03*
%TO.P,SW_[3:1]1,2,2*%
%TO.N,Net-(D[3:1]1-A)*%
X84910000Y-33870600D03*
D24*
X86660000Y-33870600D03*
D21*
X88460000Y-33870600D03*
%TD*%
%TO.P,SW_[6:2]1,1,1*%
%TO.N,Pin_6*%
X151960000Y-57810000D03*
D24*
X153785000Y-57810000D03*
D25*
X155510000Y-57810000D03*
%TO.P,SW_[6:2]1,2,2*%
%TO.N,Net-(D[6:2]1-A)*%
X142060000Y-55270000D03*
D24*
X143810000Y-55270000D03*
D21*
X145610000Y-55270000D03*
%TD*%
D10*
%TO.P,D[5:4]1,1,K*%
%TO.N,Net-(D[1:3]1-K)*%
X138750000Y-107040000D03*
D11*
%TO.P,D[5:4]1,2,A*%
%TO.N,Net-(D[5:4]1-A)*%
X138750000Y-101960000D03*
%TD*%
D36*
%TO.P,D[5:5]1,1,K*%
%TO.N,Net-(D[1:5]1-K)*%
X144342600Y-127953500D03*
D37*
%TO.P,D[5:5]1,2,A*%
%TO.N,Net-(D[5:5]1-A)*%
X145657400Y-123046597D03*
%TD*%
D11*
%TO.P,D[1:2]1,2,A*%
%TO.N,Net-(D[1:2]1-A)*%
X48210000Y-72250000D03*
D10*
%TO.P,D[1:2]1,1,K*%
%TO.N,Net-(D[1:2]1-K)*%
X53290000Y-72250000D03*
%TD*%
%TO.P,D[2:3]1,1,K*%
%TO.N,Net-(D[1:3]1-K)*%
X62500000Y-91290000D03*
D11*
%TO.P,D[2:3]1,2,A*%
%TO.N,Net-(D[2:3]1-A)*%
X62500000Y-86210000D03*
%TD*%
D21*
%TO.P,SW_[5:3]1,1,1*%
%TO.N,Pin_5*%
X132910000Y-74510000D03*
D24*
X134735000Y-74510000D03*
D25*
X136460000Y-74510000D03*
%TO.P,SW_[5:3]1,2,2*%
%TO.N,Net-(D[5:3]1-A)*%
X123010000Y-71970000D03*
D24*
X124760000Y-71970000D03*
D21*
X126560000Y-71970000D03*
%TD*%
D10*
%TO.P,D[2:2]1,1,K*%
%TO.N,Net-(D[1:2]1-K)*%
X61250000Y-72040000D03*
D11*
%TO.P,D[2:2]1,2,A*%
%TO.N,Net-(D[2:2]1-A)*%
X61250000Y-66960000D03*
%TD*%
D21*
%TO.P,SW_[7:5]1,1,1*%
%TO.N,Pin_7*%
X179819557Y-134455295D03*
D28*
X181400053Y-135367795D03*
D29*
X182893947Y-136230295D03*
%TO.P,SW_[7:5]1,2,2*%
%TO.N,Net-(D[7:5]1-A)*%
X172515905Y-127305591D03*
D30*
X174031450Y-128180591D03*
D21*
X175590295Y-129080591D03*
%TD*%
%TO.P,SW_[3:4]1,1,1*%
%TO.N,Pin_3*%
X94810000Y-93460000D03*
D24*
X96635000Y-93460000D03*
D25*
X98360000Y-93460000D03*
%TO.P,SW_[3:4]1,2,2*%
%TO.N,Net-(D[3:4]1-A)*%
X84910000Y-90920000D03*
D24*
X86660000Y-90920000D03*
D21*
X88460000Y-90920000D03*
%TD*%
D10*
%TO.P,D[3:5]1,1,K*%
%TO.N,Net-(D[1:5]1-K)*%
X100500000Y-120790000D03*
D11*
%TO.P,D[3:5]1,2,A*%
%TO.N,Net-(D[3:5]1-A)*%
X100500000Y-115710000D03*
%TD*%
%TO.P,D[1:3]1,2,A*%
%TO.N,Net-(D[1:3]1-A)*%
X48710000Y-91000000D03*
D10*
%TO.P,D[1:3]1,1,K*%
%TO.N,Net-(D[1:3]1-K)*%
X53790000Y-91000000D03*
%TD*%
%TO.P,D[4:4]1,1,K*%
%TO.N,Net-(D[1:4]1-K)*%
X118500000Y-102040000D03*
D11*
%TO.P,D[4:4]1,2,A*%
%TO.N,Net-(D[4:4]1-A)*%
X118500000Y-96960000D03*
%TD*%
D21*
%TO.P,SW_[5:1]1,1,1*%
%TO.N,Pin_5*%
X132910000Y-36410000D03*
D24*
X134735000Y-36410000D03*
D25*
X136460000Y-36410000D03*
%TO.P,SW_[5:1]1,2,2*%
%TO.N,Net-(D[5:1]1-A)*%
X123010000Y-33870000D03*
D24*
X124760000Y-33870000D03*
D21*
X126560000Y-33870000D03*
%TD*%
D10*
%TO.P,D[7:1]1,1,K*%
%TO.N,Net-(D[1:1]1-K)*%
X160960000Y-61250000D03*
D11*
%TO.P,D[7:1]1,2,A*%
%TO.N,Net-(D[7:1]1-A)*%
X166040000Y-61250000D03*
%TD*%
D21*
%TO.P,SW_[4:5]1,1,1*%
%TO.N,Pin_4*%
X113874800Y-110210000D03*
D24*
X115699800Y-110210000D03*
D25*
X117424800Y-110210000D03*
%TO.P,SW_[4:5]1,2,2*%
%TO.N,Net-(D[4:5]1-A)*%
X103974800Y-107670000D03*
D24*
X105724800Y-107670000D03*
D21*
X107524800Y-107670000D03*
%TD*%
%TO.P,SW_[1:5]1,1,1*%
%TO.N,Pin_1*%
X54390000Y-117460000D03*
D24*
X56215000Y-117460000D03*
D25*
X57940000Y-117460000D03*
%TO.P,SW_[1:5]1,2,2*%
%TO.N,Net-(D[1:5]1-A)*%
X44490000Y-114920000D03*
D24*
X46240000Y-114920000D03*
D21*
X48040000Y-114920000D03*
%TD*%
%TO.P,SW_[4:4]1,1,1*%
%TO.N,Pin_4*%
X113874800Y-91210000D03*
D24*
X115699800Y-91210000D03*
D25*
X117424800Y-91210000D03*
%TO.P,SW_[4:4]1,2,2*%
%TO.N,Net-(D[4:4]1-A)*%
X103974800Y-88670000D03*
D24*
X105724800Y-88670000D03*
D21*
X107524800Y-88670000D03*
%TD*%
%TO.P,SW_[2:1]1,1,1*%
%TO.N,Pin_2*%
X75690000Y-41060000D03*
D24*
X77515000Y-41060000D03*
D25*
X79240000Y-41060000D03*
%TO.P,SW_[2:1]1,2,2*%
%TO.N,Net-(D[2:1]1-A)*%
X65790000Y-38520000D03*
D24*
X67540000Y-38520000D03*
D21*
X69340000Y-38520000D03*
%TD*%
D10*
%TO.P,D[7:2]1,1,K*%
%TO.N,Net-(D[1:2]1-K)*%
X158500000Y-74290000D03*
D11*
%TO.P,D[7:2]1,2,A*%
%TO.N,Net-(D[7:2]1-A)*%
X158500000Y-69210000D03*
%TD*%
D21*
%TO.P,SW_[5:4]1,1,1*%
%TO.N,Pin_5*%
X132910000Y-93560000D03*
D24*
X134735000Y-93560000D03*
D25*
X136460000Y-93560000D03*
%TO.P,SW_[5:4]1,2,2*%
%TO.N,Net-(D[5:4]1-A)*%
X123010000Y-91020000D03*
D24*
X124760000Y-91020000D03*
D21*
X126560000Y-91020000D03*
%TD*%
D10*
%TO.P,D[2:5]1,1,K*%
%TO.N,Net-(D[1:5]1-K)*%
X81750000Y-125790000D03*
D11*
%TO.P,D[2:5]1,2,A*%
%TO.N,Net-(D[2:5]1-A)*%
X81750000Y-120710000D03*
%TD*%
D26*
%TO.P,D[7:5]1,1,K*%
%TO.N,Net-(D[1:5]1-K)*%
X160800300Y-138480000D03*
D27*
%TO.P,D[7:5]1,2,A*%
%TO.N,Net-(D[7:5]1-A)*%
X165199709Y-141020000D03*
%TD*%
D21*
%TO.P,SW_[2:3]1,2,2*%
%TO.N,Net-(D[2:3]1-A)*%
X69324800Y-76670000D03*
D24*
X67524800Y-76670000D03*
D25*
X65774800Y-76670000D03*
%TO.P,SW_[2:3]1,1,1*%
%TO.N,Pin_2*%
X79224800Y-79210000D03*
D24*
X77499800Y-79210000D03*
D21*
X75674800Y-79210000D03*
%TD*%
%TO.P,SW_[4:2]1,1,1*%
%TO.N,Pin_4*%
X113910000Y-52960000D03*
D24*
X115735000Y-52960000D03*
D25*
X117460000Y-52960000D03*
%TO.P,SW_[4:2]1,2,2*%
%TO.N,Net-(D[4:2]1-A)*%
X104010000Y-50420000D03*
D24*
X105760000Y-50420000D03*
D21*
X107560000Y-50420000D03*
%TD*%
%TO.P,SW_[4:1]1,1,1*%
%TO.N,Pin_4*%
X113910000Y-33810000D03*
D24*
X115735000Y-33810000D03*
D25*
X117460000Y-33810000D03*
%TO.P,SW_[4:1]1,2,2*%
%TO.N,Net-(D[4:1]1-A)*%
X104010000Y-31270000D03*
D24*
X105760000Y-31270000D03*
D21*
X107560000Y-31270000D03*
%TD*%
D38*
%TO.P,D[7:4]1,2,A*%
%TO.N,Net-(D[7:4]1-A)*%
X174270000Y-117800291D03*
D39*
%TO.P,D[7:4]1,1,K*%
%TO.N,Net-(D[1:4]1-K)*%
X171730000Y-122199700D03*
%TD*%
D21*
%TO.P,SW_[3:5]1,1,1*%
%TO.N,Pin_3*%
X94810000Y-112460000D03*
D24*
X96635000Y-112460000D03*
D25*
X98360000Y-112460000D03*
%TO.P,SW_[3:5]1,2,2*%
%TO.N,Net-(D[3:5]1-A)*%
X84910000Y-109920000D03*
D24*
X86660000Y-109920000D03*
D21*
X88460000Y-109920000D03*
%TD*%
D10*
%TO.P,D[3:3]1,1,K*%
%TO.N,Net-(D[1:3]1-K)*%
X82250000Y-86540000D03*
D11*
%TO.P,D[3:3]1,2,A*%
%TO.N,Net-(D[3:3]1-A)*%
X82250000Y-81460000D03*
%TD*%
D10*
%TO.P,D[3:4]1,1,K*%
%TO.N,Net-(D[1:4]1-K)*%
X99750000Y-104290000D03*
D11*
%TO.P,D[3:4]1,2,A*%
%TO.N,Net-(D[3:4]1-A)*%
X99750000Y-99210000D03*
%TD*%
D21*
%TO.P,SW_[7:4]1,1,1*%
%TO.N,Pin_7*%
X191869557Y-113755295D03*
D28*
X193450053Y-114667795D03*
D29*
X194943947Y-115530295D03*
%TO.P,SW_[7:4]1,2,2*%
%TO.N,Net-(D[7:4]1-A)*%
X184565905Y-106605591D03*
D30*
X186081450Y-107480591D03*
D21*
X187640295Y-108380591D03*
%TD*%
%TO.P,SW_[1:1]1,1,1*%
%TO.N,Pin_1*%
X54310000Y-41210000D03*
D24*
X56135000Y-41210000D03*
D25*
X57860000Y-41210000D03*
%TO.P,SW_[1:1]1,2,2*%
%TO.N,Net-(D[1:1]1-A)*%
X44410000Y-38670000D03*
D24*
X46160000Y-38670000D03*
D21*
X47960000Y-38670000D03*
%TD*%
%TO.P,SW_[5:2]1,1,1*%
%TO.N,Pin_5*%
X132910000Y-55460000D03*
D24*
X134735000Y-55460000D03*
D25*
X136460000Y-55460000D03*
%TO.P,SW_[5:2]1,2,2*%
%TO.N,Net-(D[5:2]1-A)*%
X123010000Y-52920000D03*
D24*
X124760000Y-52920000D03*
D21*
X126560000Y-52920000D03*
%TD*%
D10*
%TO.P,D[6:3]1,1,K*%
%TO.N,Net-(D[1:2]1-K)*%
X150540000Y-89000000D03*
D11*
%TO.P,D[6:3]1,2,A*%
%TO.N,Net-(D[6:3]1-A)*%
X145460000Y-89000000D03*
%TD*%
D21*
%TO.P,SW_[3:2]1,1,1*%
%TO.N,Pin_3*%
X94810000Y-55460100D03*
D24*
X96635000Y-55460100D03*
D25*
X98360000Y-55460100D03*
%TO.P,SW_[3:2]1,2,2*%
%TO.N,Net-(D[3:2]1-A)*%
X84910000Y-52920100D03*
D24*
X86660000Y-52920100D03*
D21*
X88460000Y-52920100D03*
%TD*%
D10*
%TO.P,D[5:3]1,1,K*%
%TO.N,Net-(D[1:2]1-K)*%
X138750000Y-86290000D03*
D11*
%TO.P,D[5:3]1,2,A*%
%TO.N,Net-(D[5:3]1-A)*%
X138750000Y-81210000D03*
%TD*%
D10*
%TO.P,D[4:3]1,1,K*%
%TO.N,Net-(D[1:2]1-K)*%
X119750000Y-86790000D03*
D11*
%TO.P,D[4:3]1,2,A*%
%TO.N,Net-(D[4:3]1-A)*%
X119750000Y-81710000D03*
%TD*%
D21*
%TO.P,SW_[1:2]1,1,1*%
%TO.N,Pin_1*%
X54310000Y-60210000D03*
D24*
X56135000Y-60210000D03*
D25*
X57860000Y-60210000D03*
%TO.P,SW_[1:2]1,2,2*%
%TO.N,Net-(D[1:2]1-A)*%
X44410000Y-57670000D03*
D24*
X46160000Y-57670000D03*
D21*
X47960000Y-57670000D03*
%TD*%
D10*
%TO.P,D[2:1]1,1,K*%
%TO.N,Net-(DI_[1:1]1-A)*%
X71040000Y-52750000D03*
D11*
%TO.P,D[2:1]1,2,A*%
%TO.N,Net-(D[2:1]1-A)*%
X65960000Y-52750000D03*
%TD*%
D21*
%TO.P,SW_[3:3]1,2,2*%
%TO.N,Net-(D[3:3]1-A)*%
X88460000Y-71920000D03*
D24*
X86660000Y-71920000D03*
D25*
X84910000Y-71920000D03*
%TO.P,SW_[3:3]1,1,1*%
%TO.N,Pin_3*%
X98360000Y-74460000D03*
D24*
X96635000Y-74460000D03*
D21*
X94810000Y-74460000D03*
%TD*%
%TO.P,SW_[7:1]1,1,1*%
%TO.N,Pin_7*%
X171010000Y-48310000D03*
D24*
X172835000Y-48310000D03*
D25*
X174560000Y-48310000D03*
%TO.P,SW_[7:1]1,2,2*%
%TO.N,Net-(D[7:1]1-A)*%
X161110000Y-45770000D03*
D24*
X162860000Y-45770000D03*
D21*
X164660000Y-45770000D03*
%TD*%
D10*
%TO.P,D[3:1]1,1,K*%
%TO.N,Net-(DI_[1:1]1-A)*%
X82000000Y-49540000D03*
D11*
%TO.P,D[3:1]1,2,A*%
%TO.N,Net-(D[3:1]1-A)*%
X82000000Y-44460000D03*
%TD*%
D40*
%TO.P,SW1,2*%
%TO.N,RESET*%
X186250000Y-36000000D03*
X192750000Y-36000000D03*
%TO.P,SW1,1*%
%TO.N,GND*%
X186250000Y-40500000D03*
X192750000Y-40500000D03*
%TD*%
D41*
%TO.N,Net-(DI_[1:1]1-A)*%
X181250000Y-72750000D03*
X178750000Y-72500000D03*
%TO.N,Net-(D[1:1]1-K)*%
X170750000Y-64500000D03*
X168500000Y-64250000D03*
X181250000Y-74750000D03*
X178750000Y-74750000D03*
%TO.N,GND*%
X197250000Y-64750000D03*
X195800000Y-58005456D03*
%TO.N,Pin_5*%
X141455000Y-115145300D03*
%TD*%
D42*
%TO.N,Net-(DI_[1:1]1-A)*%
X179000000Y-72750000D02*
X178750000Y-72500000D01*
X181250000Y-72750000D02*
X179000000Y-72750000D01*
%TO.N,Net-(D[1:1]1-K)*%
X181250000Y-74750000D02*
X178750000Y-74750000D01*
X170750000Y-64500000D02*
X168750000Y-64500000D01*
X168750000Y-64500000D02*
X168500000Y-64250000D01*
%TO.N,Net-(D[1:2]1-K)*%
X189040000Y-86250000D02*
X189040000Y-85480000D01*
X189040000Y-85480000D02*
X185260000Y-81700000D01*
X185260000Y-81700000D02*
X173050000Y-81700000D01*
X173050000Y-81700000D02*
X171145000Y-83605000D01*
X171145000Y-83605000D02*
X167815000Y-83605000D01*
X167815000Y-83605000D02*
X158500000Y-74290000D01*
%TO.N,Net-(D[1:3]1-K)*%
X189040000Y-89500000D02*
X190340000Y-90800000D01*
X190340000Y-90800000D02*
X190340000Y-96592704D01*
X190340000Y-96592704D02*
X189632704Y-97300000D01*
X158500000Y-104000000D02*
X158500000Y-107040000D01*
X189632704Y-97300000D02*
X172300000Y-97300000D01*
X172300000Y-97300000D02*
X170134348Y-95134348D01*
X170134348Y-95134348D02*
X167365652Y-95134348D01*
X167365652Y-95134348D02*
X158500000Y-104000000D01*
%TO.N,GND*%
X197120000Y-36417500D02*
X197120000Y-38957500D01*
X192750000Y-40500000D02*
X194292500Y-38957500D01*
X194292500Y-38957500D02*
X197120000Y-38957500D01*
%TO.N,Pin_7*%
X181880000Y-44037500D02*
X175282500Y-44037500D01*
X175282500Y-44037500D02*
X171010000Y-48310000D01*
%TO.N,Pin_Interrupt*%
X195150000Y-63584314D02*
X195150000Y-54767500D01*
X198790000Y-79750000D02*
X198790000Y-67224314D01*
%TO.N,VCC_3.3V*%
X180680000Y-40157500D02*
X181880000Y-38957500D01*
%TO.N,Pin_Interrupt*%
X198790000Y-67224314D02*
X195150000Y-63584314D01*
%TO.N,VCC_3.3V*%
X181382943Y-42697500D02*
X180680000Y-41994557D01*
%TO.N,GND*%
X197250000Y-64750000D02*
X195550000Y-63050000D01*
X195550000Y-63050000D02*
X195550000Y-58255456D01*
X195550000Y-58255456D02*
X195800000Y-58005456D01*
%TO.N,Pin_Interrupt*%
X195150000Y-54767500D02*
X181880000Y-41497500D01*
%TO.N,VCC_3.3V*%
X194750000Y-67250000D02*
X194750000Y-55210443D01*
X194750000Y-55210443D02*
X182237057Y-42697500D01*
X182237057Y-42697500D02*
X181382943Y-42697500D01*
X180680000Y-41994557D02*
X180680000Y-40157500D01*
%TO.N,Pin_1*%
X181880000Y-59277500D02*
X181880000Y-77670000D01*
X181880000Y-77670000D02*
X183960000Y-79750000D01*
%TO.N,Pin_4*%
X181880000Y-51657500D02*
X175327500Y-58210000D01*
X152869744Y-63260000D02*
X121207588Y-63260000D01*
X175327500Y-58210000D02*
X157919744Y-58210000D01*
X121207588Y-63260000D02*
X113910000Y-55962412D01*
X157919744Y-58210000D02*
X152869744Y-63260000D01*
X113910000Y-55962412D02*
X113910000Y-52960000D01*
%TO.N,Pin_6*%
X181880000Y-46577500D02*
X181880000Y-47420443D01*
X181880000Y-47420443D02*
X171490443Y-57810000D01*
X171490443Y-57810000D02*
X151960000Y-57810000D01*
%TO.N,Pin_2*%
X183960000Y-83000000D02*
X185260000Y-84300000D01*
X185260000Y-84300000D02*
X185260000Y-94050000D01*
X179710000Y-91100000D02*
X139485686Y-91100000D01*
X185260000Y-94050000D02*
X182660000Y-94050000D01*
X182660000Y-94050000D02*
X179710000Y-91100000D01*
X139485686Y-91100000D02*
X138035000Y-92550686D01*
X138035000Y-92550686D02*
X138035000Y-94794744D01*
X138035000Y-94794744D02*
X135504744Y-97325000D01*
X133672588Y-97325000D02*
X129590176Y-93242588D01*
X77499800Y-79210000D02*
X75674800Y-79210000D01*
X135504744Y-97325000D02*
X133672588Y-97325000D01*
X129590176Y-93242588D02*
X117384624Y-93242588D01*
X117384624Y-93242588D02*
X115652212Y-94975000D01*
X115652212Y-94975000D02*
X114637388Y-94975000D01*
X114637388Y-94975000D02*
X111924800Y-92262412D01*
X83517193Y-85227393D02*
X77499800Y-79210000D01*
X111924800Y-92262412D02*
X111924800Y-87464414D01*
X111924800Y-87464414D02*
X109687779Y-85227393D01*
X109687779Y-85227393D02*
X83517193Y-85227393D01*
%TO.N,Pin_1*%
X183960000Y-79750000D02*
X180740000Y-76530000D01*
X180740000Y-76530000D02*
X168882283Y-76530000D01*
X168882283Y-76530000D02*
X167740000Y-77672283D01*
X167740000Y-77672283D02*
X165123805Y-77672283D01*
X165123805Y-77672283D02*
X157200000Y-69748478D01*
X157200000Y-69748478D02*
X111061381Y-69748478D01*
X111061381Y-69748478D02*
X108312903Y-67000000D01*
X108312903Y-67000000D02*
X98000000Y-67000000D01*
X98000000Y-67000000D02*
X96740000Y-68260000D01*
X96740000Y-68260000D02*
X59260000Y-68260000D01*
X59260000Y-68260000D02*
X54310000Y-63310000D01*
X54310000Y-63310000D02*
X54310000Y-60210000D01*
%TO.N,Pin_3*%
X183960000Y-86250000D02*
X147053986Y-86250000D01*
X122888478Y-83010000D02*
X120288478Y-80410000D01*
X120288478Y-80410000D02*
X119174275Y-80410000D01*
X109490000Y-68742783D02*
X108346017Y-67598800D01*
X147053986Y-86250000D02*
X143813986Y-83010000D01*
X143813986Y-83010000D02*
X122888478Y-83010000D01*
X119174275Y-80410000D02*
X109490000Y-70725725D01*
X109490000Y-70725725D02*
X109490000Y-68742783D01*
X108346017Y-67598800D02*
X101671200Y-67598800D01*
X101671200Y-67598800D02*
X94810000Y-74460000D01*
%TO.N,Pin_5*%
X139320000Y-90700000D02*
X136460000Y-93560000D01*
%TO.N,Pin_4*%
X119634800Y-89000000D02*
X117424800Y-91210000D01*
%TO.N,Pin_5*%
X181910000Y-90700000D02*
X139320000Y-90700000D01*
%TO.N,Pin_4*%
X128597717Y-90300000D02*
X127297717Y-89000000D01*
%TO.N,Pin_5*%
X183960000Y-92750000D02*
X181910000Y-90700000D01*
%TO.N,Pin_4*%
X183960000Y-89500000D02*
X183160000Y-90300000D01*
X183160000Y-90300000D02*
X128597717Y-90300000D01*
X127297717Y-89000000D02*
X119634800Y-89000000D01*
%TO.N,Net-(D[4:1]1-A)*%
X106534100Y-29720000D02*
X105760000Y-30494100D01*
X106785900Y-29720000D02*
X106534100Y-29720000D01*
X107560000Y-30494100D02*
X106785900Y-29720000D01*
X107560000Y-31270000D02*
X107560000Y-30494100D01*
%TO.N,B-*%
X50200000Y-29500000D02*
X50380000Y-29320000D01*
X50380000Y-29320000D02*
X139708730Y-29320000D01*
X139708730Y-29320000D02*
X143066230Y-32677500D01*
X143066230Y-32677500D02*
X195780000Y-32677500D01*
X195780000Y-32677500D02*
X197120000Y-31337500D01*
%TO.N,RESET*%
X192750000Y-36000000D02*
X186250000Y-36000000D01*
%TO.N,Net-(D[1:5]1-K)*%
X144342600Y-127953500D02*
X142748400Y-127526400D01*
X120750000Y-120790000D02*
X122051700Y-120790000D01*
X150549900Y-128380600D02*
X145936800Y-128380600D01*
X159371000Y-137201700D02*
X150549900Y-128380600D01*
X159371000Y-137654700D02*
X159371000Y-137201700D01*
X160800300Y-138480000D02*
X159371000Y-137654700D01*
X144342600Y-127953500D02*
X145936800Y-128380600D01*
X80198300Y-125540000D02*
X80448300Y-125790000D01*
X61250000Y-125540000D02*
X80198300Y-125540000D01*
X81099200Y-125790000D02*
X80448300Y-125790000D01*
X81099200Y-125790000D02*
X81750000Y-125790000D01*
X94198300Y-125790000D02*
X99198300Y-120790000D01*
X81750000Y-125790000D02*
X94198300Y-125790000D01*
X100500000Y-120790000D02*
X99849200Y-120790000D01*
X99849200Y-120790000D02*
X99198300Y-120790000D01*
X101150900Y-122091700D02*
X122051700Y-122091700D01*
X99849200Y-120790000D02*
X101150900Y-122091700D01*
X127486400Y-127526400D02*
X122051700Y-122091700D01*
X142748400Y-127526400D02*
X127486400Y-127526400D01*
X122051700Y-122091700D02*
X122051700Y-120790000D01*
%TO.N,Net-(D[1:4]1-K)*%
X100400900Y-104290000D02*
X101051700Y-104290000D01*
X100400900Y-104290000D02*
X99750000Y-104290000D01*
X69301700Y-104290000D02*
X64551700Y-109040000D01*
X99750000Y-104290000D02*
X69301700Y-104290000D01*
X63250000Y-109040000D02*
X64551700Y-109040000D01*
X61738300Y-109250000D02*
X61948300Y-109040000D01*
X53790000Y-109250000D02*
X61738300Y-109250000D01*
X63250000Y-109040000D02*
X61948300Y-109040000D01*
X171730000Y-122199700D02*
X170300700Y-121374400D01*
X118500000Y-102040000D02*
X118500000Y-103341700D01*
X102000000Y-103341700D02*
X101051700Y-104290000D01*
X118500000Y-103341700D02*
X102000000Y-103341700D01*
X129784000Y-114625700D02*
X118500000Y-103341700D01*
X140962800Y-114625700D02*
X129784000Y-114625700D01*
X141095700Y-114492800D02*
X140962800Y-114625700D01*
X141859800Y-114492800D02*
X141095700Y-114492800D01*
X141992700Y-114625700D02*
X141859800Y-114492800D01*
X163552000Y-114625700D02*
X141992700Y-114625700D01*
X170300700Y-121374400D02*
X163552000Y-114625700D01*
%TO.N,Net-(D[1:3]1-K)*%
X60908300Y-91000000D02*
X61198300Y-91290000D01*
X53790000Y-91000000D02*
X60908300Y-91000000D01*
X62500000Y-91290000D02*
X61198300Y-91290000D01*
X76198300Y-91290000D02*
X62500000Y-91290000D01*
X80948300Y-86540000D02*
X76198300Y-91290000D01*
X81599200Y-86540000D02*
X80948300Y-86540000D01*
X81599200Y-86540000D02*
X82250000Y-86540000D01*
X161871000Y-109550700D02*
X161871000Y-110154700D01*
X158050400Y-105730100D02*
X161871000Y-109550700D01*
X141361600Y-105730100D02*
X158050400Y-105730100D01*
X140051700Y-107040000D02*
X141361600Y-105730100D01*
X138750000Y-107040000D02*
X140051700Y-107040000D01*
X163300300Y-110980000D02*
X161871000Y-110154700D01*
X94900900Y-86540000D02*
X82250000Y-86540000D01*
X107005000Y-98644100D02*
X94900900Y-86540000D01*
X122685600Y-98644100D02*
X107005000Y-98644100D01*
X131081500Y-107040000D02*
X122685600Y-98644100D01*
X138750000Y-107040000D02*
X131081500Y-107040000D01*
%TO.N,Net-(D[1:2]1-K)*%
X59738300Y-72250000D02*
X59948300Y-72040000D01*
X53290000Y-72250000D02*
X59738300Y-72250000D01*
X61250000Y-72040000D02*
X59948300Y-72040000D01*
X121551700Y-86290000D02*
X138750000Y-86290000D01*
X121051700Y-86790000D02*
X121551700Y-86290000D01*
X146528300Y-86290000D02*
X149238300Y-89000000D01*
X138750000Y-86290000D02*
X146528300Y-86290000D01*
X150540000Y-89000000D02*
X149238300Y-89000000D01*
X119750000Y-86790000D02*
X120400900Y-86790000D01*
X120400900Y-86790000D02*
X121051700Y-86790000D01*
X78521700Y-72040000D02*
X61250000Y-72040000D01*
X89253700Y-82772000D02*
X78521700Y-72040000D01*
X116382900Y-82772000D02*
X89253700Y-82772000D01*
X120400900Y-86790000D02*
X116382900Y-82772000D01*
%TO.N,Net-(D[1:1]1-K)*%
X160960000Y-61250000D02*
X159658300Y-61250000D01*
X72252200Y-66790000D02*
X82500000Y-66790000D01*
X68533700Y-63071500D02*
X72252200Y-66790000D01*
X68533700Y-62449200D02*
X68533700Y-63071500D01*
X66507500Y-60423000D02*
X68533700Y-62449200D01*
X63116600Y-60423000D02*
X66507500Y-60423000D01*
X55943600Y-53250000D02*
X63116600Y-60423000D01*
X52790000Y-53250000D02*
X55943600Y-53250000D01*
X153868300Y-67040000D02*
X138500000Y-67040000D01*
X159658300Y-61250000D02*
X153868300Y-67040000D01*
X123301700Y-67040000D02*
X121051700Y-64790000D01*
X138500000Y-67040000D02*
X123301700Y-67040000D01*
X119750000Y-64790000D02*
X121051700Y-64790000D01*
X82500000Y-66790000D02*
X83801700Y-66790000D01*
X119750000Y-64790000D02*
X100750000Y-64790000D01*
X97448300Y-66790000D02*
X83801700Y-66790000D01*
X99448300Y-64790000D02*
X97448300Y-66790000D01*
X100750000Y-64790000D02*
X99448300Y-64790000D01*
%TO.N,Net-(DI_[1:1]1-A)*%
X71040000Y-52750000D02*
X72341700Y-52750000D01*
X75551700Y-49540000D02*
X72341700Y-52750000D01*
X82000000Y-49540000D02*
X75551700Y-49540000D01*
X82000000Y-49540000D02*
X83301700Y-49540000D01*
X85551700Y-47290000D02*
X101000000Y-47290000D01*
X83301700Y-49540000D02*
X85551700Y-47290000D01*
X118198300Y-47290000D02*
X118948300Y-48040000D01*
X101000000Y-47290000D02*
X118198300Y-47290000D01*
X120250000Y-48040000D02*
X118948300Y-48040000D01*
X122051700Y-48540000D02*
X121551700Y-48040000D01*
X139000000Y-48540000D02*
X122051700Y-48540000D01*
X120250000Y-48040000D02*
X121551700Y-48040000D01*
%TO.N,GND*%
X192750000Y-40500000D02*
X186250000Y-40500000D01*
%TO.N,B+*%
X59500000Y-31500000D02*
X50200000Y-31500000D01*
%TO.N,Net-(D[7:5]1-A)*%
X173331100Y-130012300D02*
X173104600Y-129785800D01*
X174306800Y-130012300D02*
X173331100Y-130012300D01*
X175238500Y-129080600D02*
X174306800Y-130012300D01*
X175590300Y-129080600D02*
X175238500Y-129080600D01*
X174031400Y-128180600D02*
X173104600Y-129785800D01*
X174731800Y-126348900D02*
X174958200Y-126575300D01*
X173756100Y-126348900D02*
X174731800Y-126348900D01*
X172799400Y-127305600D02*
X173756100Y-126348900D01*
X172515900Y-127305600D02*
X172799400Y-127305600D01*
X174031400Y-128180600D02*
X174958200Y-126575300D01*
%TO.N,Net-(D[5:5]1-A)*%
X131612500Y-110414600D02*
X132695500Y-110414600D01*
X130725900Y-111301200D02*
X131612500Y-110414600D01*
X130725900Y-111551600D02*
X130725900Y-111301200D01*
X130525400Y-111752100D02*
X130725900Y-111551600D01*
X132215800Y-112205000D02*
X132695500Y-110414600D01*
X132766100Y-113995500D02*
X131736100Y-113995500D01*
X133705700Y-113055900D02*
X132766100Y-113995500D01*
X133705700Y-112919600D02*
X133705700Y-113055900D01*
X133954400Y-112670900D02*
X133705700Y-112919600D01*
X132215800Y-112205000D02*
X131736100Y-113995500D01*
%TO.N,Net-(D[4:5]1-A)*%
X106749000Y-106118300D02*
X105724800Y-106118300D01*
X107524800Y-106894100D02*
X106749000Y-106118300D01*
X107524800Y-107670000D02*
X107524800Y-106894100D01*
X105724800Y-107670000D02*
X105724800Y-106894100D01*
X105724800Y-106894100D02*
X105724800Y-106118300D01*
X104750700Y-106894100D02*
X103974800Y-107670000D01*
X105724800Y-106894100D02*
X104750700Y-106894100D01*
%TO.N,Net-(D[3:5]1-A)*%
X87684200Y-108368300D02*
X86660000Y-108368300D01*
X88460000Y-109144100D02*
X87684200Y-108368300D01*
X88460000Y-109920000D02*
X88460000Y-109144100D01*
X86660000Y-109920000D02*
X86660000Y-109144100D01*
X86660000Y-109144100D02*
X86660000Y-108368300D01*
X85685900Y-109144100D02*
X84910000Y-109920000D01*
X86660000Y-109144100D02*
X85685900Y-109144100D01*
X98707500Y-109920000D02*
X88460000Y-109920000D01*
X100500000Y-111712500D02*
X98707500Y-109920000D01*
X100500000Y-115710000D02*
X100500000Y-111712500D01*
%TO.N,Net-(D[2:5]1-A)*%
X68604200Y-113298800D02*
X67580000Y-113298800D01*
X69380000Y-114074600D02*
X68604200Y-113298800D01*
X69380000Y-114850500D02*
X69380000Y-114074600D01*
X67580000Y-114850500D02*
X67580000Y-114074600D01*
X67580000Y-114074600D02*
X67580000Y-113298800D01*
X66605900Y-114074600D02*
X65830000Y-114850500D01*
X67580000Y-114074600D02*
X66605900Y-114074600D01*
X79576300Y-114850500D02*
X69380000Y-114850500D01*
X81750000Y-117024200D02*
X79576300Y-114850500D01*
X81750000Y-120710000D02*
X81750000Y-117024200D01*
%TO.N,Net-(D[1:5]1-A)*%
X47264200Y-113368300D02*
X46240000Y-113368300D01*
X48040000Y-114144100D02*
X47264200Y-113368300D01*
X48040000Y-114920000D02*
X48040000Y-114144100D01*
X46240000Y-114920000D02*
X46240000Y-114144100D01*
X46240000Y-114144100D02*
X46240000Y-113368300D01*
X45265900Y-114144100D02*
X44490000Y-114920000D01*
X46240000Y-114144100D02*
X45265900Y-114144100D01*
X58216200Y-114920000D02*
X48040000Y-114920000D01*
X61250000Y-117953800D02*
X58216200Y-114920000D01*
X61250000Y-120460000D02*
X61250000Y-117953800D01*
%TO.N,Net-(D[7:4]1-A)*%
X185381100Y-109312300D02*
X185154600Y-109085800D01*
X186356800Y-109312300D02*
X185381100Y-109312300D01*
X187288500Y-108380600D02*
X186356800Y-109312300D01*
X187640300Y-108380600D02*
X187288500Y-108380600D01*
X186081400Y-107480600D02*
X185154600Y-109085800D01*
X186781800Y-105648900D02*
X187008200Y-105875300D01*
X185806100Y-105648900D02*
X186781800Y-105648900D01*
X184849400Y-106605600D02*
X185806100Y-105648900D01*
X184565900Y-106605600D02*
X184849400Y-106605600D01*
X186081400Y-107480600D02*
X187008200Y-105875300D01*
%TO.N,Net-(D[6:5]1-A)*%
X156881100Y-120512300D02*
X156654600Y-120285800D01*
X157856800Y-120512300D02*
X156881100Y-120512300D01*
X158788500Y-119580600D02*
X157856800Y-120512300D01*
X159140300Y-119580600D02*
X158788500Y-119580600D01*
X157581400Y-118680600D02*
X156654600Y-120285800D01*
X158281800Y-116848900D02*
X158508200Y-117075300D01*
X157306100Y-116848900D02*
X158281800Y-116848900D01*
X156349400Y-117805600D02*
X157306100Y-116848900D01*
X156065900Y-117805600D02*
X156349400Y-117805600D01*
X157581400Y-118680600D02*
X158508200Y-117075300D01*
%TO.N,Net-(D[4:4]1-A)*%
X106749000Y-87118300D02*
X105724800Y-87118300D01*
X107524800Y-87894100D02*
X106749000Y-87118300D01*
X107524800Y-88670000D02*
X107524800Y-87894100D01*
X105724800Y-88670000D02*
X105724800Y-87894100D01*
X105724800Y-87894100D02*
X105724800Y-87118300D01*
X104750700Y-87894100D02*
X103974800Y-88670000D01*
X105724800Y-87894100D02*
X104750700Y-87894100D01*
X107464800Y-88730000D02*
X107524800Y-88670000D01*
X107464800Y-94797100D02*
X107464800Y-88730000D01*
X109627700Y-96960000D02*
X107464800Y-94797100D01*
X118500000Y-96960000D02*
X109627700Y-96960000D01*
%TO.N,Net-(D[3:4]1-A)*%
X86660000Y-90920000D02*
X86660000Y-90144100D01*
X86660000Y-90144100D02*
X86660000Y-89368300D01*
X85685900Y-90144100D02*
X84910000Y-90920000D01*
X86660000Y-90144100D02*
X85685900Y-90144100D01*
X87683700Y-89368300D02*
X86660000Y-89368300D01*
X88460000Y-90144600D02*
X87683700Y-89368300D01*
X88460000Y-90920000D02*
X88460000Y-90144600D01*
X99750000Y-99210000D02*
X99750000Y-97908300D01*
X99952700Y-97705600D02*
X99750000Y-97908300D01*
X99952700Y-92196000D02*
X99952700Y-97705600D01*
X98676700Y-90920000D02*
X99952700Y-92196000D01*
X88460000Y-90920000D02*
X98676700Y-90920000D01*
%TO.N,Net-(D[2:4]1-A)*%
X68549000Y-94368300D02*
X67524800Y-94368300D01*
X69324800Y-95144100D02*
X68549000Y-94368300D01*
X69324800Y-95920000D02*
X69324800Y-95144100D01*
X67524800Y-95920000D02*
X67524800Y-95144100D01*
X67524800Y-95144100D02*
X67524800Y-94368300D01*
X66550700Y-95144100D02*
X65774800Y-95920000D01*
X67524800Y-95144100D02*
X66550700Y-95144100D01*
%TO.N,Net-(D[1:4]1-A)*%
X49604200Y-94368300D02*
X48580000Y-94368300D01*
X50380000Y-95144100D02*
X49604200Y-94368300D01*
X50380000Y-95920000D02*
X50380000Y-95144100D01*
X48580000Y-95920000D02*
X48580000Y-95144100D01*
X48580000Y-95144100D02*
X48580000Y-94368300D01*
X47605900Y-95144100D02*
X46830000Y-95920000D01*
X48580000Y-95144100D02*
X47605900Y-95144100D01*
%TO.N,Net-(D[7:3]1-A)*%
X168831700Y-99772300D02*
X168605200Y-99545800D01*
X169807400Y-99772300D02*
X168831700Y-99772300D01*
X170739100Y-98840600D02*
X169807400Y-99772300D01*
X171090900Y-98840600D02*
X170739100Y-98840600D01*
X169532000Y-97940600D02*
X168605200Y-99545800D01*
X170232400Y-96108900D02*
X170458800Y-96335300D01*
X169256700Y-96108900D02*
X170232400Y-96108900D01*
X168300000Y-97065600D02*
X169256700Y-96108900D01*
X168016500Y-97065600D02*
X168300000Y-97065600D01*
X169532000Y-97940600D02*
X170458800Y-96335300D01*
%TO.N,Net-(D[6:4]1-A)*%
X144834200Y-91818300D02*
X143810000Y-91818300D01*
X145610000Y-92594100D02*
X144834200Y-91818300D01*
X145610000Y-93370000D02*
X145610000Y-92594100D01*
X143810000Y-93370000D02*
X143810000Y-92594100D01*
X143810000Y-92594100D02*
X143810000Y-91818300D01*
X142835900Y-92594100D02*
X142060000Y-93370000D01*
X143810000Y-92594100D02*
X142835900Y-92594100D01*
X145511100Y-93468900D02*
X145610000Y-93370000D01*
X145511100Y-99443700D02*
X145511100Y-93468900D01*
X148027400Y-101960000D02*
X145511100Y-99443700D01*
X158500000Y-101960000D02*
X148027400Y-101960000D01*
%TO.N,Net-(D[5:4]1-A)*%
X125784200Y-89468300D02*
X124760000Y-89468300D01*
X126560000Y-90244100D02*
X125784200Y-89468300D01*
X126560000Y-91020000D02*
X126560000Y-90244100D01*
X124760000Y-91020000D02*
X124760000Y-90244100D01*
X124760000Y-90244100D02*
X124760000Y-89468300D01*
X123785900Y-90244100D02*
X123010000Y-91020000D01*
X124760000Y-90244100D02*
X123785900Y-90244100D01*
%TO.N,Net-(D[3:3]1-A)*%
X85685800Y-70368300D02*
X86660000Y-70368300D01*
X84910000Y-71144100D02*
X85685800Y-70368300D01*
X84910000Y-71920000D02*
X84910000Y-71144100D01*
X86660000Y-71920000D02*
X86660000Y-71144100D01*
X86660000Y-71144100D02*
X86660000Y-70368300D01*
X87684100Y-71144100D02*
X88460000Y-71920000D01*
X86660000Y-71144100D02*
X87684100Y-71144100D01*
%TO.N,Net-(D[2:3]1-A)*%
X66550600Y-75118300D02*
X67524800Y-75118300D01*
X65774800Y-75894100D02*
X66550600Y-75118300D01*
X65774800Y-76670000D02*
X65774800Y-75894100D01*
X67524800Y-76670000D02*
X67524800Y-75894100D01*
X67524800Y-75894100D02*
X67524800Y-75118300D01*
X68548900Y-75894100D02*
X69324800Y-76670000D01*
X67524800Y-75894100D02*
X68548900Y-75894100D01*
%TO.N,Net-(D[1:3]1-A)*%
X45185800Y-75118300D02*
X46160000Y-75118300D01*
X44410000Y-75894100D02*
X45185800Y-75118300D01*
X44410000Y-76670000D02*
X44410000Y-75894100D01*
X46160000Y-76670000D02*
X46160000Y-75894100D01*
X46160000Y-75894100D02*
X46160000Y-75118300D01*
X47184100Y-75894100D02*
X47960000Y-76670000D01*
X46160000Y-75894100D02*
X47184100Y-75894100D01*
%TO.N,Net-(D[7:2]1-A)*%
X171771400Y-68121400D02*
X172230000Y-68580000D01*
X160890300Y-68121400D02*
X171771400Y-68121400D01*
X159801700Y-69210000D02*
X160890300Y-68121400D01*
X158500000Y-69210000D02*
X159801700Y-69210000D01*
X173781700Y-71354200D02*
X173781700Y-70330000D01*
X173005900Y-72130000D02*
X173781700Y-71354200D01*
X172230000Y-72130000D02*
X173005900Y-72130000D01*
X172230000Y-70330000D02*
X173005900Y-70330000D01*
X173005900Y-70330000D02*
X173781700Y-70330000D01*
X172230000Y-69554100D02*
X172230000Y-68580000D01*
X173005900Y-70330000D02*
X172230000Y-69554100D01*
%TO.N,Net-(D[6:3]1-A)*%
X144834200Y-72798800D02*
X143810000Y-72798800D01*
X145610000Y-73574600D02*
X144834200Y-72798800D01*
X145610000Y-74350500D02*
X145610000Y-73574600D01*
X143810000Y-74350500D02*
X143810000Y-73574600D01*
X143810000Y-73574600D02*
X143810000Y-72798800D01*
X142835900Y-73574600D02*
X142060000Y-74350500D01*
X143810000Y-73574600D02*
X142835900Y-73574600D01*
%TO.N,Net-(D[5:3]1-A)*%
X125784200Y-70418300D02*
X124760000Y-70418300D01*
X126560000Y-71194100D02*
X125784200Y-70418300D01*
X126560000Y-71970000D02*
X126560000Y-71194100D01*
X124760000Y-71970000D02*
X124760000Y-71194100D01*
X124760000Y-71194100D02*
X124760000Y-70418300D01*
X123785900Y-71194100D02*
X123010000Y-71970000D01*
X124760000Y-71194100D02*
X123785900Y-71194100D01*
X126461100Y-72068900D02*
X126560000Y-71970000D01*
X126461100Y-78021700D02*
X126461100Y-72068900D01*
X129649400Y-81210000D02*
X126461100Y-78021700D01*
X138750000Y-81210000D02*
X129649400Y-81210000D01*
%TO.N,Net-(D[4:3]1-A)*%
X106764200Y-67998800D02*
X105740000Y-67998800D01*
X107540000Y-68774600D02*
X106764200Y-67998800D01*
X107540000Y-69550500D02*
X107540000Y-68774600D01*
X105740000Y-69550500D02*
X105740000Y-68774600D01*
X105740000Y-68774600D02*
X105740000Y-67998800D01*
X104765900Y-68774600D02*
X103990000Y-69550500D01*
X105740000Y-68774600D02*
X104765900Y-68774600D01*
X107441100Y-69649400D02*
X107540000Y-69550500D01*
X107441100Y-75591900D02*
X107441100Y-69649400D01*
X113559200Y-81710000D02*
X107441100Y-75591900D01*
X119750000Y-81710000D02*
X113559200Y-81710000D01*
%TO.N,Net-(D[2:2]1-A)*%
X68549000Y-56118300D02*
X67524800Y-56118300D01*
X69324800Y-56894100D02*
X68549000Y-56118300D01*
X69324800Y-57670000D02*
X69324800Y-56894100D01*
X67524800Y-57670000D02*
X67524800Y-56894100D01*
X67524800Y-56894100D02*
X67524800Y-56118300D01*
X66550700Y-56894100D02*
X65774800Y-57670000D01*
X67524800Y-56894100D02*
X66550700Y-56894100D01*
%TO.N,Net-(D[1:2]1-A)*%
X47184200Y-56118300D02*
X46160000Y-56118300D01*
X47960000Y-56894100D02*
X47184200Y-56118300D01*
X47960000Y-57670000D02*
X47960000Y-56894100D01*
X46160000Y-57670000D02*
X46160000Y-56894100D01*
X46160000Y-56894100D02*
X46160000Y-56118300D01*
X45185900Y-56894100D02*
X44410000Y-57670000D01*
X46160000Y-56894100D02*
X45185900Y-56894100D01*
%TO.N,Net-(D[7:1]1-A)*%
X163884200Y-44218300D02*
X162860000Y-44218300D01*
X164660000Y-44994100D02*
X163884200Y-44218300D01*
X164660000Y-45770000D02*
X164660000Y-44994100D01*
X162860000Y-45770000D02*
X162860000Y-44994100D01*
X162860000Y-44994100D02*
X162860000Y-44218300D01*
X161885900Y-44994100D02*
X161110000Y-45770000D01*
X162860000Y-44994100D02*
X161885900Y-44994100D01*
%TO.N,Net-(D[6:2]1-A)*%
X144834200Y-53718300D02*
X143810000Y-53718300D01*
X145610000Y-54494100D02*
X144834200Y-53718300D01*
X145610000Y-55270000D02*
X145610000Y-54494100D01*
X143810000Y-55270000D02*
X143810000Y-54494100D01*
X143810000Y-54494100D02*
X143810000Y-53718300D01*
X142835900Y-54494100D02*
X142060000Y-55270000D01*
X143810000Y-54494100D02*
X142835900Y-54494100D01*
%TO.N,Net-(D[5:2]1-A)*%
X125784200Y-51368300D02*
X124760000Y-51368300D01*
X126560000Y-52144100D02*
X125784200Y-51368300D01*
X126560000Y-52920000D02*
X126560000Y-52144100D01*
X124760000Y-52920000D02*
X124760000Y-52144100D01*
X124760000Y-52144100D02*
X124760000Y-51368300D01*
X123785900Y-52144100D02*
X123010000Y-52920000D01*
X124760000Y-52144100D02*
X123785900Y-52144100D01*
%TO.N,Net-(D[4:2]1-A)*%
X106784200Y-48868300D02*
X105760000Y-48868300D01*
X107560000Y-49644100D02*
X106784200Y-48868300D01*
X107560000Y-50420000D02*
X107560000Y-49644100D01*
X105760000Y-50420000D02*
X105760000Y-49644100D01*
X105760000Y-49644100D02*
X105760000Y-48868300D01*
X104785900Y-49644100D02*
X104010000Y-50420000D01*
X105760000Y-49644100D02*
X104785900Y-49644100D01*
%TO.N,Net-(D[3:2]1-A)*%
X87684200Y-51368400D02*
X86660000Y-51368400D01*
X88460000Y-52144200D02*
X87684200Y-51368400D01*
X88460000Y-52920100D02*
X88460000Y-52144200D01*
X86660000Y-52920100D02*
X86660000Y-52144200D01*
X86660000Y-52144200D02*
X86660000Y-51368400D01*
X85685900Y-52144200D02*
X84910000Y-52920100D01*
X86660000Y-52144200D02*
X85685900Y-52144200D01*
%TO.N,Net-(D[1:1]1-A)*%
X47184200Y-37118300D02*
X46160000Y-37118300D01*
X47960000Y-37894100D02*
X47184200Y-37118300D01*
X47960000Y-38670000D02*
X47960000Y-37894100D01*
X46160000Y-38670000D02*
X46160000Y-37894100D01*
X46160000Y-37894100D02*
X46160000Y-37118300D01*
X45185900Y-37894100D02*
X44410000Y-38670000D01*
X46160000Y-37894100D02*
X45185900Y-37894100D01*
%TO.N,Net-(D[6:1]1-A)*%
X144834200Y-34668300D02*
X143810000Y-34668300D01*
X145610000Y-35444100D02*
X144834200Y-34668300D01*
X145610000Y-36220000D02*
X145610000Y-35444100D01*
X143810000Y-36220000D02*
X143810000Y-35444100D01*
X143810000Y-35444100D02*
X143810000Y-34668300D01*
X142835900Y-35444100D02*
X142060000Y-36220000D01*
X143810000Y-35444100D02*
X142835900Y-35444100D01*
%TO.N,Net-(D[5:1]1-A)*%
X125784200Y-32318300D02*
X124760000Y-32318300D01*
X126560000Y-33094100D02*
X125784200Y-32318300D01*
X126560000Y-33870000D02*
X126560000Y-33094100D01*
X124760000Y-33870000D02*
X124760000Y-33094100D01*
X124760000Y-33094100D02*
X124760000Y-32318300D01*
X123785900Y-33094100D02*
X123010000Y-33870000D01*
X124760000Y-33094100D02*
X123785900Y-33094100D01*
%TO.N,Net-(D[4:1]1-A)*%
X105760000Y-31270000D02*
X105760000Y-30494100D01*
X104785900Y-30494100D02*
X104010000Y-31270000D01*
X105760000Y-30494100D02*
X104785900Y-30494100D01*
%TO.N,Net-(D[3:1]1-A)*%
X87684200Y-32318900D02*
X86660000Y-32318900D01*
X88460000Y-33094700D02*
X87684200Y-32318900D01*
X88460000Y-33870600D02*
X88460000Y-33094700D01*
X86660000Y-33870600D02*
X86660000Y-33094700D01*
X86660000Y-33094700D02*
X86660000Y-32318900D01*
X85685900Y-33094700D02*
X84910000Y-33870600D01*
X86660000Y-33094700D02*
X85685900Y-33094700D01*
%TO.N,Net-(D[2:1]1-A)*%
X68564200Y-36968300D02*
X67540000Y-36968300D01*
X69340000Y-37744100D02*
X68564200Y-36968300D01*
X69340000Y-38520000D02*
X69340000Y-37744100D01*
X67540000Y-38520000D02*
X67540000Y-37744100D01*
X67540000Y-37744100D02*
X67540000Y-36968300D01*
X66565900Y-37744100D02*
X65790000Y-38520000D01*
X67540000Y-37744100D02*
X66565900Y-37744100D01*
%TO.N,Pin_1*%
X54310000Y-79210000D02*
X56135000Y-79210000D01*
X56135000Y-79210000D02*
X57860000Y-79210000D01*
X57860000Y-60210000D02*
X56135000Y-60210000D01*
X56135000Y-60210000D02*
X54310000Y-60210000D01*
X57860000Y-41210000D02*
X56135000Y-41210000D01*
X56135000Y-41210000D02*
X54310000Y-41210000D01*
X57940000Y-117460000D02*
X56215000Y-117460000D01*
X56215000Y-117460000D02*
X54390000Y-117460000D01*
X60280000Y-98460000D02*
X58555000Y-98460000D01*
X58555000Y-98460000D02*
X56730000Y-98460000D01*
%TO.N,Pin_7*%
X181220100Y-108815900D02*
X178394500Y-105990300D01*
X184258700Y-108815900D02*
X181220100Y-108815900D01*
X186193500Y-110750700D02*
X184258700Y-108815900D01*
X188865000Y-110750700D02*
X186193500Y-110750700D01*
X191869600Y-113755300D02*
X188865000Y-110750700D01*
X177763200Y-105990300D02*
X176900700Y-105127800D01*
X178394500Y-105990300D02*
X177763200Y-105990300D01*
X176232700Y-105127800D02*
X175320200Y-104215300D01*
X176900700Y-105127800D02*
X176232700Y-105127800D01*
X174560000Y-48310000D02*
X172835000Y-48310000D01*
X172835000Y-48310000D02*
X171010000Y-48310000D01*
X169690000Y-82030000D02*
X169690000Y-80305000D01*
X169690000Y-80305000D02*
X169690000Y-78480000D01*
%TO.N,Pin_6*%
X165812600Y-126730300D02*
X164950100Y-125867800D01*
X166443900Y-126730300D02*
X165812600Y-126730300D01*
X164282100Y-125867800D02*
X163369600Y-124955300D01*
X164950100Y-125867800D02*
X164282100Y-125867800D01*
X155510000Y-57810000D02*
X153785000Y-57810000D01*
X153785000Y-57810000D02*
X151960000Y-57810000D01*
X155510000Y-95910000D02*
X153785000Y-95910000D01*
X153785000Y-95910000D02*
X151960000Y-95910000D01*
X155510000Y-76890500D02*
X153785000Y-76890500D01*
X153785000Y-76890500D02*
X151960000Y-76890500D01*
X155510000Y-38760000D02*
X153785000Y-38760000D01*
X153785000Y-38760000D02*
X151960000Y-38760000D01*
%TO.N,Pin_5*%
X141193500Y-117240200D02*
X141673200Y-115449800D01*
X141640000Y-117686700D02*
X141193500Y-117240200D01*
X142859700Y-117686700D02*
X141640000Y-117686700D01*
X136460000Y-55460000D02*
X134735000Y-55460000D01*
X134735000Y-55460000D02*
X132910000Y-55460000D01*
X136460000Y-93560000D02*
X134735000Y-93560000D01*
X134735000Y-93560000D02*
X132910000Y-93560000D01*
X136460000Y-36410000D02*
X134735000Y-36410000D01*
X134735000Y-36410000D02*
X132910000Y-36410000D01*
X136460000Y-74510000D02*
X134735000Y-74510000D01*
X134735000Y-74510000D02*
X132910000Y-74510000D01*
X141455000Y-115449800D02*
X141455000Y-115145300D01*
X140627700Y-115449800D02*
X141455000Y-115449800D01*
X139430700Y-116646800D02*
X140627700Y-115449800D01*
X139430700Y-116767800D02*
X139430700Y-116646800D01*
X141455000Y-115449800D02*
X141673200Y-115449800D01*
%TO.N,Pin_4*%
X117460000Y-33810000D02*
X115735000Y-33810000D01*
X115735000Y-33810000D02*
X113910000Y-33810000D01*
X117460000Y-52960000D02*
X115735000Y-52960000D01*
X115735000Y-52960000D02*
X113910000Y-52960000D01*
X117424800Y-91210000D02*
X115699800Y-91210000D01*
X115699800Y-91210000D02*
X113874800Y-91210000D01*
X117424800Y-110210000D02*
X115699800Y-110210000D01*
X115699800Y-110210000D02*
X113874800Y-110210000D01*
X117440000Y-72090500D02*
X115715000Y-72090500D01*
X115715000Y-72090500D02*
X113890000Y-72090500D01*
%TO.N,Pin_3*%
X94810000Y-74460000D02*
X96635000Y-74460000D01*
X96635000Y-74460000D02*
X98360000Y-74460000D01*
X98360000Y-55460100D02*
X96635000Y-55460100D01*
X96635000Y-55460100D02*
X94810000Y-55460100D01*
X98360000Y-112460000D02*
X96635000Y-112460000D01*
X96635000Y-112460000D02*
X94810000Y-112460000D01*
X98360000Y-93460000D02*
X96635000Y-93460000D01*
X96635000Y-93460000D02*
X94810000Y-93460000D01*
X98360000Y-36410600D02*
X96635000Y-36410600D01*
X96635000Y-36410600D02*
X94810000Y-36410600D01*
%TO.N,Pin_2*%
X77499800Y-79210000D02*
X79224800Y-79210000D01*
X79240000Y-41060000D02*
X77515000Y-41060000D01*
X77515000Y-41060000D02*
X75690000Y-41060000D01*
X79224800Y-60210000D02*
X77499800Y-60210000D01*
X77499800Y-60210000D02*
X75674800Y-60210000D01*
X79280000Y-117390500D02*
X77555000Y-117390500D01*
X77555000Y-117390500D02*
X75730000Y-117390500D01*
X79224800Y-98460000D02*
X77499800Y-98460000D01*
X77499800Y-98460000D02*
X75674800Y-98460000D01*
%TO.N,RESET*%
X182297500Y-36000000D02*
X181880000Y-36417500D01*
X186250000Y-36000000D02*
X182297500Y-36000000D01*
%TD*%
M02*
