%TF.GenerationSoftware,KiCad,Pcbnew,8.0.2-1*%
%TF.CreationDate,2024-06-04T22:44:41+02:00*%
%TF.ProjectId,keyboard_right,6b657962-6f61-4726-945f-72696768742e,rev?*%
%TF.SameCoordinates,Original*%
%TF.FileFunction,Soldermask,Top*%
%TF.FilePolarity,Negative*%
%FSLAX46Y46*%
G04 Gerber Fmt 4.6, Leading zero omitted, Abs format (unit mm)*
G04 Created by KiCad (PCBNEW 8.0.2-1) date 2024-06-04 22:44:41*
%MOMM*%
%LPD*%
G01*
G04 APERTURE LIST*
G04 Aperture macros list*
%AMRoundRect*
0 Rectangle with rounded corners*
0 $1 Rounding radius*
0 $2 $3 $4 $5 $6 $7 $8 $9 X,Y pos of 4 corners*
0 Add a 4 corners polygon primitive as box body*
4,1,4,$2,$3,$4,$5,$6,$7,$8,$9,$2,$3,0*
0 Add four circle primitives for the rounded corners*
1,1,$1+$1,$2,$3*
1,1,$1+$1,$4,$5*
1,1,$1+$1,$6,$7*
1,1,$1+$1,$8,$9*
0 Add four rect primitives between the rounded corners*
20,1,$1+$1,$2,$3,$4,$5,0*
20,1,$1+$1,$4,$5,$6,$7,0*
20,1,$1+$1,$6,$7,$8,$9,0*
20,1,$1+$1,$8,$9,$2,$3,0*%
%AMHorizOval*
0 Thick line with rounded ends*
0 $1 width*
0 $2 $3 position (X,Y) of the first rounded end (center of the circle)*
0 $4 $5 position (X,Y) of the second rounded end (center of the circle)*
0 Add line between two ends*
20,1,$1,$2,$3,$4,$5,0*
0 Add two circle primitives to create the rounded ends*
1,1,$1,$2,$3*
1,1,$1,$4,$5*%
%AMRotRect*
0 Rectangle, with rotation*
0 The origin of the aperture is its center*
0 $1 length*
0 $2 width*
0 $3 Rotation angle, in degrees counterclockwise*
0 Add horizontal line*
21,1,$1,$2,0,0,$3*%
G04 Aperture macros list end*
%ADD10R,2.000000X2.000000*%
%ADD11O,2.000000X2.000000*%
%ADD12C,1.800000*%
%ADD13RoundRect,0.450000X0.450000X0.450000X-0.450000X0.450000X-0.450000X-0.450000X0.450000X-0.450000X0*%
%ADD14R,1.350000X1.350000*%
%ADD15O,1.350000X1.350000*%
%ADD16C,3.800000*%
%ADD17RoundRect,0.250000X0.625000X-0.350000X0.625000X0.350000X-0.625000X0.350000X-0.625000X-0.350000X0*%
%ADD18O,1.750000X1.200000*%
%ADD19RoundRect,0.250000X-0.350000X-0.625000X0.350000X-0.625000X0.350000X0.625000X-0.350000X0.625000X0*%
%ADD20O,1.200000X1.750000*%
%ADD21C,1.750000*%
%ADD22C,3.987800*%
%ADD23C,3.300000*%
%ADD24RoundRect,0.250000X-1.000000X1.025000X-1.000000X-1.025000X1.000000X-1.025000X1.000000X1.025000X0*%
%ADD25RoundRect,0.250000X-1.025000X-1.000000X1.025000X-1.000000X1.025000X1.000000X-1.025000X1.000000X0*%
%ADD26RotRect,2.000000X2.000000X330.000000*%
%ADD27HorizOval,2.000000X0.000000X0.000000X0.000000X0.000000X0*%
%ADD28RoundRect,0.250000X-1.387676X-0.353525X0.387676X-1.378525X1.387676X0.353525X-0.387676X1.378525X0*%
%ADD29RotRect,2.000000X2.000000X150.000000*%
%ADD30HorizOval,2.000000X0.000000X0.000000X0.000000X0.000000X0*%
%ADD31RoundRect,0.250000X-1.248893X-0.700636X0.731255X-1.231215X1.248893X0.700636X-0.731255X1.231215X0*%
%ADD32RotRect,2.000000X2.000000X75.000000*%
%ADD33HorizOval,2.000000X0.000000X0.000000X0.000000X0.000000X0*%
%ADD34HorizOval,2.000000X0.000000X0.000000X0.000000X0.000000X0*%
%ADD35RotRect,2.000000X2.000000X60.000000*%
%ADD36C,2.000000*%
G04 APERTURE END LIST*
D10*
%TO.C,D_I_[6:1]1*%
X183960000Y-96000000D03*
D11*
X189040000Y-96000000D03*
%TD*%
D10*
%TO.C,D_I_[3:2]1*%
X198790000Y-86250000D03*
D11*
X193710000Y-86250000D03*
%TD*%
D10*
%TO.C,D_I_[2:1]1*%
X183960000Y-83000000D03*
D11*
X189040000Y-83000000D03*
%TD*%
D10*
%TO.C,D_I_[5:1]1*%
X183960000Y-92750000D03*
D11*
X189040000Y-92750000D03*
%TD*%
D10*
%TO.C,DI_[1:1]1*%
X183960000Y-79750000D03*
D11*
X189040000Y-79750000D03*
%TD*%
D12*
%TO.C,U1*%
X197120000Y-31337500D03*
X197120000Y-33877500D03*
D13*
X197120000Y-36417500D03*
X197120000Y-38957500D03*
D12*
X197120000Y-41497500D03*
X197120000Y-44037500D03*
X197120000Y-46577500D03*
X197120000Y-49117500D03*
X197120000Y-51657500D03*
X197120000Y-54197500D03*
X197120000Y-56737500D03*
X197120000Y-59277500D03*
X181880000Y-31337500D03*
D13*
X181880000Y-33877500D03*
D12*
X181880000Y-36417500D03*
X181880000Y-38957500D03*
X181880000Y-41497500D03*
X181880000Y-44037500D03*
X181880000Y-46577500D03*
X181880000Y-49117500D03*
X181880000Y-51657500D03*
X181880000Y-54197500D03*
X181880000Y-56737500D03*
X181880000Y-59277500D03*
%TD*%
D10*
%TO.C,D_I_[4:1]1*%
X183960000Y-89500000D03*
D11*
X189040000Y-89500000D03*
%TD*%
D14*
%TO.C,Display*%
X196750000Y-67250000D03*
D15*
X194750000Y-67250000D03*
X192750000Y-67250000D03*
X190750000Y-67250000D03*
X188750000Y-67250000D03*
X186750000Y-67250000D03*
X184750000Y-67250000D03*
%TD*%
D10*
%TO.C,D_I[1:2]1*%
X198790000Y-79750000D03*
D11*
X193710000Y-79750000D03*
%TD*%
D10*
%TO.C,D_I_[5:2]1*%
X198790000Y-92750000D03*
D11*
X193710000Y-92750000D03*
%TD*%
D10*
%TO.C,D_I_[4:2]1*%
X198790000Y-89500000D03*
D11*
X193710000Y-89500000D03*
%TD*%
D10*
%TO.C,D_I_[6:2]1*%
X198790000Y-96000000D03*
D11*
X193710000Y-96000000D03*
%TD*%
D10*
%TO.C,D_I_[2:2]1*%
X198790000Y-83000000D03*
D11*
X193710000Y-83000000D03*
%TD*%
D10*
%TO.C,D_I_[3:1]1*%
X183960000Y-86250000D03*
D11*
X189040000Y-86250000D03*
%TD*%
D16*
%TO.C,H1*%
X198250000Y-107500000D03*
%TD*%
%TO.C,H2*%
X42500000Y-30500000D03*
%TD*%
D17*
%TO.C,Battery1*%
X50200000Y-31500000D03*
D18*
X50200000Y-29500000D03*
%TD*%
D16*
%TO.C,H3*%
X152750000Y-145000000D03*
%TD*%
%TO.C,H6*%
X143250000Y-29750000D03*
%TD*%
D19*
%TO.C,ON/OFF1*%
X59500000Y-31500000D03*
D20*
X61500000Y-31500000D03*
%TD*%
D16*
%TO.C,H7*%
X203250000Y-30500000D03*
%TD*%
%TO.C,H5*%
X42000000Y-126500000D03*
%TD*%
D10*
%TO.C,D[3:2]1*%
X82500000Y-66790000D03*
D11*
X82500000Y-61710000D03*
%TD*%
D21*
%TO.C,SW_[7:2]1*%
X167150000Y-69590000D03*
D22*
X167150000Y-74670000D03*
D21*
X167150000Y-79750000D03*
D23*
X169690000Y-78480000D03*
D24*
X169690000Y-82030000D03*
X172230000Y-68580000D03*
D23*
X172230000Y-72130000D03*
%TD*%
D21*
%TO.C,SW_[1:4]1*%
X47840000Y-101000000D03*
D22*
X52920000Y-101000000D03*
D21*
X58000000Y-101000000D03*
D23*
X56730000Y-98460000D03*
D25*
X60280000Y-98460000D03*
X46830000Y-95920000D03*
D23*
X50380000Y-95920000D03*
%TD*%
D10*
%TO.C,D[4:2]1*%
X100750000Y-64790000D03*
D11*
X100750000Y-59710000D03*
%TD*%
D10*
%TO.C,D[5:1]1*%
X120250000Y-48040000D03*
D11*
X120250000Y-42960000D03*
%TD*%
%TO.C,D[1:5]1*%
X61250000Y-120460000D03*
D10*
X61250000Y-125540000D03*
%TD*%
%TO.C,D[6:2]1*%
X138500000Y-67040000D03*
D11*
X138500000Y-61960000D03*
%TD*%
D21*
%TO.C,SW_[6:1]1*%
X143070000Y-41300000D03*
D22*
X148150000Y-41300000D03*
D21*
X153230000Y-41300000D03*
D23*
X151960000Y-38760000D03*
D25*
X155510000Y-38760000D03*
X142060000Y-36220000D03*
D23*
X145610000Y-36220000D03*
%TD*%
D10*
%TO.C,D[5:2]1*%
X119750000Y-64790000D03*
D11*
X119750000Y-59710000D03*
%TD*%
D21*
%TO.C,SW_[2:4]1*%
X66784800Y-101000000D03*
D22*
X71864800Y-101000000D03*
D21*
X76944800Y-101000000D03*
D23*
X75674800Y-98460000D03*
D25*
X79224800Y-98460000D03*
X65774800Y-95920000D03*
D23*
X69324800Y-95920000D03*
%TD*%
D21*
%TO.C,SW_[2:5]1*%
X66840000Y-119930500D03*
D22*
X71920000Y-119930500D03*
D21*
X77000000Y-119930500D03*
D23*
X75730000Y-117390500D03*
D25*
X79280000Y-117390500D03*
X65830000Y-114850500D03*
D23*
X69380000Y-114850500D03*
%TD*%
%TO.C,SW_[1:3]1*%
X47960000Y-76670000D03*
D25*
X44410000Y-76670000D03*
X57860000Y-79210000D03*
D23*
X54310000Y-79210000D03*
D21*
X55580000Y-81750000D03*
D22*
X50500000Y-81750000D03*
D21*
X45420000Y-81750000D03*
%TD*%
D10*
%TO.C,D[6:1]1*%
X139000000Y-48540000D03*
D11*
X139000000Y-43460000D03*
%TD*%
D10*
%TO.C,D[4:5]1*%
X120750000Y-120790000D03*
D11*
X120750000Y-115710000D03*
%TD*%
D26*
%TO.C,D[7:3]1*%
X163300300Y-110980000D03*
D27*
X167699709Y-113520000D03*
%TD*%
D21*
%TO.C,SW_[6:3]1*%
X143070000Y-79430500D03*
D22*
X148150000Y-79430500D03*
D21*
X153230000Y-79430500D03*
D23*
X151960000Y-76890500D03*
D25*
X155510000Y-76890500D03*
X142060000Y-74350500D03*
D23*
X145610000Y-74350500D03*
%TD*%
D21*
%TO.C,SW_[6:5]1*%
X154400590Y-122710001D03*
D22*
X158800000Y-125250000D03*
D21*
X163199410Y-127789999D03*
D23*
X163369557Y-124955295D03*
D28*
X166443947Y-126730295D03*
X156065905Y-117805591D03*
D23*
X159140295Y-119580591D03*
%TD*%
D21*
%TO.C,SW_[2:2]1*%
X66784800Y-62750000D03*
D22*
X71864800Y-62750000D03*
D21*
X76944800Y-62750000D03*
D23*
X75674800Y-60210000D03*
D25*
X79224800Y-60210000D03*
X65774800Y-57670000D03*
D23*
X69324800Y-57670000D03*
%TD*%
D21*
%TO.C,SW_[4:3]1*%
X105000000Y-74630500D03*
D22*
X110080000Y-74630500D03*
D21*
X115160000Y-74630500D03*
D23*
X113890000Y-72090500D03*
D25*
X117440000Y-72090500D03*
X103990000Y-69550500D03*
D23*
X107540000Y-69550500D03*
%TD*%
D10*
%TO.C,D[1:1]1*%
X52790000Y-53250000D03*
D11*
X47710000Y-53250000D03*
%TD*%
D10*
%TO.C,D[4:1]1*%
X101000000Y-47290000D03*
D11*
X101000000Y-42210000D03*
%TD*%
D10*
%TO.C,D[2:4]1*%
X63250000Y-109040000D03*
D11*
X63250000Y-103960000D03*
%TD*%
D10*
%TO.C,D[1:4]1*%
X53790000Y-109250000D03*
D11*
X48710000Y-109250000D03*
%TD*%
D29*
%TO.C,D[6:5]1*%
X155500000Y-135500000D03*
D30*
X151100591Y-132960000D03*
%TD*%
D21*
%TO.C,SW_[6:4]1*%
X143070000Y-98450000D03*
D22*
X148150000Y-98450000D03*
D21*
X153230000Y-98450000D03*
D23*
X151960000Y-95910000D03*
D25*
X155510000Y-95910000D03*
X142060000Y-93370000D03*
D23*
X145610000Y-93370000D03*
%TD*%
%TO.C,SW_[5:5]1*%
X133954448Y-112670895D03*
D31*
X130525412Y-111752089D03*
X142859714Y-117686657D03*
D23*
X139430677Y-116767850D03*
D21*
X140000004Y-119550001D03*
D22*
X135093100Y-118235200D03*
D21*
X130186196Y-116920399D03*
%TD*%
D10*
%TO.C,D[6:4]1*%
X158500000Y-107040000D03*
D11*
X158500000Y-101960000D03*
%TD*%
D21*
%TO.C,SW_[7:3]1*%
X166351191Y-101970000D03*
D22*
X170750600Y-104510000D03*
D21*
X175150009Y-107050000D03*
D23*
X175320157Y-104215295D03*
D28*
X178394547Y-105990295D03*
X168016505Y-97065591D03*
D23*
X171090895Y-98840591D03*
%TD*%
D21*
%TO.C,SW_[3:1]1*%
X85920000Y-38950600D03*
D22*
X91000000Y-38950600D03*
D21*
X96080000Y-38950600D03*
D23*
X94810000Y-36410600D03*
D25*
X98360000Y-36410600D03*
X84910000Y-33870600D03*
D23*
X88460000Y-33870600D03*
%TD*%
D21*
%TO.C,SW_[6:2]1*%
X143070000Y-60350000D03*
D22*
X148150000Y-60350000D03*
D21*
X153230000Y-60350000D03*
D23*
X151960000Y-57810000D03*
D25*
X155510000Y-57810000D03*
X142060000Y-55270000D03*
D23*
X145610000Y-55270000D03*
%TD*%
D10*
%TO.C,D[5:4]1*%
X138750000Y-107040000D03*
D11*
X138750000Y-101960000D03*
%TD*%
D32*
%TO.C,D[5:5]1*%
X144342600Y-127953500D03*
D33*
X145657400Y-123046597D03*
%TD*%
D11*
%TO.C,D[1:2]1*%
X48210000Y-72250000D03*
D10*
X53290000Y-72250000D03*
%TD*%
%TO.C,D[2:3]1*%
X62500000Y-91290000D03*
D11*
X62500000Y-86210000D03*
%TD*%
D21*
%TO.C,SW_[5:3]1*%
X124020000Y-77050000D03*
D22*
X129100000Y-77050000D03*
D21*
X134180000Y-77050000D03*
D23*
X132910000Y-74510000D03*
D25*
X136460000Y-74510000D03*
X123010000Y-71970000D03*
D23*
X126560000Y-71970000D03*
%TD*%
D10*
%TO.C,D[2:2]1*%
X61250000Y-72040000D03*
D11*
X61250000Y-66960000D03*
%TD*%
D21*
%TO.C,SW_[7:5]1*%
X170850591Y-132210000D03*
D22*
X175250000Y-134750000D03*
D21*
X179649409Y-137290000D03*
D23*
X179819557Y-134455295D03*
D28*
X182893947Y-136230295D03*
X172515905Y-127305591D03*
D23*
X175590295Y-129080591D03*
%TD*%
D21*
%TO.C,SW_[3:4]1*%
X85920000Y-96000000D03*
D22*
X91000000Y-96000000D03*
D21*
X96080000Y-96000000D03*
D23*
X94810000Y-93460000D03*
D25*
X98360000Y-93460000D03*
X84910000Y-90920000D03*
D23*
X88460000Y-90920000D03*
%TD*%
D10*
%TO.C,D[3:5]1*%
X100500000Y-120790000D03*
D11*
X100500000Y-115710000D03*
%TD*%
%TO.C,D[1:3]1*%
X48710000Y-91000000D03*
D10*
X53790000Y-91000000D03*
%TD*%
%TO.C,D[4:4]1*%
X118500000Y-102040000D03*
D11*
X118500000Y-96960000D03*
%TD*%
D21*
%TO.C,SW_[5:1]1*%
X124020000Y-38950000D03*
D22*
X129100000Y-38950000D03*
D21*
X134180000Y-38950000D03*
D23*
X132910000Y-36410000D03*
D25*
X136460000Y-36410000D03*
X123010000Y-33870000D03*
D23*
X126560000Y-33870000D03*
%TD*%
D10*
%TO.C,D[7:1]1*%
X160960000Y-61250000D03*
D11*
X166040000Y-61250000D03*
%TD*%
D21*
%TO.C,SW_[4:5]1*%
X104984800Y-112750000D03*
D22*
X110064800Y-112750000D03*
D21*
X115144800Y-112750000D03*
D23*
X113874800Y-110210000D03*
D25*
X117424800Y-110210000D03*
X103974800Y-107670000D03*
D23*
X107524800Y-107670000D03*
%TD*%
D21*
%TO.C,SW_[1:5]1*%
X45500000Y-120000000D03*
D22*
X50580000Y-120000000D03*
D21*
X55660000Y-120000000D03*
D23*
X54390000Y-117460000D03*
D25*
X57940000Y-117460000D03*
X44490000Y-114920000D03*
D23*
X48040000Y-114920000D03*
%TD*%
D21*
%TO.C,SW_[4:4]1*%
X104984800Y-93750000D03*
D22*
X110064800Y-93750000D03*
D21*
X115144800Y-93750000D03*
D23*
X113874800Y-91210000D03*
D25*
X117424800Y-91210000D03*
X103974800Y-88670000D03*
D23*
X107524800Y-88670000D03*
%TD*%
D21*
%TO.C,SW_[2:1]1*%
X66800000Y-43600000D03*
D22*
X71880000Y-43600000D03*
D21*
X76960000Y-43600000D03*
D23*
X75690000Y-41060000D03*
D25*
X79240000Y-41060000D03*
X65790000Y-38520000D03*
D23*
X69340000Y-38520000D03*
%TD*%
D10*
%TO.C,D[7:2]1*%
X158500000Y-74290000D03*
D11*
X158500000Y-69210000D03*
%TD*%
D21*
%TO.C,SW_[5:4]1*%
X124020000Y-96100000D03*
D22*
X129100000Y-96100000D03*
D21*
X134180000Y-96100000D03*
D23*
X132910000Y-93560000D03*
D25*
X136460000Y-93560000D03*
X123010000Y-91020000D03*
D23*
X126560000Y-91020000D03*
%TD*%
D10*
%TO.C,D[2:5]1*%
X81750000Y-125790000D03*
D11*
X81750000Y-120710000D03*
%TD*%
D26*
%TO.C,D[7:5]1*%
X160800300Y-138480000D03*
D27*
X165199709Y-141020000D03*
%TD*%
D23*
%TO.C,SW_[2:3]1*%
X69324800Y-76670000D03*
D25*
X65774800Y-76670000D03*
X79224800Y-79210000D03*
D23*
X75674800Y-79210000D03*
D21*
X76944800Y-81750000D03*
D22*
X71864800Y-81750000D03*
D21*
X66784800Y-81750000D03*
%TD*%
%TO.C,SW_[4:2]1*%
X105020000Y-55500000D03*
D22*
X110100000Y-55500000D03*
D21*
X115180000Y-55500000D03*
D23*
X113910000Y-52960000D03*
D25*
X117460000Y-52960000D03*
X104010000Y-50420000D03*
D23*
X107560000Y-50420000D03*
%TD*%
D21*
%TO.C,SW_[4:1]1*%
X105020000Y-36350000D03*
D22*
X110100000Y-36350000D03*
D21*
X115180000Y-36350000D03*
D23*
X113910000Y-33810000D03*
D25*
X117460000Y-33810000D03*
X104010000Y-31270000D03*
D23*
X107560000Y-31270000D03*
%TD*%
D34*
%TO.C,D[7:4]1*%
X174270000Y-117800291D03*
D35*
X171730000Y-122199700D03*
%TD*%
D21*
%TO.C,SW_[3:5]1*%
X85920000Y-115000000D03*
D22*
X91000000Y-115000000D03*
D21*
X96080000Y-115000000D03*
D23*
X94810000Y-112460000D03*
D25*
X98360000Y-112460000D03*
X84910000Y-109920000D03*
D23*
X88460000Y-109920000D03*
%TD*%
D10*
%TO.C,D[3:3]1*%
X82250000Y-86540000D03*
D11*
X82250000Y-81460000D03*
%TD*%
D10*
%TO.C,D[3:4]1*%
X99750000Y-104290000D03*
D11*
X99750000Y-99210000D03*
%TD*%
D21*
%TO.C,SW_[7:4]1*%
X182900591Y-111510000D03*
D22*
X187300000Y-114050000D03*
D21*
X191699409Y-116590000D03*
D23*
X191869557Y-113755295D03*
D28*
X194943947Y-115530295D03*
X184565905Y-106605591D03*
D23*
X187640295Y-108380591D03*
%TD*%
D21*
%TO.C,SW_[1:1]1*%
X45420000Y-43750000D03*
D22*
X50500000Y-43750000D03*
D21*
X55580000Y-43750000D03*
D23*
X54310000Y-41210000D03*
D25*
X57860000Y-41210000D03*
X44410000Y-38670000D03*
D23*
X47960000Y-38670000D03*
%TD*%
D21*
%TO.C,SW_[5:2]1*%
X124020000Y-58000000D03*
D22*
X129100000Y-58000000D03*
D21*
X134180000Y-58000000D03*
D23*
X132910000Y-55460000D03*
D25*
X136460000Y-55460000D03*
X123010000Y-52920000D03*
D23*
X126560000Y-52920000D03*
%TD*%
D10*
%TO.C,D[6:3]1*%
X150540000Y-89000000D03*
D11*
X145460000Y-89000000D03*
%TD*%
D21*
%TO.C,SW_[3:2]1*%
X85920000Y-58000100D03*
D22*
X91000000Y-58000100D03*
D21*
X96080000Y-58000100D03*
D23*
X94810000Y-55460100D03*
D25*
X98360000Y-55460100D03*
X84910000Y-52920100D03*
D23*
X88460000Y-52920100D03*
%TD*%
D10*
%TO.C,D[5:3]1*%
X138750000Y-86290000D03*
D11*
X138750000Y-81210000D03*
%TD*%
D10*
%TO.C,D[4:3]1*%
X119750000Y-86790000D03*
D11*
X119750000Y-81710000D03*
%TD*%
D21*
%TO.C,SW_[1:2]1*%
X45420000Y-62750000D03*
D22*
X50500000Y-62750000D03*
D21*
X55580000Y-62750000D03*
D23*
X54310000Y-60210000D03*
D25*
X57860000Y-60210000D03*
X44410000Y-57670000D03*
D23*
X47960000Y-57670000D03*
%TD*%
D10*
%TO.C,D[2:1]1*%
X71040000Y-52750000D03*
D11*
X65960000Y-52750000D03*
%TD*%
D23*
%TO.C,SW_[3:3]1*%
X88460000Y-71920000D03*
D25*
X84910000Y-71920000D03*
X98360000Y-74460000D03*
D23*
X94810000Y-74460000D03*
D21*
X96080000Y-77000000D03*
D22*
X91000000Y-77000000D03*
D21*
X85920000Y-77000000D03*
%TD*%
%TO.C,SW_[7:1]1*%
X162120000Y-50850000D03*
D22*
X167200000Y-50850000D03*
D21*
X172280000Y-50850000D03*
D23*
X171010000Y-48310000D03*
D25*
X174560000Y-48310000D03*
X161110000Y-45770000D03*
D23*
X164660000Y-45770000D03*
%TD*%
D10*
%TO.C,D[3:1]1*%
X82000000Y-49540000D03*
D11*
X82000000Y-44460000D03*
%TD*%
D36*
%TO.C,SW1*%
X186250000Y-36000000D03*
X192750000Y-36000000D03*
X186250000Y-40500000D03*
X192750000Y-40500000D03*
%TD*%
M02*
