%TF.GenerationSoftware,KiCad,Pcbnew,8.0.2-1*%
%TF.CreationDate,2024-06-04T22:44:41+02:00*%
%TF.ProjectId,keyboard_right,6b657962-6f61-4726-945f-72696768742e,rev?*%
%TF.SameCoordinates,Original*%
%TF.FileFunction,Legend,Bot*%
%TF.FilePolarity,Positive*%
%FSLAX46Y46*%
G04 Gerber Fmt 4.6, Leading zero omitted, Abs format (unit mm)*
G04 Created by KiCad (PCBNEW 8.0.2-1) date 2024-06-04 22:44:41*
%MOMM*%
%LPD*%
G01*
G04 APERTURE LIST*
%ADD10C,0.150000*%
%ADD11C,0.120000*%
G04 APERTURE END LIST*
D10*
X200500588Y-61002319D02*
X200500588Y-61811842D01*
X200500588Y-61811842D02*
X200452969Y-61907080D01*
X200452969Y-61907080D02*
X200405350Y-61954700D01*
X200405350Y-61954700D02*
X200310112Y-62002319D01*
X200310112Y-62002319D02*
X200119636Y-62002319D01*
X200119636Y-62002319D02*
X200024398Y-61954700D01*
X200024398Y-61954700D02*
X199976779Y-61907080D01*
X199976779Y-61907080D02*
X199929160Y-61811842D01*
X199929160Y-61811842D02*
X199929160Y-61002319D01*
X198929160Y-62002319D02*
X199500588Y-62002319D01*
X199214874Y-62002319D02*
X199214874Y-61002319D01*
X199214874Y-61002319D02*
X199310112Y-61145176D01*
X199310112Y-61145176D02*
X199405350Y-61240414D01*
X199405350Y-61240414D02*
X199500588Y-61288033D01*
X192119047Y-29710652D02*
X191738095Y-29710652D01*
X191976190Y-29377319D02*
X191976190Y-30234461D01*
X191976190Y-30234461D02*
X191928571Y-30329700D01*
X191928571Y-30329700D02*
X191833333Y-30377319D01*
X191833333Y-30377319D02*
X191738095Y-30377319D01*
X191261904Y-30377319D02*
X191357142Y-30329700D01*
X191357142Y-30329700D02*
X191404761Y-30282080D01*
X191404761Y-30282080D02*
X191452380Y-30186842D01*
X191452380Y-30186842D02*
X191452380Y-29901128D01*
X191452380Y-29901128D02*
X191404761Y-29805890D01*
X191404761Y-29805890D02*
X191357142Y-29758271D01*
X191357142Y-29758271D02*
X191261904Y-29710652D01*
X191261904Y-29710652D02*
X191119047Y-29710652D01*
X191119047Y-29710652D02*
X191023809Y-29758271D01*
X191023809Y-29758271D02*
X190976190Y-29805890D01*
X190976190Y-29805890D02*
X190928571Y-29901128D01*
X190928571Y-29901128D02*
X190928571Y-30186842D01*
X190928571Y-30186842D02*
X190976190Y-30282080D01*
X190976190Y-30282080D02*
X191023809Y-30329700D01*
X191023809Y-30329700D02*
X191119047Y-30377319D01*
X191119047Y-30377319D02*
X191261904Y-30377319D01*
X190499999Y-29710652D02*
X190499999Y-30710652D01*
X190499999Y-29758271D02*
X190404761Y-29710652D01*
X190404761Y-29710652D02*
X190214285Y-29710652D01*
X190214285Y-29710652D02*
X190119047Y-29758271D01*
X190119047Y-29758271D02*
X190071428Y-29805890D01*
X190071428Y-29805890D02*
X190023809Y-29901128D01*
X190023809Y-29901128D02*
X190023809Y-30186842D01*
X190023809Y-30186842D02*
X190071428Y-30282080D01*
X190071428Y-30282080D02*
X190119047Y-30329700D01*
X190119047Y-30329700D02*
X190214285Y-30377319D01*
X190214285Y-30377319D02*
X190404761Y-30377319D01*
X190404761Y-30377319D02*
X190499999Y-30329700D01*
X189642856Y-30329700D02*
X189547618Y-30377319D01*
X189547618Y-30377319D02*
X189357142Y-30377319D01*
X189357142Y-30377319D02*
X189261904Y-30329700D01*
X189261904Y-30329700D02*
X189214285Y-30234461D01*
X189214285Y-30234461D02*
X189214285Y-30186842D01*
X189214285Y-30186842D02*
X189261904Y-30091604D01*
X189261904Y-30091604D02*
X189357142Y-30043985D01*
X189357142Y-30043985D02*
X189499999Y-30043985D01*
X189499999Y-30043985D02*
X189595237Y-29996366D01*
X189595237Y-29996366D02*
X189642856Y-29901128D01*
X189642856Y-29901128D02*
X189642856Y-29853509D01*
X189642856Y-29853509D02*
X189595237Y-29758271D01*
X189595237Y-29758271D02*
X189499999Y-29710652D01*
X189499999Y-29710652D02*
X189357142Y-29710652D01*
X189357142Y-29710652D02*
X189261904Y-29758271D01*
X188785713Y-30377319D02*
X188785713Y-29710652D01*
X188785713Y-29377319D02*
X188833332Y-29424938D01*
X188833332Y-29424938D02*
X188785713Y-29472557D01*
X188785713Y-29472557D02*
X188738094Y-29424938D01*
X188738094Y-29424938D02*
X188785713Y-29377319D01*
X188785713Y-29377319D02*
X188785713Y-29472557D01*
X187880952Y-30377319D02*
X187880952Y-29377319D01*
X187880952Y-30329700D02*
X187976190Y-30377319D01*
X187976190Y-30377319D02*
X188166666Y-30377319D01*
X188166666Y-30377319D02*
X188261904Y-30329700D01*
X188261904Y-30329700D02*
X188309523Y-30282080D01*
X188309523Y-30282080D02*
X188357142Y-30186842D01*
X188357142Y-30186842D02*
X188357142Y-29901128D01*
X188357142Y-29901128D02*
X188309523Y-29805890D01*
X188309523Y-29805890D02*
X188261904Y-29758271D01*
X188261904Y-29758271D02*
X188166666Y-29710652D01*
X188166666Y-29710652D02*
X187976190Y-29710652D01*
X187976190Y-29710652D02*
X187880952Y-29758271D01*
X187023809Y-30329700D02*
X187119047Y-30377319D01*
X187119047Y-30377319D02*
X187309523Y-30377319D01*
X187309523Y-30377319D02*
X187404761Y-30329700D01*
X187404761Y-30329700D02*
X187452380Y-30234461D01*
X187452380Y-30234461D02*
X187452380Y-29853509D01*
X187452380Y-29853509D02*
X187404761Y-29758271D01*
X187404761Y-29758271D02*
X187309523Y-29710652D01*
X187309523Y-29710652D02*
X187119047Y-29710652D01*
X187119047Y-29710652D02*
X187023809Y-29758271D01*
X187023809Y-29758271D02*
X186976190Y-29853509D01*
X186976190Y-29853509D02*
X186976190Y-29948747D01*
X186976190Y-29948747D02*
X187452380Y-30043985D01*
X190761904Y-27977319D02*
X190761904Y-28786842D01*
X190761904Y-28786842D02*
X190714285Y-28882080D01*
X190714285Y-28882080D02*
X190666666Y-28929700D01*
X190666666Y-28929700D02*
X190571428Y-28977319D01*
X190571428Y-28977319D02*
X190380952Y-28977319D01*
X190380952Y-28977319D02*
X190285714Y-28929700D01*
X190285714Y-28929700D02*
X190238095Y-28882080D01*
X190238095Y-28882080D02*
X190190476Y-28786842D01*
X190190476Y-28786842D02*
X190190476Y-27977319D01*
X189761904Y-28929700D02*
X189619047Y-28977319D01*
X189619047Y-28977319D02*
X189380952Y-28977319D01*
X189380952Y-28977319D02*
X189285714Y-28929700D01*
X189285714Y-28929700D02*
X189238095Y-28882080D01*
X189238095Y-28882080D02*
X189190476Y-28786842D01*
X189190476Y-28786842D02*
X189190476Y-28691604D01*
X189190476Y-28691604D02*
X189238095Y-28596366D01*
X189238095Y-28596366D02*
X189285714Y-28548747D01*
X189285714Y-28548747D02*
X189380952Y-28501128D01*
X189380952Y-28501128D02*
X189571428Y-28453509D01*
X189571428Y-28453509D02*
X189666666Y-28405890D01*
X189666666Y-28405890D02*
X189714285Y-28358271D01*
X189714285Y-28358271D02*
X189761904Y-28263033D01*
X189761904Y-28263033D02*
X189761904Y-28167795D01*
X189761904Y-28167795D02*
X189714285Y-28072557D01*
X189714285Y-28072557D02*
X189666666Y-28024938D01*
X189666666Y-28024938D02*
X189571428Y-27977319D01*
X189571428Y-27977319D02*
X189333333Y-27977319D01*
X189333333Y-27977319D02*
X189190476Y-28024938D01*
X188428571Y-28453509D02*
X188285714Y-28501128D01*
X188285714Y-28501128D02*
X188238095Y-28548747D01*
X188238095Y-28548747D02*
X188190476Y-28643985D01*
X188190476Y-28643985D02*
X188190476Y-28786842D01*
X188190476Y-28786842D02*
X188238095Y-28882080D01*
X188238095Y-28882080D02*
X188285714Y-28929700D01*
X188285714Y-28929700D02*
X188380952Y-28977319D01*
X188380952Y-28977319D02*
X188761904Y-28977319D01*
X188761904Y-28977319D02*
X188761904Y-27977319D01*
X188761904Y-27977319D02*
X188428571Y-27977319D01*
X188428571Y-27977319D02*
X188333333Y-28024938D01*
X188333333Y-28024938D02*
X188285714Y-28072557D01*
X188285714Y-28072557D02*
X188238095Y-28167795D01*
X188238095Y-28167795D02*
X188238095Y-28263033D01*
X188238095Y-28263033D02*
X188285714Y-28358271D01*
X188285714Y-28358271D02*
X188333333Y-28405890D01*
X188333333Y-28405890D02*
X188428571Y-28453509D01*
X188428571Y-28453509D02*
X188761904Y-28453509D01*
X194929285Y-31894819D02*
X195500713Y-31894819D01*
X195214999Y-31894819D02*
X195214999Y-30894819D01*
X195214999Y-30894819D02*
X195310237Y-31037676D01*
X195310237Y-31037676D02*
X195405475Y-31132914D01*
X195405475Y-31132914D02*
X195500713Y-31180533D01*
%TO.C,U1*%
X185950000Y-27527500D02*
X185950000Y-31107500D01*
X193050000Y-27527500D02*
X193050000Y-31107500D01*
X193050000Y-31107500D02*
X185950000Y-31107500D01*
X180610000Y-60547500D02*
X198390000Y-60547500D01*
X198390000Y-27527500D01*
X180610000Y-27527500D01*
X180610000Y-60547500D01*
D11*
%TO.C,Display*%
X183690000Y-66190000D02*
X183690000Y-68310000D01*
X183690000Y-66190000D02*
X195750000Y-66190000D01*
X183690000Y-68310000D02*
X195750000Y-68310000D01*
X195750000Y-66190000D02*
X195750000Y-68310000D01*
X197810000Y-67250000D02*
X197810000Y-68310000D01*
X197810000Y-68310000D02*
X196750000Y-68310000D01*
%TD*%
M02*
