%TF.GenerationSoftware,KiCad,Pcbnew,8.0.2-1*%
%TF.CreationDate,2024-06-04T22:44:42+02:00*%
%TF.ProjectId,keyboard_right,6b657962-6f61-4726-945f-72696768742e,rev?*%
%TF.SameCoordinates,Original*%
%TF.FileFunction,Other,ECO2*%
%FSLAX46Y46*%
G04 Gerber Fmt 4.6, Leading zero omitted, Abs format (unit mm)*
G04 Created by KiCad (PCBNEW 8.0.2-1) date 2024-06-04 22:44:42*
%MOMM*%
%LPD*%
G01*
G04 APERTURE LIST*
%ADD10C,0.050000*%
G04 APERTURE END LIST*
D10*
%TO.C,SW_[7:2]1*%
X160150000Y-68170000D02*
X160150000Y-81170000D01*
X173650000Y-67670000D02*
X160650000Y-67670000D01*
X160650000Y-81670000D02*
X173650000Y-81670000D01*
X174150000Y-81170000D02*
X174150000Y-68170000D01*
X160650000Y-81670000D02*
G75*
G02*
X160150000Y-81170000I0J500000D01*
G01*
X160151116Y-68172764D02*
G75*
G02*
X160651116Y-67672764I500001J-1D01*
G01*
X174150000Y-81170000D02*
G75*
G02*
X173650000Y-81670000I-500000J0D01*
G01*
X173650000Y-67670000D02*
G75*
G02*
X174150000Y-68170000I-1J-500001D01*
G01*
%TO.C,SW_[1:4]1*%
X59920000Y-107500000D02*
X59920000Y-94500000D01*
X46420000Y-108000000D02*
X59420000Y-108000000D01*
X59420000Y-94000000D02*
X46420000Y-94000000D01*
X45920000Y-94500000D02*
X45920000Y-107500000D01*
X59420000Y-94000000D02*
G75*
G02*
X59920000Y-94500000I0J-500000D01*
G01*
X59920000Y-107500000D02*
G75*
G02*
X59420000Y-108000000I-500000J0D01*
G01*
X45920000Y-94500000D02*
G75*
G02*
X46420000Y-94000000I500001J-1D01*
G01*
X46422764Y-107998884D02*
G75*
G02*
X45922764Y-107498884I1J500001D01*
G01*
%TO.C,SW_[6:1]1*%
X155150000Y-47800000D02*
X155150000Y-34800000D01*
X141650000Y-48300000D02*
X154650000Y-48300000D01*
X154650000Y-34300000D02*
X141650000Y-34300000D01*
X141150000Y-34800000D02*
X141150000Y-47800000D01*
X154650000Y-34300000D02*
G75*
G02*
X155150000Y-34800000I0J-500000D01*
G01*
X155150000Y-47800000D02*
G75*
G02*
X154650000Y-48300000I-500000J0D01*
G01*
X141150000Y-34800000D02*
G75*
G02*
X141650000Y-34300000I500001J-1D01*
G01*
X141652764Y-48298884D02*
G75*
G02*
X141152764Y-47798884I1J500001D01*
G01*
%TO.C,SW_[2:4]1*%
X78864800Y-107500000D02*
X78864800Y-94500000D01*
X65364800Y-108000000D02*
X78364800Y-108000000D01*
X78364800Y-94000000D02*
X65364800Y-94000000D01*
X64864800Y-94500000D02*
X64864800Y-107500000D01*
X78364800Y-94000000D02*
G75*
G02*
X78864800Y-94500000I0J-500000D01*
G01*
X78864800Y-107500000D02*
G75*
G02*
X78364800Y-108000000I-500000J0D01*
G01*
X64864800Y-94500000D02*
G75*
G02*
X65364800Y-94000000I500001J-1D01*
G01*
X65367564Y-107998884D02*
G75*
G02*
X64867564Y-107498884I1J500001D01*
G01*
%TO.C,SW_[2:5]1*%
X78920000Y-126430500D02*
X78920000Y-113430500D01*
X65420000Y-126930500D02*
X78420000Y-126930500D01*
X78420000Y-112930500D02*
X65420000Y-112930500D01*
X64920000Y-113430500D02*
X64920000Y-126430500D01*
X78420000Y-112930500D02*
G75*
G02*
X78920000Y-113430500I0J-500000D01*
G01*
X78920000Y-126430500D02*
G75*
G02*
X78420000Y-126930500I-500000J0D01*
G01*
X64920000Y-113430500D02*
G75*
G02*
X65420000Y-112930500I500001J-1D01*
G01*
X65422764Y-126929384D02*
G75*
G02*
X64922764Y-126429384I1J500001D01*
G01*
%TO.C,SW_[1:3]1*%
X44002764Y-88748884D02*
G75*
G02*
X43502764Y-88248884I1J500001D01*
G01*
X43500000Y-75250000D02*
G75*
G02*
X44000000Y-74750000I500001J-1D01*
G01*
X57500000Y-88250000D02*
G75*
G02*
X57000000Y-88750000I-500000J0D01*
G01*
X57000000Y-74750000D02*
G75*
G02*
X57500000Y-75250000I0J-500000D01*
G01*
X43500000Y-75250000D02*
X43500000Y-88250000D01*
X57000000Y-74750000D02*
X44000000Y-74750000D01*
X44000000Y-88750000D02*
X57000000Y-88750000D01*
X57500000Y-88250000D02*
X57500000Y-75250000D01*
%TO.C,SW_[6:3]1*%
X155150000Y-85930500D02*
X155150000Y-72930500D01*
X141650000Y-86430500D02*
X154650000Y-86430500D01*
X154650000Y-72430500D02*
X141650000Y-72430500D01*
X141150000Y-72930500D02*
X141150000Y-85930500D01*
X154650000Y-72430500D02*
G75*
G02*
X155150000Y-72930500I0J-500000D01*
G01*
X155150000Y-85930500D02*
G75*
G02*
X154650000Y-86430500I-500000J0D01*
G01*
X141150000Y-72930500D02*
G75*
G02*
X141650000Y-72430500I500001J-1D01*
G01*
X141652764Y-86429384D02*
G75*
G02*
X141152764Y-85929384I1J500001D01*
G01*
%TO.C,SW_[6:5]1*%
X149670835Y-128062177D02*
X160929165Y-134562178D01*
X161612177Y-134379165D02*
X168112178Y-123120835D01*
X155987823Y-116120835D02*
X149487822Y-127379165D01*
X167929165Y-122437823D02*
X156670835Y-115937822D01*
X161612177Y-134379165D02*
G75*
G02*
X160929165Y-134562177I-433012J250000D01*
G01*
X167929165Y-122437823D02*
G75*
G02*
X168112177Y-123120835I-250000J-433012D01*
G01*
X149673786Y-128062593D02*
G75*
G02*
X149490773Y-127379581I250002J433013D01*
G01*
X155987823Y-116120835D02*
G75*
G02*
X156670835Y-115937822I433012J-249998D01*
G01*
%TO.C,SW_[2:2]1*%
X78864800Y-69250000D02*
X78864800Y-56250000D01*
X65364800Y-69750000D02*
X78364800Y-69750000D01*
X78364800Y-55750000D02*
X65364800Y-55750000D01*
X64864800Y-56250000D02*
X64864800Y-69250000D01*
X78364800Y-55750000D02*
G75*
G02*
X78864800Y-56250000I0J-500000D01*
G01*
X78864800Y-69250000D02*
G75*
G02*
X78364800Y-69750000I-500000J0D01*
G01*
X64864800Y-56250000D02*
G75*
G02*
X65364800Y-55750000I500001J-1D01*
G01*
X65367564Y-69748884D02*
G75*
G02*
X64867564Y-69248884I1J500001D01*
G01*
%TO.C,SW_[4:3]1*%
X117080000Y-81130500D02*
X117080000Y-68130500D01*
X103580000Y-81630500D02*
X116580000Y-81630500D01*
X116580000Y-67630500D02*
X103580000Y-67630500D01*
X103080000Y-68130500D02*
X103080000Y-81130500D01*
X116580000Y-67630500D02*
G75*
G02*
X117080000Y-68130500I0J-500000D01*
G01*
X117080000Y-81130500D02*
G75*
G02*
X116580000Y-81630500I-500000J0D01*
G01*
X103080000Y-68130500D02*
G75*
G02*
X103580000Y-67630500I500001J-1D01*
G01*
X103582764Y-81629384D02*
G75*
G02*
X103082764Y-81129384I1J500001D01*
G01*
%TO.C,SW_[6:4]1*%
X155150000Y-104950000D02*
X155150000Y-91950000D01*
X141650000Y-105450000D02*
X154650000Y-105450000D01*
X154650000Y-91450000D02*
X141650000Y-91450000D01*
X141150000Y-91950000D02*
X141150000Y-104950000D01*
X154650000Y-91450000D02*
G75*
G02*
X155150000Y-91950000I0J-500000D01*
G01*
X155150000Y-104950000D02*
G75*
G02*
X154650000Y-105450000I-500000J0D01*
G01*
X141150000Y-91950000D02*
G75*
G02*
X141650000Y-91450000I500001J-1D01*
G01*
X141652764Y-105448884D02*
G75*
G02*
X141152764Y-104948884I1J500001D01*
G01*
%TO.C,SW_[5:5]1*%
X130013943Y-110144947D02*
G75*
G02*
X130626317Y-109791396I482963J-129413D01*
G01*
X127005808Y-123313994D02*
G75*
G02*
X126652254Y-122701622I129406J482961D01*
G01*
X143183353Y-113156043D02*
G75*
G02*
X143536905Y-113768418I-129411J-482963D01*
G01*
X140172257Y-126325453D02*
G75*
G02*
X139559882Y-126679005I-482963J129411D01*
G01*
X143183353Y-113156043D02*
X130626317Y-109791397D01*
X130013943Y-110144947D02*
X126649297Y-122701983D01*
X140172257Y-126325453D02*
X143536903Y-113768417D01*
X127002847Y-123314357D02*
X139559883Y-126679003D01*
%TO.C,SW_[7:3]1*%
X161621435Y-107322178D02*
X172879765Y-113822178D01*
X173562778Y-113639165D02*
X180062778Y-102380835D01*
X167938422Y-95380835D02*
X161438422Y-106639165D01*
X179879765Y-101697822D02*
X168621435Y-95197822D01*
X173562778Y-113639165D02*
G75*
G02*
X172879765Y-113822178I-433013J250000D01*
G01*
X179879765Y-101697822D02*
G75*
G02*
X180062778Y-102380835I-250000J-433013D01*
G01*
X161624387Y-107322592D02*
G75*
G02*
X161441374Y-106639581I250000J433012D01*
G01*
X167938422Y-95380835D02*
G75*
G02*
X168621435Y-95197822I433013J-250000D01*
G01*
%TO.C,SW_[3:1]1*%
X98000000Y-45450600D02*
X98000000Y-32450600D01*
X84500000Y-45950600D02*
X97500000Y-45950600D01*
X97500000Y-31950600D02*
X84500000Y-31950600D01*
X84000000Y-32450600D02*
X84000000Y-45450600D01*
X97500000Y-31950600D02*
G75*
G02*
X98000000Y-32450600I0J-500000D01*
G01*
X98000000Y-45450600D02*
G75*
G02*
X97500000Y-45950600I-500000J0D01*
G01*
X84000000Y-32450600D02*
G75*
G02*
X84500000Y-31950600I500001J-1D01*
G01*
X84502764Y-45949484D02*
G75*
G02*
X84002764Y-45449484I1J500001D01*
G01*
%TO.C,SW_[6:2]1*%
X155150000Y-66850000D02*
X155150000Y-53850000D01*
X141650000Y-67350000D02*
X154650000Y-67350000D01*
X154650000Y-53350000D02*
X141650000Y-53350000D01*
X141150000Y-53850000D02*
X141150000Y-66850000D01*
X154650000Y-53350000D02*
G75*
G02*
X155150000Y-53850000I0J-500000D01*
G01*
X155150000Y-66850000D02*
G75*
G02*
X154650000Y-67350000I-500000J0D01*
G01*
X141150000Y-53850000D02*
G75*
G02*
X141650000Y-53350000I500001J-1D01*
G01*
X141652764Y-67348884D02*
G75*
G02*
X141152764Y-66848884I1J500001D01*
G01*
%TO.C,SW_[5:3]1*%
X136100000Y-83550000D02*
X136100000Y-70550000D01*
X122600000Y-84050000D02*
X135600000Y-84050000D01*
X135600000Y-70050000D02*
X122600000Y-70050000D01*
X122100000Y-70550000D02*
X122100000Y-83550000D01*
X135600000Y-70050000D02*
G75*
G02*
X136100000Y-70550000I0J-500000D01*
G01*
X136100000Y-83550000D02*
G75*
G02*
X135600000Y-84050000I-500000J0D01*
G01*
X122100000Y-70550000D02*
G75*
G02*
X122600000Y-70050000I500001J-1D01*
G01*
X122602764Y-84048884D02*
G75*
G02*
X122102764Y-83548884I1J500001D01*
G01*
%TO.C,SW_[7:5]1*%
X166120835Y-137562178D02*
X177379165Y-144062178D01*
X178062178Y-143879165D02*
X184562178Y-132620835D01*
X172437822Y-125620835D02*
X165937822Y-136879165D01*
X184379165Y-131937822D02*
X173120835Y-125437822D01*
X178062178Y-143879165D02*
G75*
G02*
X177379165Y-144062178I-433013J250000D01*
G01*
X184379165Y-131937822D02*
G75*
G02*
X184562178Y-132620835I-250000J-433013D01*
G01*
X166123787Y-137562592D02*
G75*
G02*
X165940774Y-136879581I250000J433012D01*
G01*
X172437822Y-125620835D02*
G75*
G02*
X173120835Y-125437822I433013J-250000D01*
G01*
%TO.C,SW_[3:4]1*%
X98000000Y-102500000D02*
X98000000Y-89500000D01*
X84500000Y-103000000D02*
X97500000Y-103000000D01*
X97500000Y-89000000D02*
X84500000Y-89000000D01*
X84000000Y-89500000D02*
X84000000Y-102500000D01*
X97500000Y-89000000D02*
G75*
G02*
X98000000Y-89500000I0J-500000D01*
G01*
X98000000Y-102500000D02*
G75*
G02*
X97500000Y-103000000I-500000J0D01*
G01*
X84000000Y-89500000D02*
G75*
G02*
X84500000Y-89000000I500001J-1D01*
G01*
X84502764Y-102998884D02*
G75*
G02*
X84002764Y-102498884I1J500001D01*
G01*
%TO.C,SW_[5:1]1*%
X136100000Y-45450000D02*
X136100000Y-32450000D01*
X122600000Y-45950000D02*
X135600000Y-45950000D01*
X135600000Y-31950000D02*
X122600000Y-31950000D01*
X122100000Y-32450000D02*
X122100000Y-45450000D01*
X135600000Y-31950000D02*
G75*
G02*
X136100000Y-32450000I0J-500000D01*
G01*
X136100000Y-45450000D02*
G75*
G02*
X135600000Y-45950000I-500000J0D01*
G01*
X122100000Y-32450000D02*
G75*
G02*
X122600000Y-31950000I500001J-1D01*
G01*
X122602764Y-45948884D02*
G75*
G02*
X122102764Y-45448884I1J500001D01*
G01*
%TO.C,SW_[4:5]1*%
X117064800Y-119250000D02*
X117064800Y-106250000D01*
X103564800Y-119750000D02*
X116564800Y-119750000D01*
X116564800Y-105750000D02*
X103564800Y-105750000D01*
X103064800Y-106250000D02*
X103064800Y-119250000D01*
X116564800Y-105750000D02*
G75*
G02*
X117064800Y-106250000I0J-500000D01*
G01*
X117064800Y-119250000D02*
G75*
G02*
X116564800Y-119750000I-500000J0D01*
G01*
X103064800Y-106250000D02*
G75*
G02*
X103564800Y-105750000I500001J-1D01*
G01*
X103567564Y-119748884D02*
G75*
G02*
X103067564Y-119248884I1J500001D01*
G01*
%TO.C,SW_[1:5]1*%
X57580000Y-126500000D02*
X57580000Y-113500000D01*
X44080000Y-127000000D02*
X57080000Y-127000000D01*
X57080000Y-113000000D02*
X44080000Y-113000000D01*
X43580000Y-113500000D02*
X43580000Y-126500000D01*
X57080000Y-113000000D02*
G75*
G02*
X57580000Y-113500000I0J-500000D01*
G01*
X57580000Y-126500000D02*
G75*
G02*
X57080000Y-127000000I-500000J0D01*
G01*
X43580000Y-113500000D02*
G75*
G02*
X44080000Y-113000000I500001J-1D01*
G01*
X44082764Y-126998884D02*
G75*
G02*
X43582764Y-126498884I1J500001D01*
G01*
%TO.C,SW_[4:4]1*%
X117064800Y-100250000D02*
X117064800Y-87250000D01*
X103564800Y-100750000D02*
X116564800Y-100750000D01*
X116564800Y-86750000D02*
X103564800Y-86750000D01*
X103064800Y-87250000D02*
X103064800Y-100250000D01*
X116564800Y-86750000D02*
G75*
G02*
X117064800Y-87250000I0J-500000D01*
G01*
X117064800Y-100250000D02*
G75*
G02*
X116564800Y-100750000I-500000J0D01*
G01*
X103064800Y-87250000D02*
G75*
G02*
X103564800Y-86750000I500001J-1D01*
G01*
X103567564Y-100748884D02*
G75*
G02*
X103067564Y-100248884I1J500001D01*
G01*
%TO.C,SW_[2:1]1*%
X78880000Y-50100000D02*
X78880000Y-37100000D01*
X65380000Y-50600000D02*
X78380000Y-50600000D01*
X78380000Y-36600000D02*
X65380000Y-36600000D01*
X64880000Y-37100000D02*
X64880000Y-50100000D01*
X78380000Y-36600000D02*
G75*
G02*
X78880000Y-37100000I0J-500000D01*
G01*
X78880000Y-50100000D02*
G75*
G02*
X78380000Y-50600000I-500000J0D01*
G01*
X64880000Y-37100000D02*
G75*
G02*
X65380000Y-36600000I500001J-1D01*
G01*
X65382764Y-50598884D02*
G75*
G02*
X64882764Y-50098884I1J500001D01*
G01*
%TO.C,SW_[5:4]1*%
X136100000Y-102600000D02*
X136100000Y-89600000D01*
X122600000Y-103100000D02*
X135600000Y-103100000D01*
X135600000Y-89100000D02*
X122600000Y-89100000D01*
X122100000Y-89600000D02*
X122100000Y-102600000D01*
X135600000Y-89100000D02*
G75*
G02*
X136100000Y-89600000I0J-500000D01*
G01*
X136100000Y-102600000D02*
G75*
G02*
X135600000Y-103100000I-500000J0D01*
G01*
X122100000Y-89600000D02*
G75*
G02*
X122600000Y-89100000I500001J-1D01*
G01*
X122602764Y-103098884D02*
G75*
G02*
X122102764Y-102598884I1J500001D01*
G01*
%TO.C,SW_[2:3]1*%
X65367564Y-88748884D02*
G75*
G02*
X64867564Y-88248884I1J500001D01*
G01*
X64864800Y-75250000D02*
G75*
G02*
X65364800Y-74750000I500001J-1D01*
G01*
X78864800Y-88250000D02*
G75*
G02*
X78364800Y-88750000I-500000J0D01*
G01*
X78364800Y-74750000D02*
G75*
G02*
X78864800Y-75250000I0J-500000D01*
G01*
X64864800Y-75250000D02*
X64864800Y-88250000D01*
X78364800Y-74750000D02*
X65364800Y-74750000D01*
X65364800Y-88750000D02*
X78364800Y-88750000D01*
X78864800Y-88250000D02*
X78864800Y-75250000D01*
%TO.C,SW_[4:2]1*%
X117100000Y-62000000D02*
X117100000Y-49000000D01*
X103600000Y-62500000D02*
X116600000Y-62500000D01*
X116600000Y-48500000D02*
X103600000Y-48500000D01*
X103100000Y-49000000D02*
X103100000Y-62000000D01*
X116600000Y-48500000D02*
G75*
G02*
X117100000Y-49000000I0J-500000D01*
G01*
X117100000Y-62000000D02*
G75*
G02*
X116600000Y-62500000I-500000J0D01*
G01*
X103100000Y-49000000D02*
G75*
G02*
X103600000Y-48500000I500001J-1D01*
G01*
X103602764Y-62498884D02*
G75*
G02*
X103102764Y-61998884I1J500001D01*
G01*
%TO.C,SW_[4:1]1*%
X117100000Y-42850000D02*
X117100000Y-29850000D01*
X103600000Y-43350000D02*
X116600000Y-43350000D01*
X116600000Y-29350000D02*
X103600000Y-29350000D01*
X103100000Y-29850000D02*
X103100000Y-42850000D01*
X116600000Y-29350000D02*
G75*
G02*
X117100000Y-29850000I0J-500000D01*
G01*
X117100000Y-42850000D02*
G75*
G02*
X116600000Y-43350000I-500000J0D01*
G01*
X103100000Y-29850000D02*
G75*
G02*
X103600000Y-29350000I500001J-1D01*
G01*
X103602764Y-43348884D02*
G75*
G02*
X103102764Y-42848884I1J500001D01*
G01*
%TO.C,SW_[3:5]1*%
X98000000Y-121500000D02*
X98000000Y-108500000D01*
X84500000Y-122000000D02*
X97500000Y-122000000D01*
X97500000Y-108000000D02*
X84500000Y-108000000D01*
X84000000Y-108500000D02*
X84000000Y-121500000D01*
X97500000Y-108000000D02*
G75*
G02*
X98000000Y-108500000I0J-500000D01*
G01*
X98000000Y-121500000D02*
G75*
G02*
X97500000Y-122000000I-500000J0D01*
G01*
X84000000Y-108500000D02*
G75*
G02*
X84500000Y-108000000I500001J-1D01*
G01*
X84502764Y-121998884D02*
G75*
G02*
X84002764Y-121498884I1J500001D01*
G01*
%TO.C,SW_[7:4]1*%
X178170835Y-116862178D02*
X189429165Y-123362178D01*
X190112178Y-123179165D02*
X196612178Y-111920835D01*
X184487822Y-104920835D02*
X177987822Y-116179165D01*
X196429165Y-111237822D02*
X185170835Y-104737822D01*
X190112178Y-123179165D02*
G75*
G02*
X189429165Y-123362178I-433013J250000D01*
G01*
X196429165Y-111237822D02*
G75*
G02*
X196612178Y-111920835I-250000J-433013D01*
G01*
X178173787Y-116862592D02*
G75*
G02*
X177990774Y-116179581I250000J433012D01*
G01*
X184487822Y-104920835D02*
G75*
G02*
X185170835Y-104737822I433013J-250000D01*
G01*
%TO.C,SW_[1:1]1*%
X57500000Y-50250000D02*
X57500000Y-37250000D01*
X44000000Y-50750000D02*
X57000000Y-50750000D01*
X57000000Y-36750000D02*
X44000000Y-36750000D01*
X43500000Y-37250000D02*
X43500000Y-50250000D01*
X57000000Y-36750000D02*
G75*
G02*
X57500000Y-37250000I0J-500000D01*
G01*
X57500000Y-50250000D02*
G75*
G02*
X57000000Y-50750000I-500000J0D01*
G01*
X43500000Y-37250000D02*
G75*
G02*
X44000000Y-36750000I500001J-1D01*
G01*
X44002764Y-50748884D02*
G75*
G02*
X43502764Y-50248884I1J500001D01*
G01*
%TO.C,SW_[5:2]1*%
X136100000Y-64500000D02*
X136100000Y-51500000D01*
X122600000Y-65000000D02*
X135600000Y-65000000D01*
X135600000Y-51000000D02*
X122600000Y-51000000D01*
X122100000Y-51500000D02*
X122100000Y-64500000D01*
X135600000Y-51000000D02*
G75*
G02*
X136100000Y-51500000I0J-500000D01*
G01*
X136100000Y-64500000D02*
G75*
G02*
X135600000Y-65000000I-500000J0D01*
G01*
X122100000Y-51500000D02*
G75*
G02*
X122600000Y-51000000I500001J-1D01*
G01*
X122602764Y-64998884D02*
G75*
G02*
X122102764Y-64498884I1J500001D01*
G01*
%TO.C,SW_[3:2]1*%
X98000000Y-64500100D02*
X98000000Y-51500100D01*
X84500000Y-65000100D02*
X97500000Y-65000100D01*
X97500000Y-51000100D02*
X84500000Y-51000100D01*
X84000000Y-51500100D02*
X84000000Y-64500100D01*
X97500000Y-51000100D02*
G75*
G02*
X98000000Y-51500100I0J-500000D01*
G01*
X98000000Y-64500100D02*
G75*
G02*
X97500000Y-65000100I-500000J0D01*
G01*
X84000000Y-51500100D02*
G75*
G02*
X84500000Y-51000100I500001J-1D01*
G01*
X84502764Y-64998984D02*
G75*
G02*
X84002764Y-64498984I1J500001D01*
G01*
%TO.C,SW_[1:2]1*%
X57500000Y-69250000D02*
X57500000Y-56250000D01*
X44000000Y-69750000D02*
X57000000Y-69750000D01*
X57000000Y-55750000D02*
X44000000Y-55750000D01*
X43500000Y-56250000D02*
X43500000Y-69250000D01*
X57000000Y-55750000D02*
G75*
G02*
X57500000Y-56250000I0J-500000D01*
G01*
X57500000Y-69250000D02*
G75*
G02*
X57000000Y-69750000I-500000J0D01*
G01*
X43500000Y-56250000D02*
G75*
G02*
X44000000Y-55750000I500001J-1D01*
G01*
X44002764Y-69748884D02*
G75*
G02*
X43502764Y-69248884I1J500001D01*
G01*
%TO.C,SW_[3:3]1*%
X84502764Y-83998884D02*
G75*
G02*
X84002764Y-83498884I1J500001D01*
G01*
X84000000Y-70500000D02*
G75*
G02*
X84500000Y-70000000I500001J-1D01*
G01*
X98000000Y-83500000D02*
G75*
G02*
X97500000Y-84000000I-500000J0D01*
G01*
X97500000Y-70000000D02*
G75*
G02*
X98000000Y-70500000I0J-500000D01*
G01*
X84000000Y-70500000D02*
X84000000Y-83500000D01*
X97500000Y-70000000D02*
X84500000Y-70000000D01*
X84500000Y-84000000D02*
X97500000Y-84000000D01*
X98000000Y-83500000D02*
X98000000Y-70500000D01*
%TO.C,SW_[7:1]1*%
X174200000Y-57350000D02*
X174200000Y-44350000D01*
X160700000Y-57850000D02*
X173700000Y-57850000D01*
X173700000Y-43850000D02*
X160700000Y-43850000D01*
X160200000Y-44350000D02*
X160200000Y-57350000D01*
X173700000Y-43850000D02*
G75*
G02*
X174200000Y-44350000I0J-500000D01*
G01*
X174200000Y-57350000D02*
G75*
G02*
X173700000Y-57850000I-500000J0D01*
G01*
X160200000Y-44350000D02*
G75*
G02*
X160700000Y-43850000I500001J-1D01*
G01*
X160702764Y-57848884D02*
G75*
G02*
X160202764Y-57348884I1J500001D01*
G01*
%TD*%
M02*
