%TF.GenerationSoftware,KiCad,Pcbnew,8.0.2-1*%
%TF.CreationDate,2024-06-04T22:44:42+02:00*%
%TF.ProjectId,keyboard_right,6b657962-6f61-4726-945f-72696768742e,rev?*%
%TF.SameCoordinates,Original*%
%TF.FileFunction,AssemblyDrawing,Bot*%
%FSLAX46Y46*%
G04 Gerber Fmt 4.6, Leading zero omitted, Abs format (unit mm)*
G04 Created by KiCad (PCBNEW 8.0.2-1) date 2024-06-04 22:44:42*
%MOMM*%
%LPD*%
G01*
G04 APERTURE LIST*
%ADD10C,0.150000*%
%ADD11C,0.100000*%
G04 APERTURE END LIST*
D10*
X194428571Y-46397319D02*
X194428571Y-45397319D01*
X194428571Y-45397319D02*
X193857143Y-46397319D01*
X193857143Y-46397319D02*
X193857143Y-45397319D01*
X193380952Y-46397319D02*
X193380952Y-45730652D01*
X193380952Y-45397319D02*
X193428571Y-45444938D01*
X193428571Y-45444938D02*
X193380952Y-45492557D01*
X193380952Y-45492557D02*
X193333333Y-45444938D01*
X193333333Y-45444938D02*
X193380952Y-45397319D01*
X193380952Y-45397319D02*
X193380952Y-45492557D01*
X192476191Y-46349700D02*
X192571429Y-46397319D01*
X192571429Y-46397319D02*
X192761905Y-46397319D01*
X192761905Y-46397319D02*
X192857143Y-46349700D01*
X192857143Y-46349700D02*
X192904762Y-46302080D01*
X192904762Y-46302080D02*
X192952381Y-46206842D01*
X192952381Y-46206842D02*
X192952381Y-45921128D01*
X192952381Y-45921128D02*
X192904762Y-45825890D01*
X192904762Y-45825890D02*
X192857143Y-45778271D01*
X192857143Y-45778271D02*
X192761905Y-45730652D01*
X192761905Y-45730652D02*
X192571429Y-45730652D01*
X192571429Y-45730652D02*
X192476191Y-45778271D01*
X191666667Y-46349700D02*
X191761905Y-46397319D01*
X191761905Y-46397319D02*
X191952381Y-46397319D01*
X191952381Y-46397319D02*
X192047619Y-46349700D01*
X192047619Y-46349700D02*
X192095238Y-46254461D01*
X192095238Y-46254461D02*
X192095238Y-45873509D01*
X192095238Y-45873509D02*
X192047619Y-45778271D01*
X192047619Y-45778271D02*
X191952381Y-45730652D01*
X191952381Y-45730652D02*
X191761905Y-45730652D01*
X191761905Y-45730652D02*
X191666667Y-45778271D01*
X191666667Y-45778271D02*
X191619048Y-45873509D01*
X191619048Y-45873509D02*
X191619048Y-45968747D01*
X191619048Y-45968747D02*
X192095238Y-46063985D01*
X191428572Y-46492557D02*
X190666667Y-46492557D01*
X190428571Y-46397319D02*
X190428571Y-45397319D01*
X190428571Y-45397319D02*
X189857143Y-46397319D01*
X189857143Y-46397319D02*
X189857143Y-45397319D01*
X188952381Y-46397319D02*
X188952381Y-45873509D01*
X188952381Y-45873509D02*
X189000000Y-45778271D01*
X189000000Y-45778271D02*
X189095238Y-45730652D01*
X189095238Y-45730652D02*
X189285714Y-45730652D01*
X189285714Y-45730652D02*
X189380952Y-45778271D01*
X188952381Y-46349700D02*
X189047619Y-46397319D01*
X189047619Y-46397319D02*
X189285714Y-46397319D01*
X189285714Y-46397319D02*
X189380952Y-46349700D01*
X189380952Y-46349700D02*
X189428571Y-46254461D01*
X189428571Y-46254461D02*
X189428571Y-46159223D01*
X189428571Y-46159223D02*
X189380952Y-46063985D01*
X189380952Y-46063985D02*
X189285714Y-46016366D01*
X189285714Y-46016366D02*
X189047619Y-46016366D01*
X189047619Y-46016366D02*
X188952381Y-45968747D01*
X188476190Y-45730652D02*
X188476190Y-46397319D01*
X188476190Y-45825890D02*
X188428571Y-45778271D01*
X188428571Y-45778271D02*
X188333333Y-45730652D01*
X188333333Y-45730652D02*
X188190476Y-45730652D01*
X188190476Y-45730652D02*
X188095238Y-45778271D01*
X188095238Y-45778271D02*
X188047619Y-45873509D01*
X188047619Y-45873509D02*
X188047619Y-46397319D01*
X187428571Y-46397319D02*
X187523809Y-46349700D01*
X187523809Y-46349700D02*
X187571428Y-46302080D01*
X187571428Y-46302080D02*
X187619047Y-46206842D01*
X187619047Y-46206842D02*
X187619047Y-45921128D01*
X187619047Y-45921128D02*
X187571428Y-45825890D01*
X187571428Y-45825890D02*
X187523809Y-45778271D01*
X187523809Y-45778271D02*
X187428571Y-45730652D01*
X187428571Y-45730652D02*
X187285714Y-45730652D01*
X187285714Y-45730652D02*
X187190476Y-45778271D01*
X187190476Y-45778271D02*
X187142857Y-45825890D01*
X187142857Y-45825890D02*
X187095238Y-45921128D01*
X187095238Y-45921128D02*
X187095238Y-46206842D01*
X187095238Y-46206842D02*
X187142857Y-46302080D01*
X187142857Y-46302080D02*
X187190476Y-46349700D01*
X187190476Y-46349700D02*
X187285714Y-46397319D01*
X187285714Y-46397319D02*
X187428571Y-46397319D01*
X186904762Y-46492557D02*
X186142857Y-46492557D01*
X186047618Y-45397319D02*
X185714285Y-46397319D01*
X185714285Y-46397319D02*
X185380952Y-45397319D01*
X185095237Y-45492557D02*
X185047618Y-45444938D01*
X185047618Y-45444938D02*
X184952380Y-45397319D01*
X184952380Y-45397319D02*
X184714285Y-45397319D01*
X184714285Y-45397319D02*
X184619047Y-45444938D01*
X184619047Y-45444938D02*
X184571428Y-45492557D01*
X184571428Y-45492557D02*
X184523809Y-45587795D01*
X184523809Y-45587795D02*
X184523809Y-45683033D01*
X184523809Y-45683033D02*
X184571428Y-45825890D01*
X184571428Y-45825890D02*
X185142856Y-46397319D01*
X185142856Y-46397319D02*
X184523809Y-46397319D01*
X193202380Y-67704819D02*
X193202380Y-66704819D01*
X193202380Y-66704819D02*
X192964285Y-66704819D01*
X192964285Y-66704819D02*
X192821428Y-66752438D01*
X192821428Y-66752438D02*
X192726190Y-66847676D01*
X192726190Y-66847676D02*
X192678571Y-66942914D01*
X192678571Y-66942914D02*
X192630952Y-67133390D01*
X192630952Y-67133390D02*
X192630952Y-67276247D01*
X192630952Y-67276247D02*
X192678571Y-67466723D01*
X192678571Y-67466723D02*
X192726190Y-67561961D01*
X192726190Y-67561961D02*
X192821428Y-67657200D01*
X192821428Y-67657200D02*
X192964285Y-67704819D01*
X192964285Y-67704819D02*
X193202380Y-67704819D01*
X192202380Y-67704819D02*
X192202380Y-67038152D01*
X192202380Y-66704819D02*
X192249999Y-66752438D01*
X192249999Y-66752438D02*
X192202380Y-66800057D01*
X192202380Y-66800057D02*
X192154761Y-66752438D01*
X192154761Y-66752438D02*
X192202380Y-66704819D01*
X192202380Y-66704819D02*
X192202380Y-66800057D01*
X191773809Y-67657200D02*
X191678571Y-67704819D01*
X191678571Y-67704819D02*
X191488095Y-67704819D01*
X191488095Y-67704819D02*
X191392857Y-67657200D01*
X191392857Y-67657200D02*
X191345238Y-67561961D01*
X191345238Y-67561961D02*
X191345238Y-67514342D01*
X191345238Y-67514342D02*
X191392857Y-67419104D01*
X191392857Y-67419104D02*
X191488095Y-67371485D01*
X191488095Y-67371485D02*
X191630952Y-67371485D01*
X191630952Y-67371485D02*
X191726190Y-67323866D01*
X191726190Y-67323866D02*
X191773809Y-67228628D01*
X191773809Y-67228628D02*
X191773809Y-67181009D01*
X191773809Y-67181009D02*
X191726190Y-67085771D01*
X191726190Y-67085771D02*
X191630952Y-67038152D01*
X191630952Y-67038152D02*
X191488095Y-67038152D01*
X191488095Y-67038152D02*
X191392857Y-67085771D01*
X190916666Y-67038152D02*
X190916666Y-68038152D01*
X190916666Y-67085771D02*
X190821428Y-67038152D01*
X190821428Y-67038152D02*
X190630952Y-67038152D01*
X190630952Y-67038152D02*
X190535714Y-67085771D01*
X190535714Y-67085771D02*
X190488095Y-67133390D01*
X190488095Y-67133390D02*
X190440476Y-67228628D01*
X190440476Y-67228628D02*
X190440476Y-67514342D01*
X190440476Y-67514342D02*
X190488095Y-67609580D01*
X190488095Y-67609580D02*
X190535714Y-67657200D01*
X190535714Y-67657200D02*
X190630952Y-67704819D01*
X190630952Y-67704819D02*
X190821428Y-67704819D01*
X190821428Y-67704819D02*
X190916666Y-67657200D01*
X189869047Y-67704819D02*
X189964285Y-67657200D01*
X189964285Y-67657200D02*
X190011904Y-67561961D01*
X190011904Y-67561961D02*
X190011904Y-66704819D01*
X189059523Y-67704819D02*
X189059523Y-67181009D01*
X189059523Y-67181009D02*
X189107142Y-67085771D01*
X189107142Y-67085771D02*
X189202380Y-67038152D01*
X189202380Y-67038152D02*
X189392856Y-67038152D01*
X189392856Y-67038152D02*
X189488094Y-67085771D01*
X189059523Y-67657200D02*
X189154761Y-67704819D01*
X189154761Y-67704819D02*
X189392856Y-67704819D01*
X189392856Y-67704819D02*
X189488094Y-67657200D01*
X189488094Y-67657200D02*
X189535713Y-67561961D01*
X189535713Y-67561961D02*
X189535713Y-67466723D01*
X189535713Y-67466723D02*
X189488094Y-67371485D01*
X189488094Y-67371485D02*
X189392856Y-67323866D01*
X189392856Y-67323866D02*
X189154761Y-67323866D01*
X189154761Y-67323866D02*
X189059523Y-67276247D01*
X188678570Y-67038152D02*
X188440475Y-67704819D01*
X188202380Y-67038152D02*
X188440475Y-67704819D01*
X188440475Y-67704819D02*
X188535713Y-67942914D01*
X188535713Y-67942914D02*
X188583332Y-67990533D01*
X188583332Y-67990533D02*
X188678570Y-68038152D01*
D11*
%TO.C,Display*%
X183750000Y-66250000D02*
X197750000Y-66250000D01*
X183750000Y-68250000D02*
X183750000Y-66250000D01*
X197250000Y-68250000D02*
X183750000Y-68250000D01*
X197750000Y-66250000D02*
X197750000Y-67750000D01*
X197750000Y-67750000D02*
X197250000Y-68250000D01*
%TD*%
M02*
