M48
; DRILL file {KiCad 8.0.2-1} date 2024-06-04T22:44:37+0200
; FORMAT={-:-/ absolute / inch / decimal}
; #@! TF.CreationDate,2024-06-04T22:44:37+02:00
; #@! TF.GenerationSoftware,Kicad,Pcbnew,8.0.2-1
; #@! TF.FileFunction,Plated,1,2,PTH
FMAT,2
INCH
; #@! TA.AperFunction,Plated,PTH,ViaDrill
T1C0.0118
; #@! TA.AperFunction,Plated,PTH,ComponentDrill
T2C0.0295
; #@! TA.AperFunction,Plated,PTH,ComponentDrill
T3C0.0315
; #@! TA.AperFunction,Plated,PTH,ComponentDrill
T4C0.0394
; #@! TA.AperFunction,Plated,PTH,ComponentDrill
T5C0.0433
; #@! TA.AperFunction,Plated,PTH,ComponentDrill
T6C0.0866
; #@! TA.AperFunction,Plated,PTH,ComponentDrill
T7C0.1181
%
G90
G05
T1
X5.5691Y-4.5333
X6.6339Y-2.5295
X6.7224Y-2.5394
X7.0374Y-2.8543
X7.0374Y-2.9429
X7.1358Y-2.8642
X7.1358Y-2.9429
X7.7087Y-2.2837
X7.7657Y-2.5492
T2
X1.9764Y-1.1614
X1.9764Y-1.2402
X2.3425Y-1.2402
X2.4213Y-1.2402
T3
X7.2736Y-2.6476
X7.3524Y-2.6476
X7.4311Y-2.6476
X7.5098Y-2.6476
X7.5886Y-2.6476
X7.6673Y-2.6476
X7.7461Y-2.6476
T4
X1.8783Y-2.0965
X1.898Y-2.8445
X1.9177Y-3.5827
X1.9177Y-4.3012
X2.0783Y-2.0965
X2.098Y-2.8445
X2.1177Y-3.5827
X2.1177Y-4.3012
X2.4114Y-2.6362
X2.4114Y-2.8362
X2.4114Y-4.7425
X2.4114Y-4.9425
X2.4606Y-3.3941
X2.4606Y-3.5941
X2.4902Y-4.0929
X2.4902Y-4.2929
X2.5969Y-2.0768
X2.7969Y-2.0768
X3.2185Y-4.7524
X3.2185Y-4.9524
X3.2283Y-1.7504
X3.2283Y-1.9504
X3.2382Y-3.2071
X3.2382Y-3.4071
X3.248Y-2.4295
X3.248Y-2.6295
X3.9272Y-3.9059
X3.9272Y-4.1059
X3.9567Y-4.5555
X3.9567Y-4.7555
X3.9665Y-2.3508
X3.9665Y-2.5508
X3.9764Y-1.6618
X3.9764Y-1.8618
X4.6654Y-3.8173
X4.6654Y-4.0173
X4.7146Y-2.3508
X4.7146Y-2.5508
X4.7146Y-3.2169
X4.7146Y-3.4169
X4.7343Y-1.6913
X4.7343Y-1.8913
X4.7539Y-4.5555
X4.7539Y-4.7555
X5.4528Y-2.4394
X5.4528Y-2.6394
X5.4626Y-3.1972
X5.4626Y-3.3972
X5.4626Y-4.0142
X5.4626Y-4.2142
X5.4724Y-1.711
X5.4724Y-1.911
X5.6828Y-5.0375
X5.7268Y-3.5039
X5.7345Y-4.8444
X5.9268Y-3.5039
X5.9488Y-5.2346
X6.122Y-5.3346
X6.2402Y-2.7248
X6.2402Y-2.9248
X6.2402Y-4.0142
X6.2402Y-4.2142
X6.3307Y-5.452
X6.337Y-2.4114
X6.4291Y-4.3693
X6.5039Y-5.552
X6.537Y-2.4114
X6.6024Y-4.4693
X6.761Y-4.811
X6.861Y-4.6378
X7.1606Y-1.2338
X7.1606Y-1.3338
X7.1606Y-1.4338
X7.1606Y-1.5338
X7.1606Y-1.6338
X7.1606Y-1.7338
X7.1606Y-1.8338
X7.1606Y-1.9338
X7.1606Y-2.0338
X7.1606Y-2.1338
X7.1606Y-2.2338
X7.1606Y-2.3338
X7.2425Y-3.1398
X7.2425Y-3.2677
X7.2425Y-3.3957
X7.2425Y-3.5236
X7.2425Y-3.6516
X7.2425Y-3.7795
X7.4425Y-3.1398
X7.4425Y-3.2677
X7.4425Y-3.3957
X7.4425Y-3.5236
X7.4425Y-3.6516
X7.4425Y-3.7795
X7.6264Y-3.1398
X7.6264Y-3.2677
X7.6264Y-3.3957
X7.6264Y-3.5236
X7.6264Y-3.6516
X7.6264Y-3.7795
X7.7606Y-1.2338
X7.7606Y-1.3338
X7.7606Y-1.4338
X7.7606Y-1.5338
X7.7606Y-1.6338
X7.7606Y-1.7338
X7.7606Y-1.8338
X7.7606Y-1.9338
X7.7606Y-2.0338
X7.7606Y-2.1338
X7.7606Y-2.2338
X7.7606Y-2.3338
X7.8264Y-3.1398
X7.8264Y-3.2677
X7.8264Y-3.3957
X7.8264Y-3.5236
X7.8264Y-3.6516
X7.8264Y-3.7795
T5
X7.3327Y-1.4173
X7.3327Y-1.5945
X7.5886Y-1.4173
X7.5886Y-1.5945
T6
X1.6535Y-4.9803
X1.6732Y-1.2008
X5.6398Y-1.1713
X6.0138Y-5.7087
X7.8051Y-4.2323
X8.002Y-1.2008
T7
X1.8882Y-1.5224
X1.8882Y-2.2705
X1.8882Y-3.0185
X1.8913Y-4.5244
X1.9835Y-3.7764
X2.1382Y-1.6224
X2.1382Y-2.3705
X2.1382Y-3.1185
X2.1413Y-4.6244
X2.2335Y-3.8764
X2.7293Y-2.2705
X2.7293Y-3.0185
X2.7293Y-3.7764
X2.7299Y-1.5165
X2.7315Y-4.5217
X2.9793Y-2.3705
X2.9793Y-3.1185
X2.9793Y-3.8764
X2.9799Y-1.6165
X2.9815Y-4.6217
X3.4827Y-1.3335
X3.4827Y-2.0835
X3.4827Y-2.8315
X3.4827Y-3.5795
X3.4827Y-4.3276
X3.7327Y-1.4335
X3.7327Y-2.1835
X3.7327Y-2.9315
X3.7327Y-3.6795
X3.7327Y-4.4276
X4.2333Y-3.4909
X4.2333Y-4.239
X4.2339Y-2.7382
X4.2346Y-1.2311
X4.2346Y-1.985
X4.4833Y-3.5909
X4.4833Y-4.339
X4.4839Y-2.8382
X4.4846Y-1.3311
X4.4846Y-2.085
X4.9827Y-1.3335
X4.9827Y-2.0835
X4.9827Y-2.8335
X4.9827Y-3.5835
X5.2327Y-1.4335
X5.2327Y-2.1835
X5.2327Y-2.9335
X5.2327Y-3.6835
X5.2738Y-4.4359
X5.4894Y-4.5972
X5.7327Y-1.426
X5.7327Y-2.176
X5.7327Y-2.9272
X5.7327Y-3.676
X5.9827Y-1.526
X5.9827Y-2.276
X5.9827Y-3.0272
X5.9827Y-3.776
X6.2654Y-4.7079
X6.4319Y-4.9195
X6.4827Y-1.802
X6.6807Y-3.0898
X6.7327Y-1.902
X6.7359Y-3.8914
X6.7807Y-2.8398
X6.9024Y-4.103
X6.913Y-5.0819
X7.0795Y-5.2935
X7.3874Y-4.267
X7.5539Y-4.4786
M30
